<?xml version="1.0" encoding="utf-8" ?>
<svg baseProfile="tiny" height="1080px" version="1.2" viewBox="0,0,1920,1080" width="1920px" xmlns="http://www.w3.org/2000/svg" xmlns:ev="http://www.w3.org/2001/xml-events" xmlns:xlink="http://www.w3.org/1999/xlink"><defs /><path d="M739,474 740,475 740,474 Z" fill="black" stroke="none" /><path d="M805,368 804,369 802,369 802,370 800,372 800,373 801,373 803,375 804,375 805,376 805,377 802,380 803,380 804,381 806,381 807,380 808,380 809,381 815,381 816,380 816,379 817,378 817,370 815,368 Z" fill="black" stroke="none" /><path d="M0,0 0,1079 785,1079 785,1078 784,1077 784,1076 783,1075 783,1069 784,1068 784,1058 785,1057 785,1053 786,1052 786,1046 787,1045 787,1039 788,1038 788,1037 789,1036 789,1035 790,1034 790,1026 791,1025 791,1021 793,1019 793,1017 794,1016 794,1007 795,1006 795,1004 796,1003 796,1002 797,1001 797,998 798,997 798,982 799,981 799,974 798,973 798,920 799,919 799,910 800,909 800,902 801,901 801,879 802,878 802,864 803,863 803,862 804,861 804,858 805,857 805,843 806,842 806,835 807,834 807,831 808,830 808,828 809,827 809,823 810,822 810,821 812,819 812,816 813,815 813,807 814,806 814,804 815,803 815,802 816,801 816,798 817,797 817,795 818,794 818,793 819,792 819,791 820,790 820,789 821,788 821,787 823,785 823,781 824,780 824,772 823,771 823,768 822,767 822,766 821,765 821,763 820,762 820,759 819,758 819,757 817,755 817,753 816,752 816,750 815,749 815,748 813,746 813,745 812,744 812,743 811,742 811,741 809,739 809,738 808,737 808,736 807,735 806,735 804,733 804,727 803,726 803,724 800,721 800,729 801,730 801,732 802,733 802,743 801,744 801,745 799,747 798,747 797,748 796,748 793,745 792,745 788,741 788,739 789,738 789,737 794,732 794,729 792,727 792,726 791,725 791,724 789,722 789,721 787,719 787,715 786,714 787,713 787,709 788,708 788,706 789,705 790,705 791,706 792,706 796,710 796,711 799,714 799,715 800,716 800,713 801,712 801,693 802,692 802,687 801,686 801,681 800,680 800,679 797,676 797,675 796,674 796,673 794,673 792,671 791,672 789,672 786,675 782,675 780,673 780,672 779,671 779,669 778,668 778,666 776,664 775,664 774,663 771,663 770,662 767,662 766,663 766,666 765,667 765,668 764,669 764,670 762,672 762,673 761,674 761,675 760,676 760,677 758,679 758,680 757,681 757,682 756,683 756,684 755,685 754,685 753,686 752,686 752,687 751,688 751,689 750,690 750,696 751,697 759,697 760,696 764,696 765,695 769,695 770,696 772,696 773,695 774,695 775,696 778,696 781,699 781,700 782,701 782,704 781,705 781,708 780,709 780,715 779,716 779,718 778,719 774,719 772,717 772,716 771,715 771,714 770,713 770,712 769,712 768,713 767,713 760,706 759,706 758,705 756,705 755,704 754,705 751,705 751,706 747,710 743,710 742,709 741,709 740,708 739,708 738,709 736,709 734,711 733,711 732,712 728,712 726,710 726,706 727,705 728,705 731,702 731,698 732,697 732,695 733,694 733,689 734,688 734,676 733,675 733,673 732,672 729,672 729,673 728,674 728,683 729,684 729,690 728,691 728,692 727,693 727,695 726,696 726,699 724,701 724,702 723,703 720,703 719,702 717,702 716,703 715,703 713,705 713,706 712,707 712,709 711,710 711,714 712,715 712,720 713,721 713,724 714,725 714,734 715,735 715,741 716,742 716,743 717,744 717,745 714,748 713,747 713,746 711,744 704,744 703,743 702,743 701,742 701,741 700,740 700,738 701,737 701,736 703,734 703,727 702,726 702,720 703,719 703,710 699,706 698,706 695,703 695,696 696,695 696,691 697,690 697,687 698,686 698,685 699,684 700,684 701,683 702,683 703,682 705,682 706,681 707,681 708,680 709,680 710,679 712,679 713,680 714,679 714,674 715,673 715,671 716,670 716,668 719,665 720,665 720,661 719,660 719,659 718,658 718,652 719,651 719,646 720,645 720,638 721,637 721,633 722,632 722,627 723,626 723,617 722,616 722,607 723,606 723,591 724,590 724,588 725,587 725,585 726,584 726,573 727,572 727,565 728,564 728,562 729,561 729,559 730,558 730,554 731,553 731,552 732,551 732,550 733,549 733,548 734,547 734,546 735,545 735,544 736,543 736,542 737,541 737,539 738,538 738,536 740,534 740,532 742,530 743,530 744,529 744,526 745,525 745,521 746,520 746,516 747,515 746,514 746,502 747,501 747,496 746,496 745,495 739,495 737,493 736,493 736,494 734,496 733,496 730,499 729,499 724,504 723,504 723,505 722,506 721,506 719,504 719,503 718,502 718,501 717,500 717,498 716,497 716,496 714,494 714,493 711,490 711,484 710,483 710,481 709,481 708,480 707,480 706,479 705,479 704,480 702,480 701,479 701,478 700,477 700,474 698,472 698,471 696,469 696,468 694,466 693,466 691,464 688,464 687,463 685,463 679,457 679,456 675,452 674,452 669,447 667,447 666,446 665,446 664,445 663,445 660,442 660,441 659,440 659,431 658,430 658,427 657,426 657,423 656,422 656,420 655,419 655,414 656,413 656,412 657,411 657,409 658,408 658,407 659,406 659,404 660,403 660,402 661,401 661,400 662,399 662,398 663,397 663,396 665,394 665,393 666,392 666,391 672,385 673,385 674,384 675,384 676,383 676,382 677,381 677,380 678,379 678,378 680,376 680,375 683,372 683,371 686,368 686,367 694,359 694,358 695,357 695,355 696,354 696,352 697,351 697,347 698,346 698,344 699,343 699,335 698,334 698,330 697,329 697,325 696,324 696,315 695,314 695,309 694,308 694,303 695,302 695,301 699,297 699,296 700,295 700,294 702,292 703,292 705,290 706,290 707,289 708,289 710,287 711,287 712,286 713,286 714,285 715,285 716,284 717,284 718,283 719,283 720,282 722,282 723,281 727,281 728,280 739,280 740,279 746,279 747,278 752,278 753,277 759,277 760,276 765,276 766,275 776,275 777,276 789,276 790,277 795,277 796,278 808,278 809,279 811,279 812,280 813,280 814,281 815,281 816,282 817,282 821,286 822,286 826,290 827,290 828,291 829,291 830,292 831,292 833,294 834,294 837,297 838,297 839,298 840,298 842,300 843,300 844,301 845,301 846,302 847,302 848,303 857,303 858,302 864,302 865,301 866,301 867,300 869,300 870,299 872,299 873,298 874,298 875,297 876,297 879,294 880,294 881,293 889,293 890,292 896,292 897,293 900,293 901,294 903,294 904,295 906,295 907,296 909,296 910,297 911,297 912,298 913,298 915,300 916,300 918,302 919,302 924,307 924,308 926,310 926,311 928,313 928,314 929,315 929,316 933,320 933,321 934,322 934,323 935,324 935,332 934,333 934,336 935,337 935,340 934,341 934,343 932,345 931,345 930,346 929,346 927,348 927,349 926,350 926,351 927,352 927,354 929,356 929,357 932,360 932,362 933,363 933,365 934,366 934,368 936,370 936,371 938,373 939,373 941,375 941,376 943,378 943,380 944,381 944,388 942,390 941,390 940,391 939,391 938,392 932,392 931,391 923,391 922,390 918,390 917,389 911,389 910,388 909,388 905,384 906,383 906,381 907,380 907,378 908,377 908,375 910,373 910,370 909,369 909,368 907,366 907,365 905,363 905,362 903,360 903,359 902,358 902,357 901,356 901,355 899,353 899,352 896,349 896,348 895,347 894,347 887,340 886,340 883,337 883,336 879,332 875,332 873,334 873,335 872,336 872,337 871,338 871,339 869,341 868,341 868,342 865,345 864,345 856,353 856,357 857,358 857,369 858,370 858,371 859,372 859,373 860,374 861,374 862,375 863,375 865,377 866,377 871,382 871,383 872,384 872,385 871,386 871,389 870,390 870,396 869,397 869,399 868,400 864,400 863,399 863,398 862,397 862,393 861,392 861,391 860,391 859,390 855,390 854,391 853,391 852,392 852,396 853,397 853,398 854,399 854,403 855,404 855,409 856,410 855,411 855,412 854,413 854,415 853,416 853,417 852,418 849,418 846,415 846,414 844,414 844,417 845,418 845,422 848,425 848,428 849,429 849,441 848,442 848,447 847,448 847,457 848,458 848,460 849,461 849,462 852,465 853,465 855,467 858,467 859,468 862,468 863,469 864,469 865,470 866,470 867,471 869,471 870,472 873,472 875,474 878,474 879,475 887,475 888,476 889,476 892,479 893,479 895,481 897,481 898,482 901,482 902,483 903,483 906,486 908,486 909,487 911,487 912,488 913,488 915,490 916,490 917,491 918,491 920,493 921,493 923,495 924,495 927,498 928,498 932,502 933,502 942,511 942,512 945,515 945,516 946,517 946,518 948,520 948,522 949,523 949,525 951,527 951,528 952,529 952,531 953,532 953,534 954,535 954,536 955,537 955,538 956,539 956,545 957,546 957,547 958,548 958,549 959,550 959,553 960,554 960,561 961,562 961,564 962,565 962,566 963,567 963,571 964,572 964,577 965,578 965,579 966,580 966,581 967,582 967,589 968,590 968,595 969,596 969,597 970,598 970,602 971,603 971,613 972,614 972,617 975,620 975,621 976,622 976,623 979,626 979,627 982,630 982,631 986,635 986,636 987,637 988,637 989,638 989,639 990,640 990,641 992,643 992,644 993,645 993,649 994,650 993,651 993,655 991,657 991,658 989,660 989,661 988,662 988,670 987,671 987,676 988,677 988,680 989,681 989,682 990,683 990,685 992,687 992,688 994,690 994,691 995,692 995,693 997,695 997,698 998,699 998,701 1000,703 1000,709 1001,710 1001,741 1002,742 1002,748 1003,749 1003,752 1004,753 1004,759 1005,760 1005,766 1006,767 1006,768 1007,769 1007,771 1008,772 1008,779 1009,780 1009,783 1011,785 1011,788 1012,789 1012,796 1013,797 1013,802 1014,803 1014,805 1015,806 1015,810 1016,811 1016,819 1017,820 1017,823 1018,824 1018,825 1019,826 1019,832 1020,833 1020,840 1021,841 1021,842 1022,843 1022,845 1023,846 1023,857 1024,858 1024,862 1025,863 1025,864 1026,865 1026,869 1027,870 1027,895 1028,896 1028,900 1029,901 1029,903 1030,904 1030,912 1031,913 1031,918 1030,919 1030,928 1028,930 1028,931 1027,932 1027,933 1023,937 1023,938 1017,944 1016,944 1014,946 1013,946 1011,948 1008,948 1007,949 1003,949 1002,950 997,950 996,951 990,951 989,952 985,952 984,953 983,953 982,954 981,954 979,956 978,956 976,958 976,959 973,962 973,964 972,965 972,970 973,971 973,972 974,973 974,975 975,976 975,977 977,979 977,980 979,982 980,982 986,988 986,989 989,992 990,992 991,993 992,993 993,994 994,994 997,997 998,997 1000,999 1000,1000 1001,1001 1001,1003 1002,1004 1002,1005 1003,1006 1003,1007 1004,1008 1004,1013 1002,1015 1001,1015 1000,1016 996,1016 995,1017 971,1017 970,1016 954,1016 953,1015 947,1015 946,1014 945,1014 944,1013 943,1013 933,1003 933,1002 925,994 924,994 921,991 920,991 919,990 917,990 916,989 914,989 912,987 911,987 910,986 908,986 905,983 904,983 902,981 901,981 892,972 892,971 889,968 889,967 888,966 888,965 887,964 887,956 888,955 888,951 889,950 889,947 891,945 891,944 892,943 892,940 893,939 893,938 895,936 895,935 896,934 896,932 899,929 899,928 909,918 910,918 911,917 911,916 913,914 914,914 915,913 921,913 922,912 924,912 927,909 929,909 930,908 931,908 932,907 935,907 936,906 937,906 938,905 939,905 939,904 940,903 940,902 942,900 943,900 946,897 946,895 947,894 946,893 946,889 947,888 947,879 946,878 946,877 945,876 945,875 944,874 944,873 940,869 940,868 938,866 938,864 937,863 937,858 936,857 936,854 934,852 934,850 933,849 933,846 932,845 932,843 931,842 931,841 930,840 930,839 929,838 929,836 928,835 928,834 927,833 927,832 926,831 926,829 925,828 925,826 924,825 924,824 923,823 923,822 922,821 922,819 921,818 921,817 920,816 920,815 919,814 919,813 918,812 918,808 917,807 917,805 915,803 915,802 914,801 914,799 913,798 913,797 911,795 911,794 910,793 910,788 909,787 909,785 908,784 907,784 905,782 905,781 904,782 902,782 901,783 901,785 900,786 900,788 899,789 899,790 898,791 898,793 897,794 897,797 896,798 896,802 895,803 895,804 894,805 894,806 893,807 893,808 892,809 892,811 890,813 890,814 889,815 889,818 888,819 888,820 887,821 887,822 886,823 886,824 885,825 885,827 884,828 884,829 882,831 882,832 881,833 881,834 880,835 880,836 878,838 878,840 877,841 877,845 876,846 876,848 875,849 875,850 874,851 874,856 873,857 873,861 871,863 871,865 870,866 870,872 869,873 869,875 868,876 868,877 867,878 867,881 866,882 866,891 865,892 865,894 864,895 864,897 863,898 863,901 862,902 862,908 861,909 861,910 860,911 860,912 859,913 859,919 858,920 858,925 857,926 857,927 856,928 856,930 855,931 855,935 854,936 854,938 853,939 853,940 852,941 852,943 851,944 851,948 850,949 850,950 849,951 849,952 848,953 848,956 847,957 847,961 846,962 846,964 845,965 845,967 844,968 844,975 843,976 843,979 842,980 842,981 841,982 841,983 840,984 840,985 839,986 839,987 838,988 838,989 837,990 837,992 836,993 836,999 835,1000 835,1012 836,1013 836,1029 837,1030 837,1032 838,1033 838,1034 839,1035 839,1036 840,1037 840,1054 841,1055 841,1056 843,1058 843,1060 844,1061 844,1063 847,1066 847,1067 848,1068 848,1071 849,1072 849,1074 848,1075 848,1079 1919,1079 1919,0 Z" fill="black" stroke="none" /></svg>