<?xml version="1.0" encoding="utf-8" ?>
<svg baseProfile="tiny" height="1080px" version="1.2" viewBox="0,0,1920,1080" width="1920px" xmlns="http://www.w3.org/2000/svg" xmlns:ev="http://www.w3.org/2001/xml-events" xmlns:xlink="http://www.w3.org/1999/xlink"><defs /><path d="M980,851 979,852 979,853 977,855 977,856 976,857 976,859 975,860 975,863 976,864 976,868 973,871 973,872 970,875 970,880 971,881 971,883 972,883 973,884 974,884 975,885 979,885 980,886 983,886 984,885 998,885 999,884 1010,884 1013,887 1016,887 1018,885 1018,884 1019,883 1019,882 1018,881 1018,879 1017,878 1017,877 1016,876 1015,876 1014,875 1014,874 1014,875 1012,877 1012,878 1010,880 1006,880 1004,878 1003,878 1002,877 1001,877 1000,876 999,876 997,874 997,867 998,866 998,865 999,864 999,860 998,859 997,859 996,858 994,858 993,857 990,857 989,858 988,858 987,857 986,857 985,856 985,855 981,851 Z" fill="black" stroke="none" /><path d="M0,0 0,1079 629,1079 629,1074 630,1073 630,1069 631,1068 631,1067 632,1066 632,1061 633,1060 633,1044 634,1043 634,1030 635,1029 635,1021 636,1020 636,1014 637,1013 637,1006 638,1005 638,1002 639,1001 639,999 640,998 640,994 641,993 641,988 642,987 642,985 643,984 643,982 644,981 644,978 645,977 645,975 646,974 646,972 647,971 647,968 648,967 648,964 649,963 649,960 650,959 650,958 651,957 651,955 652,954 652,950 653,949 653,947 654,946 654,944 655,943 655,940 656,939 656,937 657,936 657,935 658,934 658,932 659,931 659,929 660,928 660,926 661,925 661,924 662,923 662,920 663,919 663,915 664,914 664,904 665,903 665,901 666,900 666,898 667,897 667,894 668,893 668,891 669,890 669,889 672,886 672,883 673,882 673,879 674,878 675,878 676,877 677,877 678,876 678,875 681,872 681,870 682,869 682,867 683,866 683,864 684,863 684,861 685,860 685,856 686,855 686,849 687,848 687,846 688,845 688,842 689,841 689,836 690,835 690,830 691,829 691,827 692,826 692,824 693,823 693,820 694,819 694,816 695,815 695,814 696,813 696,811 697,810 697,806 698,805 698,803 699,802 699,801 700,800 700,798 701,797 701,795 702,794 702,792 703,791 703,789 704,788 704,784 705,783 705,771 706,770 706,762 707,761 707,759 708,758 708,755 709,754 709,753 710,752 715,752 716,751 722,751 723,750 725,750 726,749 728,749 729,748 730,749 732,749 735,752 735,753 736,754 736,761 737,761 738,760 739,760 740,759 740,756 741,755 741,754 743,752 743,751 746,748 746,744 741,739 741,738 739,736 739,735 738,734 738,731 739,730 739,729 740,728 741,728 742,727 744,727 745,726 755,726 756,725 763,725 764,726 772,726 773,725 782,725 783,726 785,726 786,727 787,727 788,728 789,728 790,729 790,730 791,731 791,734 790,735 790,737 789,738 789,740 787,742 786,742 785,743 785,744 784,745 784,749 787,752 787,755 782,760 782,764 785,767 785,768 786,769 786,770 785,771 785,772 784,773 784,774 783,775 783,776 782,777 782,779 783,780 783,782 784,783 784,789 783,790 783,793 781,795 781,796 779,798 779,799 778,800 778,804 777,805 777,812 776,813 776,815 773,818 773,820 772,821 772,824 771,825 771,827 769,829 769,832 772,835 772,836 774,838 774,840 777,843 778,843 779,842 779,841 778,840 778,838 781,835 782,835 785,838 785,839 784,840 784,842 783,843 783,846 784,847 784,849 786,851 786,852 787,853 788,853 790,855 790,858 789,859 789,860 788,861 788,862 786,864 786,865 780,871 780,872 779,873 779,875 778,876 778,877 776,879 775,879 774,880 773,880 772,881 771,881 770,882 770,884 769,885 769,887 768,888 768,890 767,891 767,892 766,893 766,896 765,897 765,900 764,901 764,903 763,904 763,905 762,906 762,907 761,908 761,910 760,911 760,912 758,914 758,915 757,916 757,917 755,919 755,920 754,921 754,922 753,923 753,924 750,927 750,928 747,931 747,932 742,937 742,938 740,940 740,941 739,942 739,944 738,945 738,948 737,949 737,951 736,952 736,954 735,955 735,957 734,958 734,959 733,960 733,961 732,962 732,963 731,964 731,966 730,967 730,969 729,970 729,973 728,974 728,979 727,980 727,987 726,988 726,990 725,991 725,994 724,995 724,1000 723,1001 723,1008 722,1009 722,1011 721,1012 721,1014 720,1015 720,1020 719,1021 719,1024 718,1025 718,1027 717,1028 717,1031 716,1032 716,1037 715,1038 715,1042 714,1043 714,1044 713,1045 713,1048 712,1049 712,1054 711,1055 711,1057 710,1058 710,1060 709,1061 709,1064 708,1065 708,1067 707,1068 707,1070 706,1071 706,1072 705,1073 705,1079 1022,1079 1022,1074 1021,1073 1021,1068 1020,1067 1020,1061 1019,1060 1019,1041 1018,1040 1018,1037 1017,1036 1017,1033 1016,1032 1016,1023 1015,1022 1015,1016 1014,1015 1014,1013 1013,1012 1013,1006 1012,1005 1012,995 1011,994 1011,989 1010,988 1010,984 1009,983 1009,980 1008,979 1008,978 1007,977 1007,976 1000,969 1000,968 999,967 999,966 998,965 998,960 997,959 997,955 996,954 996,952 995,951 995,950 994,949 994,948 992,946 992,945 990,943 990,942 987,939 987,938 986,937 986,936 985,935 985,934 984,933 984,931 983,930 983,924 982,923 982,920 981,919 981,918 980,917 980,916 979,915 978,915 975,912 975,911 973,909 973,908 972,907 972,906 971,905 971,903 970,902 970,901 968,899 968,897 967,896 967,895 964,892 964,890 963,889 963,887 962,886 962,884 961,883 961,881 960,880 960,876 959,875 958,875 953,870 953,869 952,868 952,866 951,865 951,864 949,862 949,858 948,857 948,855 949,854 949,853 951,851 951,850 952,849 952,843 954,841 958,841 959,842 960,842 961,843 964,840 965,840 967,838 967,836 966,835 966,833 965,832 965,831 964,830 969,825 970,825 971,824 972,824 974,826 975,826 976,827 977,827 978,828 980,828 981,827 982,827 982,826 984,824 985,824 986,823 988,823 989,824 989,825 992,828 992,829 993,830 993,834 992,835 992,838 993,838 995,840 996,840 997,839 999,839 1000,838 1000,833 999,832 999,829 1000,828 1000,826 999,825 999,820 1000,819 1000,818 1003,815 1003,814 1004,813 1004,807 1005,806 1005,805 1007,803 1009,803 1010,802 1011,803 1013,803 1016,806 1017,806 1019,808 1019,809 1020,810 1020,811 1021,812 1022,812 1023,813 1024,813 1025,814 1026,814 1028,816 1029,816 1033,820 1033,821 1036,824 1036,825 1038,827 1038,828 1039,829 1040,829 1041,830 1041,831 1042,832 1042,833 1043,834 1043,835 1044,836 1044,840 1043,841 1043,842 1041,844 1036,844 1034,842 1032,842 1031,843 1030,843 1028,845 1028,850 1029,851 1029,852 1030,853 1030,854 1031,855 1031,864 1032,865 1032,866 1033,867 1033,868 1034,869 1034,873 1035,874 1035,876 1034,877 1034,883 1041,883 1041,882 1042,881 1042,876 1043,875 1043,874 1044,873 1045,874 1045,875 1046,876 1046,877 1047,878 1047,879 1049,879 1050,878 1050,877 1051,876 1051,870 1050,869 1050,868 1051,867 1051,866 1052,865 1052,864 1055,861 1056,862 1056,863 1057,864 1057,866 1058,867 1058,868 1059,869 1059,871 1060,872 1060,880 1061,881 1061,883 1063,885 1063,886 1064,887 1064,891 1065,892 1065,894 1066,895 1066,896 1067,897 1067,900 1068,901 1068,904 1069,905 1069,907 1070,908 1070,909 1071,910 1071,911 1073,913 1073,914 1075,916 1075,917 1076,918 1076,919 1077,920 1077,922 1078,923 1078,934 1077,935 1077,936 1076,937 1076,938 1075,939 1080,944 1081,944 1082,945 1082,946 1083,947 1083,948 1084,949 1084,950 1085,951 1085,952 1086,953 1086,955 1087,956 1087,957 1088,958 1088,959 1090,961 1090,964 1091,965 1091,968 1092,969 1092,970 1093,971 1093,973 1094,974 1094,980 1095,981 1095,987 1096,988 1096,991 1097,992 1097,996 1098,997 1098,1008 1099,1009 1099,1017 1100,1018 1100,1026 1101,1027 1101,1033 1102,1034 1102,1058 1103,1059 1103,1071 1102,1072 1102,1079 1919,1079 1919,0 Z" fill="black" stroke="none" /></svg>