<?xml version="1.0" encoding="utf-8" ?>
<svg baseProfile="tiny" height="1080px" version="1.2" viewBox="0,0,1920,1080" width="1920px" xmlns="http://www.w3.org/2000/svg" xmlns:ev="http://www.w3.org/2001/xml-events" xmlns:xlink="http://www.w3.org/1999/xlink"><defs /><path d="M984,964 984,965 Z" fill="black" stroke="none" /><path d="M0,0 0,1079 766,1079 766,1056 767,1055 766,1054 766,1053 765,1052 765,1050 764,1049 764,1046 763,1045 763,1043 761,1041 761,1040 760,1040 759,1039 758,1039 755,1036 752,1036 751,1035 744,1035 743,1034 741,1034 740,1033 738,1033 737,1032 734,1032 733,1031 731,1031 730,1030 729,1030 728,1029 727,1029 726,1028 725,1028 724,1027 723,1027 709,1013 709,1012 708,1011 708,1010 706,1008 706,1007 705,1007 700,1002 700,1001 699,1000 699,999 696,996 696,995 695,994 695,991 693,993 693,995 692,996 690,996 689,995 688,995 687,994 687,993 686,992 686,989 685,988 685,984 687,982 688,982 691,985 693,985 694,984 695,984 695,980 694,979 694,977 693,976 693,971 694,970 694,968 693,967 693,963 692,962 692,954 693,953 693,952 694,951 694,950 695,949 695,948 697,946 697,945 698,944 698,943 699,942 699,929 700,928 699,927 699,919 698,918 698,917 695,914 695,913 694,912 694,885 695,884 695,881 694,880 694,874 693,873 693,868 692,867 692,863 691,862 691,861 690,860 690,855 689,854 689,849 691,847 692,847 693,846 695,846 695,841 694,840 694,839 693,838 693,836 692,835 692,834 691,833 691,832 690,831 690,828 689,827 689,818 688,817 688,808 687,807 687,805 686,804 686,803 685,802 685,800 684,799 684,797 682,795 681,795 680,794 679,794 677,792 677,793 676,794 676,795 675,796 675,797 674,798 674,799 672,801 669,798 668,798 667,799 665,799 665,811 666,812 666,813 667,814 667,815 670,818 670,823 669,824 668,824 667,825 666,825 665,826 662,826 660,828 660,829 659,830 659,831 658,832 658,833 657,834 657,835 656,836 656,839 655,840 655,842 654,843 654,844 653,845 653,847 651,849 651,850 649,852 646,852 645,851 645,850 643,848 643,847 639,843 639,842 638,841 638,838 637,837 637,833 636,832 636,829 635,828 635,824 634,823 634,818 635,817 635,813 634,812 634,811 633,810 633,809 632,808 632,803 631,802 631,800 630,800 630,802 629,803 629,807 628,808 627,807 627,800 626,799 626,797 625,796 625,793 624,792 624,791 623,790 623,788 622,787 622,784 621,783 621,781 620,780 620,775 619,774 620,773 620,768 619,767 619,763 620,762 620,761 622,759 623,759 624,758 624,756 625,755 625,750 626,749 626,747 624,745 621,745 620,744 618,744 617,743 615,743 614,742 610,742 609,741 609,742 608,743 608,745 607,746 607,747 606,748 607,749 607,751 606,752 606,753 605,754 604,754 603,755 602,755 599,752 599,747 598,746 598,744 593,739 592,739 590,737 588,737 587,736 585,736 584,735 583,735 579,731 579,730 578,729 578,725 577,724 577,721 576,720 576,719 575,718 575,717 577,715 577,714 578,713 579,713 580,712 580,711 584,707 584,706 585,705 585,703 590,698 591,698 592,697 594,697 596,695 597,695 598,694 599,694 600,693 602,693 606,697 606,698 607,699 607,702 608,703 607,704 607,722 608,723 608,726 609,727 614,727 615,726 617,726 618,727 619,727 620,728 621,728 622,729 623,729 625,731 625,732 626,733 626,736 627,737 627,738 628,738 631,735 632,735 633,734 635,734 636,735 636,738 637,739 637,746 638,747 638,750 639,751 639,753 640,752 643,752 644,751 647,751 649,753 649,754 650,755 651,754 651,747 650,746 650,744 649,743 649,742 648,741 648,735 647,734 647,731 646,730 646,728 645,727 645,724 644,723 644,719 643,718 643,716 642,715 642,713 641,712 641,708 640,707 640,702 639,701 639,700 638,699 638,698 637,697 637,692 636,691 636,686 635,685 635,684 634,683 634,682 633,681 633,679 632,678 632,671 631,670 631,668 629,666 629,665 628,664 628,662 627,661 627,658 626,657 626,652 625,651 625,649 626,648 626,647 627,646 627,645 628,644 628,643 632,639 632,638 633,637 633,636 635,634 635,632 636,631 636,628 637,627 637,625 638,624 638,623 639,622 639,621 640,620 640,618 641,617 641,615 642,614 642,613 643,612 643,610 644,609 644,605 645,604 645,603 646,602 646,601 648,599 648,598 649,597 649,596 651,594 651,588 650,587 650,580 654,576 656,576 657,575 666,575 668,577 669,577 672,574 672,573 673,572 673,570 674,569 674,566 675,565 675,564 676,563 676,562 677,561 677,559 678,558 678,556 679,555 679,554 681,552 681,551 682,550 682,549 684,547 684,546 686,544 686,543 687,542 687,541 689,539 689,538 690,537 690,536 692,534 692,533 693,532 693,530 695,528 695,527 696,526 696,524 697,523 697,513 698,512 697,511 697,507 696,506 696,503 694,501 694,500 693,499 693,497 692,496 692,483 693,482 693,479 694,478 694,476 695,475 695,473 694,472 694,471 693,470 692,470 691,469 691,468 690,467 688,467 687,466 684,466 683,465 681,465 680,464 679,464 678,463 677,463 676,462 675,462 674,461 673,461 671,459 670,459 665,454 665,453 663,451 663,449 662,448 662,447 661,446 661,445 660,444 660,439 659,438 659,429 658,428 658,424 657,423 657,421 656,420 656,415 655,414 655,409 654,408 654,406 653,405 653,403 652,402 652,397 651,396 651,392 650,391 650,387 649,386 649,380 648,379 648,369 647,368 647,363 646,362 646,359 647,358 647,341 648,340 648,335 649,334 649,324 648,323 648,321 647,320 647,319 645,317 645,316 642,313 642,312 641,311 641,310 640,309 640,307 638,305 638,303 637,302 637,295 636,294 636,291 635,290 635,287 634,286 634,269 635,268 635,264 636,263 636,259 637,258 637,253 638,252 638,251 639,250 639,249 640,248 640,246 641,245 641,243 643,241 643,240 644,239 644,238 648,234 648,233 649,232 649,231 651,229 651,228 652,227 652,226 654,224 655,224 656,223 656,222 659,219 659,218 663,214 663,213 667,209 667,208 673,202 674,202 677,199 678,199 680,197 681,197 684,194 686,194 687,193 688,193 689,192 690,192 691,191 693,191 694,190 697,190 698,189 700,189 701,188 703,188 704,187 706,187 707,186 709,186 710,185 711,185 712,184 713,184 714,183 715,183 716,182 717,182 718,181 719,181 720,180 721,180 722,179 726,179 727,178 731,178 732,177 736,177 737,176 746,176 747,177 748,177 749,178 750,178 751,179 767,179 768,180 772,180 773,179 793,179 794,178 795,178 796,177 797,177 798,178 800,178 803,181 804,181 806,183 807,183 808,184 811,184 812,185 813,185 814,186 816,186 817,187 819,187 821,189 822,189 823,190 824,190 825,191 827,191 828,192 829,192 830,193 831,193 832,194 835,194 836,195 839,195 841,197 842,197 843,198 844,198 845,199 846,199 847,200 848,200 849,201 851,201 852,202 853,202 854,203 855,203 856,204 857,204 859,206 860,206 862,208 863,208 864,209 865,209 874,218 874,219 876,221 876,222 877,223 877,224 878,225 878,226 879,227 879,228 880,229 880,230 882,232 882,233 886,237 886,238 888,240 888,241 889,242 889,243 890,244 890,245 891,246 891,247 892,248 892,251 893,252 893,256 894,257 894,259 895,260 895,262 896,263 896,265 897,266 897,269 898,270 898,271 899,272 899,275 900,276 900,280 901,281 901,283 902,284 902,285 903,286 903,287 904,288 904,291 905,292 905,295 906,296 906,298 907,299 907,311 908,312 908,328 907,329 907,333 906,334 906,336 904,338 904,339 903,340 903,341 900,344 900,345 899,346 899,347 897,349 897,350 896,351 896,352 895,353 895,354 893,356 893,357 892,358 892,359 889,362 889,363 886,366 886,367 885,368 885,369 883,371 883,372 882,373 882,374 881,375 881,376 878,379 878,380 877,381 877,382 876,383 876,384 873,387 873,388 871,390 871,391 869,393 869,394 862,401 861,401 860,402 859,402 857,404 857,405 856,406 856,411 855,412 855,419 856,420 856,422 857,423 857,424 859,426 863,426 864,427 866,427 870,431 871,431 873,433 874,433 875,434 894,434 895,435 897,435 899,437 901,437 902,438 906,438 907,439 908,439 910,441 912,441 913,442 915,442 916,443 917,443 919,445 922,445 923,446 924,446 925,447 926,447 927,448 928,448 929,449 934,449 935,450 936,450 938,452 940,452 941,453 945,453 946,454 947,454 949,456 950,456 951,457 953,457 954,458 955,458 960,463 960,464 967,471 968,471 970,473 970,474 972,476 972,477 974,479 984,479 985,480 987,480 989,482 991,482 992,483 995,483 997,485 998,485 999,486 1003,486 1004,487 1010,487 1011,488 1012,488 1013,489 1014,489 1015,490 1025,490 1026,489 1029,489 1030,488 1032,488 1033,487 1040,487 1041,488 1042,488 1043,489 1044,489 1045,490 1046,490 1047,491 1048,491 1051,494 1052,494 1058,500 1058,501 1059,501 1061,503 1061,504 1065,508 1065,509 1066,510 1067,510 1068,511 1068,512 1069,512 1073,516 1074,516 1075,517 1076,517 1078,519 1079,519 1081,521 1082,521 1085,524 1086,524 1093,531 1094,531 1099,536 1100,536 1111,547 1112,547 1119,554 1120,554 1123,557 1124,557 1133,566 1134,566 1155,587 1155,588 1156,588 1158,590 1158,591 1159,592 1160,592 1162,594 1162,595 1197,630 1198,630 1215,647 1215,648 1218,651 1218,652 1220,654 1220,655 1231,666 1232,666 1240,674 1241,674 1242,675 1242,676 1243,677 1244,677 1246,679 1246,680 1250,684 1250,685 1251,685 1252,686 1252,687 1255,690 1255,691 1258,694 1258,695 1260,697 1260,698 1262,700 1262,701 1263,702 1263,703 1264,704 1264,705 1265,706 1265,707 1266,708 1266,709 1267,710 1267,729 1266,730 1266,732 1265,733 1265,734 1264,735 1264,737 1263,738 1263,740 1261,742 1261,743 1260,744 1260,745 1259,746 1259,748 1258,749 1258,750 1256,752 1256,754 1253,757 1253,758 1252,759 1252,760 1249,763 1249,764 1246,767 1246,768 1241,773 1241,774 1237,778 1237,779 1233,783 1233,784 1229,788 1229,789 1227,791 1226,791 1226,792 1222,796 1222,797 1220,799 1219,799 1219,800 1212,807 1212,808 1201,819 1201,820 1190,831 1189,831 1184,836 1184,837 1182,839 1181,839 1169,851 1169,852 1163,858 1163,859 1161,861 1161,862 1160,863 1160,865 1159,866 1159,879 1160,880 1160,883 1161,884 1161,886 1162,887 1162,897 1163,898 1163,904 1164,905 1164,907 1165,908 1165,915 1166,916 1166,920 1165,921 1165,927 1164,928 1164,931 1163,932 1163,935 1162,936 1162,942 1161,943 1161,945 1160,946 1160,948 1159,949 1159,952 1158,953 1158,957 1157,958 1157,959 1156,960 1156,962 1155,963 1155,967 1154,968 1154,971 1153,972 1153,973 1152,974 1152,976 1151,977 1151,979 1150,980 1150,981 1149,982 1149,983 1147,985 1147,987 1143,991 1143,992 1142,993 1141,993 1140,994 1139,994 1137,996 1136,996 1135,997 1134,997 1133,998 1131,998 1130,999 1129,999 1125,1003 1125,1022 1124,1023 1124,1045 1123,1046 1123,1047 1122,1048 1122,1055 1123,1056 1123,1059 1124,1060 1124,1061 1125,1062 1125,1064 1126,1065 1126,1066 1127,1067 1127,1068 1128,1069 1128,1070 1130,1072 1130,1073 1133,1076 1133,1077 1134,1078 1134,1079 1266,1079 1266,1078 1267,1077 1271,1077 1272,1076 1273,1077 1280,1077 1281,1078 1281,1079 1916,1079 1916,1077 1917,1076 1919,1076 1919,0 Z" fill="black" stroke="none" /></svg>