<?xml version="1.0" encoding="utf-8" ?>
<svg baseProfile="tiny" height="1080px" version="1.2" viewBox="0,0,1920,1080" width="1920px" xmlns="http://www.w3.org/2000/svg" xmlns:ev="http://www.w3.org/2001/xml-events" xmlns:xlink="http://www.w3.org/1999/xlink"><defs /><path d="M639,1077 638,1078 638,1079 640,1079 640,1078 Z" fill="black" stroke="none" /><path d="M1344,1055 1345,1055 Z" fill="black" stroke="none" /><path d="M649,1002 649,1003 651,1003 651,1002 Z" fill="black" stroke="none" /><path d="M586,984 584,986 584,988 587,991 587,995 586,996 584,996 583,997 580,997 579,998 574,998 573,999 570,999 568,1001 567,1001 566,1002 566,1003 567,1003 568,1004 570,1004 571,1005 590,1005 591,1006 593,1006 594,1007 595,1007 596,1008 597,1008 599,1010 599,1012 597,1014 595,1014 594,1015 594,1017 593,1018 593,1020 594,1021 594,1025 605,1025 606,1024 606,1022 607,1021 607,1010 609,1008 610,1008 611,1007 620,1007 621,1006 622,1006 623,1005 623,1004 624,1003 622,1001 620,1001 619,1000 617,1000 616,999 612,999 610,997 609,997 608,996 607,996 606,995 605,995 604,994 602,994 599,991 599,989 598,988 598,986 597,985 596,985 595,984 Z" fill="black" stroke="none" /><path d="M750,978 749,979 748,979 746,981 744,981 743,982 742,982 741,983 739,983 738,984 729,984 728,985 728,986 727,987 727,989 728,990 728,991 727,992 727,993 724,996 723,996 722,997 720,997 719,998 716,998 715,999 707,999 706,1000 705,1000 704,1001 703,1001 702,1002 702,1004 701,1005 701,1008 700,1009 700,1011 698,1013 698,1014 697,1015 697,1016 696,1017 696,1019 695,1020 695,1021 694,1022 694,1024 693,1025 693,1027 692,1028 692,1029 691,1030 691,1031 690,1032 690,1035 689,1036 689,1038 688,1039 688,1040 686,1042 686,1043 685,1044 685,1046 684,1047 684,1048 683,1049 683,1050 682,1051 682,1052 681,1053 681,1055 680,1056 680,1057 679,1058 679,1059 678,1060 678,1065 679,1066 679,1067 682,1070 682,1071 683,1072 683,1076 682,1077 682,1079 837,1079 837,1078 838,1077 839,1077 840,1076 866,1076 867,1075 892,1075 893,1076 900,1076 902,1078 902,1079 1036,1079 1036,1078 1037,1077 1039,1077 1040,1076 1055,1076 1056,1077 1057,1077 1058,1078 1058,1079 1201,1079 1201,1078 1200,1077 1200,1076 1199,1075 1199,1074 1198,1073 1198,1063 1197,1062 1197,1059 1192,1054 1192,1053 1191,1052 1191,1051 1190,1050 1190,1049 1189,1048 1189,1045 1188,1044 1188,1041 1187,1040 1187,1039 1186,1038 1186,1037 1185,1036 1185,1035 1184,1034 1184,1029 1183,1028 1183,1025 1182,1024 1181,1024 1180,1023 1175,1023 1174,1022 1173,1022 1172,1021 1171,1021 1167,1017 1167,1016 1168,1015 1168,1006 1171,1003 1170,1002 1169,1002 1168,1001 1161,1001 1160,1002 1157,1002 1156,1003 1151,1003 1150,1002 1141,1002 1140,1001 1133,1001 1132,1000 1128,1000 1127,999 1115,999 1114,998 1110,998 1109,997 1079,997 1078,998 1077,998 1076,997 1068,997 1067,996 1049,996 1048,997 1026,997 1025,996 1019,996 1018,997 941,997 940,996 934,996 933,995 930,995 929,994 921,994 920,993 916,993 915,992 914,992 913,991 912,991 911,990 910,990 909,989 907,989 906,988 905,988 901,984 899,984 898,983 888,983 887,984 885,984 885,986 884,987 884,988 883,989 877,989 875,987 875,984 872,984 871,983 851,983 850,984 840,984 840,986 839,987 840,988 840,989 841,990 841,992 840,993 839,993 838,994 835,994 834,995 832,995 831,994 819,994 818,993 816,993 815,992 813,992 811,990 797,990 796,991 788,991 787,990 786,990 785,989 783,989 782,988 780,988 779,987 777,987 774,984 772,984 771,983 769,983 768,982 766,982 765,981 763,981 762,980 757,980 756,981 755,981 752,978 Z" fill="black" stroke="none" /><path d="M597,967 597,969 598,970 598,967 Z" fill="black" stroke="none" /><path d="M1029,966 1028,967 1023,967 1021,969 1021,970 1020,971 1020,973 1022,973 1023,974 1026,974 1027,975 1029,975 1030,974 1032,974 1033,973 1034,973 1034,972 1029,967 Z" fill="black" stroke="none" /><path d="M1054,964 1052,966 1052,969 1051,970 1051,972 1052,973 1055,973 1056,972 1056,970 1057,969 1057,965 1056,964 Z" fill="black" stroke="none" /><path d="M763,958 762,959 760,959 759,960 758,960 757,961 757,963 756,964 756,970 755,971 753,971 752,972 752,973 755,973 756,974 757,974 758,975 761,975 762,974 763,974 769,968 770,968 770,967 771,966 771,960 770,959 770,958 769,958 768,959 764,959 Z" fill="black" stroke="none" /><path d="M729,950 729,951 730,950 Z" fill="black" stroke="none" /><path d="M762,949 761,950 761,952 762,953 763,953 766,950 765,950 764,949 Z" fill="black" stroke="none" /><path d="M609,946 608,947 608,948 607,949 607,960 608,961 609,961 613,957 613,950 Z" fill="black" stroke="none" /><path d="M871,938 871,942 872,942 872,940 873,939 872,938 Z" fill="black" stroke="none" /><path d="M894,937 891,940 891,941 890,942 890,945 891,946 889,948 884,948 883,947 881,949 881,950 880,951 880,952 879,953 878,953 877,952 873,952 872,953 872,954 871,955 871,957 870,958 870,959 869,960 868,960 867,961 867,962 866,963 866,965 865,966 865,967 864,968 857,968 856,969 855,969 854,968 853,968 852,969 842,969 842,970 844,972 848,972 849,973 856,973 857,974 865,974 866,975 870,975 871,974 874,974 875,973 878,973 879,972 880,973 893,973 894,974 895,974 896,975 902,975 903,974 904,974 905,973 908,973 909,974 910,973 911,973 914,970 914,961 915,960 917,960 918,961 918,963 920,965 920,966 921,966 923,968 923,970 924,971 924,973 925,972 924,971 924,964 925,963 925,961 926,960 926,959 927,958 927,951 926,950 926,949 925,948 925,947 924,946 924,945 923,945 922,946 919,946 918,947 912,947 911,946 910,946 909,945 908,945 906,947 905,947 904,948 897,948 896,947 896,943 897,942 897,941 898,940 902,940 903,939 903,938 899,938 898,939 897,938 895,938 Z" fill="black" stroke="none" /><path d="M635,921 635,922 633,924 632,924 632,928 635,928 636,927 636,926 637,925 637,922 636,921 Z" fill="black" stroke="none" /><path d="M729,916 724,921 724,922 723,923 723,924 719,928 720,928 724,932 725,932 726,933 727,933 729,935 730,934 731,934 732,933 733,933 734,932 735,932 736,931 737,931 738,932 740,932 742,934 743,934 744,935 750,929 752,929 753,928 755,928 756,927 757,927 758,926 763,926 764,925 765,925 766,924 767,924 767,920 756,920 755,919 753,919 752,918 749,918 748,917 742,917 741,916 Z" fill="black" stroke="none" /><path d="M0,0 0,1079 550,1079 550,1078 547,1078 546,1077 543,1077 542,1076 538,1076 537,1075 534,1075 533,1074 531,1074 530,1073 528,1073 527,1072 525,1072 524,1071 523,1071 522,1070 522,1068 521,1067 521,1066 522,1065 522,1064 523,1063 523,1061 524,1060 524,1059 525,1058 525,1054 524,1053 524,1052 523,1051 523,1050 521,1048 521,1047 522,1046 522,1044 523,1043 523,1041 524,1040 524,1035 525,1034 525,1026 526,1025 526,1021 528,1019 531,1019 532,1020 534,1020 538,1016 539,1016 541,1014 539,1012 538,1012 536,1010 540,1006 541,1006 542,1005 544,1005 545,1004 547,1004 548,1003 555,1003 556,1002 557,1002 557,1001 556,1000 556,998 555,997 555,992 556,991 556,990 562,984 563,984 565,982 567,982 568,981 571,981 572,980 573,980 573,979 574,978 574,977 575,976 574,975 574,974 573,974 572,973 573,972 579,972 580,971 581,971 583,969 583,965 582,964 580,964 579,963 577,963 576,962 578,960 586,960 592,954 592,953 594,951 595,951 596,950 596,949 600,945 600,944 604,940 604,939 606,937 607,937 608,936 608,935 611,932 611,931 613,929 613,928 616,925 616,924 619,921 619,920 622,917 622,916 632,906 633,906 634,905 635,905 639,901 643,901 644,902 649,902 650,903 652,903 653,904 654,904 655,905 656,905 657,906 658,906 659,907 660,907 661,908 662,908 664,910 665,910 667,912 667,913 666,914 664,914 663,915 656,915 655,916 648,916 647,917 644,917 642,919 641,919 640,920 640,924 641,925 641,927 643,929 644,929 646,931 646,932 647,933 647,934 648,935 647,936 646,936 644,938 643,938 642,939 640,939 641,939 642,940 642,941 643,942 643,951 644,952 644,960 645,961 645,962 647,964 652,964 653,963 656,963 657,962 659,962 660,961 663,961 664,962 665,962 669,966 671,966 672,967 680,967 681,966 682,966 685,963 686,963 686,962 687,961 687,960 688,959 688,957 687,956 687,955 686,954 686,952 687,951 687,950 688,949 689,949 690,950 691,950 692,949 692,936 695,933 695,932 697,930 697,929 698,928 698,926 697,925 697,924 696,923 696,921 695,920 695,917 693,915 685,915 684,914 680,914 679,913 679,912 680,911 682,911 683,910 685,910 686,909 692,909 693,908 694,908 696,906 696,905 697,904 697,903 698,902 696,900 693,900 692,899 684,899 683,898 675,898 674,897 667,897 666,898 660,898 659,899 656,899 655,900 651,900 650,899 647,899 646,898 645,899 643,899 642,900 641,900 640,901 639,901 638,900 636,900 634,898 627,898 626,897 617,897 616,896 612,896 611,895 609,895 608,894 606,894 605,893 604,893 600,889 600,888 599,887 599,877 600,876 600,872 601,871 601,869 602,868 602,865 603,864 603,857 604,856 604,853 605,852 605,850 606,849 606,845 607,844 607,836 608,835 608,832 609,831 609,828 610,827 610,818 611,817 611,807 612,806 612,803 613,802 613,798 614,797 614,787 615,786 615,761 616,760 616,755 617,754 617,744 618,743 618,731 619,730 619,725 620,724 620,721 621,720 621,716 622,715 622,712 623,711 623,709 624,708 624,705 625,704 625,700 626,699 626,695 627,694 627,693 628,692 628,690 629,689 629,685 630,684 630,681 631,680 631,679 632,678 632,675 633,674 633,669 634,668 634,667 635,666 635,665 636,664 636,662 637,661 637,659 638,658 638,657 639,656 639,655 640,654 640,652 641,651 641,648 642,647 642,646 643,645 643,644 644,643 644,640 645,639 645,637 646,636 646,635 647,634 647,633 648,632 648,628 649,627 649,626 650,625 650,624 651,623 651,622 652,621 652,619 653,618 653,616 655,614 655,612 656,611 656,609 657,608 657,607 658,606 658,604 659,603 659,601 660,600 660,598 662,596 662,595 663,594 663,592 664,591 664,590 665,589 665,588 667,586 667,584 668,583 668,582 670,580 670,579 671,578 671,577 672,576 672,575 674,573 674,572 675,571 675,569 676,568 676,567 677,566 677,563 678,562 678,560 679,559 679,557 681,555 681,554 682,553 682,552 683,551 683,550 687,546 687,545 692,540 693,540 694,539 695,539 706,528 707,528 714,521 715,521 719,517 720,517 724,513 725,513 728,510 729,510 730,509 731,509 736,504 737,504 740,501 741,501 744,498 745,498 755,488 756,488 760,484 761,484 762,483 763,483 766,480 767,480 769,478 770,478 772,476 773,476 776,473 777,473 778,472 779,472 780,471 781,471 783,469 784,469 786,467 787,467 790,464 791,464 794,461 795,461 799,457 800,457 801,456 802,456 804,454 805,454 807,452 808,452 811,449 812,449 815,446 816,446 819,443 820,443 822,441 823,441 827,437 828,437 831,434 832,434 835,431 836,431 837,430 838,430 841,427 842,427 845,424 846,424 850,420 851,420 854,417 854,416 860,410 860,409 861,408 861,407 862,406 862,404 863,403 863,401 864,400 864,398 865,397 865,390 866,389 866,383 867,382 867,380 868,379 868,371 867,370 867,368 866,367 866,365 865,364 865,362 863,360 863,359 862,358 862,356 861,355 861,353 858,350 858,348 857,347 857,346 853,342 853,341 852,341 849,338 848,338 847,337 846,337 840,331 840,330 839,329 839,328 838,327 838,326 836,324 836,323 835,322 835,321 834,320 834,319 833,318 833,317 832,316 832,315 831,314 831,312 829,310 829,309 828,308 828,306 827,305 827,304 825,302 825,300 824,299 824,297 823,296 823,295 822,294 822,293 821,292 821,289 820,288 820,284 819,283 819,281 817,279 817,277 816,276 816,275 812,271 812,270 809,267 809,266 806,263 806,262 802,258 802,257 801,256 801,255 799,253 799,252 798,251 798,249 797,248 797,247 796,246 796,244 795,243 795,239 794,238 794,234 793,233 793,232 791,230 791,229 790,228 790,226 789,225 789,224 787,222 787,220 786,219 786,217 785,216 785,215 784,214 784,201 785,200 785,198 786,197 786,195 787,194 787,193 788,192 788,191 789,190 789,188 790,187 790,185 791,184 791,182 793,180 793,179 794,178 794,177 795,176 795,175 796,174 796,173 802,167 802,166 803,165 804,165 806,163 806,162 807,161 808,161 809,160 809,159 816,152 816,151 819,148 819,147 821,145 821,144 825,140 825,139 826,138 827,138 827,137 832,132 832,131 848,115 849,115 856,108 857,108 861,104 862,104 865,101 866,101 867,100 868,100 869,99 870,99 872,97 874,97 875,96 877,96 878,95 880,95 881,94 884,94 885,93 888,93 889,92 893,92 894,91 895,92 901,92 902,93 906,93 907,94 910,94 911,95 912,95 913,96 916,96 917,97 920,97 921,98 923,98 924,99 927,99 928,100 931,100 932,99 935,99 937,97 938,97 939,96 940,96 943,93 944,93 945,92 946,92 947,91 948,91 949,90 961,90 962,91 963,91 964,92 966,92 967,93 973,93 974,94 976,94 978,96 979,96 980,97 982,97 983,98 984,98 986,100 988,100 989,101 991,101 993,103 994,103 995,104 996,104 997,105 998,105 1000,107 1001,107 1002,108 1003,108 1004,109 1006,109 1008,111 1009,111 1010,112 1011,112 1012,113 1013,113 1020,120 1020,121 1029,130 1030,130 1034,134 1035,134 1039,138 1040,138 1043,141 1043,142 1049,148 1050,148 1055,153 1056,153 1058,155 1059,155 1065,161 1066,161 1068,163 1068,164 1071,167 1071,168 1072,169 1072,171 1073,172 1073,173 1074,174 1074,175 1076,177 1076,178 1077,179 1077,181 1078,182 1078,184 1077,185 1078,186 1078,192 1079,193 1079,195 1080,196 1080,203 1079,204 1079,206 1078,207 1078,208 1077,209 1077,211 1076,212 1076,214 1075,215 1075,217 1074,218 1074,221 1073,222 1073,225 1072,226 1072,227 1071,228 1071,229 1070,230 1070,232 1069,233 1069,234 1068,235 1068,238 1067,239 1067,241 1066,242 1066,244 1065,245 1065,247 1064,248 1064,250 1063,251 1063,252 1062,253 1062,255 1061,256 1061,260 1060,261 1060,264 1059,265 1059,269 1058,270 1058,276 1057,277 1057,283 1056,284 1056,286 1055,287 1055,288 1054,289 1054,292 1053,293 1053,295 1052,296 1052,298 1051,299 1051,300 1050,301 1050,303 1049,304 1049,306 1048,307 1048,308 1047,309 1047,310 1046,311 1046,312 1045,313 1045,314 1043,316 1043,317 1042,318 1042,319 1041,320 1041,321 1040,322 1040,323 1039,324 1039,325 1038,326 1038,328 1037,329 1037,330 1036,331 1036,333 1035,334 1035,339 1034,340 1034,345 1033,346 1033,351 1034,352 1034,362 1035,363 1035,366 1036,367 1036,369 1037,370 1037,373 1038,374 1038,380 1039,381 1039,382 1041,384 1042,384 1043,385 1044,385 1045,386 1047,386 1049,388 1050,388 1051,389 1052,389 1053,390 1054,390 1057,393 1058,393 1062,397 1063,397 1070,404 1071,404 1073,406 1073,407 1074,407 1082,415 1083,415 1090,422 1091,422 1095,426 1096,426 1099,429 1100,429 1102,431 1103,431 1106,434 1107,434 1110,437 1111,437 1114,440 1115,440 1117,442 1118,442 1119,443 1120,443 1123,446 1124,446 1127,449 1129,449 1131,451 1132,451 1133,452 1134,452 1135,453 1137,453 1138,454 1139,454 1141,456 1142,456 1143,457 1144,457 1145,458 1146,458 1148,460 1150,460 1152,462 1153,462 1155,464 1156,464 1157,465 1158,465 1160,467 1161,467 1162,468 1164,468 1167,471 1168,471 1171,474 1172,474 1173,475 1174,475 1175,476 1176,476 1179,479 1180,479 1184,483 1185,483 1189,487 1190,487 1193,490 1194,490 1197,493 1198,493 1204,499 1205,499 1219,513 1219,514 1233,528 1234,528 1240,534 1240,535 1241,536 1241,537 1242,538 1242,539 1243,540 1243,541 1245,543 1245,544 1248,547 1248,548 1249,549 1249,551 1250,552 1250,553 1251,554 1251,555 1252,556 1252,557 1253,558 1253,559 1254,560 1254,561 1255,562 1255,563 1256,564 1256,567 1257,568 1257,569 1259,571 1259,573 1260,574 1260,579 1261,580 1261,581 1262,582 1262,583 1263,584 1263,588 1264,589 1264,594 1265,595 1265,596 1266,597 1266,598 1267,599 1267,602 1268,603 1268,609 1269,610 1269,613 1270,614 1270,616 1271,617 1271,632 1272,633 1272,642 1273,643 1273,646 1274,647 1274,655 1275,656 1275,669 1276,670 1276,674 1277,675 1277,678 1278,679 1278,688 1279,689 1279,697 1280,698 1280,701 1281,702 1281,705 1282,706 1282,719 1283,720 1283,729 1284,730 1284,732 1285,733 1285,737 1286,738 1286,746 1287,747 1287,752 1288,753 1288,755 1289,756 1289,765 1290,766 1290,773 1291,774 1291,776 1292,777 1292,779 1293,780 1293,787 1294,788 1294,794 1295,795 1295,798 1296,799 1296,801 1297,802 1297,811 1298,812 1298,817 1299,818 1299,821 1300,822 1300,829 1301,830 1301,836 1302,837 1302,840 1303,841 1303,842 1304,843 1304,848 1305,849 1305,857 1306,858 1306,861 1307,862 1307,864 1308,865 1308,869 1309,870 1309,875 1310,876 1310,877 1313,880 1313,881 1316,884 1317,884 1318,885 1320,885 1321,886 1325,886 1326,885 1335,885 1336,886 1350,886 1351,885 1352,886 1358,886 1359,887 1377,887 1378,888 1379,888 1380,889 1382,889 1383,890 1382,891 1381,891 1380,892 1379,892 1378,893 1376,893 1375,894 1372,894 1371,895 1361,895 1360,896 1357,896 1356,897 1352,897 1351,898 1348,898 1345,901 1345,902 1344,903 1344,907 1345,908 1345,909 1347,911 1347,913 1346,914 1345,914 1343,916 1343,918 1342,919 1342,923 1343,924 1342,925 1342,935 1343,936 1343,937 1344,937 1345,938 1348,938 1351,935 1355,935 1356,936 1357,936 1358,937 1364,937 1365,938 1366,938 1367,939 1368,939 1371,942 1371,943 1370,944 1369,944 1368,945 1367,945 1366,946 1364,946 1363,947 1358,947 1357,948 1356,948 1355,949 1353,949 1352,950 1351,950 1349,948 1349,947 1348,946 1344,946 1343,947 1343,948 1342,949 1341,949 1340,950 1340,955 1341,956 1342,955 1344,955 1345,954 1346,954 1347,953 1350,953 1351,952 1352,952 1354,954 1355,954 1356,955 1358,955 1359,956 1360,955 1360,954 1361,953 1362,953 1363,952 1365,954 1365,956 1366,957 1366,958 1365,959 1365,964 1364,965 1364,973 1366,975 1366,976 1367,977 1367,978 1369,980 1369,981 1370,982 1370,983 1371,984 1372,984 1373,985 1374,985 1381,992 1381,995 1380,996 1379,996 1378,997 1366,997 1365,998 1360,998 1359,997 1357,997 1353,993 1352,993 1348,989 1348,988 1345,985 1345,984 1344,984 1340,980 1340,979 1341,978 1341,977 1345,973 1346,973 1347,972 1347,971 1346,970 1346,969 1344,967 1342,967 1341,966 1340,966 1340,967 1339,968 1339,969 1338,970 1338,977 1337,978 1337,979 1336,980 1336,981 1334,983 1334,987 1336,989 1338,989 1339,990 1342,990 1343,991 1343,993 1342,994 1342,995 1338,999 1337,999 1337,1000 1336,1001 1335,1001 1334,1002 1333,1002 1333,1006 1337,1010 1338,1010 1339,1011 1340,1011 1344,1015 1345,1015 1347,1017 1347,1019 1343,1023 1343,1024 1340,1027 1339,1027 1338,1028 1336,1028 1333,1031 1332,1031 1328,1027 1326,1027 1325,1028 1325,1038 1324,1039 1324,1044 1325,1045 1325,1048 1328,1045 1329,1045 1330,1044 1331,1044 1332,1043 1333,1043 1334,1042 1340,1042 1341,1043 1342,1043 1343,1044 1345,1044 1346,1045 1347,1045 1348,1046 1349,1046 1350,1047 1350,1051 1349,1052 1349,1055 1350,1056 1351,1056 1354,1059 1355,1059 1357,1061 1357,1062 1358,1063 1357,1064 1356,1064 1355,1065 1354,1065 1353,1066 1351,1066 1350,1067 1347,1067 1346,1066 1345,1066 1344,1065 1341,1065 1340,1064 1335,1064 1334,1063 1334,1062 1337,1059 1336,1058 1336,1057 1335,1056 1335,1055 1333,1053 1332,1053 1329,1056 1328,1056 1327,1057 1326,1057 1324,1059 1324,1063 1325,1064 1325,1067 1326,1068 1326,1070 1328,1072 1328,1077 1327,1078 1327,1079 1915,1079 1915,1078 1918,1075 1919,1075 1919,0 Z" fill="black" stroke="none" /></svg>