<?xml version="1.0" encoding="utf-8" ?>
<svg baseProfile="tiny" height="1080px" version="1.2" viewBox="0,0,1920,1080" width="1920px" xmlns="http://www.w3.org/2000/svg" xmlns:ev="http://www.w3.org/2001/xml-events" xmlns:xlink="http://www.w3.org/1999/xlink"><defs /><path d="M849,1077 848,1078 848,1079 854,1079 854,1078 853,1077 Z" fill="black" stroke="none" /><path d="M872,1076 871,1077 867,1077 866,1078 864,1078 864,1079 880,1079 880,1078 879,1077 877,1077 876,1076 Z" fill="black" stroke="none" /><path d="M968,1072 967,1073 963,1073 962,1074 959,1074 958,1075 955,1075 954,1076 950,1076 949,1075 935,1075 934,1076 930,1076 929,1077 922,1077 921,1078 917,1078 916,1077 911,1077 910,1078 910,1079 992,1079 992,1078 991,1077 988,1077 987,1076 984,1076 983,1075 982,1075 981,1074 980,1074 979,1073 978,1073 977,1072 Z" fill="black" stroke="none" /><path d="M901,953 901,955 900,956 900,958 902,960 903,960 904,959 906,959 907,958 907,957 904,954 903,954 902,953 Z" fill="black" stroke="none" /><path d="M922,933 921,934 919,934 918,935 917,935 917,936 916,937 916,938 915,939 915,944 916,945 916,948 917,949 917,950 920,950 924,946 924,944 925,943 925,942 926,941 926,940 927,939 927,938 926,937 926,935 924,933 Z" fill="black" stroke="none" /><path d="M848,897 847,898 849,900 851,898 850,897 Z" fill="black" stroke="none" /><path d="M916,893 915,894 914,894 914,897 915,898 915,899 916,900 916,901 917,901 918,902 924,902 924,901 925,900 925,898 924,897 924,896 922,894 920,894 919,893 Z" fill="black" stroke="none" /><path d="M935,892 935,893 934,894 935,894 Z" fill="black" stroke="none" /><path d="M930,826 928,828 928,829 927,830 930,833 930,836 931,837 931,839 935,843 935,844 937,846 937,849 938,850 938,851 939,852 939,853 932,860 933,860 935,862 936,862 939,865 939,866 940,866 944,870 944,871 945,872 945,875 944,876 943,876 942,877 936,877 935,878 932,878 931,879 930,879 930,880 929,881 929,883 931,885 933,885 935,887 935,889 935,887 936,886 937,886 938,885 943,885 944,886 945,886 946,887 958,887 959,886 965,886 966,887 967,887 968,888 970,888 971,889 972,889 974,891 974,893 975,894 975,900 974,901 975,901 976,902 979,902 980,903 983,903 984,904 988,904 989,903 993,903 994,902 998,902 999,901 1000,901 1002,899 1003,899 1007,895 1008,895 1011,892 1012,892 1013,891 1014,891 1015,890 1017,890 1018,889 1020,889 1021,888 1022,888 1023,887 1024,887 1028,883 1028,882 1027,881 1027,880 1025,878 1024,878 1023,877 1020,877 1019,876 1017,876 1016,875 1014,875 1013,874 1012,874 1011,873 1010,873 1009,872 1008,872 1006,870 1006,869 1005,869 1003,867 1003,866 1002,865 1002,860 997,855 996,855 993,852 993,850 992,849 992,839 993,838 993,837 992,836 992,831 991,830 982,830 981,829 980,829 979,830 977,830 972,835 970,835 969,836 968,835 967,835 966,834 965,834 963,832 963,831 962,831 961,830 959,830 958,829 953,829 952,830 947,830 946,829 944,829 943,828 942,828 941,827 939,827 938,826 Z" fill="black" stroke="none" /><path d="M759,759 Z" fill="black" stroke="none" /><path d="M737,669 739,671 739,672 740,673 743,673 744,674 745,673 746,673 746,672 745,671 745,670 744,669 Z" fill="black" stroke="none" /><path d="M796,667 796,671 795,672 795,681 796,682 796,683 798,685 798,686 799,687 799,689 800,690 800,693 800,688 801,687 801,678 800,677 800,674 798,672 798,671 797,670 797,668 Z" fill="black" stroke="none" /><path d="M0,0 0,1079 821,1079 821,1074 820,1073 820,1069 819,1068 819,1066 818,1065 818,1064 817,1063 817,1050 818,1049 818,1037 819,1036 819,1035 820,1034 820,1032 821,1031 821,1029 822,1028 822,1026 823,1025 823,1024 825,1022 825,1021 826,1020 826,1019 827,1018 827,1016 828,1015 828,1009 829,1008 829,1006 830,1005 830,1004 831,1003 831,993 832,992 832,989 833,988 833,987 834,986 835,986 836,985 839,985 841,983 843,983 844,982 845,982 846,983 846,986 847,987 847,988 848,988 849,989 850,989 851,990 853,990 855,992 856,992 859,995 859,1000 860,1001 861,1001 864,1004 865,1004 866,1003 868,1003 869,1002 871,1002 872,1001 878,1001 879,1002 887,1002 888,1001 891,1001 893,999 894,999 894,998 895,997 895,995 893,993 893,992 889,988 889,987 892,984 892,983 893,982 894,982 896,980 897,980 894,980 893,979 892,979 886,973 886,964 887,963 887,961 888,960 888,959 890,957 890,949 891,948 891,946 892,945 892,943 893,942 893,941 894,940 896,940 897,939 899,939 898,939 897,938 894,938 893,937 893,936 891,934 890,934 889,933 888,933 884,929 884,928 879,923 874,923 873,922 872,922 870,920 870,910 872,908 873,908 874,907 879,907 880,906 883,906 884,905 885,905 886,904 890,904 891,903 893,903 894,902 901,902 902,901 903,901 906,898 907,898 907,897 908,896 908,893 907,892 907,891 906,890 906,888 907,887 907,886 908,885 909,885 910,884 911,884 912,883 917,883 916,882 913,882 911,880 911,879 910,879 906,875 906,874 904,872 903,872 902,871 900,871 899,870 895,870 894,869 893,870 886,870 884,868 884,867 886,865 886,864 890,860 894,860 895,861 900,861 901,860 902,860 902,856 900,854 900,850 901,849 901,848 902,847 904,847 905,846 909,846 910,845 910,844 911,843 911,842 912,841 912,839 913,838 913,834 914,833 914,830 912,828 911,828 909,826 908,826 906,824 905,824 902,821 901,821 900,820 899,820 898,819 898,821 897,822 897,825 896,826 896,828 895,829 895,830 894,831 894,832 893,833 893,835 892,836 892,838 890,840 890,841 889,842 889,843 888,844 888,845 887,846 887,847 886,848 886,849 885,850 885,851 883,853 883,854 882,855 882,857 881,858 881,859 879,861 879,862 878,863 878,865 877,866 877,873 876,874 876,876 874,878 874,879 872,881 871,881 869,883 868,883 868,884 867,885 867,887 866,888 866,890 865,891 865,892 864,893 864,895 863,896 863,897 862,898 862,902 861,903 861,905 862,906 862,914 861,915 861,918 860,919 860,920 859,921 859,922 857,924 857,926 856,927 856,928 857,929 857,933 856,934 856,935 854,937 854,938 853,939 853,940 852,941 852,947 851,948 851,951 852,952 852,955 851,956 851,957 848,960 847,960 845,962 840,962 836,958 836,950 841,945 841,944 842,943 842,942 840,940 840,939 839,939 835,935 835,932 838,929 838,928 839,927 839,925 840,924 840,920 839,919 839,918 838,917 838,916 837,915 837,914 836,913 837,912 837,910 838,909 838,906 839,905 839,903 840,902 840,900 839,899 839,898 837,898 836,897 834,897 833,896 833,894 832,893 832,891 831,890 827,890 826,891 825,891 823,893 821,893 820,894 814,894 813,893 804,893 803,892 801,892 800,891 799,891 798,890 791,890 788,893 788,896 787,897 787,901 788,902 788,903 789,903 791,905 791,906 790,907 790,908 789,909 788,909 787,910 780,910 778,908 777,908 776,907 774,907 773,908 772,908 771,909 770,909 769,910 767,910 766,911 765,911 763,913 762,913 762,914 760,916 760,920 758,922 752,922 751,921 749,921 748,920 748,918 749,917 746,914 746,913 745,912 745,908 746,907 746,903 740,897 740,890 741,889 741,888 750,879 750,878 753,875 753,874 756,871 756,870 758,868 758,867 760,865 760,864 761,863 761,862 763,860 763,858 764,857 764,856 767,853 767,851 770,848 770,846 771,845 771,844 774,841 774,838 775,837 775,836 778,833 778,831 779,830 779,828 781,826 781,824 778,821 778,818 777,817 777,815 776,815 774,813 770,813 768,811 768,808 771,805 771,804 772,803 772,802 773,801 773,800 774,799 774,797 775,796 775,792 774,791 774,790 772,790 771,789 770,789 768,787 768,786 767,785 767,782 766,781 766,772 767,771 767,770 766,769 766,768 764,770 764,771 763,772 763,777 762,778 762,779 760,781 759,781 755,777 755,776 752,773 752,772 750,770 750,766 751,765 751,763 752,762 752,761 753,760 753,759 754,758 754,756 755,755 754,754 754,750 753,749 753,741 755,739 755,735 756,734 756,721 755,720 755,719 754,719 751,716 748,716 748,717 746,719 746,720 745,721 745,725 748,728 748,729 749,730 749,732 750,733 750,735 751,736 751,739 750,740 750,744 748,746 745,746 743,744 743,741 742,740 742,727 743,726 743,721 742,720 742,718 741,717 741,715 740,714 740,713 739,712 739,711 737,709 736,709 736,711 734,713 734,714 733,715 730,712 729,712 727,710 726,710 722,706 721,706 720,705 718,705 717,704 716,704 713,701 713,699 719,693 719,692 720,691 717,688 717,683 719,681 719,674 720,673 719,672 719,671 718,670 718,669 717,668 717,667 716,667 714,665 713,665 712,666 710,666 709,667 707,667 706,668 705,668 702,671 698,671 696,669 679,669 678,668 675,668 673,666 671,666 670,665 665,665 664,664 661,664 660,665 652,665 651,664 647,664 646,663 645,663 641,659 640,659 639,658 638,658 638,659 637,660 636,660 633,663 632,663 631,664 630,664 629,665 626,665 625,666 624,666 616,658 608,658 607,657 602,657 601,658 600,658 597,661 596,661 594,663 593,663 592,664 591,664 590,665 588,665 587,666 585,666 584,667 577,667 576,668 574,668 573,669 571,669 568,672 567,672 565,674 565,675 561,679 561,680 560,681 559,681 557,683 553,683 552,682 550,682 549,681 548,681 547,682 543,682 541,680 542,679 542,678 543,677 543,676 546,673 547,673 547,672 548,671 548,663 549,662 549,661 550,660 550,657 551,656 551,655 555,651 555,650 557,648 558,648 562,644 563,644 564,643 565,643 566,642 567,642 568,641 569,641 570,640 571,640 572,639 573,639 575,637 576,637 577,636 578,636 580,634 581,634 582,633 583,633 584,632 585,632 587,630 588,630 592,626 593,626 597,622 598,622 599,621 600,621 603,618 605,618 606,617 608,617 609,616 611,616 612,615 614,615 615,614 617,614 618,613 620,613 623,610 623,609 624,608 625,608 627,606 629,606 630,605 632,605 633,604 634,604 635,603 636,603 640,599 641,599 642,598 641,598 640,597 639,597 635,593 633,593 632,592 630,592 629,593 625,593 624,592 624,591 624,592 623,593 623,594 622,595 621,595 620,596 619,595 618,595 617,594 617,592 618,591 618,590 619,589 626,589 627,588 632,588 634,586 635,586 636,585 637,585 638,584 640,584 641,583 643,583 644,582 645,582 645,579 641,575 641,574 640,573 640,572 638,570 638,569 637,568 637,564 642,559 642,558 649,551 649,550 650,549 651,549 652,548 654,548 655,547 656,547 662,541 663,541 664,540 666,540 667,539 668,539 669,538 670,538 671,537 672,537 673,536 675,536 681,530 681,529 682,528 682,527 683,526 683,525 684,524 684,523 685,522 685,518 684,517 684,511 685,510 685,509 686,508 686,507 687,506 687,505 688,504 691,504 691,503 692,502 692,496 691,495 690,495 689,494 688,494 686,492 687,491 687,489 688,488 691,488 696,483 698,483 699,482 700,483 701,483 702,484 703,484 704,485 704,486 707,489 707,490 708,491 708,493 709,494 709,495 710,496 710,497 711,497 712,496 713,496 714,495 715,495 716,494 717,494 719,492 720,492 721,491 725,491 726,490 729,490 729,489 730,488 730,483 731,482 731,481 732,480 732,479 733,478 733,474 732,473 732,471 731,470 731,465 732,464 732,456 733,455 733,449 734,448 734,445 735,444 735,443 739,439 739,438 741,436 741,435 743,433 743,432 745,430 745,429 747,427 747,426 748,425 748,424 750,422 750,421 751,420 751,419 753,417 753,416 754,415 754,414 755,413 755,410 757,408 758,408 764,402 764,401 765,400 765,399 766,398 766,391 767,390 767,385 768,384 768,381 769,380 769,376 768,375 768,372 767,371 767,367 766,366 766,365 767,364 767,362 772,357 772,355 773,354 773,348 772,347 772,345 771,344 771,343 770,342 770,341 769,340 769,339 760,330 760,329 756,325 756,324 749,317 749,316 743,310 743,309 739,305 739,304 735,300 735,299 732,296 732,295 730,293 730,292 727,289 727,288 724,285 724,284 723,283 723,282 721,280 721,279 720,278 720,277 718,275 718,274 716,272 716,271 713,268 713,267 712,266 712,264 711,263 711,262 709,260 709,258 708,257 708,255 707,254 707,253 706,252 706,251 702,247 699,247 690,238 689,238 688,237 683,237 682,236 680,236 678,234 678,233 677,232 676,232 674,230 674,229 673,228 673,227 672,226 672,225 667,220 667,219 664,216 664,215 663,214 663,213 661,211 661,210 660,209 660,207 659,206 659,203 658,202 658,201 657,200 657,197 656,196 656,154 657,153 657,150 658,149 658,147 659,146 659,142 660,141 660,136 662,134 662,133 663,132 663,129 664,128 664,127 665,126 665,125 666,124 666,123 667,122 667,121 670,118 670,117 671,116 671,115 674,112 674,111 675,110 675,109 678,106 678,105 683,100 683,99 690,92 690,91 697,84 697,83 698,82 699,82 703,78 704,78 706,76 707,76 708,75 709,75 710,74 713,74 714,73 716,73 717,72 719,72 720,71 733,71 734,70 740,70 741,69 742,69 743,68 744,68 747,65 748,65 753,60 754,60 756,58 757,58 759,56 761,56 762,55 765,55 766,54 774,54 775,53 779,53 780,52 800,52 801,53 808,53 809,54 814,54 815,55 820,55 821,56 826,56 827,57 831,57 832,58 836,58 837,59 842,59 843,60 846,60 847,61 849,61 850,62 854,62 855,63 857,63 858,64 860,64 862,66 863,66 867,70 868,70 871,73 872,73 874,75 875,75 878,78 879,78 881,80 882,80 890,88 891,88 896,93 897,93 907,103 907,104 911,108 911,109 912,110 912,111 914,113 914,114 915,115 915,117 916,118 916,121 917,122 917,126 918,127 918,149 917,150 917,161 916,162 916,176 915,177 915,184 914,185 914,192 913,193 913,200 912,201 912,222 913,223 913,225 914,226 914,232 913,233 913,234 914,235 914,236 916,238 917,238 918,239 921,239 922,240 924,240 925,241 927,241 928,242 929,242 930,243 931,243 932,244 933,244 936,247 936,248 937,249 937,250 939,252 939,253 940,254 940,255 941,256 941,258 942,259 942,260 944,262 944,263 945,264 945,265 947,267 947,268 948,269 948,270 955,277 956,277 960,281 960,282 962,284 962,285 963,286 963,287 967,291 968,291 969,292 972,292 973,293 975,293 976,294 982,294 983,295 989,295 990,296 994,296 995,297 997,297 998,298 999,298 1000,299 1004,299 1005,300 1007,300 1008,301 1011,301 1012,302 1015,302 1016,303 1018,303 1023,308 1023,309 1024,310 1024,311 1025,312 1025,316 1026,317 1026,318 1028,320 1029,320 1031,322 1032,322 1033,323 1034,323 1035,324 1036,324 1037,325 1040,325 1041,324 1043,324 1044,323 1050,323 1051,324 1055,324 1056,325 1060,325 1061,326 1063,326 1064,327 1065,327 1066,328 1067,328 1068,329 1071,329 1072,330 1073,330 1075,332 1077,332 1078,333 1079,333 1080,334 1081,334 1083,336 1085,336 1086,337 1087,337 1089,339 1090,339 1091,340 1092,340 1093,341 1094,341 1096,343 1097,343 1098,344 1099,344 1103,348 1104,348 1107,351 1108,351 1111,354 1112,354 1117,359 1118,359 1128,369 1128,370 1134,376 1134,377 1137,380 1137,381 1140,384 1140,385 1144,389 1144,390 1147,393 1147,394 1148,395 1148,396 1151,399 1151,400 1152,401 1152,402 1154,404 1154,405 1156,407 1156,408 1157,409 1157,410 1158,411 1158,417 1159,418 1159,423 1160,424 1160,426 1161,427 1161,429 1162,430 1162,440 1163,441 1163,447 1164,448 1164,450 1165,451 1165,455 1166,456 1166,469 1167,470 1167,474 1168,475 1168,477 1169,478 1169,483 1170,484 1170,495 1171,496 1171,500 1172,501 1172,503 1173,504 1173,510 1174,511 1174,517 1175,518 1175,519 1176,520 1176,522 1177,523 1177,530 1178,531 1178,536 1179,537 1179,539 1180,540 1180,544 1181,545 1181,555 1182,556 1182,560 1183,561 1183,564 1184,565 1184,571 1185,572 1185,587 1186,588 1186,593 1187,594 1187,597 1188,598 1188,615 1189,616 1189,628 1190,629 1190,633 1191,634 1191,637 1192,638 1192,644 1193,645 1193,649 1194,650 1194,651 1195,652 1195,653 1196,654 1196,656 1197,657 1197,658 1198,659 1198,660 1199,661 1199,662 1200,663 1200,665 1201,666 1201,667 1203,669 1203,671 1204,672 1204,674 1206,676 1206,677 1207,678 1207,680 1208,681 1208,682 1210,684 1210,685 1211,686 1211,689 1212,690 1212,691 1214,693 1214,695 1215,696 1215,699 1216,700 1216,701 1218,703 1218,706 1219,707 1219,710 1220,711 1220,712 1221,713 1221,714 1222,715 1222,721 1223,722 1223,726 1225,728 1225,731 1226,732 1226,742 1227,743 1227,745 1228,746 1228,747 1229,748 1229,753 1230,754 1230,765 1231,766 1231,768 1232,769 1232,771 1233,772 1233,782 1234,783 1234,791 1235,792 1235,795 1236,796 1236,806 1235,807 1235,811 1234,812 1234,815 1233,816 1233,819 1232,820 1232,822 1230,824 1230,825 1229,826 1229,828 1227,830 1227,831 1226,832 1226,833 1224,835 1224,836 1222,838 1222,839 1212,849 1212,851 1211,852 1211,863 1210,864 1210,890 1211,891 1211,896 1212,897 1212,900 1213,901 1213,903 1214,904 1214,909 1215,910 1215,917 1216,918 1216,921 1217,922 1217,926 1218,927 1218,938 1219,939 1219,945 1220,946 1220,948 1221,949 1221,952 1222,953 1222,958 1223,959 1223,962 1224,963 1224,965 1225,966 1225,970 1226,971 1226,980 1227,981 1227,986 1228,987 1228,989 1229,990 1229,996 1230,997 1230,1008 1231,1009 1231,1012 1232,1013 1232,1016 1233,1017 1233,1023 1234,1024 1234,1032 1235,1033 1235,1035 1236,1036 1236,1039 1237,1040 1237,1052 1238,1053 1238,1062 1239,1063 1239,1065 1240,1066 1240,1075 1241,1076 1241,1079 1916,1079 1916,1077 1917,1076 1919,1076 1919,0 Z" fill="black" stroke="none" /></svg>