<?xml version="1.0" encoding="utf-8" ?>
<svg baseProfile="tiny" height="1080px" version="1.2" viewBox="0,0,1920,1080" width="1920px" xmlns="http://www.w3.org/2000/svg" xmlns:ev="http://www.w3.org/2001/xml-events" xmlns:xlink="http://www.w3.org/1999/xlink"><defs /><path d="M653,1072 649,1076 646,1076 645,1077 640,1077 639,1076 638,1076 637,1077 626,1077 625,1076 622,1076 621,1077 612,1077 611,1076 607,1076 606,1077 604,1077 603,1078 603,1079 660,1079 660,1077 659,1076 659,1074 657,1072 Z" fill="black" stroke="none" /><path d="M1243,1065 1242,1066 1235,1066 1233,1068 1233,1071 1235,1073 1235,1074 1233,1076 1232,1076 1231,1077 1227,1077 1226,1078 1225,1078 1225,1079 1269,1079 1269,1078 1268,1077 1265,1077 1264,1076 1263,1076 1261,1074 1260,1074 1259,1073 1258,1073 1257,1072 1256,1072 1249,1065 Z" fill="black" stroke="none" /><path d="M616,1035 614,1037 614,1038 613,1039 613,1047 616,1050 617,1049 617,1037 616,1036 Z" fill="black" stroke="none" /><path d="M592,996 591,997 586,997 585,998 574,998 573,999 570,999 568,1001 567,1001 566,1002 566,1003 568,1003 569,1004 573,1004 574,1005 588,1005 589,1006 591,1006 592,1007 593,1007 595,1009 596,1009 597,1010 595,1012 594,1012 592,1014 591,1014 589,1016 589,1017 588,1018 589,1019 590,1019 593,1022 594,1022 597,1025 600,1025 601,1026 605,1026 606,1027 607,1027 609,1029 610,1029 611,1030 613,1030 613,1029 614,1028 614,1012 613,1011 613,1010 614,1009 614,1007 615,1006 615,1005 616,1004 617,1004 618,1003 622,1003 621,1003 620,1002 618,1002 617,1001 616,1001 614,999 613,999 612,998 601,998 600,997 598,997 597,996 Z" fill="black" stroke="none" /><path d="M692,980 692,981 691,982 691,984 693,984 693,983 692,982 Z" fill="black" stroke="none" /><path d="M1052,963 1051,964 1049,964 1048,965 1047,965 1046,966 1046,967 1044,969 1044,971 1043,972 1045,972 1046,973 1051,973 1053,971 1053,969 1054,968 1055,968 1055,967 1056,966 1057,966 1058,965 1057,964 1056,964 1055,963 Z" fill="black" stroke="none" /><path d="M691,963 691,966 693,966 693,965 692,964 692,963 Z" fill="black" stroke="none" /><path d="M1080,961 1080,965 1081,965 1081,961 Z" fill="black" stroke="none" /><path d="M1016,961 1014,963 1013,963 1012,964 1011,964 1010,965 1009,965 1009,972 1010,973 1012,973 1013,974 1017,974 1018,975 1023,975 1024,974 1030,974 1031,973 1036,973 1037,972 1035,970 1035,969 1029,963 1028,964 1024,964 1023,963 1022,963 1021,962 1019,962 1018,961 Z" fill="black" stroke="none" /><path d="M954,948 953,949 951,949 950,950 948,950 948,951 951,954 951,956 952,957 952,964 953,965 953,969 954,970 954,971 955,970 956,970 957,969 957,968 958,967 958,957 959,956 959,950 958,949 955,949 Z" fill="black" stroke="none" /><path d="M654,946 651,949 651,952 653,954 652,955 652,956 651,957 652,957 653,958 654,958 655,957 655,954 658,951 658,948 657,947 656,947 655,946 Z" fill="black" stroke="none" /><path d="M654,939 655,939 Z" fill="black" stroke="none" /><path d="M672,936 670,938 670,939 669,940 669,942 668,943 668,944 667,945 667,946 666,947 666,953 667,954 667,955 666,956 666,957 668,959 668,960 670,962 671,962 673,964 674,964 675,965 678,965 679,966 680,966 682,964 682,963 683,962 683,959 682,958 682,957 683,956 683,953 686,950 686,949 688,947 689,948 689,950 690,950 691,951 692,950 692,945 691,944 691,943 690,944 689,944 689,945 688,946 686,944 686,941 685,940 685,939 684,939 682,937 681,937 680,936 Z" fill="black" stroke="none" /><path d="M924,933 924,939 923,940 923,943 922,944 922,945 920,947 919,947 918,946 917,946 916,945 914,945 911,948 910,948 909,949 907,949 905,951 904,951 903,952 902,952 901,953 900,953 899,954 896,954 895,953 892,953 891,954 891,958 890,959 889,959 887,961 886,961 885,960 884,960 883,959 882,960 882,963 881,964 881,967 880,968 880,970 879,971 878,970 877,970 875,968 875,965 874,964 874,962 873,961 873,960 872,959 871,960 871,963 870,964 870,968 869,969 869,974 870,975 870,977 867,980 866,980 865,981 859,981 858,982 856,982 855,981 850,981 849,980 848,980 847,981 840,981 839,982 838,982 837,983 835,983 834,984 832,984 837,989 838,989 840,991 840,993 837,996 832,996 831,995 828,995 827,994 826,994 825,993 823,993 821,991 824,988 824,984 820,984 819,983 810,983 809,984 807,984 806,985 799,985 797,987 797,989 796,990 796,991 795,992 793,992 792,993 786,993 785,992 783,992 782,991 782,988 778,984 777,984 776,983 775,983 774,982 773,982 771,980 770,980 769,979 750,979 749,980 747,980 746,981 745,981 743,983 742,983 741,984 740,984 736,988 738,990 739,990 740,991 739,992 738,992 737,993 736,993 735,994 734,994 732,996 729,996 728,997 725,997 724,998 718,998 717,999 716,999 713,1002 713,1004 712,1005 712,1007 711,1008 711,1009 710,1010 710,1011 709,1012 709,1015 708,1016 708,1018 707,1019 707,1020 705,1022 705,1023 704,1024 704,1026 703,1027 703,1029 702,1030 702,1031 701,1032 701,1034 700,1035 700,1037 699,1038 699,1039 698,1040 698,1041 697,1042 697,1045 696,1046 696,1051 695,1052 695,1053 694,1054 694,1055 693,1056 693,1057 690,1060 690,1061 688,1063 688,1064 689,1065 689,1067 690,1068 690,1070 691,1071 691,1073 692,1074 692,1079 848,1079 848,1078 849,1077 851,1077 852,1076 877,1076 878,1077 883,1077 884,1078 884,1079 1208,1079 1208,1078 1206,1076 1205,1076 1204,1075 1203,1075 1201,1073 1201,1072 1200,1071 1200,1060 1201,1059 1201,1058 1207,1052 1208,1052 1209,1051 1212,1051 1213,1050 1214,1050 1216,1048 1216,1047 1215,1047 1213,1045 1212,1045 1211,1044 1210,1044 1209,1043 1207,1043 1206,1042 1205,1042 1204,1041 1202,1041 1198,1037 1197,1037 1196,1036 1193,1036 1192,1037 1191,1037 1190,1038 1189,1038 1188,1037 1188,1035 1187,1034 1187,1033 1188,1032 1188,1024 1187,1023 1187,1020 1186,1019 1186,1018 1185,1017 1185,1015 1184,1014 1184,1012 1183,1011 1183,1009 1180,1006 1180,1005 1179,1004 1179,1002 1178,1002 1177,1001 1176,1001 1175,1000 1174,1000 1173,999 1170,999 1169,998 1160,998 1159,999 1156,999 1155,1000 1153,1000 1152,1001 1144,1001 1143,1000 1139,1000 1138,999 1117,999 1116,998 1110,998 1109,997 1106,997 1105,996 1096,996 1095,997 1088,997 1087,998 1071,998 1070,997 1066,997 1065,996 1044,996 1043,997 1029,997 1028,996 1013,996 1012,997 997,997 996,998 980,998 979,997 950,997 949,996 945,996 944,995 943,995 942,994 941,994 940,993 928,993 926,991 926,985 927,984 926,983 926,980 932,974 933,974 934,975 935,975 936,974 937,974 939,972 938,971 938,969 937,968 937,962 938,961 939,961 940,960 942,960 942,959 943,958 943,956 944,955 944,951 943,951 939,947 936,947 936,948 935,949 935,955 936,956 936,959 935,960 935,963 934,964 934,965 931,968 930,967 930,966 929,965 929,963 928,962 928,956 929,955 929,953 928,952 928,949 927,948 927,946 926,945 926,944 925,943 925,935 924,934 Z" fill="black" stroke="none" /><path d="M743,926 742,927 741,927 741,928 745,928 745,927 744,926 Z" fill="black" stroke="none" /><path d="M729,924 727,926 726,926 725,927 724,927 724,928 725,929 726,929 727,930 728,930 729,931 730,930 731,930 733,928 734,928 734,927 733,926 733,925 730,925 Z" fill="black" stroke="none" /><path d="M680,915 679,916 669,916 668,917 667,917 666,918 665,918 664,919 656,919 655,920 652,920 651,921 651,928 652,929 653,929 654,930 655,930 656,931 663,931 664,932 665,932 666,933 667,933 668,934 680,934 680,933 683,930 686,930 687,929 688,929 689,930 693,930 694,929 696,929 697,928 697,924 696,923 696,920 694,918 693,918 692,917 690,917 689,916 684,916 683,915 Z" fill="black" stroke="none" /><path d="M666,898 665,899 663,899 662,900 658,900 657,901 656,901 657,902 659,902 662,905 663,905 664,906 666,906 667,907 668,907 669,908 686,908 687,907 689,907 690,906 693,906 694,905 697,905 700,902 700,901 695,901 694,900 690,900 689,899 687,899 686,898 Z" fill="black" stroke="none" /><path d="M0,0 0,1079 571,1079 571,1078 566,1078 565,1077 550,1077 549,1076 546,1076 545,1075 542,1075 541,1074 538,1074 537,1073 534,1073 533,1072 531,1072 530,1071 528,1071 525,1068 525,1061 526,1060 526,1057 527,1056 527,1055 525,1053 525,1052 524,1051 524,1049 523,1048 523,1047 524,1046 524,1044 525,1043 525,1036 526,1035 526,1033 528,1031 529,1031 530,1030 533,1033 534,1033 535,1032 535,1031 536,1030 536,1028 537,1027 537,1026 538,1025 538,1024 539,1023 539,1021 542,1018 542,1016 543,1015 543,1013 541,1011 541,1009 542,1008 542,1007 544,1005 546,1005 547,1004 548,1004 549,1003 552,1003 553,1002 555,1002 555,1000 556,999 555,998 555,994 556,993 556,991 557,990 557,989 564,982 565,982 566,981 567,981 568,980 569,980 569,978 570,977 570,976 569,975 568,975 566,973 568,971 572,971 573,970 579,970 580,969 580,965 579,964 577,964 576,963 575,963 574,962 576,960 584,960 585,959 587,959 588,958 588,957 590,955 591,955 591,954 597,948 597,947 598,946 599,946 600,945 600,944 604,940 604,939 607,936 607,935 611,931 611,930 614,927 614,926 615,925 615,924 617,922 618,922 618,921 620,919 620,918 622,916 622,915 628,909 628,908 632,904 632,902 633,901 632,900 632,899 631,898 626,898 625,897 617,897 616,896 613,896 612,895 610,895 607,892 606,892 604,890 604,888 603,887 603,870 604,869 604,865 605,864 605,860 606,859 606,854 607,853 607,844 608,843 608,839 609,838 609,835 610,834 610,827 611,826 611,814 612,813 612,809 613,808 613,804 614,803 614,792 615,791 615,781 616,780 616,775 617,774 617,744 618,743 618,728 619,727 619,719 620,718 620,714 621,713 621,710 622,709 622,703 623,702 623,698 624,697 624,694 625,693 625,689 626,688 626,682 627,681 627,679 628,678 628,677 629,676 629,672 630,671 630,668 631,667 631,666 632,665 632,663 633,662 633,658 634,657 634,656 635,655 635,654 636,653 636,652 637,651 637,648 638,647 638,646 639,645 639,644 640,643 640,640 641,639 641,636 642,635 642,634 643,633 643,632 644,631 644,628 645,627 645,624 646,623 646,622 647,621 647,619 648,618 648,615 649,614 649,612 650,611 650,610 651,609 651,607 652,606 652,604 653,603 653,601 654,600 654,599 655,598 655,596 656,595 656,593 657,592 657,591 658,590 658,588 659,587 659,585 660,584 660,583 661,582 661,581 662,580 662,579 663,578 663,577 664,576 664,574 666,572 666,571 667,570 667,568 668,567 668,566 669,565 669,564 670,563 670,561 671,560 671,558 672,557 672,556 673,555 673,554 674,553 674,552 675,551 675,549 677,547 677,546 680,543 680,542 683,539 684,539 691,532 692,532 707,517 708,517 714,511 715,511 718,508 719,508 725,502 726,502 730,498 731,498 739,490 740,490 741,489 741,488 747,482 748,482 755,475 756,475 759,472 760,472 763,469 764,469 765,468 766,468 769,465 770,465 771,464 773,464 776,461 777,461 778,460 779,460 782,457 783,457 785,455 786,455 791,450 792,450 794,448 795,448 798,445 799,445 802,442 803,442 807,438 808,438 812,434 813,434 817,430 818,430 821,427 822,427 826,423 827,423 831,419 832,419 836,415 837,415 853,399 853,398 855,396 855,395 857,393 857,390 858,389 858,384 859,383 859,380 860,379 860,378 861,377 861,373 862,372 862,368 863,367 863,366 864,365 864,364 865,363 865,362 866,361 866,360 867,359 867,357 868,356 868,345 867,344 867,342 866,341 866,340 865,339 865,337 864,336 864,335 862,333 862,332 856,326 854,326 853,325 851,325 850,324 849,324 848,323 847,323 846,322 845,322 840,317 840,316 839,315 839,314 837,312 837,311 836,310 836,309 835,308 835,306 834,305 834,303 832,301 832,299 831,298 831,296 829,294 829,293 828,292 828,290 827,289 827,288 825,286 825,284 824,283 824,279 823,278 823,276 821,274 821,271 820,270 820,267 817,264 817,263 813,259 813,258 811,256 811,255 809,253 809,252 807,250 807,249 806,248 806,247 805,246 805,245 803,243 803,242 802,241 802,239 801,238 801,237 800,236 800,235 798,233 798,231 797,230 797,229 796,228 796,227 794,225 794,223 793,222 793,221 791,219 791,218 790,217 790,214 788,212 788,211 787,210 787,207 786,206 786,203 785,202 785,191 786,190 786,184 785,183 785,176 786,175 786,170 791,165 791,164 793,162 793,161 794,160 794,159 795,158 796,158 797,157 798,157 799,156 800,156 803,153 804,153 813,144 813,143 824,132 824,131 828,127 828,126 835,119 835,118 843,110 843,109 844,108 845,108 846,107 846,106 848,104 849,104 856,97 857,97 858,96 859,96 862,93 863,93 864,92 865,92 867,90 868,90 869,89 870,89 871,88 872,88 874,86 875,86 876,85 877,85 878,84 879,84 881,82 883,82 884,81 887,81 888,80 889,80 890,79 893,79 894,78 907,78 908,79 910,79 912,81 913,81 914,82 915,82 916,83 917,83 919,85 920,85 921,86 923,86 924,87 925,87 926,88 929,88 930,89 935,89 936,88 937,88 939,86 940,86 942,84 943,84 945,82 946,82 947,81 948,81 949,80 950,80 951,79 955,79 956,78 961,78 962,79 965,79 966,80 967,80 968,81 970,81 971,82 973,82 974,83 975,83 976,84 977,84 978,85 979,85 980,86 983,86 984,87 985,87 986,88 987,88 988,89 990,89 991,90 992,90 994,92 995,92 996,93 997,93 998,94 999,94 1003,98 1004,98 1006,100 1007,100 1008,101 1010,101 1017,108 1018,108 1022,112 1023,112 1028,117 1029,117 1032,120 1033,120 1034,121 1034,122 1035,123 1036,123 1037,124 1038,124 1039,125 1039,126 1040,126 1042,128 1043,128 1046,131 1047,131 1057,141 1058,141 1059,142 1060,142 1064,146 1065,146 1069,150 1069,151 1071,153 1072,153 1074,155 1074,157 1075,158 1075,160 1076,161 1076,162 1077,163 1077,170 1078,171 1078,173 1079,174 1079,175 1080,176 1080,180 1081,181 1081,192 1080,193 1080,194 1079,195 1079,196 1078,197 1078,198 1077,199 1077,200 1076,201 1076,203 1075,204 1075,208 1074,209 1074,212 1073,213 1073,216 1072,217 1072,219 1071,220 1071,222 1070,223 1070,224 1069,225 1069,228 1068,229 1068,232 1067,233 1067,235 1066,236 1066,238 1065,239 1065,242 1064,243 1064,246 1063,247 1063,248 1062,249 1062,253 1061,254 1061,267 1060,268 1060,272 1059,273 1059,274 1058,275 1058,278 1057,279 1057,282 1056,283 1056,284 1055,285 1055,286 1054,287 1054,288 1053,289 1053,292 1052,293 1052,294 1051,295 1051,296 1050,297 1050,298 1049,299 1049,300 1048,301 1048,302 1046,304 1046,305 1045,306 1045,308 1043,310 1043,311 1042,312 1042,314 1041,315 1041,316 1039,318 1039,319 1038,320 1038,321 1037,322 1037,323 1036,324 1036,326 1035,327 1035,330 1034,331 1034,334 1033,335 1033,343 1032,344 1032,351 1033,352 1033,360 1034,361 1034,364 1036,366 1036,367 1037,367 1039,369 1040,369 1046,375 1047,375 1050,378 1051,378 1053,380 1054,380 1056,382 1057,382 1064,389 1065,389 1069,393 1070,393 1073,396 1074,396 1077,399 1078,399 1080,401 1081,401 1084,404 1085,404 1088,407 1089,407 1090,408 1091,408 1095,412 1096,412 1100,416 1101,416 1105,420 1106,420 1109,423 1110,423 1111,424 1112,424 1114,426 1115,426 1116,427 1117,427 1119,429 1120,429 1121,430 1122,430 1123,431 1124,431 1125,432 1126,432 1128,434 1129,434 1130,435 1131,435 1133,437 1134,437 1135,438 1137,438 1138,439 1139,439 1141,441 1142,441 1143,442 1145,442 1147,444 1148,444 1149,445 1150,445 1151,446 1152,446 1153,447 1154,447 1156,449 1157,449 1158,450 1159,450 1161,452 1162,452 1163,453 1164,453 1167,456 1168,456 1169,457 1170,457 1174,461 1175,461 1178,464 1179,464 1180,465 1181,465 1186,470 1187,470 1189,472 1190,472 1194,476 1195,476 1196,477 1196,478 1197,478 1201,482 1202,482 1211,491 1212,491 1233,512 1233,513 1234,514 1234,515 1236,517 1236,518 1240,522 1240,523 1241,524 1241,525 1242,526 1242,528 1243,529 1243,530 1244,531 1244,532 1245,533 1245,535 1247,537 1247,538 1248,539 1248,541 1249,542 1249,545 1251,547 1251,548 1252,549 1252,553 1253,554 1253,557 1254,558 1254,559 1255,560 1255,563 1256,564 1256,568 1257,569 1257,571 1258,572 1258,573 1259,574 1259,577 1260,578 1260,583 1261,584 1261,586 1262,587 1262,589 1263,590 1263,602 1264,603 1264,615 1265,616 1265,619 1266,620 1266,626 1267,627 1267,636 1268,637 1268,641 1269,642 1269,644 1270,645 1270,651 1271,652 1271,661 1272,662 1272,665 1273,666 1273,668 1274,669 1274,675 1275,676 1275,686 1276,687 1276,690 1277,691 1277,694 1278,695 1278,702 1279,703 1279,710 1280,711 1280,713 1281,714 1281,716 1282,717 1282,727 1283,728 1283,733 1284,734 1284,735 1285,736 1285,741 1286,742 1286,749 1287,750 1287,753 1288,754 1288,755 1289,756 1289,760 1290,761 1290,770 1291,771 1291,773 1292,774 1292,776 1293,777 1293,785 1294,786 1294,791 1295,792 1295,794 1296,795 1296,797 1297,798 1297,807 1298,808 1298,812 1299,813 1299,815 1300,816 1300,821 1301,822 1301,829 1302,830 1302,832 1303,833 1303,835 1304,836 1304,840 1305,841 1305,847 1306,848 1306,851 1307,852 1307,854 1308,855 1308,859 1309,860 1309,863 1310,864 1310,865 1311,866 1311,868 1312,869 1312,875 1313,876 1313,880 1314,881 1314,883 1315,884 1315,886 1316,887 1316,891 1317,892 1317,893 1320,896 1321,896 1322,897 1323,897 1324,898 1332,898 1333,899 1338,899 1339,900 1340,900 1342,902 1342,907 1343,908 1343,909 1342,910 1342,913 1341,914 1341,915 1340,916 1340,921 1341,922 1341,933 1340,934 1340,945 1339,946 1339,948 1338,949 1338,951 1337,952 1337,955 1336,956 1336,960 1337,961 1337,964 1338,965 1338,980 1336,982 1336,983 1335,984 1336,985 1336,987 1337,987 1338,988 1339,988 1340,989 1342,989 1343,988 1345,988 1345,985 1341,981 1341,978 1342,977 1342,976 1344,974 1345,974 1346,973 1349,973 1350,974 1353,974 1354,975 1357,975 1358,976 1363,976 1367,980 1367,981 1368,982 1368,984 1369,985 1369,986 1371,988 1374,988 1375,989 1377,989 1379,991 1379,995 1378,996 1373,996 1372,997 1369,997 1368,998 1367,998 1363,1002 1358,1002 1357,1001 1355,1001 1353,999 1352,999 1350,997 1349,997 1348,996 1343,996 1342,997 1341,997 1340,998 1339,998 1338,999 1336,999 1335,1000 1333,1000 1331,1002 1331,1006 1333,1008 1334,1008 1335,1009 1337,1009 1338,1010 1341,1010 1342,1009 1347,1009 1348,1010 1349,1010 1352,1013 1352,1014 1354,1016 1354,1017 1355,1018 1355,1019 1356,1020 1357,1020 1362,1025 1361,1026 1360,1026 1359,1027 1358,1027 1357,1028 1354,1028 1353,1029 1351,1029 1349,1031 1348,1031 1347,1032 1346,1031 1345,1031 1344,1030 1340,1030 1339,1029 1337,1029 1335,1027 1334,1027 1333,1026 1329,1026 1327,1028 1327,1030 1326,1031 1326,1034 1327,1035 1327,1042 1328,1043 1328,1046 1329,1047 1329,1049 1330,1050 1330,1051 1331,1052 1331,1053 1333,1055 1335,1055 1338,1058 1338,1059 1340,1061 1340,1060 1341,1059 1341,1055 1340,1054 1336,1054 1335,1053 1335,1050 1334,1049 1334,1048 1335,1047 1335,1045 1338,1042 1338,1041 1339,1040 1339,1037 1340,1036 1342,1036 1343,1035 1348,1035 1349,1036 1349,1043 1350,1044 1350,1045 1351,1046 1351,1047 1352,1048 1352,1050 1353,1051 1353,1052 1354,1053 1354,1054 1358,1058 1359,1058 1364,1063 1363,1064 1363,1065 1362,1066 1362,1067 1361,1068 1361,1070 1360,1071 1356,1071 1355,1072 1346,1072 1345,1071 1344,1071 1343,1070 1343,1069 1342,1068 1342,1067 1341,1066 1341,1065 1340,1064 1338,1066 1337,1066 1336,1067 1336,1068 1333,1071 1333,1072 1332,1073 1332,1075 1331,1076 1331,1077 1330,1078 1330,1079 1915,1079 1915,1078 1916,1077 1916,1076 1917,1075 1919,1075 1919,0 Z" fill="black" stroke="none" /></svg>