<?xml version="1.0" encoding="utf-8" ?>
<svg baseProfile="tiny" height="1080px" version="1.2" viewBox="0,0,1920,1080" width="1920px" xmlns="http://www.w3.org/2000/svg" xmlns:ev="http://www.w3.org/2001/xml-events" xmlns:xlink="http://www.w3.org/1999/xlink"><defs /><path d="M0,0 0,163 1,163 2,164 2,165 3,166 3,189 2,190 2,193 1,194 0,194 0,1079 720,1079 720,1077 719,1076 719,1072 720,1071 720,1069 724,1065 725,1065 726,1064 730,1064 731,1063 732,1063 733,1062 734,1062 735,1061 741,1061 742,1060 750,1060 751,1059 753,1059 755,1057 757,1057 758,1056 759,1056 761,1054 762,1054 763,1053 764,1053 767,1050 768,1050 770,1048 771,1048 771,1047 772,1046 773,1046 777,1042 778,1042 783,1037 783,1036 784,1035 784,1034 786,1032 786,1031 787,1030 787,1029 788,1028 788,1027 790,1025 790,1024 791,1023 791,1022 792,1021 792,1017 790,1015 790,1014 782,1006 782,1005 780,1003 780,1001 779,1000 779,991 778,990 778,985 777,984 777,983 776,982 776,980 775,979 775,970 774,969 774,967 773,966 773,965 772,964 772,963 771,962 771,959 770,958 770,956 768,954 768,935 767,934 767,931 766,930 766,929 765,928 765,926 764,925 764,921 763,920 763,918 761,916 761,914 760,913 760,909 758,907 758,906 757,905 757,904 756,903 756,901 754,899 754,898 753,897 753,896 752,895 752,894 751,893 751,892 749,890 749,887 748,886 748,885 746,883 746,881 745,880 745,878 744,877 744,876 742,874 742,872 741,871 741,869 740,868 740,867 738,865 738,863 736,861 736,860 734,858 734,857 733,856 733,855 731,853 731,852 730,851 730,849 728,847 728,846 727,845 727,844 726,843 726,841 723,838 723,836 721,834 721,833 720,832 720,831 719,830 719,829 716,826 716,824 715,823 715,822 713,820 713,819 712,818 712,816 711,815 711,814 709,812 709,811 708,810 708,807 707,806 707,805 706,804 706,803 705,802 705,799 704,798 704,781 705,780 705,777 707,775 707,772 708,771 708,766 709,765 709,763 711,761 711,758 712,757 712,754 714,752 714,751 715,750 715,747 716,746 716,744 718,742 718,741 719,740 719,737 720,736 720,734 721,733 721,732 722,731 722,730 723,729 723,725 724,724 724,723 725,722 725,721 726,720 726,718 727,717 727,714 729,712 729,711 730,710 730,707 731,706 731,705 732,704 732,703 733,702 733,701 734,700 734,698 735,697 735,695 737,693 737,692 738,691 738,689 739,688 739,687 741,685 741,683 742,682 742,680 745,677 745,674 746,673 746,671 747,670 747,669 748,668 748,667 749,666 749,662 750,661 750,660 751,659 751,658 752,657 752,656 753,655 753,652 754,651 754,650 756,648 756,647 757,646 757,645 765,637 765,636 768,633 768,632 769,631 769,630 772,627 772,626 773,625 773,624 775,622 775,621 779,617 779,616 782,613 782,612 784,610 784,609 786,607 786,606 787,605 787,604 789,602 789,599 790,598 790,587 791,586 791,582 792,581 792,579 793,578 793,576 794,575 794,570 795,569 795,565 796,564 796,555 795,554 795,552 794,551 794,549 793,548 793,547 792,546 792,545 791,544 791,542 790,541 790,539 789,538 789,536 788,535 788,534 787,533 787,532 786,531 786,528 785,527 785,526 784,526 781,523 779,523 778,522 776,522 775,521 774,521 773,520 772,520 770,518 769,518 768,517 767,517 766,516 755,516 754,515 748,515 747,514 746,515 739,515 738,516 737,516 734,519 734,520 732,522 732,523 727,528 726,528 725,529 724,529 722,531 721,531 720,532 719,532 718,533 711,533 710,534 702,534 701,533 694,533 693,532 681,532 680,531 665,531 664,532 649,532 648,533 641,533 640,534 638,534 637,535 634,535 633,536 628,536 627,537 622,537 621,538 619,538 618,539 615,539 614,540 611,540 610,541 587,541 583,537 582,537 578,533 578,532 577,531 577,529 576,528 576,516 577,515 577,512 578,511 578,510 584,504 585,504 588,501 588,500 589,499 589,497 590,496 589,495 589,492 590,491 590,490 593,487 594,487 595,486 597,486 598,485 599,485 600,484 600,483 607,476 607,475 609,473 609,472 613,468 614,468 618,464 618,463 619,462 619,460 620,459 620,458 621,457 621,456 626,451 626,450 628,448 628,445 629,444 629,442 630,441 630,438 631,437 631,434 632,433 632,430 633,429 633,426 634,425 634,424 635,423 635,421 636,420 636,419 637,418 637,413 638,412 638,408 639,407 639,406 638,405 638,403 637,402 637,398 638,397 638,393 637,392 637,390 636,389 636,386 635,385 635,383 634,382 634,380 633,379 633,375 632,374 632,358 631,357 631,355 628,352 628,350 627,350 623,346 622,346 621,345 620,345 617,342 616,342 615,341 614,341 611,338 610,338 608,336 606,336 605,335 604,335 603,336 601,336 599,338 598,338 597,339 594,339 593,338 591,338 590,337 588,337 587,336 586,336 584,334 583,334 580,331 580,330 579,330 577,328 577,327 576,326 575,326 573,324 573,323 572,322 571,322 569,320 569,319 566,316 566,315 564,313 564,312 563,312 560,309 560,308 558,306 558,305 557,304 557,301 556,300 556,299 554,297 554,296 552,294 551,294 550,293 549,293 548,292 546,292 544,290 543,290 541,288 540,288 533,281 533,280 532,279 532,277 531,276 531,275 530,274 530,273 529,272 529,269 528,268 528,264 527,263 527,260 526,259 526,255 525,254 525,244 526,243 526,241 527,240 527,239 528,238 528,235 529,234 529,233 530,232 530,231 532,229 532,228 535,225 535,224 538,221 538,220 547,211 547,210 549,208 550,208 550,207 551,206 552,206 554,204 555,204 557,202 558,202 559,201 560,201 562,199 563,199 564,198 565,198 566,197 567,197 568,196 569,196 571,194 573,194 574,193 578,193 579,192 583,192 584,191 585,191 586,190 587,190 588,189 589,189 590,188 591,188 592,187 594,187 595,186 620,186 621,187 624,187 625,188 626,188 627,189 628,189 629,190 630,190 631,191 632,191 635,194 636,194 639,197 640,197 642,199 643,199 644,200 644,201 645,202 646,202 656,212 656,213 658,215 658,216 660,218 660,220 661,221 661,223 662,224 662,225 663,226 663,231 664,232 664,235 665,236 665,237 666,238 666,240 667,241 667,248 668,249 668,260 669,261 669,262 670,263 670,264 671,265 671,267 675,271 675,272 676,273 676,274 679,277 679,278 681,280 682,280 683,281 684,281 685,282 686,282 687,283 690,283 691,284 697,284 698,285 700,285 701,286 702,286 703,287 704,287 705,288 707,288 708,289 709,289 710,290 711,290 712,291 714,291 715,292 716,292 717,293 718,293 719,294 720,294 721,295 723,295 724,296 726,296 727,297 728,297 729,298 731,298 732,299 736,299 737,300 740,300 741,301 742,301 743,302 745,302 746,303 748,303 749,304 751,304 752,305 753,305 754,306 755,306 756,307 758,307 759,308 760,308 763,311 764,311 765,312 767,312 773,318 774,318 775,319 777,319 779,321 780,321 781,322 782,322 785,325 785,327 786,327 789,330 789,331 790,332 791,332 792,333 793,333 796,336 798,336 801,339 802,339 803,340 804,340 807,343 808,343 809,344 810,344 814,348 815,348 817,350 817,351 818,351 821,354 821,355 826,360 826,361 827,361 831,365 832,365 834,367 835,367 839,371 839,373 840,374 840,375 841,376 841,377 843,379 843,380 844,381 844,382 847,385 847,386 848,387 848,388 852,392 852,393 855,396 855,397 858,400 858,401 860,403 860,404 863,407 863,408 866,411 866,412 870,416 870,417 873,420 873,421 875,423 875,424 877,426 877,427 878,428 878,429 884,435 885,435 887,437 894,437 895,438 896,438 897,439 898,439 901,442 902,442 903,443 905,443 906,444 906,445 907,446 909,446 910,447 910,448 911,449 911,450 913,452 913,453 914,454 914,460 915,461 915,467 917,469 917,470 918,471 918,481 919,482 919,494 920,495 920,497 921,498 921,499 922,500 922,505 923,506 923,508 924,509 924,510 925,511 925,512 926,513 926,516 927,517 927,518 929,520 929,522 930,523 930,526 931,527 931,528 932,529 932,530 933,531 933,534 934,535 934,538 935,539 935,540 936,541 936,546 937,547 937,564 936,565 936,568 935,569 935,570 934,571 934,574 933,575 933,577 932,578 932,579 931,580 931,581 930,582 930,584 929,585 929,586 927,588 927,589 926,590 926,591 925,592 925,593 923,595 923,596 922,597 922,599 920,601 920,602 919,603 919,605 918,606 918,607 916,609 916,610 915,611 915,614 914,615 914,617 912,619 912,621 911,622 911,627 910,628 910,629 908,631 908,634 907,635 907,640 905,642 905,643 904,644 904,647 903,648 903,651 901,653 901,654 900,655 900,658 899,659 899,661 898,662 898,663 897,664 897,665 896,666 896,670 895,671 895,672 893,674 893,676 892,677 892,681 891,682 891,683 890,684 890,685 889,686 889,689 888,690 888,694 886,696 886,697 885,698 885,703 884,704 884,707 882,709 882,711 881,712 881,718 880,719 880,721 879,722 879,723 878,724 878,730 877,731 877,740 876,741 876,743 875,744 875,747 874,748 874,761 873,762 873,771 872,772 872,778 871,779 871,783 870,784 870,790 869,791 869,797 868,798 868,800 867,801 867,804 866,805 866,811 865,812 865,815 864,816 864,818 863,819 863,825 862,826 862,836 861,837 861,844 860,845 860,848 859,849 859,854 858,855 858,862 857,863 857,870 856,871 856,883 855,884 855,889 854,890 854,893 853,894 853,897 852,898 852,902 851,903 851,906 850,907 850,910 849,911 849,913 848,914 848,925 847,926 847,931 846,932 846,935 845,936 845,940 844,941 844,944 843,945 843,955 844,956 844,966 845,967 845,969 846,970 846,971 847,972 847,973 848,974 848,976 849,977 849,978 852,981 853,981 858,986 858,989 859,990 859,1004 860,1005 860,1009 861,1010 861,1011 862,1012 862,1014 863,1015 863,1017 864,1018 864,1019 866,1021 866,1023 867,1024 867,1025 869,1027 869,1028 870,1029 870,1030 871,1031 871,1032 873,1034 873,1036 874,1037 874,1039 875,1040 875,1041 876,1042 876,1043 877,1044 877,1053 878,1054 878,1064 880,1066 880,1068 881,1069 881,1077 880,1078 880,1079 1919,1079 1919,0 Z" fill="black" stroke="none" /></svg>