<?xml version="1.0" encoding="utf-8" ?>
<svg baseProfile="tiny" height="1080px" version="1.2" viewBox="0,0,1920,1080" width="1920px" xmlns="http://www.w3.org/2000/svg" xmlns:ev="http://www.w3.org/2001/xml-events" xmlns:xlink="http://www.w3.org/1999/xlink"><defs /><path d="M773,679 772,680 771,680 770,681 770,686 769,687 769,688 767,690 767,691 766,692 766,695 765,696 765,701 764,702 764,704 763,705 763,706 762,707 762,713 761,714 761,723 760,724 760,727 759,728 759,730 758,731 758,744 757,745 757,758 756,759 756,766 755,767 755,775 754,776 754,822 753,823 753,827 752,828 752,829 751,830 751,831 750,832 750,836 749,837 749,839 748,840 748,841 747,842 747,843 746,844 746,847 745,848 745,849 743,851 743,853 742,854 742,855 741,856 741,857 740,858 740,860 739,861 739,871 738,872 738,879 737,880 737,881 736,882 736,883 735,884 735,896 734,897 734,903 733,904 733,908 732,909 732,930 731,931 731,974 730,975 730,979 729,980 729,982 728,983 728,992 727,993 727,1013 726,1014 726,1017 725,1018 725,1021 724,1022 724,1044 723,1045 723,1047 721,1049 721,1052 720,1053 720,1059 721,1060 721,1065 722,1066 722,1071 721,1072 721,1074 720,1075 720,1077 719,1078 719,1079 832,1079 832,1062 833,1061 833,1059 835,1057 835,1054 836,1053 836,1051 837,1050 837,1049 838,1048 838,1046 839,1045 839,1040 840,1039 840,1037 842,1035 842,1034 843,1033 843,1029 844,1028 844,1027 846,1025 846,1018 847,1017 847,1002 846,1001 846,976 845,975 845,973 844,972 844,970 843,969 843,958 842,957 842,954 841,953 841,952 840,951 840,947 839,946 839,928 838,927 838,924 837,923 837,921 836,920 836,910 835,909 835,883 836,882 836,867 835,866 835,860 834,859 834,852 833,851 833,849 832,848 832,847 831,846 831,845 829,843 829,842 828,841 828,840 826,838 826,837 825,836 825,835 824,834 824,831 823,830 823,829 822,828 822,827 821,826 821,820 820,819 820,808 821,807 821,793 820,792 820,789 819,788 819,787 817,785 817,783 816,782 816,780 815,779 815,778 814,777 814,776 813,775 813,773 812,772 812,770 810,768 810,766 809,765 809,761 808,760 808,759 807,758 807,757 806,756 806,753 805,752 805,749 804,748 804,747 802,745 802,742 801,741 801,739 800,738 800,737 799,736 799,735 798,734 798,731 797,730 797,728 795,726 795,724 794,723 794,721 793,720 793,718 791,716 791,715 790,714 790,712 789,711 789,710 787,708 787,706 786,705 786,704 785,703 785,702 783,700 783,699 782,698 782,697 780,695 780,694 779,693 779,691 778,690 778,689 775,686 775,685 774,684 774,679 Z" fill="black" stroke="none" /><path d="M0,0 0,1079 675,1079 675,1057 676,1056 676,1055 675,1054 675,1050 674,1049 674,1047 672,1045 672,1044 671,1043 671,1042 670,1041 670,1039 669,1038 669,1036 668,1035 668,1032 667,1031 667,996 666,995 666,977 665,976 665,971 664,970 664,956 663,955 663,920 662,919 662,900 661,899 661,863 662,862 662,852 663,851 663,842 664,841 664,839 666,837 666,836 667,835 667,834 674,827 674,825 675,824 675,823 676,822 676,821 677,820 677,813 678,812 678,780 677,779 677,759 676,758 676,757 675,756 675,752 674,751 674,741 673,740 673,738 672,737 672,736 671,735 671,730 670,729 670,721 667,718 667,716 666,715 666,713 664,711 664,710 663,709 663,707 662,706 662,705 660,703 660,702 659,701 659,698 658,697 658,696 657,695 657,694 656,693 656,690 655,689 655,665 656,664 656,657 657,656 657,654 658,653 658,649 659,648 659,633 660,632 660,623 659,622 659,617 658,616 658,614 657,613 657,612 656,611 656,607 655,606 655,601 654,600 654,595 653,594 653,590 654,589 654,582 655,581 655,575 656,574 656,571 658,569 658,568 659,567 659,566 660,565 660,564 661,563 661,562 662,561 662,553 661,552 661,550 660,549 660,547 659,546 659,545 658,544 658,542 657,541 657,540 656,539 656,538 655,538 654,537 654,536 653,535 653,534 652,534 644,526 643,526 639,522 638,522 637,521 636,521 635,520 633,520 632,519 631,519 630,518 629,518 628,517 627,517 626,516 625,516 617,508 616,508 614,506 613,506 609,502 608,502 606,500 602,500 601,501 600,501 598,503 597,503 596,504 595,504 591,508 590,508 590,509 587,512 587,513 585,515 585,517 584,518 584,519 581,522 581,523 580,524 580,525 578,527 578,529 577,530 577,531 576,532 576,533 575,534 575,535 574,536 574,537 573,538 573,539 571,541 571,542 570,543 570,545 569,546 569,548 567,550 567,551 566,552 566,553 565,554 565,555 563,557 563,558 562,559 562,560 561,561 561,562 537,586 535,586 534,587 531,587 530,586 529,587 527,587 523,591 523,595 521,597 521,598 518,601 517,601 516,602 516,605 517,605 518,606 519,606 520,607 520,608 521,609 521,610 520,611 520,612 519,613 515,613 511,617 504,617 504,619 503,620 503,626 502,627 502,628 503,629 503,630 505,632 509,632 510,631 511,631 515,635 515,637 516,638 516,639 517,640 517,646 516,647 516,648 515,649 515,656 514,657 514,658 512,660 511,660 508,657 508,655 507,654 506,654 504,656 504,660 503,661 503,662 504,663 504,666 505,667 506,667 507,668 509,668 510,667 511,667 513,669 513,671 515,673 518,673 519,674 520,674 521,675 522,675 523,676 523,678 524,679 524,680 520,684 520,685 519,686 519,693 516,696 515,696 515,697 514,698 514,699 513,700 513,701 509,705 508,705 506,707 505,707 503,709 498,709 497,708 495,708 494,709 491,709 490,710 489,710 484,715 483,715 482,716 481,716 480,715 479,715 477,713 476,713 471,708 470,708 469,707 466,707 465,708 459,708 457,706 456,706 455,705 454,705 453,704 452,704 450,702 449,702 446,699 445,699 443,697 442,697 440,695 440,694 439,693 439,692 438,691 438,687 437,686 437,683 436,682 436,681 435,680 435,678 434,677 434,675 433,674 433,671 432,670 432,636 433,635 433,627 434,626 434,624 435,623 435,621 436,620 436,619 438,617 438,616 439,615 439,614 441,612 441,611 442,610 442,609 443,608 443,606 444,605 444,604 445,603 445,602 446,601 446,599 447,598 447,597 448,596 448,595 449,594 449,593 450,592 450,591 453,588 453,587 457,583 457,582 458,581 459,581 462,578 463,578 469,572 469,571 471,569 471,567 472,566 472,562 473,561 473,559 474,558 474,557 475,556 475,554 476,553 476,551 477,550 477,549 478,548 478,547 479,546 479,544 480,543 480,542 484,538 484,537 485,536 486,536 489,533 490,533 491,532 493,532 494,531 496,531 497,530 498,530 499,529 500,529 501,528 502,528 510,520 510,519 511,518 511,517 513,515 513,513 514,512 514,511 515,510 515,509 516,508 516,506 517,505 517,501 518,500 518,499 519,498 519,497 520,496 520,494 521,493 521,489 522,488 522,486 523,485 523,484 524,483 524,481 525,480 525,475 526,474 526,471 527,470 527,467 528,466 528,457 529,456 529,450 530,449 530,448 531,447 531,445 532,444 532,438 533,437 533,435 534,434 534,433 535,432 535,431 536,430 536,422 537,421 537,419 538,418 538,416 539,415 539,411 540,410 540,406 542,404 542,403 543,402 543,401 544,400 544,399 547,396 547,395 548,394 548,393 550,391 550,390 551,389 551,388 553,386 553,385 555,383 555,382 556,381 556,380 557,379 557,378 558,377 558,376 561,373 561,372 563,370 563,369 565,367 565,366 569,362 570,362 573,359 574,359 578,355 579,355 579,354 583,350 583,349 584,348 584,347 586,345 586,344 587,343 587,342 588,341 588,340 590,338 590,336 591,335 591,331 590,330 590,326 589,325 589,324 588,323 588,321 587,320 587,318 586,317 586,316 584,314 584,312 583,311 583,310 581,308 581,307 580,306 580,305 577,302 577,301 576,300 576,299 575,298 575,297 573,295 573,294 572,293 572,290 570,288 570,287 569,286 569,285 568,284 568,281 566,279 564,279 561,276 561,275 560,274 560,273 554,267 554,266 552,264 552,263 551,262 551,260 550,259 550,254 549,253 549,251 548,250 548,247 547,246 547,235 546,234 547,233 547,225 548,224 548,222 549,221 549,220 550,219 550,216 551,215 551,214 552,213 552,212 553,211 553,210 554,209 554,208 557,205 557,204 559,202 559,201 561,199 561,198 562,197 562,196 566,192 566,191 574,183 575,183 576,182 577,182 579,180 580,180 581,179 585,179 586,178 590,178 591,177 593,177 594,176 599,176 600,175 606,175 607,174 611,174 612,173 614,173 615,172 620,172 621,171 643,171 644,172 647,172 649,174 652,174 653,175 655,175 656,176 658,176 661,179 662,179 665,182 666,182 672,188 672,189 675,192 675,193 676,194 676,195 678,197 678,198 680,200 680,201 681,202 681,203 682,204 682,206 683,207 683,208 684,209 684,211 685,212 685,214 686,215 686,217 687,218 687,219 688,220 688,222 689,223 689,239 688,240 688,244 687,245 687,257 686,258 686,264 685,265 685,267 684,268 684,271 685,272 685,273 686,274 686,275 687,276 687,277 688,278 688,279 689,279 690,280 692,280 693,281 699,281 700,282 702,282 703,283 706,283 707,284 712,284 713,285 714,285 715,286 716,286 717,287 719,287 720,288 722,288 723,289 724,289 725,290 726,290 727,291 731,291 732,292 736,292 740,296 741,296 742,297 742,298 744,300 750,300 751,299 752,299 753,300 756,300 757,301 759,301 760,302 767,302 768,303 776,303 777,304 778,304 779,305 780,305 781,306 782,306 784,308 785,308 787,310 789,310 790,311 792,311 793,312 795,312 796,313 801,313 802,314 805,314 807,316 808,316 810,318 811,318 825,332 825,333 827,335 827,336 829,338 829,339 830,340 830,341 832,343 832,345 833,346 833,348 835,350 835,351 836,352 836,354 837,355 837,356 838,357 838,358 839,359 839,361 840,362 840,366 841,367 841,369 843,371 843,373 844,374 844,375 845,376 845,377 847,379 847,380 851,384 851,385 852,386 852,387 854,389 854,390 855,391 855,392 858,395 858,396 859,397 859,398 861,400 861,401 862,402 862,403 865,406 865,407 866,408 866,410 867,411 867,412 868,413 868,414 869,415 869,416 870,417 870,419 878,427 879,427 883,431 884,431 885,432 885,433 888,436 888,437 889,438 889,440 890,441 890,447 889,448 889,453 888,454 888,459 887,460 887,462 886,463 886,465 885,466 885,474 884,475 884,481 883,482 883,484 882,485 882,489 881,490 881,495 880,496 880,497 879,498 879,499 878,500 878,501 877,502 877,504 876,505 876,506 874,508 874,510 873,511 873,512 872,513 872,514 871,515 871,517 870,518 870,521 869,522 869,524 868,525 868,532 869,533 869,537 870,538 870,540 871,541 871,542 873,544 873,545 874,546 874,550 875,551 875,553 877,555 877,557 878,558 878,560 880,562 880,563 881,564 881,569 882,570 882,573 883,574 883,575 884,576 884,599 883,600 883,604 882,605 882,616 883,617 883,620 884,621 884,626 885,627 885,639 886,640 886,643 887,644 887,646 888,647 888,655 889,656 889,668 890,669 890,672 891,673 891,676 892,677 892,694 893,695 893,700 894,701 894,703 895,704 895,709 896,710 896,743 897,744 897,750 898,751 898,754 899,755 899,761 900,762 900,767 901,768 901,769 902,770 902,771 903,772 903,774 904,775 904,778 906,780 906,781 907,782 907,786 908,787 908,790 909,791 909,792 910,793 910,796 911,797 911,803 912,804 912,807 913,808 913,814 912,815 912,816 911,817 911,819 909,821 909,822 908,823 908,827 907,828 907,835 906,836 906,848 907,849 907,899 906,900 906,908 905,909 905,917 904,918 904,938 903,939 903,951 902,952 902,956 901,957 901,963 900,964 900,989 899,990 899,1003 898,1004 898,1006 897,1007 897,1009 896,1010 896,1013 895,1014 895,1015 893,1017 893,1038 894,1039 894,1041 895,1042 895,1044 896,1045 896,1050 897,1051 897,1052 898,1053 898,1054 899,1055 899,1056 900,1057 900,1059 903,1062 903,1063 904,1064 904,1065 907,1068 907,1069 908,1070 908,1072 909,1073 909,1074 910,1075 910,1079 1919,1079 1919,0 Z" fill="black" stroke="none" /></svg>