<?xml version="1.0" encoding="utf-8" ?>
<svg baseProfile="tiny" height="1080px" version="1.2" viewBox="0,0,1920,1080" width="1920px" xmlns="http://www.w3.org/2000/svg" xmlns:ev="http://www.w3.org/2001/xml-events" xmlns:xlink="http://www.w3.org/1999/xlink"><defs /><path d="M65,1009 64,1010 63,1010 64,1011 67,1011 68,1010 69,1010 68,1010 67,1009 Z" fill="black" stroke="none" /><path d="M271,964 271,966 272,966 273,965 272,964 Z" fill="black" stroke="none" /><path d="M255,923 254,924 254,928 255,929 255,931 256,932 256,936 255,937 255,938 254,939 254,940 251,943 253,945 253,946 254,947 255,947 256,948 257,947 258,947 259,946 259,944 260,943 260,942 259,941 259,940 258,939 258,937 257,936 257,933 258,932 258,931 261,928 261,926 260,925 260,924 259,924 258,923 Z" fill="black" stroke="none" /><path d="M301,921 301,922 300,923 300,925 299,926 299,930 300,931 300,940 301,941 301,942 301,941 302,940 302,936 303,935 303,933 305,931 305,930 306,929 306,926 305,925 305,923 304,923 302,921 Z" fill="black" stroke="none" /><path d="M701,804 700,805 698,805 697,806 696,806 695,807 694,807 693,808 692,808 691,809 688,809 687,810 685,810 684,811 682,811 681,812 679,812 678,813 676,813 675,814 674,814 673,815 672,815 671,816 670,816 669,817 667,817 666,818 665,818 663,820 661,820 660,821 659,821 658,822 657,822 656,823 655,823 654,824 651,824 650,825 647,825 646,826 645,826 643,828 641,828 640,829 639,829 638,830 637,830 636,831 634,831 633,832 632,832 631,833 630,833 629,834 628,834 627,835 626,835 625,836 623,836 622,837 621,837 620,838 619,838 618,839 616,839 615,840 612,840 610,842 609,842 608,843 606,843 605,844 604,844 603,845 601,845 600,846 599,846 598,847 596,847 595,848 593,848 592,849 591,849 590,850 589,850 588,851 586,851 585,852 584,852 583,853 582,853 581,854 579,854 578,855 576,855 575,856 574,856 573,857 572,857 571,858 570,858 569,859 568,859 566,861 565,861 563,863 562,863 560,865 559,865 558,866 557,866 554,869 553,869 552,870 551,870 549,872 548,872 547,873 546,873 543,876 542,876 541,877 540,877 539,878 538,878 536,880 535,880 534,881 533,881 532,882 531,882 529,884 528,884 527,885 526,885 524,887 523,887 522,888 520,888 519,889 518,889 516,891 515,891 514,892 512,892 511,893 510,893 509,894 508,894 507,895 506,895 505,896 503,896 500,899 499,899 492,906 491,906 488,909 487,909 484,912 483,912 480,915 479,915 477,917 476,917 473,920 472,920 466,926 465,926 462,929 461,929 457,933 456,933 453,936 453,937 445,945 444,945 437,952 436,952 429,959 428,959 423,964 422,964 421,965 421,966 420,967 420,968 415,973 414,973 412,975 411,975 404,982 404,983 397,990 396,990 395,991 394,991 390,995 390,997 389,998 389,1003 388,1004 387,1004 386,1005 382,1005 381,1006 377,1006 375,1008 374,1008 373,1009 372,1009 370,1011 370,1012 369,1013 369,1016 366,1019 364,1019 363,1020 360,1020 359,1021 358,1021 346,1033 345,1032 343,1032 342,1031 339,1031 331,1039 330,1039 327,1042 327,1043 326,1044 326,1045 321,1050 320,1050 319,1051 318,1051 317,1052 316,1052 315,1053 312,1053 310,1055 309,1055 309,1056 308,1057 308,1058 304,1062 303,1062 302,1063 300,1063 299,1064 297,1064 296,1065 293,1065 292,1066 290,1066 289,1067 288,1067 286,1069 285,1069 283,1071 283,1072 282,1073 282,1074 281,1075 280,1075 278,1077 267,1077 266,1076 263,1076 262,1077 260,1077 259,1078 259,1079 707,1079 707,1071 706,1070 707,1069 707,1060 708,1059 708,1050 707,1049 707,1045 706,1044 706,1042 705,1041 705,1038 704,1037 704,1031 703,1030 703,1024 702,1023 702,1015 701,1014 701,1003 702,1002 702,993 703,992 703,988 704,987 704,980 705,979 705,975 706,974 706,972 707,971 707,967 708,966 708,958 709,957 709,950 710,949 710,946 711,945 711,937 712,936 712,919 713,918 713,911 714,910 714,906 715,905 715,834 714,833 714,826 713,825 713,822 712,821 712,814 711,813 711,810 710,809 710,808 706,804 Z" fill="black" stroke="none" /><path d="M0,0 0,1079 96,1079 96,1078 95,1077 95,1076 92,1073 92,1072 91,1071 90,1071 89,1070 89,1069 88,1068 88,1066 87,1065 87,1064 86,1063 86,1062 84,1060 84,1059 82,1057 82,1056 81,1055 81,1054 79,1052 79,1051 78,1050 78,1049 77,1048 77,1047 75,1045 75,1044 74,1043 74,1042 72,1040 72,1038 71,1037 71,1034 70,1033 70,1032 68,1030 68,1028 67,1027 67,1024 65,1022 65,1021 61,1017 61,1011 60,1010 60,1008 59,1007 59,996 60,995 59,994 59,984 60,983 60,982 61,981 65,981 68,984 68,988 65,991 65,992 68,995 70,995 71,994 79,994 80,993 83,993 84,992 86,994 87,994 88,995 88,996 89,997 89,998 90,999 90,1000 91,1001 91,1008 90,1009 90,1010 91,1011 93,1011 94,1010 96,1010 96,1006 97,1005 97,1003 99,1001 100,1002 100,1010 106,1016 107,1016 109,1018 110,1018 111,1019 112,1019 115,1022 115,1023 119,1027 121,1027 129,1035 130,1035 131,1036 132,1036 134,1038 134,1039 135,1040 135,1047 136,1048 137,1048 137,1042 138,1041 138,1040 139,1039 140,1039 141,1038 142,1038 143,1037 144,1037 145,1036 147,1036 148,1035 155,1035 156,1034 157,1034 158,1033 160,1033 161,1034 165,1034 166,1035 167,1035 168,1034 171,1034 172,1035 173,1035 174,1036 175,1035 179,1035 180,1034 187,1034 188,1035 189,1035 190,1034 197,1034 199,1032 199,1017 200,1016 200,1015 201,1014 201,1012 202,1011 202,996 203,995 203,993 204,992 204,991 205,990 205,989 206,988 206,987 207,986 207,985 212,980 213,980 214,981 220,981 221,982 222,982 224,984 224,985 225,986 225,987 226,988 227,988 227,986 228,985 228,982 229,981 229,975 228,974 228,967 229,966 229,965 230,964 230,963 235,958 236,958 236,957 237,956 237,954 236,953 236,952 234,950 234,948 233,947 233,936 232,935 232,930 236,926 237,926 238,925 240,925 241,924 243,924 244,925 245,925 247,923 247,920 249,918 251,918 252,917 256,917 257,916 258,916 259,915 260,915 261,914 262,914 263,913 264,913 265,912 266,912 267,911 268,911 269,910 274,910 275,911 277,911 278,912 279,912 281,914 282,914 283,915 284,915 285,916 288,916 289,915 290,915 292,913 292,911 293,910 293,906 295,904 305,904 306,905 309,905 310,906 311,906 312,907 314,907 315,908 316,908 321,913 321,914 322,915 322,916 324,918 326,918 327,917 328,917 329,916 329,915 335,909 335,908 336,907 336,906 339,903 339,902 341,900 342,900 343,899 344,899 345,898 346,898 348,896 349,896 351,894 352,894 353,893 354,893 358,889 358,888 361,885 361,884 362,883 363,883 366,880 368,880 373,875 373,874 379,868 383,868 398,853 399,853 402,850 403,850 404,849 405,849 406,848 407,848 409,846 410,846 411,845 412,845 414,843 415,843 417,841 418,841 423,836 423,835 433,825 434,825 440,819 441,819 444,816 445,816 448,813 449,813 450,812 451,812 453,810 454,810 455,809 456,809 457,808 458,808 461,805 462,805 466,801 467,801 468,800 468,799 470,797 470,796 472,794 472,793 473,792 473,791 478,786 478,785 487,776 488,776 489,775 490,775 495,770 495,769 496,768 497,768 497,767 507,757 508,757 512,753 513,753 520,746 521,746 523,744 524,744 524,743 525,742 526,742 530,738 531,738 535,734 536,734 539,731 540,731 542,729 543,729 543,728 544,727 545,727 547,725 547,724 550,721 550,720 551,719 551,718 553,716 553,715 554,714 554,713 557,710 557,709 558,708 558,707 561,704 561,703 565,699 565,698 567,696 568,696 572,692 573,692 575,690 576,690 577,689 578,689 579,688 580,688 582,686 583,686 584,685 585,685 586,684 587,684 589,682 590,682 593,679 594,679 596,677 597,677 600,674 601,674 602,673 603,673 605,671 607,671 608,670 609,670 610,669 611,669 613,667 616,667 617,666 620,666 621,665 622,665 623,664 624,664 625,663 628,663 630,661 631,661 633,659 634,659 644,649 644,648 648,644 648,643 649,642 649,641 651,639 651,638 652,637 652,635 653,634 653,633 654,632 654,631 655,630 655,628 656,627 656,624 658,622 658,621 659,620 659,619 660,618 660,616 661,615 662,615 663,614 663,613 665,611 666,611 667,610 668,610 669,609 670,609 671,608 673,608 674,607 678,607 679,606 682,606 683,605 693,605 697,601 697,600 698,599 699,599 700,598 701,598 702,597 703,597 704,596 713,596 715,594 717,594 714,594 712,592 712,590 711,589 711,581 712,580 713,580 713,578 711,578 709,576 709,575 708,574 708,573 703,568 703,559 701,557 701,546 702,545 701,544 701,538 702,537 702,535 703,534 703,533 704,532 704,531 705,530 705,529 706,528 706,527 708,525 708,523 709,522 709,521 710,520 710,519 712,517 712,516 713,515 713,514 714,513 714,512 715,511 715,510 718,507 718,506 721,503 721,502 722,501 722,500 724,498 724,497 725,496 725,495 726,494 726,492 729,489 729,488 733,484 733,483 734,482 734,481 736,479 736,478 737,477 737,476 738,475 738,472 739,471 739,470 740,469 740,467 741,466 741,464 742,463 742,461 744,459 744,458 745,457 745,455 746,454 746,451 747,450 747,446 746,445 746,443 745,442 745,439 744,438 744,437 743,437 736,430 735,431 717,431 716,432 707,432 706,431 704,431 703,432 702,431 685,431 684,430 680,430 679,429 677,429 676,428 671,428 670,427 634,427 633,426 631,426 630,425 629,425 628,424 626,424 625,423 623,423 620,420 619,420 608,409 608,408 606,406 606,405 604,403 604,402 603,401 603,400 602,399 602,398 601,397 601,396 600,395 600,391 599,390 599,387 598,386 598,385 597,384 597,380 596,379 596,361 597,360 597,354 598,353 598,351 599,350 599,347 600,346 600,343 602,341 602,340 603,339 603,338 604,337 604,336 606,334 606,333 607,332 607,331 608,330 608,329 613,324 615,324 616,323 617,323 618,324 624,324 627,321 628,321 631,318 632,318 633,317 635,317 636,316 637,316 638,315 639,315 641,313 642,313 644,311 645,311 646,310 648,310 650,308 653,308 654,307 656,307 657,306 659,306 660,305 662,305 663,304 667,304 668,303 670,303 671,302 672,302 673,301 674,301 675,300 676,300 677,299 683,299 684,300 698,300 699,299 701,299 702,298 707,298 708,297 712,297 713,296 717,296 718,297 721,297 722,298 723,298 724,299 727,299 728,300 730,300 731,299 736,299 737,298 738,298 739,297 741,297 742,296 744,296 745,295 747,295 750,292 751,292 759,284 760,284 763,281 764,281 765,280 766,280 769,277 770,277 771,276 772,276 773,275 774,275 777,272 777,271 779,269 779,267 780,266 780,265 783,262 783,261 786,258 787,258 790,255 791,255 792,254 805,254 806,253 809,253 810,252 813,252 814,251 824,251 825,252 827,252 828,253 830,253 831,254 837,254 838,255 840,255 841,256 844,256 845,257 846,256 849,256 851,254 852,254 853,253 853,252 854,251 854,250 855,249 855,248 856,247 856,246 857,245 857,241 856,240 856,238 855,237 855,236 854,235 854,234 850,230 850,229 849,229 847,227 847,226 844,223 844,222 843,221 843,220 840,217 840,216 839,215 839,214 836,211 836,210 835,209 835,208 834,207 834,206 831,203 831,202 830,201 830,200 828,198 828,196 825,193 825,192 823,190 823,189 821,187 821,186 818,183 818,182 817,181 817,180 816,179 816,178 814,176 814,175 813,174 813,173 812,172 812,171 810,169 810,167 809,166 809,163 808,162 808,160 807,159 807,158 806,157 806,151 805,150 805,136 806,135 806,132 807,131 807,129 809,127 809,126 810,125 810,124 813,121 813,120 817,116 817,115 829,103 829,102 830,101 831,101 832,100 832,99 837,94 838,94 841,91 842,91 848,85 849,85 851,83 852,83 853,82 855,82 856,81 858,81 859,80 877,80 878,79 879,79 880,78 882,78 883,77 888,77 889,76 894,76 895,77 902,77 903,76 906,76 907,77 913,77 914,78 917,78 918,79 919,79 921,81 922,81 923,82 925,82 927,84 928,84 929,85 931,85 932,86 933,86 934,87 935,87 937,89 938,89 939,90 941,90 944,93 945,93 947,95 947,96 949,98 949,99 950,99 954,103 955,103 956,104 957,104 959,106 960,106 968,114 969,114 972,117 973,117 974,118 974,119 975,120 975,121 976,122 976,123 977,124 977,125 978,126 978,131 979,132 979,135 980,136 980,139 981,140 981,148 982,149 982,153 983,154 983,157 984,158 984,164 983,165 983,167 982,168 982,170 981,171 981,172 980,173 980,174 979,175 979,178 978,179 978,183 977,184 977,185 976,186 976,187 975,188 975,191 974,192 974,193 973,194 973,195 972,196 972,197 971,198 971,199 970,200 970,201 969,202 969,203 968,204 968,205 967,206 967,208 964,211 964,213 963,214 963,228 964,229 964,234 965,235 965,236 966,237 966,238 967,239 967,240 968,241 968,243 970,245 970,250 971,251 971,269 972,270 972,273 973,274 973,275 974,276 974,280 975,281 975,284 976,285 976,286 979,289 980,289 983,292 984,292 987,295 988,295 989,296 990,296 994,300 994,301 998,305 998,306 999,307 999,308 1001,310 1001,312 1004,315 1004,316 1005,317 1006,317 1012,323 1012,324 1013,325 1013,326 1014,327 1014,328 1016,330 1016,331 1017,332 1017,333 1019,335 1019,336 1021,338 1021,339 1024,342 1024,343 1027,346 1027,347 1029,349 1029,350 1030,351 1030,352 1031,353 1031,354 1033,356 1033,357 1034,358 1034,359 1035,360 1035,362 1036,363 1036,364 1037,365 1037,366 1038,367 1038,369 1039,370 1039,373 1041,375 1041,377 1042,378 1042,381 1045,384 1045,388 1046,389 1046,393 1047,394 1047,395 1048,396 1048,397 1049,398 1049,402 1050,403 1050,408 1051,409 1051,411 1052,412 1052,413 1053,414 1053,434 1054,435 1054,444 1053,445 1053,465 1052,466 1052,469 1051,470 1051,473 1050,474 1050,483 1049,484 1049,490 1048,491 1048,494 1047,495 1047,499 1046,500 1046,508 1045,509 1045,511 1044,512 1044,513 1043,514 1043,518 1042,519 1042,525 1041,526 1041,527 1040,528 1040,529 1039,530 1039,533 1038,534 1038,538 1037,539 1037,540 1036,541 1036,542 1035,543 1035,548 1034,549 1034,552 1032,554 1032,555 1031,556 1031,560 1030,561 1030,562 1029,563 1029,564 1028,565 1028,567 1027,568 1027,572 1025,574 1025,575 1024,576 1024,578 1023,579 1023,581 1022,582 1022,583 1021,584 1021,585 1020,586 1020,589 1019,590 1019,592 1018,593 1018,594 1016,596 1016,598 1015,599 1015,600 1013,602 1013,603 1012,604 1012,606 1011,607 1011,608 1010,609 1010,610 1009,611 1009,612 1008,613 1008,614 1006,616 1006,617 1005,618 1005,619 1004,620 1004,621 1002,623 1002,624 1001,625 1001,626 1000,627 1000,628 998,630 998,631 997,632 997,634 996,635 996,636 994,638 994,639 993,640 993,641 992,642 992,643 991,644 990,644 986,648 984,648 983,649 982,649 980,651 978,651 977,652 974,652 973,653 970,653 969,654 968,654 967,655 966,655 965,656 963,656 952,667 952,668 948,672 948,673 942,679 941,679 939,681 938,681 937,682 933,682 932,683 930,683 929,684 927,684 926,685 924,685 923,686 920,686 919,687 918,687 918,688 916,690 916,692 915,693 915,695 914,696 914,697 913,698 913,699 912,700 912,701 911,702 911,707 910,708 910,710 909,711 909,712 908,713 908,716 907,717 907,722 906,723 906,724 904,726 904,728 903,729 903,731 902,732 902,733 900,735 900,738 899,739 899,742 898,743 898,744 897,745 897,746 896,747 896,753 895,754 895,756 894,757 894,758 893,759 893,761 892,762 892,765 891,766 891,767 889,769 889,771 888,772 888,773 887,774 887,775 885,777 885,780 884,781 884,783 883,784 883,785 882,786 882,788 881,789 881,791 880,792 880,793 879,794 879,795 878,796 878,800 877,801 877,810 876,811 876,815 875,816 875,818 874,819 874,822 873,823 873,826 872,827 872,835 871,836 871,839 870,840 870,842 869,843 869,844 867,846 867,847 866,848 866,852 865,853 865,857 864,858 864,860 863,861 863,864 862,865 862,873 861,874 861,877 860,878 860,879 859,880 859,882 858,883 858,886 857,887 857,888 856,889 856,890 855,891 855,894 854,895 854,899 853,900 853,901 852,902 852,905 851,906 851,909 850,910 850,912 849,913 849,914 848,915 848,917 847,918 847,920 846,921 846,922 845,923 845,924 844,925 844,927 843,928 843,931 841,933 841,935 840,936 840,939 839,940 839,943 837,945 837,947 836,948 836,953 835,954 835,957 834,958 834,960 833,961 833,963 832,964 832,970 831,971 831,973 830,974 830,975 829,976 829,978 828,979 828,981 827,982 827,983 826,984 826,985 825,986 825,988 824,989 824,990 823,991 823,992 822,993 822,994 821,995 821,1002 820,1003 820,1007 819,1008 819,1010 818,1011 818,1015 817,1016 817,1021 816,1022 816,1024 815,1025 815,1026 814,1027 814,1031 813,1032 813,1038 812,1039 812,1042 811,1043 811,1046 810,1047 810,1060 809,1061 809,1064 808,1065 808,1066 806,1068 806,1069 804,1071 804,1072 802,1074 802,1075 801,1076 801,1077 800,1078 800,1079 1919,1079 1919,0 Z" fill="black" stroke="none" /></svg>