<?xml version="1.0" encoding="utf-8" ?>
<svg baseProfile="tiny" height="1080px" version="1.2" viewBox="0,0,1920,1080" width="1920px" xmlns="http://www.w3.org/2000/svg" xmlns:ev="http://www.w3.org/2001/xml-events" xmlns:xlink="http://www.w3.org/1999/xlink"><defs /><path d="M942,828 939,831 939,832 938,833 938,834 935,837 935,840 934,841 934,843 932,845 932,846 931,847 931,853 929,855 928,855 928,857 927,858 927,859 923,863 923,864 921,866 920,866 920,867 916,871 916,873 915,874 915,876 912,879 912,882 911,883 911,884 909,886 909,889 908,890 908,892 907,893 907,894 906,895 906,896 905,897 905,901 904,902 904,906 905,907 908,907 909,908 916,908 917,907 918,907 919,906 920,906 921,905 921,904 922,903 922,902 924,900 924,899 925,898 925,897 926,896 926,895 928,893 928,892 929,891 929,889 930,888 930,887 931,886 931,885 932,884 932,882 933,881 933,879 934,878 934,877 935,876 935,874 936,873 936,870 937,869 937,868 939,866 939,865 940,864 940,863 942,861 942,860 943,859 943,857 944,856 944,853 945,852 945,851 946,850 946,847 947,846 947,837 946,836 946,833 944,831 944,830 943,829 943,828 Z" fill="black" stroke="none" /><path d="M849,585 849,591 Z" fill="black" stroke="none" /><path d="M991,491 991,492 990,493 990,494 989,495 989,501 990,502 990,505 991,506 991,507 991,506 992,505 992,494 991,493 Z" fill="black" stroke="none" /><path d="M0,0 0,1079 773,1079 773,1070 774,1069 774,1068 775,1067 775,1063 776,1062 776,1058 777,1057 777,1056 778,1055 778,1054 779,1053 779,1051 780,1050 780,1049 781,1048 781,1047 783,1045 783,1044 786,1041 786,1040 787,1039 787,1038 788,1037 788,1036 790,1034 790,1033 791,1032 791,1029 793,1027 793,1026 794,1025 794,1019 795,1018 795,1013 796,1012 796,1007 797,1006 797,1001 798,1000 798,999 801,996 801,995 802,994 802,993 804,991 804,990 805,989 805,988 806,987 806,985 808,983 808,982 809,981 809,978 810,977 810,974 811,973 811,972 812,971 812,968 813,967 813,962 814,961 814,958 815,957 815,956 816,955 816,952 817,951 817,946 818,945 818,943 819,942 819,940 820,939 820,934 821,933 821,928 822,927 822,926 823,925 823,922 824,921 824,915 825,914 825,910 826,909 826,907 827,906 827,903 828,902 828,897 829,896 829,894 830,893 830,892 831,891 831,889 832,888 832,885 833,884 833,882 834,881 834,879 835,878 835,875 836,874 836,872 837,871 837,869 838,868 838,866 839,865 839,863 840,862 840,860 841,859 841,858 842,857 842,855 843,854 843,852 844,851 844,849 845,848 845,847 846,846 846,845 847,844 847,843 848,842 848,841 852,837 852,836 853,835 853,834 854,833 854,832 855,831 855,830 856,829 856,827 857,826 857,823 858,822 858,819 859,818 859,816 860,815 860,812 861,811 861,809 862,808 862,804 861,803 861,799 860,798 860,796 859,795 859,794 858,793 858,790 857,789 857,787 856,786 856,785 855,784 855,781 854,780 854,774 853,773 853,770 852,769 852,768 851,767 851,762 850,761 850,753 849,752 849,751 848,750 848,749 847,748 847,744 846,743 846,739 845,738 845,737 844,736 844,734 843,733 843,730 842,729 842,728 841,727 841,726 840,725 840,724 839,723 839,720 838,719 838,718 836,716 836,714 835,713 835,712 834,711 834,710 833,709 833,708 832,707 832,705 831,704 831,702 830,701 830,700 829,699 829,698 828,697 828,694 827,693 827,692 826,691 826,690 825,689 825,687 824,686 824,683 823,682 823,681 822,680 822,679 821,678 821,675 820,674 820,672 819,671 819,670 817,668 817,665 816,664 816,663 814,661 814,660 813,659 813,658 812,657 812,656 811,655 811,654 810,653 810,652 809,651 805,651 804,652 802,652 801,651 798,651 797,650 795,650 794,651 790,651 788,649 788,646 790,644 791,644 792,643 792,642 794,640 794,636 784,636 783,635 780,635 779,634 773,634 772,635 771,635 770,636 769,636 765,632 765,631 764,630 763,630 761,628 761,627 760,626 760,625 759,624 759,622 760,621 760,609 761,608 761,607 763,605 763,604 764,603 764,595 765,594 765,592 766,591 766,589 767,588 767,577 768,576 768,573 769,572 769,571 770,570 770,568 771,567 771,542 770,541 770,537 768,535 768,532 769,531 769,529 770,528 770,526 771,525 771,521 772,520 772,512 773,511 773,509 774,508 774,506 775,505 775,501 776,500 776,494 777,493 777,492 778,491 778,490 779,489 779,485 780,484 780,481 782,479 782,477 783,476 783,472 784,471 784,469 785,468 785,467 786,466 786,464 787,463 787,460 788,459 788,458 789,457 789,456 790,455 790,450 791,449 791,445 792,444 792,443 793,442 793,441 794,440 794,434 795,433 795,430 796,429 796,428 797,427 797,423 798,422 798,413 799,412 799,409 800,408 800,407 801,406 801,401 802,400 802,392 803,391 803,390 804,389 804,388 805,387 805,385 806,384 806,382 808,380 808,379 809,378 809,376 810,375 810,374 812,372 812,371 813,370 813,368 814,367 814,366 816,364 816,363 817,362 817,360 819,358 819,357 820,356 820,355 821,354 821,353 824,350 824,348 825,347 825,346 828,343 828,342 831,339 831,338 839,330 839,329 846,322 847,322 851,318 852,318 853,317 854,317 856,315 857,315 858,314 860,314 861,313 862,313 863,312 864,312 865,311 866,311 867,310 868,310 871,307 872,307 873,306 874,306 876,304 877,304 878,303 879,303 883,299 884,299 889,294 889,288 888,287 888,281 887,280 887,279 885,277 885,276 884,275 884,273 882,271 882,270 880,268 880,267 876,263 876,262 873,259 873,258 870,255 870,254 869,253 869,252 868,251 868,250 866,248 866,246 865,245 865,239 864,238 864,229 865,228 865,221 866,220 866,216 867,215 867,214 868,213 868,211 869,210 869,208 870,207 870,205 871,204 871,203 872,202 872,201 873,200 873,199 881,191 882,191 886,187 887,187 899,175 900,175 903,172 905,172 906,171 908,171 909,170 911,170 912,169 927,169 928,168 944,168 945,167 946,167 947,168 952,168 953,169 955,169 956,170 958,170 959,171 961,171 962,172 965,172 966,173 968,173 969,174 973,174 974,175 982,175 983,176 991,176 992,177 993,177 998,182 998,183 999,184 999,186 1000,187 1000,189 999,190 999,193 998,194 998,195 997,196 997,200 998,201 998,207 997,208 997,210 993,214 992,214 991,215 990,215 989,216 988,216 984,220 984,221 983,222 983,233 982,234 982,262 981,263 981,264 980,265 980,266 979,267 979,272 978,273 978,276 977,277 977,278 976,279 976,281 975,282 975,302 976,303 976,304 979,307 980,307 984,311 985,311 986,312 986,313 987,314 988,314 990,316 990,317 991,318 992,318 994,320 994,321 995,322 996,322 1000,326 1001,326 1004,329 1004,330 1006,332 1007,332 1008,333 1009,333 1012,336 1013,336 1021,344 1022,344 1023,345 1023,346 1027,350 1027,351 1028,352 1028,353 1030,355 1030,356 1031,357 1031,358 1032,359 1032,360 1034,362 1034,363 1035,364 1035,365 1038,368 1038,370 1039,371 1039,373 1041,375 1041,376 1042,377 1042,380 1043,381 1043,384 1044,385 1044,386 1045,387 1045,391 1046,392 1046,422 1045,423 1045,431 1044,432 1044,437 1043,438 1043,451 1042,452 1042,466 1041,467 1041,472 1040,473 1040,479 1039,480 1039,497 1038,498 1038,511 1037,512 1037,518 1036,519 1036,527 1035,528 1035,554 1034,555 1034,563 1033,564 1033,567 1032,568 1032,573 1031,574 1031,592 1030,593 1030,599 1029,600 1029,603 1028,604 1028,610 1027,611 1027,623 1026,624 1026,628 1025,629 1025,633 1024,634 1024,645 1023,646 1023,653 1022,654 1022,655 1021,656 1021,658 1020,659 1020,664 1019,665 1019,668 1017,670 1017,672 1016,673 1016,676 1015,677 1015,678 1014,679 1014,681 1013,682 1013,695 1014,696 1014,699 1015,700 1015,701 1016,702 1016,710 1017,711 1017,713 1018,714 1018,715 1019,716 1019,719 1020,720 1020,725 1021,726 1021,728 1022,729 1022,730 1023,731 1023,735 1024,736 1024,742 1025,743 1025,744 1026,745 1026,746 1027,747 1027,755 1028,756 1028,760 1029,761 1029,764 1030,765 1030,769 1031,770 1031,784 1032,785 1032,792 1033,793 1033,797 1034,798 1034,805 1035,806 1035,819 1036,820 1036,824 1037,825 1037,828 1038,829 1038,844 1037,845 1037,847 1036,848 1036,849 1035,850 1035,853 1034,854 1034,856 1032,858 1032,859 1031,860 1031,861 1030,862 1030,863 1028,865 1028,866 1027,867 1027,868 1024,871 1024,872 1023,873 1023,874 1020,877 1020,878 1016,882 1016,883 1015,884 1015,885 1013,887 1013,888 1012,889 1012,890 1009,893 1009,894 1006,897 1006,898 1005,899 1005,900 1004,901 1004,902 1001,905 1001,906 999,908 999,909 997,911 997,912 994,915 994,916 993,917 993,918 990,921 990,922 989,923 989,924 987,926 987,927 986,928 986,929 985,930 985,931 983,933 983,934 982,935 982,937 981,938 981,939 979,941 979,942 978,943 978,944 975,947 975,949 974,950 974,951 972,953 972,954 971,955 971,956 970,957 970,958 968,960 968,961 967,962 967,963 965,965 965,966 964,967 964,968 963,969 963,970 962,971 962,972 961,973 961,974 960,975 960,976 959,977 959,979 958,980 958,981 957,982 957,983 956,984 956,987 955,988 955,989 954,990 954,992 953,993 953,998 952,999 952,1005 953,1006 953,1010 956,1013 956,1014 961,1019 962,1019 963,1020 964,1020 967,1023 968,1023 969,1024 970,1024 972,1026 974,1026 975,1027 980,1027 981,1028 982,1028 983,1029 984,1029 985,1030 993,1030 994,1031 1000,1031 1001,1032 1002,1032 1004,1034 1005,1034 1006,1035 1007,1035 1012,1040 1012,1041 1013,1042 1013,1043 1015,1045 1015,1046 1016,1047 1016,1049 1017,1050 1017,1055 1016,1056 1016,1059 1014,1061 986,1061 985,1060 969,1060 968,1059 962,1059 961,1058 952,1058 951,1057 945,1057 944,1056 936,1056 935,1055 928,1055 927,1054 905,1054 904,1053 875,1053 874,1052 866,1052 865,1053 860,1053 859,1054 859,1055 858,1056 858,1065 859,1066 859,1068 860,1069 860,1071 859,1072 859,1074 858,1075 858,1077 857,1078 857,1079 1919,1079 1919,0 Z" fill="black" stroke="none" /></svg>