<?xml version="1.0" encoding="utf-8" ?>
<svg baseProfile="tiny" height="1080px" version="1.2" viewBox="0,0,1920,1080" width="1920px" xmlns="http://www.w3.org/2000/svg" xmlns:ev="http://www.w3.org/2001/xml-events" xmlns:xlink="http://www.w3.org/1999/xlink"><defs /><path d="M1129,1070 1128,1071 1126,1071 1124,1073 1124,1074 1130,1074 1131,1075 1147,1075 1148,1074 1155,1074 1155,1072 1153,1070 Z" fill="black" stroke="none" /><path d="M927,971 926,972 926,973 927,974 933,974 934,973 937,973 938,974 943,974 944,973 944,972 943,971 939,971 938,972 937,972 936,973 935,973 934,972 932,972 931,971 Z" fill="black" stroke="none" /><path d="M951,961 948,964 948,966 949,967 954,967 955,966 959,966 960,965 961,965 961,964 959,962 958,962 957,961 Z" fill="black" stroke="none" /><path d="M0,0 0,1079 973,1079 973,1078 972,1077 971,1077 970,1076 967,1076 966,1075 950,1075 948,1073 947,1073 944,1070 943,1070 938,1065 938,1064 937,1063 937,1061 936,1060 936,1057 935,1056 935,1052 934,1051 934,1046 933,1045 933,1043 932,1042 932,1041 931,1040 931,1039 930,1038 930,1033 929,1032 929,1028 928,1027 928,1026 926,1024 926,1022 925,1021 925,1018 924,1017 924,1014 921,1011 921,1004 922,1003 922,1002 921,1001 921,997 920,996 920,992 922,990 924,990 925,989 929,989 930,988 937,988 938,987 939,987 940,986 941,986 943,984 942,984 941,983 940,983 939,982 938,982 937,981 936,981 934,979 933,979 932,978 928,978 927,977 923,977 922,976 922,975 919,975 918,976 914,976 911,973 911,971 913,969 914,969 916,967 917,967 920,970 921,970 922,969 924,969 924,968 928,964 930,964 932,962 932,958 933,957 933,956 935,954 938,957 938,965 939,966 944,966 944,961 943,960 943,954 944,953 944,952 946,950 950,950 951,951 954,951 957,948 961,948 964,951 965,951 966,952 967,952 968,953 969,953 969,952 971,950 971,943 970,942 970,941 969,940 964,940 962,942 958,942 957,943 956,943 954,945 953,944 953,943 949,939 946,939 945,940 945,943 942,946 939,946 938,945 938,943 937,942 937,941 936,940 936,939 934,939 933,938 931,938 930,937 928,937 927,936 926,936 925,935 930,930 932,930 933,929 936,929 937,928 942,928 943,927 944,927 945,926 946,926 948,924 949,924 948,923 948,922 944,918 943,918 942,917 941,917 940,916 937,916 936,915 930,915 929,914 923,914 922,915 920,915 919,916 913,916 909,912 910,911 910,905 911,904 911,899 912,898 911,897 911,888 910,887 910,878 909,877 909,875 907,873 907,871 904,868 904,867 903,866 903,864 902,863 902,862 900,860 900,857 899,856 899,851 898,850 898,846 897,845 897,840 898,839 898,833 899,832 899,820 900,819 900,811 901,810 901,808 902,807 902,805 903,804 903,797 904,796 904,792 905,791 905,789 906,788 906,785 907,784 907,779 908,778 908,776 909,775 909,773 910,772 910,765 911,764 911,757 912,756 912,751 911,750 911,748 910,747 910,745 909,744 909,742 908,741 908,740 907,740 906,739 904,739 903,738 902,738 899,735 898,735 895,732 895,731 894,731 892,729 892,728 889,725 889,724 888,723 888,722 887,721 887,720 886,719 886,718 885,717 885,715 884,714 884,713 882,711 882,710 881,709 881,707 880,706 880,705 879,704 879,703 878,702 878,698 877,697 877,693 876,692 876,690 875,689 875,666 874,665 874,657 873,656 873,647 874,646 874,640 873,639 873,638 874,637 874,632 873,631 873,622 872,621 872,619 870,617 870,616 865,611 865,610 854,599 854,598 846,590 846,589 845,589 843,587 843,586 842,585 841,585 839,583 839,582 838,581 837,581 835,579 835,578 834,578 801,545 801,544 796,539 796,538 791,533 791,532 788,529 788,528 786,526 786,525 783,522 783,521 780,518 780,517 779,516 779,515 777,513 777,512 775,510 775,509 772,506 772,505 771,504 771,503 769,501 769,500 768,499 768,498 766,496 766,495 765,494 765,493 764,492 764,491 763,490 763,489 762,488 762,487 761,486 761,484 760,483 760,481 759,480 759,479 758,478 758,475 757,474 757,455 758,454 758,453 759,452 759,451 760,450 760,448 761,447 761,444 762,443 762,442 763,441 763,440 764,439 764,437 765,436 765,433 767,431 767,430 768,429 768,427 769,426 769,424 770,423 771,423 771,422 772,421 772,419 773,418 773,417 775,415 775,414 776,413 776,412 777,411 777,410 779,408 779,407 780,406 780,405 783,402 783,401 784,400 784,399 786,397 786,396 788,394 788,393 789,392 790,392 790,391 799,382 800,382 801,381 802,381 802,380 803,379 804,379 805,378 806,378 806,377 808,375 810,375 811,374 812,374 814,372 815,372 816,371 819,371 820,370 821,370 822,369 823,369 831,361 831,360 832,359 832,358 835,355 835,354 839,350 839,349 840,348 840,347 846,341 846,340 847,339 847,337 848,336 848,335 849,334 849,333 850,332 850,330 851,329 851,327 854,324 854,323 856,321 856,320 858,318 858,317 862,313 862,312 868,306 868,305 872,301 872,300 877,295 877,294 879,292 880,292 881,291 881,290 883,288 884,288 885,287 885,286 886,285 887,285 888,284 889,284 893,280 894,280 897,277 901,277 902,276 904,276 905,275 906,275 908,273 909,273 912,270 913,270 914,269 916,269 919,266 920,266 921,265 922,265 924,263 925,263 926,262 928,262 929,261 932,261 934,259 935,259 936,258 940,258 941,257 942,257 943,256 944,256 945,255 946,255 947,254 951,254 952,253 954,253 956,251 959,251 960,250 964,250 965,249 966,249 967,248 968,248 969,247 975,247 976,246 979,246 980,245 981,245 982,244 983,244 984,243 988,243 989,242 990,242 991,241 992,241 993,240 994,240 995,239 1000,239 1001,238 1003,238 1005,236 1007,236 1008,235 1012,235 1013,234 1014,234 1016,232 1021,232 1022,231 1027,231 1028,230 1029,230 1033,226 1033,224 1034,223 1034,219 1035,218 1035,217 1036,216 1036,215 1037,214 1037,213 1038,212 1038,209 1039,208 1039,199 1038,198 1038,194 1037,193 1037,192 1034,189 1034,187 1033,186 1033,185 1031,183 1031,182 1030,181 1030,180 1028,178 1028,177 1027,176 1027,175 1026,174 1026,172 1024,170 1024,169 1023,168 1023,166 1022,165 1022,164 1020,162 1020,161 1019,160 1019,157 1018,156 1018,154 1017,153 1017,152 1016,151 1016,146 1015,145 1015,139 1014,138 1014,137 1013,136 1013,135 1012,134 1012,133 1011,132 1011,130 1009,128 1009,127 1008,126 1008,125 1007,124 1007,123 1006,122 1006,121 1005,120 1005,119 1004,118 1004,116 1003,115 1003,114 1001,112 1001,110 1000,109 1000,106 999,105 999,104 998,103 998,102 997,101 997,77 998,76 998,75 1000,73 1000,71 1001,70 1001,68 1002,67 1002,66 1004,64 1004,62 1005,61 1005,60 1007,58 1007,57 1008,56 1008,54 1011,51 1011,50 1012,49 1012,47 1015,44 1015,43 1016,42 1016,41 1017,40 1017,39 1020,36 1020,35 1026,29 1027,29 1027,28 1029,26 1030,26 1035,21 1036,21 1038,19 1039,19 1040,18 1041,18 1042,17 1043,17 1045,15 1046,15 1047,14 1050,14 1051,13 1054,13 1055,12 1057,12 1058,11 1060,11 1061,10 1074,10 1075,11 1078,11 1079,10 1084,10 1085,9 1088,9 1089,8 1092,8 1093,7 1096,7 1097,6 1110,6 1111,7 1113,7 1114,8 1116,8 1117,9 1120,9 1121,10 1123,10 1126,13 1128,13 1129,14 1130,14 1131,15 1132,15 1134,17 1135,17 1136,18 1138,18 1139,19 1140,19 1142,21 1143,21 1144,22 1145,22 1146,23 1147,23 1149,25 1150,25 1151,26 1152,26 1153,27 1155,27 1156,28 1157,28 1158,29 1160,29 1161,30 1162,30 1163,31 1164,31 1167,34 1169,34 1171,36 1173,36 1174,37 1175,37 1176,38 1177,38 1181,42 1181,43 1185,47 1187,47 1189,49 1190,49 1191,50 1191,51 1192,52 1192,54 1193,55 1193,56 1194,57 1194,58 1196,60 1196,61 1199,64 1199,65 1200,66 1200,68 1201,69 1201,70 1202,71 1202,72 1203,73 1203,83 1204,84 1203,85 1203,106 1202,107 1202,110 1201,111 1201,112 1200,113 1200,114 1199,115 1199,116 1197,118 1197,119 1196,120 1196,121 1195,122 1195,124 1194,125 1194,127 1193,128 1193,129 1192,130 1192,132 1190,134 1190,135 1189,136 1189,137 1188,138 1188,139 1187,140 1187,141 1186,142 1186,143 1185,144 1185,145 1184,146 1184,147 1183,148 1183,149 1181,151 1181,152 1180,153 1180,154 1179,155 1179,156 1178,157 1178,158 1177,159 1177,160 1176,161 1176,163 1174,165 1174,166 1166,174 1166,175 1165,176 1165,177 1164,178 1164,179 1163,180 1163,183 1162,184 1162,189 1161,190 1161,195 1162,196 1162,198 1163,199 1163,201 1164,202 1164,203 1165,204 1165,207 1166,208 1166,235 1167,236 1167,241 1169,243 1169,244 1170,245 1170,246 1175,251 1176,251 1178,253 1179,253 1180,254 1182,254 1183,255 1184,255 1187,258 1188,258 1191,261 1192,261 1193,262 1194,262 1197,265 1198,265 1202,269 1203,269 1204,270 1205,270 1207,272 1208,272 1209,273 1211,273 1214,276 1215,276 1218,279 1218,280 1221,283 1222,283 1223,284 1224,284 1226,286 1227,286 1228,287 1229,287 1230,288 1231,288 1232,289 1234,289 1235,290 1236,290 1237,291 1238,291 1239,292 1241,292 1242,293 1243,293 1245,295 1246,295 1247,296 1248,296 1250,298 1251,298 1252,299 1254,299 1255,300 1256,300 1257,301 1258,301 1259,302 1260,302 1261,303 1262,303 1265,306 1266,306 1268,308 1269,308 1274,313 1274,314 1279,319 1279,320 1290,331 1290,332 1298,340 1298,341 1299,341 1300,342 1300,343 1302,345 1303,345 1304,346 1304,347 1305,348 1306,348 1312,354 1312,355 1314,357 1314,358 1316,360 1316,362 1318,364 1318,365 1319,366 1319,368 1320,369 1320,370 1322,372 1322,373 1323,374 1323,376 1324,377 1324,378 1326,380 1326,382 1327,383 1327,385 1328,386 1328,387 1329,388 1329,389 1330,390 1330,391 1331,392 1331,395 1332,396 1332,397 1334,399 1334,402 1335,403 1335,405 1336,406 1336,407 1337,408 1337,409 1338,410 1338,413 1339,414 1339,416 1340,417 1340,418 1341,419 1341,421 1342,422 1342,427 1343,428 1343,430 1344,431 1344,433 1345,434 1345,437 1346,438 1346,442 1347,443 1347,445 1348,446 1348,447 1349,448 1349,452 1350,453 1350,457 1351,458 1351,461 1352,462 1352,464 1353,465 1353,470 1354,471 1354,475 1355,476 1355,478 1356,479 1356,482 1357,483 1357,491 1358,492 1358,500 1359,501 1359,506 1360,507 1360,524 1359,525 1359,532 1358,533 1358,567 1357,568 1357,574 1356,575 1356,576 1355,577 1355,578 1354,579 1354,580 1353,581 1353,583 1351,585 1351,586 1350,587 1350,588 1349,589 1349,590 1347,592 1347,593 1346,594 1346,595 1345,596 1345,597 1342,600 1342,601 1340,603 1340,604 1338,606 1338,607 1335,610 1335,611 1334,612 1334,613 1333,614 1332,614 1330,616 1330,617 1329,618 1328,618 1327,619 1326,619 1324,621 1323,621 1322,622 1321,622 1320,623 1319,623 1318,624 1317,624 1316,625 1315,625 1314,626 1312,626 1311,627 1310,627 1308,629 1306,629 1305,630 1303,630 1302,631 1301,631 1299,633 1297,633 1296,634 1294,634 1292,636 1290,636 1289,637 1287,637 1286,638 1285,638 1284,639 1283,639 1282,640 1281,640 1280,641 1278,641 1277,642 1276,642 1275,643 1274,643 1273,644 1271,644 1270,645 1267,645 1266,646 1263,646 1262,647 1259,647 1258,648 1251,648 1250,649 1244,649 1243,650 1241,650 1238,653 1238,654 1237,655 1237,656 1236,657 1236,658 1235,659 1235,661 1234,662 1234,666 1233,667 1233,671 1232,672 1232,673 1230,675 1230,676 1229,677 1229,678 1226,681 1226,682 1221,687 1221,688 1220,689 1219,689 1218,690 1218,691 1216,693 1215,693 1213,695 1213,696 1210,699 1210,704 1209,705 1209,707 1210,708 1210,710 1211,711 1211,713 1214,716 1214,717 1215,718 1215,719 1216,720 1216,721 1218,723 1218,725 1219,726 1219,728 1220,729 1220,730 1221,731 1221,732 1222,733 1222,739 1223,740 1223,744 1224,745 1224,747 1225,748 1225,754 1226,755 1226,784 1225,785 1225,790 1224,791 1224,793 1223,794 1223,798 1222,799 1222,804 1221,805 1221,807 1220,808 1220,810 1219,811 1219,871 1218,872 1218,893 1219,894 1219,895 1220,896 1265,896 1266,897 1270,897 1271,898 1270,899 1268,899 1267,900 1264,900 1263,901 1250,901 1249,902 1239,902 1238,903 1230,903 1228,905 1227,905 1226,904 1223,904 1222,905 1221,905 1223,907 1224,907 1225,908 1226,908 1227,909 1226,910 1225,910 1223,912 1223,917 1225,919 1225,920 1227,922 1227,923 1228,924 1228,925 1227,926 1227,927 1224,930 1222,930 1221,931 1220,931 1218,933 1218,934 1216,936 1216,938 1215,939 1215,940 1212,943 1211,942 1210,942 1209,941 1208,941 1205,938 1201,938 1200,939 1200,940 1198,942 1198,946 1201,946 1204,949 1207,949 1209,947 1210,947 1213,944 1215,946 1216,946 1217,947 1218,947 1223,952 1226,952 1227,951 1229,951 1231,953 1233,953 1235,951 1236,952 1236,953 1237,954 1237,955 1239,957 1239,958 1238,959 1238,960 1237,961 1237,962 1235,964 1233,964 1232,963 1231,964 1231,970 1230,971 1230,972 1231,973 1236,973 1237,972 1239,972 1240,973 1243,973 1244,974 1247,974 1248,975 1252,975 1253,976 1254,976 1255,977 1256,977 1259,980 1258,981 1257,981 1256,982 1254,982 1253,983 1248,983 1247,984 1241,984 1239,986 1238,986 1237,987 1237,988 1233,992 1232,992 1231,993 1220,993 1219,994 1217,994 1216,995 1215,995 1212,998 1212,1000 1211,1001 1211,1004 1212,1005 1212,1008 1213,1009 1213,1025 1214,1026 1214,1038 1213,1039 1213,1044 1214,1045 1214,1054 1215,1055 1215,1065 1214,1066 1214,1068 1213,1069 1213,1070 1212,1071 1211,1071 1208,1074 1208,1075 1207,1076 1207,1077 1206,1078 1206,1079 1919,1079 1919,0 Z" fill="black" stroke="none" /></svg>