<?xml version="1.0" encoding="utf-8" ?>
<svg baseProfile="tiny" height="1080px" version="1.2" viewBox="0,0,1920,1080" width="1920px" xmlns="http://www.w3.org/2000/svg" xmlns:ev="http://www.w3.org/2001/xml-events" xmlns:xlink="http://www.w3.org/1999/xlink"><defs /><path d="M1138,917 1135,920 1135,921 1134,922 1134,927 1136,929 1138,929 1138,928 1139,927 1139,926 1140,925 1140,923 1143,920 1142,920 1139,917 Z" fill="black" stroke="none" /><path d="M0,0 0,1079 648,1079 648,1069 649,1068 649,1062 650,1061 650,1057 651,1056 651,1049 652,1048 652,1036 653,1035 653,1027 654,1026 654,1019 655,1018 655,1007 656,1006 656,992 657,991 657,987 658,986 658,983 659,982 659,972 660,971 660,963 661,962 661,959 662,958 662,955 663,954 663,949 664,948 664,943 665,942 665,938 666,937 666,932 667,931 667,922 668,921 668,918 669,917 669,915 670,914 670,910 671,909 671,904 672,903 672,900 673,899 673,897 674,896 674,895 675,894 675,892 676,891 676,890 678,888 678,887 679,886 679,885 680,884 680,883 681,882 681,878 682,877 682,873 683,872 683,870 684,869 684,867 685,866 685,862 686,861 686,860 688,858 688,857 689,856 689,854 690,853 690,852 691,851 691,850 692,849 692,846 693,845 693,841 692,840 692,821 693,820 693,814 694,813 694,811 695,810 695,809 696,808 696,806 697,805 697,802 699,800 699,799 700,798 700,795 701,794 701,791 702,790 702,789 703,788 703,787 704,786 704,783 705,782 705,780 707,778 707,776 708,775 708,771 709,770 709,769 710,768 710,767 711,766 711,761 712,760 712,753 713,752 713,749 714,748 714,744 715,743 715,731 716,730 716,723 717,722 717,720 718,719 718,717 719,716 719,714 720,713 720,711 722,709 722,708 723,707 723,705 724,704 724,703 726,701 726,700 727,699 727,698 730,695 730,694 731,693 731,692 733,690 733,689 735,687 735,686 737,684 737,683 738,682 738,681 741,678 741,677 742,676 742,675 745,672 745,671 746,670 746,669 749,666 749,665 750,664 750,663 751,662 751,661 753,659 753,657 754,656 754,655 756,653 756,651 757,650 757,647 758,646 758,643 759,642 759,639 760,638 760,632 761,631 761,624 762,623 762,621 763,620 763,618 764,617 764,613 765,612 765,610 766,609 766,608 767,607 767,605 768,604 768,602 769,601 769,600 770,599 770,597 771,596 771,595 772,594 772,593 773,592 773,591 774,590 774,589 776,587 776,586 777,585 777,584 778,583 778,582 779,581 779,580 780,579 780,576 781,575 781,573 782,572 782,570 783,569 783,567 784,566 784,564 785,563 785,558 786,557 786,549 785,548 785,545 779,539 779,538 778,538 777,537 776,537 775,536 774,536 772,534 771,534 766,529 766,528 765,527 765,526 764,525 764,515 765,514 765,510 766,509 766,507 767,506 767,504 768,503 768,501 769,500 769,499 771,497 771,496 772,495 772,494 773,493 773,492 775,490 775,488 776,487 776,486 778,484 778,483 779,482 779,481 780,480 780,479 782,477 782,476 783,475 783,474 784,473 784,472 786,470 786,468 787,467 787,466 790,463 790,462 791,461 791,460 793,458 793,457 794,456 794,454 795,453 795,452 796,451 796,450 797,449 797,448 798,447 798,446 799,445 799,444 800,443 800,441 801,440 801,437 802,436 802,432 803,431 803,420 804,419 804,408 803,407 803,404 802,403 802,398 801,397 801,392 800,391 800,390 799,389 799,387 798,386 798,384 797,383 797,381 796,380 796,379 795,378 795,376 794,375 794,374 793,373 793,372 792,371 792,370 791,369 791,367 790,366 790,365 789,364 789,363 788,362 788,361 787,360 787,357 786,356 786,354 784,352 784,350 783,349 783,346 782,345 782,343 781,342 781,341 780,340 780,339 779,338 779,334 778,333 778,332 777,331 777,330 776,329 776,325 775,324 775,319 774,318 774,317 773,316 773,315 772,314 772,312 771,311 771,310 770,309 770,308 769,307 769,304 768,303 768,289 769,288 769,287 770,286 770,284 771,283 771,281 772,280 772,278 773,277 773,276 774,275 774,274 773,273 773,272 772,271 772,263 771,262 771,260 769,258 769,256 768,255 768,248 767,247 767,238 768,237 768,233 769,232 769,230 771,228 771,226 772,225 772,224 773,223 773,222 775,220 775,219 778,216 778,215 784,209 785,209 787,207 788,207 790,205 792,205 793,204 794,204 795,203 796,203 797,202 798,202 799,201 801,201 802,200 804,200 805,199 806,199 807,198 809,198 810,197 812,197 813,196 815,196 817,194 818,194 819,193 820,193 822,191 823,191 825,189 827,189 832,184 832,168 831,167 831,161 830,160 830,157 829,156 829,154 828,153 828,148 827,147 827,143 826,142 826,141 825,140 825,139 823,137 823,135 822,134 822,133 820,131 820,130 819,129 819,128 818,127 818,126 817,125 817,124 815,122 815,121 814,120 814,119 813,118 813,117 812,116 812,115 811,114 811,104 810,103 810,98 811,97 811,96 813,94 813,93 816,90 816,89 817,88 817,87 818,86 818,85 819,84 819,83 820,82 820,80 821,79 821,78 822,77 822,76 823,75 823,74 824,73 824,72 825,71 825,70 826,69 826,68 828,66 828,65 829,64 829,63 832,60 832,59 835,56 835,55 843,47 843,46 849,40 850,40 852,38 853,38 854,37 856,37 857,36 860,36 861,35 875,35 876,36 879,36 880,35 882,35 883,34 884,34 885,33 886,33 887,32 888,32 890,30 893,30 894,29 903,29 904,30 910,30 911,31 912,31 913,32 914,32 915,33 917,33 918,34 920,34 923,37 925,37 926,38 928,38 930,40 932,40 933,41 935,41 936,42 937,42 938,43 939,43 940,44 941,44 942,45 943,45 944,46 945,46 958,59 959,59 961,61 962,61 965,64 966,64 967,65 967,67 968,68 968,71 967,72 967,73 964,76 964,77 963,78 963,80 962,81 962,96 963,97 963,98 964,99 964,101 965,102 965,103 966,104 966,109 962,113 957,113 955,115 955,116 953,118 953,119 952,120 952,121 950,123 950,129 951,130 951,131 953,133 953,135 954,136 954,139 955,140 955,141 956,142 956,143 957,144 957,148 958,149 958,152 959,152 960,153 960,154 961,155 961,157 962,158 962,159 961,160 961,163 959,165 959,166 958,167 958,168 957,169 957,174 956,175 953,175 952,174 951,174 950,173 948,175 948,176 947,177 948,178 948,179 949,180 949,181 950,182 952,182 953,183 954,183 956,185 957,185 958,186 960,186 961,187 962,187 963,188 964,188 965,189 966,189 968,191 970,191 971,192 974,192 975,193 979,193 980,194 988,194 989,195 990,195 992,197 993,197 994,198 995,198 997,200 998,200 1000,202 1001,202 1003,204 1006,204 1007,205 1012,205 1013,206 1017,206 1018,207 1020,207 1021,208 1022,208 1023,209 1027,209 1028,210 1030,210 1046,226 1046,227 1047,228 1047,229 1050,232 1050,233 1051,234 1051,235 1052,236 1052,237 1053,238 1053,239 1054,240 1054,241 1057,244 1057,245 1058,246 1058,247 1060,249 1060,250 1061,251 1061,254 1062,255 1062,256 1063,257 1063,258 1064,259 1064,262 1065,263 1065,266 1066,267 1066,269 1067,270 1067,271 1068,272 1068,275 1069,276 1069,280 1070,281 1070,283 1071,284 1071,286 1072,287 1072,289 1073,290 1073,293 1074,294 1074,295 1076,297 1076,299 1077,300 1077,301 1078,302 1078,303 1079,304 1079,305 1080,306 1080,308 1081,309 1081,310 1083,312 1083,313 1084,314 1084,315 1086,317 1086,318 1087,319 1087,320 1088,321 1088,322 1089,323 1089,324 1090,325 1090,326 1091,327 1091,328 1092,329 1092,330 1094,332 1094,334 1095,335 1095,340 1096,341 1096,348 1097,349 1097,352 1098,353 1098,359 1099,360 1099,370 1100,371 1100,380 1101,381 1101,384 1102,385 1102,390 1103,391 1103,401 1104,402 1104,406 1105,407 1105,413 1106,414 1106,425 1105,426 1105,430 1104,431 1104,433 1103,434 1103,438 1102,439 1102,443 1101,444 1101,445 1099,447 1099,448 1098,449 1098,450 1095,453 1095,454 1092,457 1091,457 1088,460 1086,460 1085,461 1081,461 1080,462 1076,462 1075,463 1073,463 1072,464 1068,464 1067,465 1061,465 1060,466 1057,466 1056,467 1053,467 1052,468 1050,468 1049,469 1047,469 1046,470 1044,470 1042,472 1041,472 1040,473 1040,475 1039,476 1039,483 1038,484 1038,491 1037,492 1037,495 1036,496 1036,497 1035,498 1035,501 1034,502 1034,504 1028,510 1028,511 1024,515 1024,516 1020,520 1019,520 1014,525 1014,528 1013,529 1013,534 1014,535 1014,543 1015,544 1015,546 1016,547 1016,550 1017,551 1017,552 1020,555 1020,556 1030,566 1030,567 1031,568 1031,569 1033,571 1033,572 1034,573 1034,574 1035,575 1035,576 1038,579 1038,581 1039,582 1039,584 1041,586 1041,587 1042,588 1042,591 1043,592 1043,594 1044,595 1044,596 1045,597 1045,600 1046,601 1046,611 1047,612 1047,615 1048,616 1048,618 1049,619 1049,626 1050,627 1050,639 1051,640 1051,642 1052,643 1052,644 1053,645 1053,647 1054,648 1054,650 1055,651 1055,652 1056,653 1056,654 1057,655 1057,657 1058,658 1058,659 1059,660 1059,661 1060,662 1060,663 1061,664 1061,665 1062,666 1062,667 1064,669 1064,671 1065,672 1065,673 1067,675 1067,676 1068,677 1068,678 1069,679 1069,681 1071,683 1071,684 1072,685 1072,687 1073,688 1073,689 1075,691 1075,692 1076,693 1076,695 1077,696 1077,698 1079,700 1079,702 1080,703 1080,705 1081,706 1081,707 1082,708 1082,709 1083,710 1083,711 1084,712 1084,714 1085,715 1085,716 1087,718 1087,720 1088,721 1088,722 1089,723 1089,724 1090,725 1090,726 1091,727 1091,729 1092,730 1092,731 1094,733 1094,735 1095,736 1095,738 1096,739 1096,740 1098,742 1098,743 1099,744 1099,747 1100,748 1100,749 1102,751 1102,753 1103,754 1103,756 1104,757 1104,758 1105,759 1105,760 1106,761 1106,764 1107,765 1107,767 1108,768 1108,769 1109,770 1109,772 1110,773 1110,776 1111,777 1111,778 1112,779 1112,780 1113,781 1113,783 1114,784 1114,787 1115,788 1115,789 1116,790 1116,791 1117,792 1117,795 1118,796 1118,799 1119,800 1119,801 1120,802 1120,809 1121,810 1121,815 1122,816 1122,818 1123,819 1123,821 1124,822 1124,839 1125,840 1125,843 1126,844 1126,845 1127,846 1127,847 1129,849 1129,850 1130,851 1130,852 1131,853 1131,857 1132,858 1132,860 1133,861 1133,862 1134,863 1134,864 1135,865 1135,867 1136,868 1136,870 1137,871 1137,872 1140,875 1140,876 1142,878 1142,879 1143,880 1143,882 1147,886 1147,887 1150,890 1150,891 1151,892 1151,893 1152,894 1152,895 1153,896 1153,899 1149,903 1149,904 1148,905 1148,906 1147,907 1147,911 1146,912 1147,913 1147,914 1148,914 1149,915 1152,915 1154,917 1154,918 1156,920 1156,922 1157,923 1157,925 1156,926 1154,926 1153,927 1151,927 1150,926 1150,924 1149,923 1149,922 1149,926 1150,927 1151,927 1152,928 1153,928 1156,931 1156,932 1155,933 1155,935 1154,936 1153,936 1152,937 1151,937 1149,939 1149,940 1148,941 1148,943 1149,943 1150,944 1151,944 1152,945 1153,945 1154,946 1161,946 1162,947 1163,947 1167,951 1168,951 1169,952 1170,952 1173,955 1173,957 1174,958 1174,959 1175,960 1175,961 1176,962 1176,966 1177,967 1177,981 1176,982 1176,983 1175,984 1174,983 1173,983 1172,982 1171,982 1170,981 1170,980 1169,980 1167,978 1166,978 1164,976 1164,975 1163,976 1162,976 1160,978 1160,982 1159,983 1159,984 1160,985 1160,986 1161,987 1161,988 1158,991 1157,991 1156,992 1155,992 1154,993 1152,993 1151,994 1150,994 1148,996 1148,998 1147,999 1147,1006 1150,1009 1151,1009 1156,1014 1156,1016 1157,1017 1157,1018 1158,1019 1158,1020 1159,1021 1159,1022 1160,1023 1160,1026 1155,1031 1155,1032 1154,1033 1154,1036 1153,1037 1153,1039 1152,1040 1152,1041 1153,1042 1153,1045 1154,1045 1155,1046 1157,1046 1158,1047 1162,1047 1164,1045 1165,1046 1165,1047 1169,1051 1169,1053 1170,1054 1170,1056 1171,1057 1171,1059 1172,1060 1172,1063 1167,1068 1164,1068 1163,1067 1161,1067 1160,1066 1159,1066 1153,1060 1149,1060 1148,1061 1147,1061 1146,1062 1145,1062 1144,1063 1144,1067 1145,1068 1148,1068 1149,1069 1152,1069 1154,1071 1154,1073 1152,1075 1151,1075 1150,1076 1142,1076 1141,1075 1140,1075 1139,1074 1138,1074 1136,1072 1134,1072 1131,1069 1131,1068 1129,1066 1129,1064 1128,1063 1128,1062 1127,1061 1127,1060 1125,1058 1125,1056 1124,1055 1124,1052 1125,1051 1125,1047 1124,1046 1124,1045 1123,1044 1123,1043 1122,1042 1122,1041 1121,1040 1121,1025 1123,1023 1124,1023 1125,1024 1127,1024 1130,1021 1130,1020 1131,1019 1131,1017 1125,1011 1123,1011 1122,1010 1118,1010 1117,1009 1116,1009 1114,1007 1113,1007 1109,1003 1109,1000 1108,999 1108,996 1107,995 1107,987 1106,986 1106,985 1105,984 1105,983 1104,982 1104,981 1103,980 1103,976 1102,975 1102,971 1101,970 1101,965 1100,964 1100,963 1098,961 1098,960 1096,958 1096,957 1095,956 1095,954 1094,953 1094,952 1093,951 1093,949 1092,948 1092,947 1091,946 1091,945 1090,944 1090,943 1088,941 1088,940 1084,936 1084,935 1083,934 1083,932 1082,931 1082,930 1081,929 1081,928 1080,927 1080,923 1079,922 1079,920 1076,917 1076,916 1075,915 1074,915 1072,913 1072,912 1070,910 1070,909 1068,907 1068,906 1067,905 1067,904 1065,902 1065,901 1064,900 1064,899 1061,896 1061,895 1060,894 1060,893 1058,891 1058,890 1057,889 1057,888 1054,885 1054,884 1052,882 1052,881 1049,878 1049,877 1048,877 1046,875 1046,874 1037,865 1036,865 1035,864 1035,863 1031,859 1031,858 1029,856 1029,855 1026,852 1026,851 1024,849 1024,848 1023,847 1023,846 1021,844 1021,843 1020,842 1020,841 1019,840 1019,839 1017,837 1017,836 1016,835 1016,834 1015,833 1015,832 1013,830 1013,829 1012,828 1012,827 1011,826 1011,825 1009,823 1009,822 1008,821 1008,820 1007,819 1007,818 1005,816 1005,815 1004,814 1004,813 1001,810 1001,809 996,804 996,803 989,796 989,795 982,788 982,787 976,781 976,780 973,777 973,776 971,774 971,773 968,770 968,769 966,767 966,766 963,763 963,762 959,758 959,757 952,750 952,749 948,745 947,745 940,738 939,738 932,731 931,731 924,724 923,724 922,723 921,723 920,722 919,722 917,720 915,720 914,719 912,719 911,718 910,718 909,717 905,717 904,718 902,718 901,719 900,719 899,720 897,720 893,724 892,724 873,743 873,744 866,751 866,752 863,755 863,756 861,758 861,759 858,762 858,763 855,766 855,767 852,770 852,771 850,773 850,774 848,776 848,777 847,778 847,779 844,782 844,783 843,784 843,785 840,788 840,789 839,790 839,791 837,793 837,794 836,795 836,796 833,799 833,800 832,801 832,803 829,806 829,808 828,809 828,810 827,811 827,812 825,814 825,816 824,817 824,819 822,821 822,823 821,824 821,827 820,828 820,829 819,830 819,831 818,832 818,833 817,834 817,838 815,840 815,841 814,842 814,844 813,845 813,847 811,849 811,850 810,851 810,853 809,854 809,856 806,859 806,860 803,863 803,864 802,865 802,866 799,869 799,870 798,871 798,873 796,875 796,876 795,877 795,879 794,880 794,882 792,884 792,885 791,886 791,887 790,888 790,889 788,891 788,892 787,893 787,894 778,903 777,903 775,905 774,905 772,907 771,907 770,908 769,908 768,909 767,909 765,911 765,912 762,915 762,916 761,917 761,919 760,920 760,921 758,923 758,924 751,931 751,933 750,934 750,936 749,937 749,948 748,949 748,952 747,953 747,955 746,956 746,958 745,959 745,961 744,962 744,964 743,965 743,968 742,969 742,974 741,975 741,978 740,979 740,980 739,981 739,986 738,987 738,992 737,993 737,995 736,996 736,997 735,998 735,1002 734,1003 734,1007 733,1008 733,1009 732,1010 732,1012 731,1013 731,1017 730,1018 730,1020 729,1021 729,1022 728,1023 728,1025 727,1026 727,1030 726,1031 726,1033 725,1034 725,1035 724,1036 724,1040 723,1041 723,1046 722,1047 722,1049 721,1050 721,1051 720,1052 720,1058 719,1059 719,1063 717,1065 717,1066 716,1067 716,1070 715,1071 715,1072 714,1073 714,1074 713,1075 713,1079 1919,1079 1919,0 Z" fill="black" stroke="none" /></svg>