<?xml version="1.0" encoding="utf-8" ?>
<svg baseProfile="tiny" height="1080px" version="1.2" viewBox="0,0,1920,1080" width="1920px" xmlns="http://www.w3.org/2000/svg" xmlns:ev="http://www.w3.org/2001/xml-events" xmlns:xlink="http://www.w3.org/1999/xlink"><defs /><path d="M1133,1062 1134,1063 1135,1062 1136,1062 Z" fill="black" stroke="none" /><path d="M1098,1046 1097,1047 1097,1048 1102,1048 1102,1047 1101,1046 Z" fill="black" stroke="none" /><path d="M1292,983 1291,984 1290,984 1290,989 1291,990 1292,990 1293,989 1295,989 1296,988 1296,984 1295,983 Z" fill="black" stroke="none" /><path d="M1254,967 1254,968 1253,969 1253,973 1263,973 1264,972 1265,972 1263,970 1262,970 1261,969 1260,969 1259,968 1255,968 Z" fill="black" stroke="none" /><path d="M1151,950 1153,952 1154,951 1158,951 1159,950 1162,950 Z" fill="black" stroke="none" /><path d="M1098,949 1097,950 1096,950 1096,951 1098,953 1101,953 1104,950 1102,950 1101,949 Z" fill="black" stroke="none" /><path d="M691,908 690,909 689,909 689,910 690,911 690,912 691,913 691,914 692,915 692,916 693,916 694,917 696,917 698,919 702,919 704,917 704,915 702,913 702,912 701,911 701,910 699,908 Z" fill="black" stroke="none" /><path d="M605,672 597,680 597,681 598,682 598,692 599,693 599,694 601,696 601,697 605,697 605,695 606,694 606,688 607,687 607,683 608,682 608,674 607,674 Z" fill="black" stroke="none" /><path d="M1085,644 1083,646 1083,647 1082,648 1082,649 1081,650 1081,655 1080,656 1080,658 1076,662 1074,662 1071,659 1071,657 1070,656 1070,650 1069,649 1069,648 1067,646 1065,646 1064,647 1061,647 1060,648 1057,648 1056,649 1051,649 1050,650 1052,650 1053,651 1055,651 1058,654 1058,656 1059,657 1059,659 1060,660 1060,666 1059,667 1059,670 1060,671 1060,672 1061,673 1061,674 1062,675 1062,677 1063,678 1063,681 1064,682 1064,687 1065,688 1065,689 1067,691 1067,692 1069,694 1069,695 1070,696 1070,697 1075,702 1076,702 1078,704 1082,704 1083,703 1084,703 1085,702 1085,696 1086,695 1086,647 1085,646 Z" fill="black" stroke="none" /><path d="M579,634 577,636 577,638 576,639 576,641 575,642 575,645 574,646 574,659 575,660 575,662 576,663 576,664 577,665 577,666 576,667 576,668 575,669 575,673 574,674 574,675 573,676 573,677 572,678 572,681 575,684 577,684 578,683 579,683 579,681 580,680 580,677 579,676 579,667 580,666 580,663 581,662 581,661 583,659 586,659 589,656 589,655 590,654 590,650 588,648 588,647 587,646 586,646 585,645 584,645 581,642 581,640 580,639 580,636 579,635 Z" fill="black" stroke="none" /><path d="M582,609 582,612 583,613 585,613 586,614 587,614 588,613 590,613 590,612 589,612 588,611 587,611 586,610 585,610 584,609 Z" fill="black" stroke="none" /><path d="M946,0 946,1 947,2 948,2 949,3 952,3 953,4 958,4 959,5 959,12 960,13 961,13 965,17 966,17 970,21 971,21 972,22 973,22 975,24 976,24 977,25 978,25 979,26 981,26 985,30 986,30 989,33 990,33 991,34 992,34 994,36 995,36 996,37 997,37 1001,41 1002,41 1005,44 1006,44 1007,45 1008,45 1009,46 1010,46 1012,48 1013,48 1014,49 1015,49 1016,50 1016,51 1017,52 1017,53 1018,54 1018,55 1019,56 1019,57 1020,58 1020,59 1022,61 1022,62 1023,63 1023,64 1024,65 1024,66 1029,71 1030,71 1037,78 1037,79 1038,80 1039,80 1041,82 1042,82 1045,85 1045,86 1047,88 1047,89 1049,91 1049,93 1050,94 1050,95 1051,96 1051,98 1052,99 1052,100 1053,101 1053,102 1054,103 1054,105 1055,106 1055,108 1056,109 1056,110 1057,111 1057,115 1058,116 1058,120 1059,121 1059,123 1060,124 1060,144 1059,145 1059,147 1058,148 1058,151 1057,152 1057,154 1056,155 1056,157 1055,158 1055,160 1054,161 1054,164 1053,165 1053,168 1052,169 1052,171 1051,172 1051,174 1050,175 1050,177 1049,178 1049,179 1048,180 1048,181 1047,182 1047,183 1046,184 1046,186 1045,187 1045,188 1044,189 1044,190 1043,191 1043,193 1042,194 1042,196 1041,197 1041,198 1039,200 1039,201 1038,202 1038,203 1034,207 1034,208 1032,210 1032,211 1031,212 1031,213 1029,215 1029,217 1028,218 1028,221 1027,222 1027,227 1026,228 1026,231 1025,232 1025,234 1024,235 1024,239 1023,240 1023,243 1022,244 1022,245 1021,246 1021,247 1020,248 1020,249 1019,250 1019,252 1018,253 1018,254 1017,255 1017,256 1016,257 1016,259 1015,260 1015,262 1014,263 1014,264 1013,265 1013,266 1012,267 1012,269 1011,270 1011,271 1009,273 1009,274 1008,275 1008,276 1007,277 1007,278 1006,279 1006,280 1004,282 1004,284 1002,286 1002,287 1001,288 1001,289 1000,290 1000,293 999,294 999,296 998,297 998,299 997,300 997,305 998,306 998,308 999,309 999,310 1000,311 1000,312 1001,313 1001,317 1002,318 1002,326 1003,327 1003,331 1004,332 1004,341 1005,342 1005,358 1006,359 1006,363 1008,365 1008,366 1009,367 1009,368 1013,372 1013,373 1020,380 1020,381 1024,385 1025,385 1026,386 1027,386 1030,389 1032,389 1033,390 1034,390 1036,392 1038,392 1039,393 1042,393 1043,394 1044,394 1045,395 1046,395 1047,396 1048,396 1049,397 1051,397 1052,398 1053,398 1055,400 1057,400 1058,401 1059,401 1060,402 1061,402 1063,404 1066,404 1069,407 1070,407 1072,409 1073,409 1075,411 1076,411 1077,412 1079,412 1080,413 1081,413 1082,414 1083,414 1084,415 1086,415 1087,416 1088,416 1089,417 1090,417 1091,418 1092,418 1093,419 1094,419 1095,420 1097,420 1098,421 1100,421 1101,422 1103,422 1104,423 1106,423 1107,424 1109,424 1110,425 1112,425 1113,426 1116,426 1117,427 1118,427 1122,431 1126,431 1127,432 1131,432 1132,433 1134,433 1135,434 1138,434 1139,435 1141,435 1142,436 1143,436 1144,437 1145,437 1146,438 1149,438 1150,439 1151,439 1152,440 1153,440 1154,441 1157,441 1158,442 1161,442 1162,443 1163,443 1164,444 1165,444 1166,445 1168,445 1169,446 1170,446 1171,447 1172,447 1173,448 1174,448 1175,449 1177,449 1178,450 1180,450 1182,452 1183,452 1184,453 1185,453 1186,454 1187,454 1189,456 1190,456 1191,457 1192,457 1193,458 1194,458 1197,461 1198,461 1200,463 1200,464 1201,464 1214,477 1214,478 1215,479 1215,480 1218,483 1218,484 1222,488 1222,489 1225,492 1225,493 1227,495 1227,496 1229,498 1229,499 1230,500 1230,501 1233,504 1233,506 1234,507 1234,508 1236,510 1236,511 1237,512 1237,514 1238,515 1238,516 1241,519 1241,522 1242,523 1242,524 1244,526 1244,527 1245,528 1245,530 1249,534 1249,535 1250,535 1252,537 1252,539 1253,540 1253,542 1255,544 1255,545 1256,546 1256,553 1257,554 1257,556 1258,557 1258,558 1259,559 1259,561 1260,562 1260,572 1261,573 1261,576 1262,577 1262,578 1263,579 1263,587 1264,588 1264,596 1265,597 1265,599 1266,600 1266,602 1267,603 1267,613 1268,614 1268,621 1269,622 1269,624 1270,625 1270,628 1271,629 1271,641 1272,642 1272,645 1273,646 1273,648 1274,649 1274,653 1275,654 1275,670 1276,671 1276,675 1277,676 1277,678 1278,679 1278,690 1279,691 1279,705 1280,706 1280,711 1281,712 1281,717 1282,718 1282,749 1283,750 1283,765 1284,766 1284,772 1285,773 1285,779 1286,780 1286,810 1287,811 1287,820 1288,821 1288,825 1289,826 1289,834 1290,835 1290,853 1291,854 1291,857 1292,858 1292,859 1293,860 1293,870 1294,871 1294,889 1293,890 1293,894 1292,895 1292,896 1291,897 1291,898 1293,900 1293,902 1294,903 1294,908 1293,909 1293,911 1292,912 1292,916 1293,917 1293,919 1294,920 1294,922 1295,923 1295,927 1297,929 1298,929 1300,931 1300,936 1299,937 1297,935 1296,935 1295,934 1295,935 1294,936 1294,937 1293,938 1293,943 1292,944 1291,944 1288,947 1284,947 1283,948 1280,948 1279,947 1276,947 1275,946 1270,946 1269,947 1267,947 1266,948 1263,948 1262,949 1257,949 1256,950 1253,950 1254,951 1254,955 1257,958 1257,959 1260,959 1263,956 1264,956 1265,955 1267,957 1267,962 1268,963 1268,966 1267,967 1267,971 1273,971 1274,970 1279,970 1280,971 1280,972 1280,968 1283,965 1288,965 1289,966 1290,966 1293,969 1291,971 1291,973 1292,973 1293,974 1297,974 1298,973 1299,973 1300,972 1301,972 1302,971 1303,971 1304,972 1304,976 1305,977 1305,978 1306,979 1306,984 1307,984 1308,985 1310,985 1311,986 1311,987 1312,988 1311,989 1311,991 1309,993 1307,993 1306,994 1304,994 1303,995 1298,995 1297,994 1296,994 1295,993 1293,993 1292,992 1287,992 1286,993 1280,993 1279,994 1276,994 1275,995 1273,995 1272,996 1269,996 1268,997 1266,997 1265,998 1264,998 1263,999 1262,999 1261,1000 1260,1000 1260,1001 1256,1005 1254,1005 1253,1006 1249,1006 1248,1007 1243,1007 1242,1008 1240,1008 1239,1009 1238,1009 1237,1010 1236,1010 1237,1011 1237,1012 1238,1013 1238,1014 1237,1015 1237,1016 1236,1017 1236,1018 1235,1019 1234,1019 1232,1021 1231,1021 1229,1023 1228,1023 1226,1025 1225,1025 1223,1027 1223,1028 1222,1029 1222,1030 1221,1031 1221,1032 1214,1039 1213,1039 1212,1040 1165,1040 1164,1039 1160,1039 1159,1040 1142,1040 1141,1039 1126,1039 1125,1040 1122,1040 1121,1041 1122,1042 1122,1044 1124,1046 1124,1047 1128,1051 1129,1051 1130,1052 1131,1052 1132,1053 1133,1053 1134,1054 1135,1053 1139,1053 1141,1051 1148,1051 1149,1050 1153,1050 1154,1051 1157,1051 1158,1052 1168,1052 1169,1051 1191,1051 1192,1050 1198,1050 1199,1049 1202,1049 1203,1048 1210,1048 1211,1047 1212,1047 1213,1048 1215,1048 1217,1050 1217,1051 1218,1052 1218,1064 1219,1065 1219,1068 1220,1069 1220,1072 1219,1073 1219,1079 1915,1079 1915,1078 1918,1075 1919,1075 1919,0 Z" fill="black" stroke="none" /><path d="M0,0 0,1079 1091,1079 1091,1078 1087,1074 1087,1072 1086,1071 1086,1069 1085,1068 1085,1065 1084,1064 1084,1042 1086,1040 1087,1040 1088,1041 1089,1041 1090,1040 1085,1040 1084,1039 1084,1037 1083,1036 1083,1035 1082,1034 1082,1033 1081,1032 1081,1026 1080,1025 1080,1011 1079,1010 1079,1000 1077,998 1075,998 1074,997 1071,997 1070,996 1043,996 1041,994 1040,994 1039,993 1037,993 1036,992 1030,992 1029,991 1028,991 1027,990 1018,990 1017,989 1016,989 1010,983 1010,981 1009,981 1008,980 1008,977 1009,976 1010,976 1011,975 1012,975 1013,974 1020,974 1021,975 1025,975 1026,974 1028,974 1029,973 1031,973 1032,974 1033,974 1035,976 1040,976 1044,972 1048,972 1049,973 1058,973 1059,972 1059,968 1057,966 1056,966 1054,964 1054,960 1055,959 1058,959 1059,960 1059,959 1063,955 1066,955 1069,958 1069,959 1070,960 1071,959 1072,959 1073,958 1074,958 1076,956 1076,955 1078,953 1081,956 1083,954 1083,953 1084,952 1084,950 1083,949 1083,948 1081,946 1079,948 1078,948 1075,945 1075,944 1074,944 1073,943 1073,941 1075,939 1076,939 1077,938 1078,938 1079,939 1080,939 1081,940 1082,939 1082,937 1083,936 1083,933 1084,932 1084,923 1087,920 1088,920 1089,919 1090,919 1091,918 1095,918 1096,917 1105,917 1106,916 1108,916 1108,915 1109,914 1109,913 1107,911 1107,910 1105,908 1104,908 1101,905 1101,902 1100,901 1101,900 1101,898 1097,898 1096,897 1020,897 1019,896 1007,896 1006,897 863,897 862,896 852,896 851,897 838,897 837,898 831,898 831,899 828,902 825,902 824,903 821,903 820,902 815,902 814,901 815,900 818,900 819,899 821,899 822,898 823,898 816,898 815,897 802,897 801,896 792,896 791,897 755,897 754,896 719,896 718,897 709,897 708,898 704,898 705,898 706,899 710,899 711,900 715,900 716,901 717,901 720,904 721,904 722,905 721,906 720,906 717,909 717,910 716,911 716,912 713,915 712,915 711,916 711,917 712,917 715,920 716,920 720,924 719,925 719,926 718,927 718,928 715,931 714,931 714,933 715,934 715,936 713,938 713,939 711,941 711,947 708,950 708,951 707,952 705,950 705,945 704,944 704,939 703,938 703,937 701,935 701,934 700,933 700,932 699,931 697,931 696,932 695,932 694,933 694,935 693,936 693,938 692,939 692,940 691,941 691,942 688,945 687,945 686,944 685,944 681,940 681,939 679,937 676,937 674,935 674,929 675,928 675,927 678,924 678,920 679,919 680,919 683,916 683,915 684,914 685,914 686,913 686,909 685,909 683,907 682,907 680,905 679,905 678,904 677,904 675,902 675,901 677,899 678,899 679,898 680,898 676,898 675,897 661,897 660,896 657,896 656,897 635,897 634,896 613,896 612,895 599,895 598,894 596,894 594,892 593,892 591,890 592,889 593,889 596,886 596,882 598,880 598,878 599,877 599,875 600,874 600,873 607,866 607,865 608,864 608,862 609,861 609,859 610,858 610,855 611,854 611,850 612,849 612,841 611,840 611,826 612,825 612,823 613,822 613,818 614,817 614,807 613,806 613,805 609,805 608,806 606,806 605,807 601,803 601,800 602,799 603,799 604,798 607,798 608,797 610,797 611,798 613,798 615,800 615,801 616,802 616,803 616,801 617,800 617,799 620,796 620,782 619,781 619,777 621,775 622,775 623,774 624,774 624,762 623,761 623,760 622,759 622,757 621,756 621,753 620,752 620,750 619,749 619,748 618,747 618,744 617,743 617,740 616,739 616,738 615,737 615,734 614,733 614,728 613,727 613,724 611,722 611,721 610,720 610,719 609,718 609,715 608,714 608,713 603,708 601,708 598,711 589,711 586,714 586,715 584,717 582,717 580,715 577,715 576,714 575,714 574,715 570,715 569,716 567,716 566,717 565,717 565,718 566,718 567,719 568,719 570,721 570,723 569,724 569,725 568,726 566,726 565,727 564,727 563,728 562,728 561,729 560,729 558,731 557,731 556,732 555,731 553,731 552,730 552,728 551,727 551,720 552,719 552,709 551,708 551,699 552,698 552,694 553,693 553,687 554,686 554,673 555,672 555,656 556,655 556,650 557,649 557,647 558,646 558,643 559,642 559,641 561,639 562,639 563,638 564,638 564,637 565,636 565,634 566,633 566,611 567,610 567,604 568,603 568,600 569,599 569,597 570,596 570,591 571,590 571,584 572,583 572,581 573,580 573,578 574,577 574,575 575,574 575,573 576,572 576,571 577,570 577,568 578,567 578,566 579,565 579,564 580,563 580,562 581,561 581,560 582,559 582,558 583,557 583,556 584,555 584,554 585,553 585,551 586,550 586,549 587,548 587,547 588,546 588,545 589,544 589,543 590,542 590,541 592,539 592,538 593,537 593,536 596,533 596,532 599,529 599,528 610,517 611,517 615,513 616,513 623,506 624,506 628,502 629,502 631,500 632,500 634,498 635,498 639,494 640,494 642,492 643,492 645,490 647,490 650,487 651,487 652,486 654,486 657,483 658,483 659,482 660,482 662,480 663,480 664,479 666,479 668,477 669,477 670,476 671,476 672,475 674,475 677,472 679,472 680,471 681,471 682,470 683,470 685,468 687,468 688,467 689,467 691,465 692,465 693,464 695,464 698,461 699,461 700,460 701,460 702,459 703,459 705,457 706,457 707,456 708,456 710,454 711,454 712,453 713,453 714,452 715,452 717,450 718,450 719,449 721,449 722,448 723,448 726,445 728,445 730,443 731,443 732,442 733,442 734,441 736,441 737,440 738,440 740,438 741,438 742,437 744,437 747,434 750,434 751,433 752,433 754,431 755,431 756,430 758,430 759,429 760,429 762,427 764,427 765,426 768,426 769,425 770,425 775,420 775,419 776,418 776,417 777,416 777,415 778,414 778,413 780,411 780,410 781,409 781,408 782,407 782,403 783,402 783,393 784,392 784,388 785,387 785,383 786,382 786,376 787,375 787,372 789,370 789,369 790,368 790,366 791,365 791,363 792,362 792,361 793,360 793,359 794,358 794,357 795,356 795,355 796,354 796,352 797,351 797,343 796,342 796,340 795,339 795,338 794,337 794,335 792,333 792,332 791,331 791,330 790,329 790,328 788,326 788,325 787,324 787,323 786,322 786,321 785,320 785,319 783,317 783,315 782,314 782,313 781,312 781,311 780,310 780,309 779,308 779,306 778,305 778,304 776,302 776,301 775,300 775,299 769,293 768,293 767,292 766,292 763,289 762,289 760,287 760,286 757,283 757,282 755,280 755,279 753,277 753,275 752,274 752,273 751,272 751,270 750,269 750,265 749,264 749,261 748,260 748,258 747,257 747,256 746,255 746,254 745,253 745,251 744,250 744,249 743,248 743,247 742,246 742,244 741,243 741,240 740,239 740,238 739,237 739,234 738,233 738,228 737,227 737,224 736,223 736,222 735,221 735,219 734,218 734,217 733,216 733,215 731,213 731,212 730,211 730,210 729,209 729,208 728,207 728,206 727,205 727,204 726,203 726,202 724,200 724,199 723,198 723,196 721,194 721,193 719,191 719,190 718,189 718,188 717,187 717,186 716,185 716,183 715,182 715,180 714,179 714,178 713,177 713,176 712,175 712,173 711,172 711,170 710,169 710,168 709,167 709,166 708,165 708,162 707,161 707,160 706,159 706,157 705,156 705,155 704,154 704,152 703,151 703,150 702,149 702,148 701,147 701,145 700,144 700,141 699,140 699,135 698,134 698,129 699,128 699,123 700,122 700,121 701,120 701,119 704,116 704,115 706,113 706,112 709,109 709,108 711,106 711,105 714,102 714,101 718,97 719,97 721,95 722,95 723,94 724,94 726,92 728,92 729,91 729,88 735,82 736,82 740,78 740,77 742,75 742,74 745,71 745,70 747,68 747,67 749,65 749,64 751,62 751,61 753,59 753,58 754,57 754,56 755,55 755,54 756,53 756,52 757,51 757,50 759,48 759,47 767,39 767,38 768,37 769,37 785,21 786,21 788,19 789,19 791,17 792,17 793,16 794,16 799,11 799,10 805,4 807,4 808,3 810,3 811,2 813,2 814,1 815,1 815,0 Z" fill="black" stroke="none" /></svg>