<?xml version="1.0" encoding="utf-8" ?>
<svg baseProfile="tiny" height="1080px" version="1.2" viewBox="0,0,1920,1080" width="1920px" xmlns="http://www.w3.org/2000/svg" xmlns:ev="http://www.w3.org/2001/xml-events" xmlns:xlink="http://www.w3.org/1999/xlink"><defs /><path d="M863,955 862,956 859,956 858,957 857,957 856,958 855,958 853,960 851,960 849,962 848,962 846,964 845,964 844,965 843,965 841,967 840,967 839,968 838,968 836,970 835,970 834,971 833,971 831,973 830,973 828,975 827,975 826,976 825,976 822,979 821,979 819,981 818,981 817,982 816,982 814,984 813,984 811,986 810,986 809,987 808,987 806,989 805,989 804,990 803,990 801,992 800,992 799,993 799,994 796,997 796,998 795,999 795,1000 793,1002 793,1003 792,1004 792,1005 790,1007 790,1010 791,1011 791,1012 792,1013 792,1014 796,1018 796,1019 798,1021 798,1031 799,1032 799,1052 800,1053 800,1055 801,1056 801,1058 802,1059 802,1064 803,1065 803,1074 804,1075 804,1076 805,1077 805,1079 906,1079 906,1078 905,1077 905,1075 904,1074 904,1072 903,1071 903,1068 902,1067 902,1066 900,1064 900,1062 897,1059 897,1058 896,1057 896,1056 894,1054 894,1053 891,1050 891,1049 889,1047 889,1046 888,1045 888,1043 887,1042 887,1041 886,1040 886,1039 885,1038 885,1037 884,1036 884,1034 882,1032 882,1031 881,1030 881,1027 880,1026 880,1024 879,1023 879,1022 878,1021 878,1019 877,1018 877,1014 876,1013 876,1005 875,1004 875,965 874,964 874,961 873,960 873,959 871,957 870,957 869,956 867,956 866,955 Z" fill="black" stroke="none" /><path d="M0,0 0,1079 705,1079 705,1074 704,1073 704,1067 703,1066 703,1064 702,1063 702,1061 701,1060 701,1057 700,1056 700,1053 699,1052 699,1050 698,1049 698,1048 697,1047 697,1044 696,1043 696,1040 695,1039 695,1038 694,1037 694,1035 693,1034 693,1030 692,1029 692,1027 690,1025 690,1022 689,1021 689,1016 688,1015 688,1013 687,1012 687,1011 686,1010 686,1006 685,1005 685,1001 684,1000 684,998 683,997 683,994 682,993 682,982 681,981 681,973 682,972 682,967 683,966 683,965 684,964 684,963 685,962 685,961 687,959 687,958 689,956 689,955 692,952 692,951 694,949 694,948 696,946 696,945 698,943 698,942 701,939 701,938 704,935 704,934 706,932 706,931 708,929 708,928 709,927 709,926 710,925 710,924 711,923 711,922 712,921 712,920 715,917 715,914 716,913 716,912 718,910 718,909 723,904 723,903 727,899 727,898 731,894 731,893 734,890 734,888 735,887 735,886 738,883 738,882 741,879 741,878 742,877 742,876 744,874 744,873 745,872 745,871 748,868 748,867 750,865 750,864 753,861 753,860 755,858 756,858 756,857 760,853 760,852 764,848 764,847 768,843 768,842 772,838 772,837 782,827 782,826 788,820 789,820 790,819 790,818 791,817 792,817 800,809 801,809 802,808 802,807 806,803 806,802 807,801 807,800 808,799 808,798 809,797 809,796 810,795 810,794 816,788 817,788 818,787 819,787 820,786 821,786 823,784 823,782 824,781 824,780 823,779 823,770 828,765 829,765 838,756 839,756 841,754 842,754 843,753 847,753 848,752 849,752 850,751 851,751 853,749 854,749 855,748 856,748 860,744 861,744 861,743 862,742 862,741 864,739 864,733 865,732 865,731 872,724 872,723 873,722 873,719 874,718 874,717 875,716 875,693 876,692 876,681 877,680 877,672 876,671 876,669 875,668 875,666 874,665 874,661 875,660 875,657 874,656 874,655 873,654 873,652 872,651 872,649 871,648 871,647 870,646 870,645 869,644 869,643 868,642 868,641 866,639 866,638 865,637 865,635 862,632 862,631 861,630 861,629 860,628 860,627 858,627 856,625 852,625 851,626 850,626 848,628 847,628 846,629 845,629 844,630 842,630 841,631 840,631 839,632 838,632 837,633 836,633 835,634 834,634 833,635 833,636 832,637 832,638 830,640 828,640 827,641 825,641 824,640 820,640 819,639 815,639 811,635 811,629 810,628 810,627 809,626 809,625 808,624 807,624 806,623 797,623 795,621 795,614 796,613 796,612 797,611 797,610 798,609 798,608 800,606 800,605 799,604 795,604 794,603 789,603 788,602 788,597 789,596 789,595 790,594 790,593 791,592 791,590 792,589 792,588 793,587 793,586 797,582 797,581 798,580 798,579 799,578 799,577 800,576 800,575 801,574 801,570 802,569 802,558 803,557 803,555 805,553 805,552 806,551 806,550 807,549 807,548 808,547 808,546 809,545 809,544 810,543 810,541 813,538 813,536 814,535 814,534 815,533 815,532 816,531 816,528 817,527 817,525 818,524 818,522 819,521 819,520 820,519 820,516 821,515 821,510 822,509 822,507 823,506 823,504 824,503 824,500 826,498 826,497 827,496 827,495 828,494 828,492 830,490 830,489 831,488 831,486 832,485 832,483 833,482 833,481 835,479 835,477 836,476 836,474 837,473 837,472 838,471 838,470 839,469 839,466 840,465 840,464 841,463 841,462 842,461 842,459 843,458 843,454 844,453 844,452 845,451 845,450 846,449 846,446 847,445 847,441 848,440 848,439 849,438 849,437 850,436 850,432 851,431 851,427 852,426 852,425 853,424 853,423 854,422 854,418 855,417 855,414 857,412 857,410 858,409 858,405 859,404 859,402 860,401 860,400 861,399 861,395 862,394 862,386 863,385 863,383 864,382 864,380 865,379 865,376 866,375 866,372 867,371 867,370 868,369 868,368 869,367 869,366 870,365 870,364 871,363 871,362 872,361 872,360 874,358 874,357 877,354 877,353 891,339 891,338 893,336 893,335 894,334 894,333 895,332 895,327 896,326 896,307 897,306 897,299 896,298 896,297 893,294 892,294 891,293 889,293 888,292 885,292 884,291 883,291 881,289 880,289 876,285 876,284 873,281 873,280 872,279 872,278 870,276 870,275 869,274 869,273 867,271 867,270 866,269 866,268 865,267 865,266 864,265 864,264 863,263 863,262 862,261 862,259 861,258 861,257 860,256 860,255 858,253 858,252 855,249 855,248 854,247 854,246 853,245 853,244 852,243 852,242 851,241 851,238 850,237 850,235 849,234 849,232 848,231 848,230 847,229 847,226 846,225 846,223 845,222 845,221 844,220 844,218 843,217 843,214 842,213 842,212 840,210 840,208 839,207 839,204 838,203 838,202 837,201 837,200 836,199 836,194 835,193 835,187 834,186 834,182 833,181 833,177 834,176 834,173 835,172 835,169 836,168 836,164 837,163 837,162 839,160 839,158 840,157 840,155 843,152 843,150 844,149 844,148 847,145 847,143 859,131 860,131 861,130 862,130 864,128 865,128 866,127 867,127 868,126 869,126 870,125 871,125 872,124 873,124 874,123 877,123 878,122 880,122 881,121 883,121 884,120 886,120 887,119 891,119 892,118 895,118 896,117 898,117 899,116 902,116 903,115 912,115 913,114 915,114 916,113 919,113 920,112 939,112 940,113 941,113 942,114 943,114 944,115 945,115 946,116 948,116 950,118 951,118 952,119 955,119 956,120 958,120 960,122 961,122 962,123 963,123 966,126 967,126 968,127 969,127 971,129 971,130 972,130 979,137 980,137 993,150 993,151 997,155 997,156 1000,159 1000,160 1002,162 1002,163 1004,165 1004,166 1005,167 1005,168 1007,170 1007,172 1008,173 1008,176 1009,177 1009,178 1010,179 1010,180 1011,181 1011,186 1012,187 1012,196 1011,197 1011,205 1010,206 1010,208 1009,209 1009,211 1008,212 1008,214 1007,215 1007,216 1006,217 1006,218 1005,219 1005,222 1004,223 1004,225 1003,226 1003,227 1002,228 1002,230 1001,231 1001,233 1000,234 1000,235 998,237 998,239 997,240 997,244 996,245 996,251 997,252 997,255 998,256 998,257 1000,259 1000,260 1001,261 1001,263 1002,264 1002,266 1004,268 1004,270 1005,271 1005,273 1006,274 1006,275 1007,276 1007,278 1008,279 1008,283 1009,284 1009,286 1010,287 1010,288 1013,291 1013,292 1016,295 1017,295 1021,299 1022,299 1024,301 1024,302 1027,305 1027,308 1028,309 1028,310 1030,312 1030,314 1031,315 1031,316 1033,318 1033,319 1038,324 1038,325 1041,328 1041,330 1042,331 1042,333 1043,334 1043,335 1045,337 1045,338 1046,338 1048,340 1048,341 1050,343 1050,344 1054,348 1055,348 1056,349 1056,350 1057,351 1057,352 1058,353 1059,353 1060,354 1060,357 1063,360 1063,361 1064,362 1064,363 1066,365 1066,366 1067,367 1067,369 1068,370 1068,371 1071,374 1071,375 1072,376 1072,377 1075,380 1075,382 1076,383 1076,384 1079,387 1079,389 1082,392 1082,394 1083,395 1083,398 1084,399 1084,400 1086,402 1086,419 1087,420 1087,421 1088,422 1088,424 1089,425 1089,427 1088,428 1088,429 1087,430 1086,430 1086,431 1085,432 1085,435 1086,436 1086,439 1087,440 1087,445 1088,446 1088,455 1089,456 1089,457 1090,458 1090,461 1091,462 1091,471 1092,472 1092,478 1093,479 1093,482 1094,483 1094,485 1097,488 1100,488 1101,489 1101,494 1102,495 1102,504 1101,505 1101,512 1100,513 1099,513 1093,519 1093,524 1092,525 1092,531 1091,532 1091,536 1090,537 1090,544 1089,545 1089,551 1088,552 1088,563 1087,564 1087,569 1086,570 1086,574 1085,575 1085,584 1084,585 1084,619 1085,620 1084,621 1084,644 1085,645 1085,647 1086,648 1086,652 1085,653 1085,664 1086,665 1085,666 1085,672 1084,673 1084,674 1083,675 1083,676 1082,677 1082,678 1081,679 1081,681 1080,682 1080,689 1079,690 1079,696 1078,697 1078,705 1079,706 1079,718 1080,719 1080,729 1081,730 1081,752 1082,753 1082,760 1081,761 1081,769 1080,770 1080,780 1079,781 1079,788 1078,789 1078,791 1077,792 1077,795 1076,796 1076,800 1075,801 1075,802 1074,803 1074,804 1073,805 1073,807 1072,808 1072,810 1071,811 1071,812 1070,813 1070,814 1069,815 1069,816 1068,817 1068,818 1066,820 1066,821 1065,822 1065,823 1064,824 1064,826 1062,828 1062,829 1061,830 1061,831 1060,832 1060,833 1058,835 1058,836 1057,837 1057,839 1055,841 1055,842 1053,844 1053,845 1050,848 1050,849 1035,864 1035,865 1034,866 1034,867 1032,869 1032,870 1031,871 1031,873 1030,874 1030,875 1028,877 1028,878 1027,879 1027,880 1026,881 1026,882 1024,884 1024,885 1021,888 1021,889 1020,890 1020,891 1019,892 1019,893 1018,894 1018,895 1016,897 1016,899 1015,900 1015,901 1014,902 1014,903 1013,904 1013,905 1012,906 1012,907 1011,908 1011,909 1010,910 1010,911 1009,912 1009,916 1008,917 1008,921 1007,922 1007,924 1006,925 1006,928 1005,929 1005,932 1004,933 1004,936 1003,937 1003,939 1002,940 1002,941 1001,942 1001,946 1000,947 1000,949 999,950 999,952 998,953 998,959 997,960 997,968 996,969 996,972 995,973 995,975 994,976 994,978 993,979 993,981 991,983 991,984 989,986 989,987 981,995 980,995 980,996 977,999 977,1001 976,1002 976,1004 975,1005 975,1018 976,1019 976,1027 977,1028 977,1029 978,1030 978,1031 979,1032 979,1033 983,1037 984,1037 985,1038 988,1038 989,1039 991,1039 994,1042 995,1042 996,1043 997,1043 1002,1048 1002,1049 1004,1051 1004,1052 1005,1053 1005,1054 1007,1056 1007,1057 1008,1058 1008,1059 1009,1060 1009,1062 1010,1063 1010,1064 1012,1066 1012,1071 1013,1072 1013,1076 1014,1077 1014,1079 1919,1079 1919,0 Z" fill="black" stroke="none" /></svg>