<?xml version="1.0" encoding="utf-8" ?>
<svg baseProfile="tiny" height="1080px" version="1.2" viewBox="0,0,1920,1080" width="1920px" xmlns="http://www.w3.org/2000/svg" xmlns:ev="http://www.w3.org/2001/xml-events" xmlns:xlink="http://www.w3.org/1999/xlink"><defs /><path d="M819,630 818,631 817,631 813,635 813,636 811,638 811,639 810,640 810,642 809,643 809,644 807,646 807,648 806,649 806,652 805,653 805,654 804,655 804,656 803,657 803,659 802,660 802,664 801,665 801,666 799,668 799,671 798,672 798,675 796,677 796,679 795,680 795,683 794,684 794,686 793,687 793,688 792,689 792,691 791,692 791,695 789,697 789,698 788,699 788,700 787,701 787,702 786,703 786,704 784,706 784,708 783,709 783,710 782,711 782,712 781,713 781,715 780,716 780,723 779,724 779,727 778,728 778,730 777,731 777,734 776,735 776,743 775,744 775,747 774,748 774,749 773,750 773,752 772,753 772,756 771,757 771,758 770,759 770,760 769,761 769,762 768,763 768,764 766,766 766,767 765,768 765,771 764,772 764,774 763,775 763,776 762,777 762,780 761,781 761,787 760,788 760,790 759,791 759,792 758,793 758,795 757,796 757,798 756,799 756,800 754,802 754,803 753,804 753,805 751,807 751,808 750,809 750,813 749,814 749,816 747,818 747,819 746,820 746,824 745,825 745,826 743,828 743,829 742,830 742,831 740,833 740,834 739,835 739,843 738,844 738,853 737,854 737,856 736,857 736,859 735,860 735,867 734,868 734,875 733,876 733,877 732,878 732,882 731,883 731,894 730,895 730,899 729,900 729,902 728,903 728,907 727,908 727,916 726,917 726,920 725,921 725,922 724,923 724,927 723,928 723,932 722,933 722,935 721,936 721,937 720,938 720,943 719,944 719,947 718,948 718,950 717,951 717,953 716,954 716,961 715,962 715,965 714,966 714,968 713,969 713,985 712,986 712,991 711,992 711,993 710,994 710,995 709,996 709,997 708,998 708,1000 707,1001 707,1002 706,1003 706,1018 707,1019 707,1021 708,1022 708,1026 709,1027 709,1038 710,1039 710,1051 711,1052 711,1053 712,1054 712,1056 713,1057 713,1059 715,1061 715,1071 712,1074 712,1075 711,1076 711,1079 969,1079 969,1078 965,1074 965,1073 964,1072 964,1023 965,1022 965,1018 966,1017 966,1001 965,1000 965,999 963,997 963,996 961,994 960,994 959,993 958,993 952,987 952,985 951,984 951,982 950,981 950,980 949,979 949,976 948,975 948,969 947,968 947,966 946,965 946,964 945,963 945,961 944,960 944,956 943,955 943,954 942,953 942,952 941,951 941,949 940,948 940,945 939,944 939,943 938,942 938,941 937,940 937,936 936,935 936,932 935,931 935,930 934,929 934,928 933,927 933,921 932,920 932,918 931,917 931,916 930,915 930,912 929,911 929,905 928,904 928,902 927,901 927,900 926,899 926,893 925,892 925,887 924,886 924,885 923,884 923,882 922,881 922,875 921,874 921,871 920,870 920,869 919,868 919,866 918,865 918,860 917,859 917,857 916,856 916,855 915,854 915,851 914,850 914,845 913,844 913,843 911,841 911,838 910,837 910,833 909,832 909,831 908,830 908,829 907,828 907,823 906,822 906,819 905,818 905,817 904,816 904,815 903,814 903,810 902,809 902,807 900,805 900,803 899,802 899,799 898,798 898,797 896,795 896,793 895,792 895,788 894,787 894,786 892,784 892,781 891,780 891,778 890,777 890,776 888,774 888,770 887,769 887,768 885,766 885,765 884,764 884,761 883,760 883,759 881,757 881,755 880,754 880,752 877,749 877,747 876,746 876,744 874,742 874,741 873,740 873,738 872,737 872,735 870,733 870,732 869,731 869,729 868,728 868,727 867,726 867,725 866,724 866,723 865,722 865,720 864,719 864,718 862,716 862,714 861,713 861,710 859,708 859,707 858,706 858,703 857,702 857,701 855,699 855,697 854,696 854,693 853,692 853,691 851,689 851,687 850,686 850,684 849,683 849,682 847,680 847,677 846,676 846,674 844,672 844,671 843,670 843,668 842,667 842,665 840,663 840,662 839,661 839,658 838,657 838,656 836,654 836,652 835,651 835,649 833,647 833,646 832,645 832,644 831,643 831,642 830,641 830,640 828,638 828,636 827,635 827,634 826,633 825,633 824,632 824,631 823,630 Z" fill="black" stroke="none" /><path d="M676,426 676,427 674,429 673,429 672,430 672,433 673,434 673,435 675,437 675,438 676,439 676,440 677,439 677,430 676,429 Z" fill="black" stroke="none" /><path d="M676,422 676,424 Z" fill="black" stroke="none" /><path d="M995,319 995,321 994,322 994,325 995,326 995,327 995,326 997,324 997,320 996,320 Z" fill="black" stroke="none" /><path d="M911,307 910,308 908,308 907,309 908,309 909,310 910,310 911,311 914,311 915,310 916,310 917,309 921,309 917,309 916,308 914,308 913,307 Z" fill="black" stroke="none" /><path d="M912,296 911,297 910,297 910,298 917,298 917,297 915,297 914,296 Z" fill="black" stroke="none" /><path d="M968,295 967,296 966,296 965,297 962,297 961,298 960,298 959,299 958,299 957,300 956,300 954,302 954,306 955,307 955,309 962,316 963,316 964,317 965,317 968,320 973,320 975,318 975,317 976,316 975,315 975,309 974,308 974,306 973,305 973,298 971,296 970,296 969,295 Z" fill="black" stroke="none" /><path d="M992,274 990,276 988,276 987,277 983,277 982,278 982,280 983,281 983,282 984,283 984,284 985,284 987,286 987,287 988,287 989,286 990,286 993,283 993,281 994,280 994,276 Z" fill="black" stroke="none" /><path d="M972,273 969,276 969,279 970,280 973,280 974,279 974,276 973,275 973,274 Z" fill="black" stroke="none" /><path d="M916,219 Z" fill="black" stroke="none" /><path d="M909,207 909,210 910,210 913,213 913,212 912,211 912,208 911,207 Z" fill="black" stroke="none" /><path d="M931,200 929,202 929,209 930,210 930,212 932,214 935,214 935,213 936,212 936,207 935,206 935,203 932,200 Z" fill="black" stroke="none" /><path d="M0,0 0,1079 639,1079 639,1074 640,1073 640,1069 641,1068 641,1066 643,1064 643,1063 644,1062 644,1061 649,1056 649,1055 650,1054 651,1054 651,1053 652,1052 652,1051 654,1049 654,1048 655,1047 655,1046 656,1045 656,1044 658,1042 658,1041 659,1040 659,1038 660,1037 660,1035 662,1033 662,1030 663,1029 663,1004 662,1003 662,1001 660,999 660,998 659,997 659,996 658,995 658,994 656,992 656,990 655,989 655,985 654,984 654,970 655,969 655,952 656,951 656,939 657,938 657,935 658,934 658,929 659,928 659,918 660,917 660,911 661,910 661,908 662,907 662,901 663,900 663,891 664,890 664,886 665,885 665,881 666,880 666,873 667,872 667,862 668,861 668,855 669,854 669,852 670,851 670,841 671,840 671,834 672,833 672,831 673,830 673,828 674,827 674,815 675,814 675,808 676,807 676,805 677,804 677,800 678,799 678,792 679,791 679,789 680,788 680,786 681,785 681,764 680,763 680,761 679,760 679,758 678,757 678,710 679,709 679,704 680,703 680,700 681,699 681,690 682,689 682,675 683,674 683,671 684,670 684,667 685,666 685,652 686,651 686,645 687,644 687,643 688,642 688,639 689,638 689,632 690,631 690,630 691,629 691,628 692,627 692,624 693,623 693,619 694,618 694,616 695,615 695,614 696,613 696,610 697,609 697,604 698,603 698,602 699,601 699,600 700,599 700,592 701,591 701,588 702,587 702,586 703,585 703,575 702,574 702,565 703,564 703,557 704,556 704,552 705,551 705,550 706,549 706,548 707,547 707,545 708,544 708,540 709,539 709,538 711,536 711,534 712,533 712,531 714,529 714,528 715,527 715,526 716,525 716,524 717,523 717,522 718,521 718,520 719,519 719,516 720,515 720,514 722,512 722,509 723,508 723,504 724,503 724,501 725,500 725,494 726,493 726,489 725,488 725,483 724,482 724,481 722,479 722,478 720,476 719,476 717,474 716,474 711,469 711,468 709,466 709,465 708,464 708,462 707,461 707,459 705,457 705,456 704,455 704,450 703,449 703,437 702,436 702,433 701,434 700,434 697,437 696,437 691,442 689,442 688,443 686,443 685,442 684,442 683,443 682,443 682,454 681,455 681,456 680,457 676,457 675,456 675,455 674,454 674,453 673,452 673,450 672,450 671,451 667,451 666,450 664,450 663,449 660,449 659,450 657,450 656,451 653,451 652,450 651,450 649,448 649,440 650,439 650,436 652,434 652,433 653,432 653,423 654,422 654,416 655,415 655,413 656,412 656,411 657,410 657,409 658,408 658,405 659,404 659,400 660,399 660,391 661,390 661,386 662,385 662,380 663,379 663,376 664,375 664,372 665,371 665,369 666,368 666,364 667,363 667,360 668,359 668,357 669,356 669,355 670,354 670,351 671,350 671,347 672,346 672,345 673,344 673,341 674,340 674,336 675,335 675,334 676,333 676,332 677,331 677,328 678,327 678,324 679,323 679,322 680,321 680,320 681,319 681,316 682,315 682,312 683,311 683,310 684,309 684,308 685,307 685,304 686,303 686,301 687,300 687,299 688,298 688,297 689,296 689,294 690,293 690,291 691,290 691,289 692,288 692,287 693,286 693,284 694,283 694,282 695,281 695,280 696,279 696,277 697,276 697,275 698,274 698,273 699,272 699,271 700,270 700,268 701,267 701,265 702,264 702,263 703,262 703,260 704,259 704,257 705,256 705,255 706,254 706,253 707,252 707,251 708,250 708,248 709,247 709,246 711,244 711,243 712,242 712,241 713,240 713,239 714,238 714,237 715,236 715,235 716,234 716,233 718,231 718,230 719,229 719,228 722,225 722,224 723,223 724,223 725,222 725,221 727,219 728,219 730,217 731,217 732,216 733,216 734,215 735,215 736,214 737,214 738,213 739,213 740,212 742,212 743,211 745,211 746,210 747,210 748,209 751,209 752,208 754,208 755,207 757,207 758,206 763,206 764,207 766,207 767,206 769,206 770,205 771,205 774,202 777,202 778,201 782,201 783,200 785,200 786,199 788,199 789,198 794,198 795,197 798,197 799,196 800,196 801,195 802,195 803,194 804,194 805,193 805,192 806,191 806,190 809,187 809,185 810,184 810,183 811,182 811,180 812,179 812,177 813,176 813,160 812,159 812,158 810,156 810,155 809,154 809,153 806,150 806,149 803,146 803,145 799,141 799,140 798,139 798,138 797,137 797,136 795,134 795,133 794,132 794,131 791,128 791,127 790,126 790,125 787,122 787,121 786,120 786,119 785,118 785,117 784,116 784,115 783,114 783,112 782,111 782,109 781,108 781,104 780,103 780,98 781,97 781,93 780,92 780,84 781,83 781,82 782,81 782,80 783,79 783,77 787,73 787,72 788,71 789,71 793,67 794,67 795,66 796,66 798,64 799,64 800,63 801,63 804,60 805,60 807,58 808,58 810,56 811,56 812,55 814,55 815,54 816,54 817,53 818,53 819,52 823,52 824,51 827,51 829,49 831,49 832,48 838,48 839,47 841,47 843,45 844,45 845,44 860,44 861,45 864,45 865,46 866,46 867,47 869,47 870,48 873,48 874,49 877,49 878,50 885,50 886,49 887,49 888,50 891,50 892,51 894,51 896,53 897,53 901,57 902,57 907,62 907,63 910,66 910,67 911,68 911,70 912,71 912,73 914,75 914,77 915,78 915,85 916,86 916,88 917,89 917,90 918,91 918,93 919,94 919,100 920,101 920,109 919,110 919,114 918,115 918,117 917,118 917,119 915,121 915,122 914,123 914,124 912,126 912,127 911,128 911,129 910,130 910,131 908,133 908,135 907,136 907,139 906,140 906,141 904,143 904,144 903,145 903,147 902,148 902,149 901,150 901,151 900,152 900,155 899,156 899,157 898,158 898,159 897,160 897,162 896,163 896,171 897,172 897,174 898,175 898,176 900,178 900,180 901,181 901,193 902,194 902,197 905,200 905,201 908,201 909,200 911,202 920,202 921,201 921,194 920,193 922,191 923,191 924,190 937,190 938,189 940,189 942,187 943,187 946,184 951,184 952,185 953,185 956,188 957,188 961,192 963,192 964,193 969,193 970,194 974,194 975,195 977,195 979,197 980,197 982,199 983,199 984,200 984,201 988,205 988,206 990,208 990,210 989,211 986,211 985,212 983,212 982,211 977,211 976,210 973,210 972,211 971,211 970,212 970,228 971,229 971,234 974,237 974,238 975,239 975,241 976,242 976,245 975,246 975,249 969,255 969,257 968,258 968,260 969,261 969,265 972,268 972,269 973,270 974,269 986,269 987,268 988,268 989,269 990,269 991,270 996,270 1006,260 1011,265 1011,267 1012,268 1012,270 1013,271 1013,274 1014,275 1014,277 1017,280 1017,281 1018,282 1019,282 1020,283 1021,283 1028,290 1028,291 1029,292 1029,293 1031,295 1031,297 1032,298 1032,301 1033,302 1033,309 1036,309 1038,311 1038,312 1039,313 1039,320 1041,322 1041,327 1040,328 1040,329 1039,330 1036,330 1033,327 1031,329 1031,330 1030,331 1030,333 1029,334 1029,337 1030,338 1030,339 1029,340 1029,352 1030,353 1030,354 1031,355 1031,356 1032,357 1033,357 1034,356 1034,353 1035,352 1035,348 1036,347 1036,346 1040,342 1041,343 1041,345 1042,346 1042,354 1041,355 1041,359 1042,360 1042,361 1043,362 1043,369 1042,370 1042,373 1041,374 1041,376 1039,378 1039,380 1038,381 1038,385 1037,386 1037,389 1036,390 1036,392 1035,393 1035,395 1034,396 1034,400 1033,401 1033,403 1031,405 1031,406 1030,407 1030,408 1023,415 1022,415 1020,417 1019,417 1017,419 1016,419 1015,420 1013,420 1010,423 1009,423 1005,427 1004,427 1001,430 1000,430 999,431 997,431 996,432 995,432 994,433 993,433 992,434 990,434 989,435 987,435 985,437 984,437 983,438 981,438 980,439 979,439 977,441 976,441 975,442 973,442 972,443 971,443 968,446 967,446 965,448 964,448 963,449 962,449 961,450 960,450 959,451 958,451 957,452 948,452 947,451 938,451 937,452 935,452 934,453 933,453 932,454 931,454 930,455 930,456 929,457 929,458 928,459 928,463 927,464 927,470 926,471 926,474 925,475 925,476 923,478 923,479 918,484 918,485 916,487 916,489 915,490 915,500 916,501 916,504 918,506 918,508 919,509 919,512 920,513 920,514 921,515 921,516 922,517 922,519 923,520 923,523 925,525 925,526 926,527 926,530 927,531 927,532 928,533 928,534 929,535 929,537 930,538 930,543 931,544 931,546 932,547 932,549 933,550 933,558 934,559 934,583 935,584 935,587 936,588 936,589 937,590 937,597 938,598 938,603 939,604 939,605 940,606 940,608 941,609 941,614 942,615 942,617 943,618 943,619 944,620 944,622 945,623 945,647 946,648 946,651 947,652 947,653 948,654 948,657 949,658 949,665 950,666 950,668 951,669 951,670 952,671 952,681 953,682 953,689 954,690 954,691 955,692 955,694 956,695 956,699 957,700 957,702 959,704 959,706 960,707 960,711 961,712 961,713 962,714 962,716 963,717 963,748 964,749 964,754 965,755 965,756 966,757 966,758 967,759 967,764 968,765 968,770 969,771 969,772 970,773 970,776 971,777 971,782 972,783 972,784 973,785 973,786 975,788 975,790 976,791 976,792 978,794 978,796 979,797 979,799 980,800 980,801 981,802 981,804 982,805 982,811 983,812 983,815 984,816 984,817 985,818 985,819 986,820 986,825 987,826 987,828 989,830 989,833 990,834 990,841 991,842 991,845 992,846 992,848 993,849 993,858 994,859 994,868 995,869 995,874 996,875 996,880 997,881 997,895 998,896 998,904 999,905 999,909 1000,910 1000,918 1001,919 1001,930 1002,931 1002,933 1003,934 1003,935 1004,936 1004,937 1005,938 1005,942 1006,943 1006,944 1008,946 1008,949 1009,950 1009,953 1010,954 1010,955 1011,956 1011,958 1012,959 1012,966 1013,967 1013,972 1014,973 1014,979 1013,980 1013,982 1012,983 1012,984 1011,985 1011,986 1010,987 1010,990 1009,991 1009,1025 1010,1026 1010,1029 1011,1030 1011,1033 1012,1034 1012,1041 1013,1042 1013,1046 1014,1047 1014,1048 1015,1049 1015,1050 1016,1051 1016,1054 1017,1055 1017,1057 1019,1059 1019,1064 1020,1065 1020,1073 1019,1074 1019,1079 1919,1079 1919,0 Z" fill="black" stroke="none" /></svg>