<?xml version="1.0" encoding="utf-8" ?>
<svg baseProfile="tiny" height="1080px" version="1.2" viewBox="0,0,1920,1080" width="1920px" xmlns="http://www.w3.org/2000/svg" xmlns:ev="http://www.w3.org/2001/xml-events" xmlns:xlink="http://www.w3.org/1999/xlink"><defs /><path d="M0,0 0,1079 643,1079 643,1077 646,1074 648,1074 648,1072 649,1071 650,1071 651,1070 652,1070 653,1069 654,1069 659,1074 659,1077 658,1078 658,1079 1067,1079 1067,1078 1068,1077 1071,1077 1072,1076 1083,1076 1084,1077 1085,1077 1086,1078 1086,1079 1916,1079 1916,1077 1918,1075 1919,1075 1919,0 Z" fill="black" stroke="none" /></svg>