<?xml version="1.0" encoding="utf-8" ?>
<svg baseProfile="tiny" height="1080px" version="1.2" viewBox="0,0,1920,1080" width="1920px" xmlns="http://www.w3.org/2000/svg" xmlns:ev="http://www.w3.org/2001/xml-events" xmlns:xlink="http://www.w3.org/1999/xlink"><defs /><path d="M845,960 845,962 846,962 847,961 847,960 Z" fill="black" stroke="none" /><path d="M849,956 849,957 848,958 849,958 Z" fill="black" stroke="none" /><path d="M815,825 814,826 814,831 815,832 815,833 819,837 819,840 820,841 820,842 819,843 819,846 818,847 818,850 817,851 817,862 816,863 816,865 815,866 815,869 814,870 814,872 813,873 813,874 812,875 812,878 811,879 811,884 812,885 812,887 813,888 813,889 819,895 820,895 829,904 830,904 831,905 831,906 835,910 835,911 837,913 837,914 840,917 840,918 841,919 842,919 843,920 844,920 848,924 848,925 849,926 851,926 852,925 852,924 853,923 853,919 854,918 854,885 853,884 853,881 852,880 852,878 851,877 851,874 850,873 850,868 849,867 849,865 848,864 848,862 847,861 847,853 846,852 846,848 845,847 845,846 844,845 844,844 841,841 841,840 838,837 838,834 837,833 837,830 836,829 836,828 834,826 831,826 830,825 824,825 823,826 820,826 819,827 818,826 816,826 Z" fill="black" stroke="none" /><path d="M822,797 821,798 820,798 818,800 818,802 819,803 819,805 820,806 820,810 821,811 821,814 822,815 822,817 824,819 825,819 826,820 830,820 830,819 831,818 831,809 830,808 830,806 829,805 829,804 827,802 827,801 824,798 823,798 Z" fill="black" stroke="none" /><path d="M886,398 885,399 883,399 884,400 884,402 882,404 880,404 879,405 875,405 874,404 867,404 866,405 865,405 864,406 864,412 869,412 870,411 871,411 872,410 879,410 880,409 883,409 884,408 885,408 886,407 887,407 888,406 888,402 891,399 890,398 Z" fill="black" stroke="none" /><path d="M826,398 825,399 824,399 824,401 823,402 823,403 824,404 824,405 825,406 825,407 827,407 828,406 830,406 833,403 833,401 832,400 832,399 831,399 830,398 Z" fill="black" stroke="none" /><path d="M886,382 885,383 883,383 882,384 883,384 884,385 885,385 886,386 887,386 888,387 889,387 890,388 891,388 894,391 894,392 896,392 897,393 901,393 901,382 900,383 891,383 890,384 889,383 888,383 887,382 Z" fill="black" stroke="none" /><path d="M901,370 901,372 Z" fill="black" stroke="none" /><path d="M864,330 863,331 863,336 864,337 864,339 865,338 866,338 868,336 868,334 869,333 869,332 867,330 Z" fill="black" stroke="none" /><path d="M885,319 884,320 881,320 880,321 879,321 879,322 878,323 878,326 877,327 877,329 876,330 876,333 877,334 877,336 878,337 878,339 879,340 879,341 880,342 880,343 883,346 883,347 886,350 886,351 889,354 889,355 890,356 890,357 891,357 892,358 894,358 894,351 893,350 893,349 892,348 892,345 891,344 891,340 890,339 890,332 891,331 891,329 892,328 892,327 893,326 893,325 894,324 894,319 Z" fill="black" stroke="none" /><path d="M974,294 977,294 Z" fill="black" stroke="none" /><path d="M950,293 950,294 956,294 955,294 954,293 Z" fill="black" stroke="none" /><path d="M863,283 862,284 862,285 861,286 861,290 863,292 863,293 865,293 866,292 867,292 868,291 868,286 866,284 865,284 864,283 Z" fill="black" stroke="none" /><path d="M1006,257 1002,261 1001,261 1000,262 999,262 997,264 997,267 995,269 983,269 982,270 979,270 978,271 976,271 977,272 978,272 979,273 980,273 982,275 984,275 985,276 987,276 988,277 989,277 991,279 992,279 993,280 994,280 995,281 996,281 997,282 998,282 999,283 1003,283 1004,282 1005,282 1008,279 1008,276 1009,275 1009,274 1014,269 1016,269 1017,268 1018,268 1019,267 1019,264 1018,263 1017,263 1012,258 1011,258 1010,257 Z" fill="black" stroke="none" /><path d="M0,0 0,1079 873,1079 873,1068 874,1067 874,1056 875,1055 875,1052 876,1051 876,1045 877,1044 877,1039 879,1037 879,1034 880,1033 880,1020 879,1019 879,1018 876,1015 876,1014 875,1013 870,1013 869,1012 866,1012 865,1011 864,1011 860,1007 851,1016 850,1016 848,1018 848,1019 836,1031 835,1031 834,1032 833,1032 831,1034 830,1034 829,1035 827,1035 826,1036 824,1036 823,1037 821,1037 820,1038 810,1038 809,1039 787,1039 786,1038 780,1038 779,1037 777,1037 776,1036 775,1036 774,1035 773,1035 769,1031 769,1030 768,1029 768,1024 769,1023 769,1021 770,1020 770,1019 771,1018 771,1017 776,1012 777,1012 781,1008 783,1008 784,1007 785,1007 786,1006 787,1006 789,1004 790,1004 792,1002 793,1002 797,998 798,998 800,996 801,996 804,993 805,993 806,992 806,991 810,987 810,986 812,984 812,981 813,980 812,979 812,976 811,975 811,974 810,973 810,972 809,971 808,971 798,961 798,960 797,960 795,958 795,957 790,952 790,951 789,951 788,950 788,949 785,946 784,946 781,943 780,943 778,941 777,941 776,940 775,940 773,938 771,938 770,937 768,937 767,936 766,936 765,935 764,935 763,934 761,934 760,933 758,933 757,932 755,932 754,931 753,931 752,930 751,930 750,929 749,929 748,928 747,928 745,926 744,926 739,921 739,920 736,917 736,916 735,915 735,914 734,913 734,912 733,911 733,910 732,909 732,907 733,906 733,905 732,904 732,903 731,902 731,899 730,898 730,889 729,888 729,856 730,855 730,777 729,776 729,772 730,771 730,763 731,762 731,758 732,757 732,756 733,755 733,752 734,751 734,746 735,745 735,742 736,741 736,740 737,739 737,737 738,736 738,733 739,732 739,731 740,730 740,729 741,728 741,725 742,724 742,722 743,721 743,720 744,719 744,715 745,714 745,695 744,694 744,690 743,689 743,681 744,680 744,679 745,678 745,675 746,674 746,672 747,671 747,669 749,667 749,665 750,664 750,663 751,662 751,661 753,659 753,658 754,657 754,656 756,654 756,653 758,651 758,650 761,647 761,646 766,641 766,640 767,639 767,638 768,637 768,632 769,631 769,609 765,605 765,597 766,596 766,594 767,593 767,592 770,589 770,588 778,580 779,580 791,568 792,568 794,566 794,565 797,562 797,561 798,560 798,559 800,557 800,556 801,555 801,553 802,552 802,547 803,546 803,543 804,542 804,535 805,534 805,509 806,508 806,499 807,498 807,497 808,496 808,494 809,493 809,480 810,479 810,475 811,474 811,473 812,472 812,470 813,469 813,465 814,464 814,462 816,460 816,459 818,457 818,456 820,454 820,453 821,452 821,451 828,444 828,443 831,440 831,439 832,438 832,436 833,435 833,429 834,428 834,427 835,426 836,426 837,425 838,425 839,424 841,424 842,423 844,423 845,422 847,422 848,421 849,421 848,421 847,420 843,420 842,419 840,419 839,420 836,420 835,421 828,421 827,420 826,420 825,419 824,419 821,416 821,415 820,414 820,413 821,412 821,411 822,410 822,409 821,409 820,408 819,408 818,407 817,407 815,405 815,404 811,400 807,400 804,397 804,396 803,395 803,392 802,391 802,390 801,389 801,383 802,382 802,381 807,376 807,375 809,373 809,372 810,371 810,365 811,364 811,362 812,361 812,360 813,359 813,358 814,357 814,354 815,353 815,347 816,346 816,331 817,330 817,326 818,325 818,323 820,321 820,320 821,319 821,317 822,316 822,315 823,314 823,313 824,312 824,311 826,309 826,308 828,306 828,305 832,301 832,300 833,299 837,299 841,303 843,303 844,302 846,302 850,298 850,297 852,295 852,293 853,292 853,289 854,288 854,287 853,286 853,284 852,283 852,278 853,277 853,276 854,275 854,274 855,273 855,271 856,270 856,265 855,264 855,261 854,260 855,259 856,259 859,256 860,256 861,255 862,255 863,254 864,254 867,251 868,251 873,246 874,246 875,245 876,245 877,244 879,244 880,243 882,243 883,242 884,242 885,241 886,241 887,240 889,240 890,239 891,239 893,237 895,237 896,236 900,236 901,235 903,235 904,234 905,234 906,233 909,233 910,232 914,232 915,231 922,231 923,230 931,230 932,229 937,229 938,228 949,228 950,229 952,229 953,230 955,230 956,231 959,231 960,232 963,232 964,233 968,233 969,234 971,234 972,235 973,235 974,236 975,236 977,238 977,242 980,245 982,245 983,246 984,246 985,245 987,245 988,244 988,243 989,242 989,238 990,237 997,237 998,236 999,236 1000,237 1003,237 1005,239 1005,241 1006,242 1006,243 1007,244 1008,244 1009,245 1014,245 1015,244 1016,244 1017,243 1018,243 1019,242 1020,242 1021,241 1025,241 1026,242 1028,242 1029,243 1031,243 1032,244 1033,244 1036,247 1037,247 1041,251 1041,252 1044,255 1044,256 1045,257 1045,258 1047,260 1047,262 1048,263 1048,266 1049,267 1049,268 1052,271 1052,273 1053,274 1053,276 1054,277 1054,278 1055,279 1053,281 1050,281 1048,279 1047,279 1046,280 1044,280 1040,284 1039,284 1037,286 1037,288 1038,289 1038,290 1040,292 1040,293 1042,295 1043,295 1044,296 1045,296 1046,297 1047,297 1048,298 1050,298 1051,299 1052,299 1054,301 1054,305 1052,307 1052,308 1051,309 1051,316 1052,317 1052,319 1053,320 1053,324 1052,325 1050,325 1049,324 1049,322 1048,321 1048,320 1047,319 1047,317 1046,316 1046,314 1043,311 1043,310 1040,307 1033,307 1032,306 1031,306 1030,305 1029,305 1027,303 1027,302 1026,301 1027,300 1027,293 1026,292 1026,291 1025,290 1020,290 1019,291 1019,292 1018,293 1018,298 1019,299 1019,300 1020,301 1020,305 1021,306 1021,307 1023,307 1024,308 1025,308 1027,310 1027,312 1028,313 1028,315 1029,316 1029,317 1030,318 1030,319 1031,320 1031,322 1032,323 1032,324 1031,325 1031,326 1030,327 1030,328 1029,329 1027,327 1026,327 1019,320 1019,318 1018,317 1018,315 1016,313 1016,311 1015,310 1014,310 1013,309 1012,309 1011,308 1010,308 1009,307 1007,307 1006,306 1005,306 1002,303 1000,303 999,302 999,305 1000,305 1001,306 1001,307 1002,308 1002,309 1005,312 1005,313 1010,318 1010,319 1013,322 1013,323 1014,324 1014,325 1015,325 1016,326 1016,327 1019,330 1019,331 1020,332 1020,333 1021,334 1021,338 1022,339 1022,340 1023,341 1023,343 1024,344 1024,347 1025,348 1025,356 1024,357 1024,360 1023,361 1023,362 1022,363 1022,364 1021,365 1021,366 1020,367 1020,368 1019,369 1019,370 1016,373 1016,374 1013,377 1013,380 1012,381 1012,383 1011,384 1011,385 1010,386 1010,387 1009,388 1009,389 1008,390 1008,392 1006,394 1006,396 1005,397 1005,398 1004,399 1004,400 1002,402 1002,404 1001,405 1001,406 1000,407 1000,413 999,414 999,420 998,421 998,423 999,424 999,427 1001,429 1001,430 1000,431 1000,432 999,433 999,435 998,436 999,437 999,438 1002,441 1002,442 1009,449 1009,450 1023,464 1025,464 1026,465 1026,467 1027,468 1027,470 1028,471 1028,472 1029,473 1029,474 1031,476 1031,477 1032,478 1032,479 1037,484 1037,485 1038,486 1038,487 1039,488 1039,489 1042,492 1042,493 1043,494 1043,495 1045,497 1045,498 1046,499 1046,500 1047,501 1047,502 1049,504 1049,505 1050,506 1050,509 1051,510 1051,512 1052,513 1052,515 1053,516 1053,525 1054,526 1054,535 1053,536 1053,537 1051,539 1051,540 1047,544 1046,544 1044,546 1043,546 1042,547 1041,547 1040,548 1031,548 1030,547 1029,547 1028,546 1027,546 1025,544 1021,544 1020,545 1018,545 1018,546 1016,548 1015,548 1014,549 1012,549 1011,550 1011,551 1010,552 1009,552 1008,553 1006,553 1000,559 999,559 997,561 996,561 995,562 993,562 992,563 991,563 989,561 989,557 988,556 988,555 985,558 984,558 984,559 983,560 983,561 980,564 980,565 978,567 978,568 976,570 976,572 975,573 975,574 973,576 973,577 972,578 972,580 971,581 971,582 969,584 969,585 968,586 968,589 967,590 967,591 972,596 972,597 973,598 972,599 972,604 971,605 971,609 970,610 970,613 969,614 969,616 968,617 968,618 967,619 967,621 966,622 966,624 963,627 963,628 962,629 962,630 951,641 951,642 950,643 950,653 949,654 949,669 948,670 948,677 947,678 947,680 946,681 946,683 945,684 945,688 944,689 944,692 943,693 943,694 942,695 942,697 941,698 941,703 940,704 940,705 939,706 939,707 938,708 938,713 937,714 937,719 936,720 936,722 935,723 935,725 934,726 934,729 933,730 933,732 932,733 932,734 931,735 931,737 930,738 930,741 929,742 929,743 928,744 928,745 927,746 927,747 926,748 926,751 925,752 925,753 923,755 923,758 922,759 922,763 921,764 921,765 920,766 920,767 919,768 919,770 918,771 918,772 916,774 916,776 915,777 915,780 914,781 914,783 913,784 913,786 912,787 912,794 913,795 913,797 912,798 912,815 914,817 914,819 915,820 915,821 916,822 916,824 917,825 917,834 918,835 918,841 919,842 919,850 920,851 920,853 921,854 921,855 922,856 922,868 923,869 923,880 924,881 924,885 925,886 925,909 926,910 926,971 925,972 925,1010 923,1012 923,1013 922,1014 922,1015 921,1016 921,1017 920,1018 920,1026 921,1027 921,1030 922,1031 922,1048 923,1049 923,1057 924,1058 924,1059 925,1060 925,1063 926,1064 926,1079 1919,1079 1919,0 Z" fill="black" stroke="none" /></svg>