<?xml version="1.0" encoding="utf-8" ?>
<svg baseProfile="tiny" height="1080px" version="1.2" viewBox="0,0,1920,1080" width="1920px" xmlns="http://www.w3.org/2000/svg" xmlns:ev="http://www.w3.org/2001/xml-events" xmlns:xlink="http://www.w3.org/1999/xlink"><defs /><path d="M826,389 824,391 823,391 824,391 825,392 826,392 827,391 827,390 Z" fill="black" stroke="none" /><path d="M737,330 736,331 736,333 737,333 738,332 738,331 Z" fill="black" stroke="none" /><path d="M863,278 862,279 861,279 864,282 868,282 868,279 866,279 865,278 Z" fill="black" stroke="none" /><path d="M0,0 0,1079 631,1079 631,1075 632,1074 632,1071 633,1070 633,1063 634,1062 634,1061 643,1052 643,1051 644,1050 644,1047 645,1046 645,1045 646,1044 646,1043 647,1042 647,1039 648,1038 648,1026 649,1025 649,1024 650,1023 650,1022 651,1021 651,1003 650,1002 650,1001 649,1000 649,999 648,998 648,995 647,994 647,991 646,990 646,989 645,988 645,985 644,984 644,969 643,968 643,963 642,962 642,948 643,947 643,941 644,940 644,867 645,866 645,860 644,859 644,856 645,855 645,847 646,846 646,842 647,841 647,835 648,834 648,820 649,819 649,817 650,816 650,815 651,814 651,810 652,809 652,785 651,784 651,773 652,772 652,768 653,767 653,766 654,765 654,764 655,763 655,760 656,759 656,757 657,756 657,755 658,754 658,752 659,751 659,744 660,743 660,730 661,729 661,725 662,724 662,717 663,716 663,699 664,698 664,692 665,691 665,689 666,688 666,680 667,679 667,671 668,670 668,667 669,666 669,662 670,661 670,654 671,653 671,645 672,644 672,642 673,641 673,638 674,637 674,630 675,629 675,625 676,624 676,622 677,621 677,616 678,615 678,596 679,595 679,589 680,588 680,584 681,583 681,579 682,578 682,571 683,570 683,567 684,566 684,563 685,562 685,556 686,555 686,551 687,550 687,546 688,545 688,543 687,542 687,536 686,535 686,527 685,526 685,524 684,523 684,522 683,522 678,517 678,516 676,514 676,513 675,512 675,511 674,510 674,506 673,505 673,503 672,502 672,500 671,499 671,494 670,493 670,488 669,487 669,485 667,483 667,482 666,481 666,480 663,477 663,476 655,468 655,467 648,460 648,459 640,451 640,450 639,450 637,448 637,447 629,439 629,438 627,436 627,435 626,434 626,433 625,432 625,430 623,428 623,426 622,425 622,422 621,421 621,418 620,417 620,415 619,414 619,390 620,389 620,386 621,385 621,377 622,376 622,362 623,361 623,357 624,356 624,355 625,354 625,350 626,349 626,342 627,341 627,339 628,338 628,336 629,335 629,330 630,329 630,324 631,323 631,322 632,321 632,320 633,319 633,314 634,313 634,310 635,309 635,308 636,307 636,305 637,304 637,299 638,298 638,297 639,296 639,295 640,294 640,291 641,290 641,287 642,286 642,285 643,284 643,282 644,281 644,279 645,278 645,276 647,274 647,273 648,272 648,270 649,269 649,268 650,267 650,266 651,265 651,264 652,263 652,262 653,261 653,260 655,258 655,257 656,256 656,255 657,254 657,253 659,251 659,250 660,249 660,248 661,247 662,247 662,246 664,244 664,243 678,229 679,229 681,227 682,227 684,225 686,225 687,224 689,224 690,223 691,223 692,222 693,222 694,221 695,221 696,220 697,220 699,218 703,218 704,217 705,217 708,214 708,213 714,207 715,207 717,205 718,205 718,204 719,203 719,202 720,201 720,200 721,199 721,197 722,196 722,194 723,193 723,188 724,187 724,186 725,185 725,183 726,182 726,178 727,177 727,176 728,175 728,174 731,171 731,170 734,167 734,166 738,162 738,161 739,160 740,160 751,149 752,149 755,146 756,146 757,145 759,145 760,144 761,144 762,143 764,143 765,142 771,142 772,143 774,143 775,144 777,144 778,145 803,145 804,146 814,146 815,147 816,147 817,148 818,148 819,149 822,149 823,150 824,150 825,151 826,151 827,152 828,152 829,153 830,153 833,156 833,157 834,158 834,159 841,166 845,166 847,168 847,170 845,172 845,179 846,180 846,181 847,182 847,190 848,191 848,194 849,195 849,197 848,198 848,201 847,202 847,206 848,207 848,211 849,212 849,219 848,220 848,227 847,228 847,240 846,241 846,242 847,243 847,246 848,247 848,248 853,253 857,253 858,254 862,254 863,253 864,253 867,250 867,246 866,245 866,244 865,243 865,242 864,241 864,240 859,235 858,235 857,234 857,233 856,232 856,231 855,230 855,220 854,219 855,218 855,213 857,211 860,211 861,212 861,213 862,214 862,216 863,217 863,221 862,222 862,224 861,225 861,227 864,230 865,230 866,231 868,231 869,230 874,230 875,229 876,230 877,230 878,231 881,231 882,232 884,232 885,231 887,231 888,232 890,232 891,233 892,233 893,234 893,235 894,236 894,237 895,237 896,238 901,238 902,239 903,239 906,242 906,244 907,245 907,251 904,254 897,254 895,252 895,251 891,247 889,247 888,248 887,248 886,249 886,253 885,254 885,261 886,262 892,262 893,261 895,261 896,262 897,262 898,263 898,264 899,265 899,266 900,267 900,268 904,272 904,273 903,274 903,276 902,277 902,278 901,279 901,280 900,281 900,282 898,284 898,285 897,286 897,288 898,289 898,290 899,291 899,292 900,293 900,294 905,299 905,300 906,300 908,302 908,303 912,307 912,308 913,309 913,310 912,311 912,312 910,314 907,314 906,315 902,315 901,316 901,317 902,318 902,320 904,322 904,323 905,324 905,326 906,327 906,333 905,334 902,331 901,331 900,330 899,330 898,329 897,329 889,321 888,321 886,319 885,319 883,317 883,315 884,314 884,308 883,307 883,306 881,306 880,307 878,307 877,306 875,306 874,307 873,307 872,308 871,308 870,309 868,309 864,313 864,314 865,314 866,315 867,315 869,317 869,318 868,319 868,320 869,321 869,323 870,324 870,326 869,327 869,328 868,329 864,329 863,330 862,330 861,331 854,331 853,330 849,330 848,329 848,328 847,327 847,326 845,324 844,325 843,325 842,326 841,326 839,328 838,328 838,329 836,331 835,331 823,343 823,344 822,345 822,346 821,347 821,349 820,350 820,351 819,352 818,351 818,350 816,348 813,348 812,349 811,349 810,350 808,350 801,357 800,357 796,361 796,362 795,363 795,372 796,373 796,375 797,376 797,378 798,379 798,386 799,387 799,388 800,388 801,389 804,389 805,388 806,388 807,387 807,386 808,385 808,384 810,382 810,381 811,380 812,380 817,375 818,375 819,374 820,374 821,373 822,373 823,372 827,372 828,371 831,371 832,370 835,370 836,369 837,369 837,366 836,365 836,361 837,360 837,355 838,354 837,353 837,351 836,350 836,349 837,348 837,347 838,346 839,346 840,345 847,345 848,344 850,344 851,343 855,343 856,342 861,342 862,343 865,343 866,344 868,344 869,345 870,345 871,346 871,349 872,350 871,351 871,352 868,355 868,356 864,360 864,363 865,364 865,365 867,367 867,368 872,373 874,373 875,374 878,374 879,375 880,375 882,377 882,378 884,380 884,381 885,382 885,383 886,384 886,385 888,387 888,388 889,389 889,391 893,395 908,395 909,396 910,395 916,395 917,396 918,396 921,399 921,403 920,404 920,407 919,408 919,410 918,411 918,413 917,414 917,417 916,418 916,422 915,423 915,427 914,428 914,431 913,432 913,438 914,439 914,441 915,442 915,449 916,450 916,453 917,454 917,455 918,456 918,468 917,469 917,474 916,475 916,478 915,479 915,481 912,484 912,486 911,487 911,488 910,489 910,490 909,491 909,492 908,493 908,495 907,496 907,497 896,508 896,509 894,511 894,512 893,513 893,514 892,515 892,516 891,517 891,518 890,519 890,521 889,522 889,531 888,532 888,539 889,540 889,541 891,543 891,544 894,547 895,547 903,555 903,556 905,558 905,559 907,561 907,564 908,565 908,566 909,567 909,568 910,569 910,570 911,571 911,573 912,574 912,576 913,577 913,578 914,579 914,580 915,581 915,585 916,586 916,594 917,595 917,598 918,599 918,600 919,601 919,602 920,603 921,603 925,607 926,607 927,608 928,608 951,631 951,632 955,636 955,637 958,640 958,641 959,642 959,644 960,645 960,647 961,648 961,650 962,651 962,652 963,653 963,655 964,656 964,657 966,659 966,660 967,661 967,663 968,664 968,665 970,667 970,668 971,669 971,672 972,673 972,674 974,676 974,678 975,679 975,682 976,683 976,684 977,685 977,686 978,687 978,689 979,690 979,692 981,694 981,695 982,696 982,700 983,701 983,704 984,705 984,706 985,707 985,710 986,711 986,715 987,716 987,717 988,718 988,721 989,722 989,726 990,727 990,728 991,729 991,730 992,731 992,735 993,736 993,743 994,744 994,748 995,749 995,750 996,751 996,758 997,759 996,760 996,770 994,772 994,773 993,774 993,775 988,780 988,781 987,782 986,782 983,785 982,785 980,787 979,787 978,788 978,789 977,790 976,790 972,794 971,794 970,795 968,795 966,797 954,797 953,796 954,795 955,795 957,793 957,792 955,790 954,790 953,789 948,789 947,788 942,788 941,787 935,787 934,786 932,786 931,785 930,785 929,784 928,784 927,783 926,783 924,781 923,781 922,780 921,780 918,777 918,776 917,775 917,769 918,768 918,767 919,766 920,766 920,765 923,762 923,755 922,754 921,754 919,752 917,752 916,751 908,751 907,752 906,752 905,753 900,753 899,752 898,752 895,749 895,748 894,747 894,743 897,740 898,740 898,739 897,738 897,736 895,734 895,733 892,730 892,729 891,728 890,728 888,726 887,726 886,725 885,725 884,724 883,724 882,723 881,723 879,721 878,721 872,715 872,714 871,714 861,704 861,703 847,689 846,689 843,686 842,686 840,684 839,684 837,682 836,682 833,679 832,679 830,677 829,677 828,676 827,676 826,675 824,675 823,674 821,674 820,673 819,673 818,672 816,672 815,671 812,671 811,670 804,670 802,672 801,672 799,674 799,675 795,679 795,680 791,684 791,685 788,688 788,689 787,690 787,691 784,694 784,695 783,696 783,697 781,699 781,700 779,702 779,703 776,706 776,707 773,710 773,711 772,712 772,713 771,714 771,715 769,717 769,721 768,722 768,723 767,724 767,725 766,726 766,727 765,728 765,732 764,733 764,735 763,736 763,737 762,738 762,739 761,740 761,744 759,746 759,747 758,748 758,750 757,751 757,753 755,755 755,756 754,757 754,758 753,759 753,760 752,761 752,762 751,763 751,764 750,765 750,766 749,767 749,768 748,769 748,770 747,771 747,773 746,774 746,778 745,779 745,781 743,783 743,784 742,785 742,786 741,787 741,788 739,790 739,791 735,795 735,796 732,799 732,800 731,801 731,803 728,806 728,807 727,808 727,810 725,812 725,813 724,814 724,816 723,817 723,821 722,822 722,824 721,825 721,827 720,828 720,838 719,839 719,841 717,843 717,845 716,846 716,850 715,851 715,853 714,854 714,857 713,858 713,870 712,871 712,904 711,905 711,910 710,911 710,914 709,915 709,928 708,929 708,940 707,941 707,943 706,944 706,947 705,948 705,971 704,972 704,975 703,976 703,977 702,978 702,980 701,981 701,988 700,989 700,990 699,991 699,992 698,993 698,998 697,999 697,1003 695,1005 695,1007 694,1008 694,1041 695,1042 695,1043 696,1044 696,1045 697,1046 697,1061 696,1062 696,1064 695,1065 695,1067 694,1068 694,1073 693,1074 693,1079 1919,1079 1919,0 Z" fill="black" stroke="none" /></svg>