<?xml version="1.0" encoding="utf-8" ?>
<svg baseProfile="tiny" height="1080px" version="1.2" viewBox="0,0,1920,1080" width="1920px" xmlns="http://www.w3.org/2000/svg" xmlns:ev="http://www.w3.org/2001/xml-events" xmlns:xlink="http://www.w3.org/1999/xlink"><defs /><path d="M0,0 0,1079 851,1079 851,1068 852,1067 852,1066 853,1065 853,1064 854,1063 854,1061 855,1060 855,1058 857,1056 857,1053 858,1052 858,1044 859,1043 859,1041 860,1040 860,1039 861,1038 861,1036 862,1035 862,1032 864,1030 864,1029 865,1028 865,1026 866,1025 866,1024 868,1022 868,1021 869,1020 869,1018 870,1017 870,1015 871,1014 871,1012 872,1011 872,1009 871,1008 871,1007 870,1006 870,1003 869,1002 869,999 867,997 867,996 866,995 866,993 865,992 865,981 866,980 866,974 867,973 867,972 868,971 868,968 869,967 869,957 870,956 870,952 871,951 871,950 872,949 872,946 873,945 873,940 874,939 874,937 875,936 875,934 876,933 876,926 877,925 877,903 878,902 878,898 879,897 879,892 880,891 880,874 881,873 881,860 882,859 882,856 883,855 883,849 884,848 884,834 885,833 885,831 886,830 886,827 887,826 887,816 886,815 886,814 885,813 885,810 884,809 884,800 883,799 883,796 884,795 884,786 885,785 885,782 886,781 886,779 887,778 887,765 888,764 888,763 887,762 887,756 886,755 886,754 885,753 885,752 884,751 884,745 883,744 883,743 882,742 882,741 881,740 881,738 880,737 880,733 879,732 879,731 877,729 877,726 876,725 876,723 874,721 874,720 873,719 873,717 872,716 872,715 871,714 871,713 870,712 870,711 869,710 869,709 868,708 868,707 866,705 866,704 865,703 865,702 863,700 863,699 862,698 862,697 861,696 861,695 859,693 859,692 858,691 858,690 857,689 857,688 855,686 855,685 854,684 854,683 853,682 853,681 852,680 852,679 850,677 850,675 847,672 847,671 846,670 846,669 840,663 839,663 837,661 834,661 833,662 832,662 831,663 830,663 829,664 829,665 826,668 826,669 825,670 825,671 823,673 823,674 821,676 821,677 820,678 820,679 818,681 818,682 817,683 817,684 816,685 816,686 814,688 814,691 813,692 813,695 811,697 811,699 810,700 810,704 809,705 809,708 808,709 808,710 807,711 807,713 806,714 806,718 805,719 805,720 804,721 804,722 803,723 803,725 802,726 802,728 801,729 801,730 799,732 799,734 798,735 798,737 796,739 796,742 795,743 795,761 794,762 794,771 793,772 793,775 792,776 792,779 791,780 791,785 789,787 789,788 788,789 788,791 787,792 787,793 786,794 786,795 785,796 785,797 784,798 784,800 783,801 783,803 782,804 782,805 781,806 781,807 780,808 780,809 778,811 778,812 777,813 777,814 776,815 776,816 775,817 775,824 776,825 776,830 777,831 777,836 778,837 778,839 779,840 779,844 780,845 780,858 781,859 781,864 782,865 782,869 783,870 783,876 784,877 784,884 785,885 785,887 786,888 786,890 787,891 787,897 788,898 788,903 789,904 789,906 791,908 791,909 798,916 798,917 800,919 800,920 801,921 801,922 802,923 802,924 803,925 803,926 805,928 805,929 807,931 807,933 809,935 809,937 810,938 810,944 811,945 811,946 810,947 810,951 809,952 809,953 806,956 806,957 793,970 792,970 790,972 789,972 780,981 780,982 777,985 777,986 776,987 776,988 773,991 773,993 772,994 772,997 770,999 770,1000 769,1001 769,1003 768,1004 768,1006 765,1009 765,1010 759,1016 758,1016 755,1019 754,1019 752,1021 751,1021 749,1023 748,1023 747,1024 746,1024 744,1026 743,1026 742,1027 741,1027 740,1028 739,1028 737,1030 736,1030 735,1031 733,1031 732,1032 730,1032 729,1033 716,1033 715,1032 712,1032 711,1031 710,1031 704,1025 704,1022 703,1021 703,1016 704,1015 704,1009 705,1008 705,1006 707,1004 707,1003 708,1002 708,1000 709,999 709,998 712,995 712,993 713,992 713,991 715,989 715,988 716,987 716,986 719,983 719,982 720,981 720,980 723,977 723,976 724,975 724,974 726,972 726,971 727,970 727,969 731,965 731,964 734,961 734,960 735,959 735,957 737,955 737,954 738,953 738,951 739,950 739,949 740,948 740,944 741,943 741,942 740,941 740,937 739,936 739,935 738,934 738,932 736,930 736,929 735,928 735,927 734,926 734,922 733,921 733,919 732,918 732,917 731,916 731,910 730,909 730,905 729,904 729,902 728,901 728,900 727,899 727,895 726,894 726,891 725,890 725,888 724,887 724,886 723,885 723,879 722,878 722,875 721,874 721,873 720,872 720,870 719,869 719,864 718,863 718,861 717,860 717,859 716,858 716,857 715,856 715,852 714,851 714,849 713,848 713,847 712,846 712,842 711,841 711,838 710,837 710,836 709,835 709,833 708,832 708,825 707,824 707,822 706,821 706,820 705,819 705,818 704,817 704,813 703,812 703,810 702,809 702,797 703,796 703,787 704,786 704,774 705,773 705,754 704,753 704,734 705,733 705,728 706,727 706,726 707,725 707,720 708,719 708,711 709,710 709,708 710,707 710,704 711,703 711,694 710,693 710,689 709,688 709,681 708,680 709,679 709,672 710,671 710,669 711,668 711,665 712,664 712,658 713,657 713,656 714,655 714,653 715,652 715,647 716,646 716,642 717,641 717,640 718,639 718,637 719,636 719,629 720,628 720,624 721,623 721,620 722,619 722,615 721,614 721,610 720,609 720,593 721,592 721,590 722,589 722,587 723,586 723,580 724,579 724,577 725,576 725,575 726,574 726,568 727,567 727,563 726,562 726,551 725,550 725,548 724,547 724,546 723,545 723,543 722,542 722,540 721,539 721,537 719,535 719,534 715,530 715,529 714,528 713,528 712,527 712,526 711,526 703,518 703,517 698,512 698,511 696,509 696,508 694,506 694,505 693,504 693,503 692,502 692,501 691,500 691,499 689,497 689,496 688,495 688,494 686,492 686,490 685,489 685,485 684,484 684,481 683,480 683,476 682,475 682,464 681,463 681,453 682,452 682,431 683,430 683,429 685,427 685,426 690,421 690,420 691,419 692,419 692,418 693,417 693,416 695,414 695,412 696,411 696,408 697,407 697,403 698,402 698,400 699,399 699,398 700,397 700,394 701,393 701,390 702,389 702,388 703,387 703,386 704,385 704,381 705,380 705,378 706,377 706,376 707,375 707,373 708,372 708,369 709,368 709,366 710,365 710,364 711,363 711,361 712,360 712,357 713,356 713,355 714,354 714,353 715,352 715,348 716,347 716,344 717,343 717,342 718,341 718,340 719,339 719,335 720,334 720,332 721,331 721,330 722,329 722,328 723,327 723,324 724,323 724,322 725,321 725,320 726,319 726,318 727,317 727,316 728,315 728,314 729,313 729,312 731,310 731,309 734,306 734,305 741,298 742,298 742,297 743,296 744,296 749,291 750,291 751,290 752,290 754,288 755,288 756,287 758,287 759,286 760,286 762,284 763,284 764,283 765,283 769,279 770,279 772,277 773,277 777,273 778,273 779,272 780,272 782,270 783,270 784,269 785,269 789,265 791,265 794,262 795,262 796,261 797,261 798,260 799,260 801,258 802,258 803,257 805,257 808,254 809,254 812,251 812,249 813,248 813,244 814,243 814,242 815,241 815,233 814,232 814,231 813,230 813,229 810,226 810,225 809,224 809,223 808,222 808,221 807,220 807,219 806,218 806,216 805,215 805,213 804,212 804,211 803,210 803,209 802,208 802,207 801,206 801,204 798,201 798,199 797,198 797,197 795,195 795,194 794,193 794,191 793,190 793,188 791,186 791,184 790,183 790,180 789,179 789,178 787,176 787,174 786,173 786,167 787,166 787,163 788,162 788,160 789,159 789,158 790,157 790,156 791,155 791,154 792,153 793,153 793,152 805,140 805,139 817,127 818,127 819,126 820,126 821,125 822,125 823,124 824,124 825,123 826,123 827,122 828,122 829,121 830,121 831,120 838,120 839,121 840,121 841,122 844,122 845,123 851,123 852,122 854,122 856,120 859,120 860,119 864,119 865,120 870,120 871,121 872,121 873,122 874,122 875,123 877,123 878,124 879,124 880,125 881,125 882,126 883,126 884,127 886,127 889,130 890,130 891,131 892,131 895,134 896,134 897,135 898,135 905,142 906,142 907,143 907,144 911,148 911,149 914,152 914,153 915,154 915,155 916,156 916,162 917,163 917,178 916,179 916,181 915,182 915,186 914,187 914,190 912,192 912,193 911,194 911,196 910,197 910,200 909,201 909,203 908,204 908,207 907,208 907,210 906,211 906,212 905,213 905,214 904,215 904,217 903,218 903,220 901,222 901,224 900,225 900,227 899,228 899,237 900,238 900,249 902,251 902,252 903,253 904,253 905,254 906,254 907,255 908,255 910,257 911,257 912,258 914,258 916,260 917,260 918,261 919,261 920,262 921,262 923,264 924,264 925,265 926,265 927,266 928,266 932,270 933,270 936,273 938,273 942,277 943,277 945,279 945,280 951,286 952,286 953,287 954,287 955,288 956,288 957,289 958,289 960,291 961,291 962,292 963,292 964,293 965,293 972,300 972,301 979,308 979,309 982,312 982,313 983,314 983,315 985,317 985,318 986,319 986,320 989,323 989,324 990,325 990,327 992,329 992,330 993,331 993,334 994,335 994,339 995,340 995,342 996,343 996,346 997,347 997,379 998,380 998,388 999,389 999,391 1000,392 1000,394 1001,395 1001,401 1002,402 1002,405 1003,406 1003,407 1004,408 1004,410 1005,411 1005,420 1006,421 1006,425 1007,426 1007,431 1008,432 1008,444 1007,445 1007,448 1006,449 1006,451 1005,452 1005,456 1004,457 1004,459 1002,461 1002,462 1001,463 1001,465 1000,466 1000,467 998,469 998,470 997,471 997,473 996,474 996,475 994,477 994,478 993,479 993,480 990,483 990,484 986,488 986,489 982,493 982,494 975,501 975,502 951,526 950,526 934,542 934,544 933,545 933,549 934,550 934,554 935,555 935,557 936,558 936,559 937,560 937,564 938,565 938,569 939,570 939,572 940,573 940,577 941,578 941,590 942,591 942,595 943,596 943,598 944,599 944,604 945,605 945,612 946,613 946,615 947,616 947,618 948,619 948,626 949,627 949,632 950,633 950,635 951,636 951,638 952,639 952,654 953,655 953,660 954,661 954,663 955,664 955,668 956,669 956,683 957,684 957,688 958,689 958,691 959,692 959,698 960,699 960,770 961,771 961,773 962,774 962,776 963,777 963,804 961,806 961,808 960,809 960,814 959,815 959,820 958,821 958,824 957,825 957,830 956,831 956,845 955,846 955,849 954,850 954,853 953,854 953,861 952,862 952,875 951,876 951,879 950,880 950,882 949,883 949,894 948,895 948,904 947,905 947,907 946,908 946,912 945,913 945,925 944,926 944,934 943,935 943,937 942,938 942,942 941,943 941,958 940,959 940,961 939,962 939,963 938,964 938,968 937,969 937,978 936,979 936,980 935,981 935,982 934,983 934,988 933,989 933,994 932,995 932,996 931,997 931,999 930,1000 930,1003 929,1004 929,1005 928,1006 928,1007 925,1010 925,1011 924,1012 924,1014 923,1015 923,1026 924,1027 924,1028 925,1029 925,1030 926,1031 926,1033 927,1034 927,1035 929,1037 929,1039 930,1040 930,1041 931,1042 931,1043 933,1045 933,1046 934,1047 934,1048 937,1051 937,1053 939,1055 939,1056 940,1056 941,1057 941,1058 943,1060 944,1060 949,1065 950,1065 953,1068 955,1068 960,1073 961,1073 964,1076 966,1076 968,1078 968,1079 1919,1079 1919,0 Z" fill="black" stroke="none" /></svg>