<?xml version="1.0" encoding="utf-8" ?>
<svg baseProfile="tiny" height="1080px" version="1.2" viewBox="0,0,1920,1080" width="1920px" xmlns="http://www.w3.org/2000/svg" xmlns:ev="http://www.w3.org/2001/xml-events" xmlns:xlink="http://www.w3.org/1999/xlink"><defs /><path d="M630,1016 629,1017 629,1018 630,1018 631,1019 632,1019 633,1018 635,1018 634,1017 633,1017 632,1016 Z" fill="black" stroke="none" /><path d="M0,0 0,1079 598,1079 598,1078 597,1078 596,1077 593,1077 592,1076 585,1076 584,1075 582,1075 581,1074 575,1074 574,1075 570,1075 569,1076 553,1076 552,1075 548,1075 547,1074 544,1074 543,1073 541,1073 540,1072 538,1072 537,1071 535,1071 534,1070 534,1069 532,1067 532,1061 533,1060 533,1055 532,1054 532,1053 531,1052 531,1051 530,1051 529,1050 528,1050 525,1047 526,1046 526,1045 528,1043 529,1043 530,1042 531,1042 532,1041 533,1041 534,1040 535,1040 537,1038 540,1038 541,1039 545,1035 545,1034 546,1033 546,1023 545,1022 546,1021 546,1017 547,1016 547,1013 545,1011 545,1010 546,1009 546,1008 549,1005 552,1005 553,1006 555,1006 556,1007 556,1008 559,1011 559,1012 561,1014 564,1014 566,1016 567,1016 568,1017 569,1017 573,1021 574,1021 575,1022 575,1023 576,1024 576,1025 580,1029 580,1033 581,1034 581,1035 582,1036 582,1037 583,1038 583,1039 584,1040 584,1041 585,1042 585,1043 590,1048 587,1051 584,1051 583,1052 578,1052 577,1053 575,1053 574,1054 571,1054 570,1055 567,1055 567,1058 568,1059 568,1061 569,1062 569,1063 570,1063 571,1064 572,1064 573,1065 575,1065 576,1066 580,1066 581,1065 582,1065 583,1064 585,1064 586,1063 587,1063 588,1064 590,1064 591,1065 593,1065 594,1066 613,1066 615,1064 615,1060 616,1059 615,1058 615,1052 616,1051 617,1052 617,1053 618,1054 618,1055 619,1056 621,1056 622,1055 624,1055 624,1054 625,1053 625,1051 626,1050 626,1046 625,1045 625,1042 624,1041 624,1040 622,1038 622,1033 621,1032 621,1021 622,1020 622,1016 621,1015 621,1014 620,1013 620,1009 621,1008 622,1008 623,1007 632,1007 633,1006 634,1006 634,1005 635,1004 636,1004 637,1003 640,1003 641,1004 642,1004 643,1005 644,1005 645,1006 646,1006 647,1007 648,1007 649,1008 650,1008 652,1010 650,1012 649,1012 648,1013 648,1014 644,1018 645,1019 645,1021 646,1022 646,1030 647,1031 647,1033 646,1034 646,1036 645,1037 645,1038 644,1039 644,1040 643,1041 643,1042 641,1044 640,1044 639,1045 638,1045 635,1042 632,1045 632,1046 631,1047 631,1048 635,1052 636,1052 638,1050 639,1050 642,1053 642,1054 643,1055 642,1056 642,1057 641,1058 641,1060 640,1061 640,1066 639,1067 638,1067 637,1068 630,1068 629,1067 627,1067 625,1069 620,1069 619,1070 618,1070 616,1072 616,1073 611,1078 611,1079 1916,1079 1916,1078 1918,1076 1919,1076 1919,0 Z" fill="black" stroke="none" /></svg>