<?xml version="1.0" encoding="utf-8" ?>
<svg baseProfile="tiny" height="1080px" version="1.2" viewBox="0,0,1920,1080" width="1920px" xmlns="http://www.w3.org/2000/svg" xmlns:ev="http://www.w3.org/2001/xml-events" xmlns:xlink="http://www.w3.org/1999/xlink"><defs /><path d="M719,1077 718,1078 716,1078 716,1079 728,1079 728,1078 727,1078 726,1077 Z" fill="black" stroke="none" /><path d="M756,1076 755,1077 742,1077 741,1078 738,1078 738,1079 771,1079 771,1078 769,1078 768,1077 764,1077 763,1076 Z" fill="black" stroke="none" /><path d="M822,1071 821,1072 818,1072 815,1075 814,1075 812,1077 807,1077 807,1079 826,1079 826,1077 828,1075 829,1075 830,1074 830,1073 829,1073 828,1072 826,1072 825,1071 Z" fill="black" stroke="none" /><path d="M585,1056 583,1058 582,1058 580,1060 577,1060 575,1058 573,1060 573,1061 572,1062 575,1062 576,1063 582,1063 583,1064 585,1064 586,1065 587,1065 588,1064 591,1064 593,1062 593,1061 592,1060 592,1057 590,1057 589,1056 Z" fill="black" stroke="none" /><path d="M517,1050 516,1051 515,1051 514,1052 513,1052 510,1055 511,1056 511,1057 512,1057 514,1059 515,1059 516,1060 517,1060 518,1061 520,1061 521,1060 522,1060 523,1059 524,1059 527,1056 530,1056 531,1055 532,1055 531,1055 530,1054 526,1054 525,1053 524,1053 522,1051 521,1051 520,1050 Z" fill="black" stroke="none" /><path d="M541,1049 535,1055 536,1055 540,1059 540,1060 542,1062 544,1062 545,1063 547,1063 548,1064 550,1064 551,1063 553,1063 554,1062 554,1055 553,1054 552,1054 549,1051 545,1051 544,1050 543,1050 542,1049 Z" fill="black" stroke="none" /><path d="M797,1045 795,1047 795,1049 796,1050 796,1063 795,1064 795,1065 793,1067 792,1067 791,1066 788,1066 787,1065 782,1065 781,1066 780,1066 778,1068 778,1069 777,1070 778,1070 779,1071 782,1071 783,1072 786,1072 787,1073 793,1073 794,1074 797,1074 798,1073 798,1072 799,1071 799,1068 798,1067 798,1066 799,1065 799,1064 800,1063 800,1062 802,1060 802,1055 805,1052 805,1051 808,1048 807,1048 806,1047 804,1047 803,1046 801,1046 800,1045 Z" fill="black" stroke="none" /><path d="M842,1044 841,1045 841,1046 840,1047 840,1049 841,1050 841,1051 843,1051 844,1050 845,1050 846,1049 846,1046 845,1045 845,1044 Z" fill="black" stroke="none" /><path d="M723,1028 722,1029 722,1030 721,1031 721,1035 720,1036 720,1038 721,1039 721,1043 722,1044 721,1045 721,1047 722,1048 727,1048 728,1047 727,1046 727,1042 728,1041 728,1039 729,1038 729,1033 728,1032 728,1030 726,1028 Z" fill="black" stroke="none" /><path d="M1210,1018 1210,1020 1209,1021 1209,1024 1208,1025 1209,1026 1210,1026 1212,1024 1212,1023 1213,1022 1213,1020 1215,1018 Z" fill="black" stroke="none" /><path d="M798,1002 799,1002 800,1003 800,1002 Z" fill="black" stroke="none" /><path d="M710,1002 709,1003 713,1003 714,1004 715,1003 716,1003 716,1002 Z" fill="black" stroke="none" /><path d="M1186,1001 1185,1002 1186,1003 1191,1003 1190,1003 1189,1002 1188,1002 1187,1001 Z" fill="black" stroke="none" /><path d="M651,998 650,999 642,999 641,1000 637,1000 636,1001 635,1001 634,1002 633,1002 634,1003 636,1003 637,1004 640,1004 641,1005 643,1005 644,1006 644,1007 645,1008 645,1011 644,1012 644,1013 643,1014 643,1015 640,1018 640,1020 639,1021 639,1022 636,1025 637,1026 637,1028 639,1030 640,1030 641,1029 650,1029 651,1030 651,1031 652,1032 651,1033 651,1034 650,1035 648,1035 647,1036 646,1036 645,1037 644,1037 643,1038 640,1038 639,1037 638,1038 635,1038 633,1040 633,1041 635,1043 637,1043 638,1042 639,1042 640,1043 641,1043 642,1044 641,1045 641,1047 639,1049 638,1049 637,1048 637,1046 636,1045 634,1045 632,1047 631,1046 631,1045 630,1044 630,1043 631,1042 631,1040 630,1040 629,1039 628,1039 627,1038 624,1038 623,1039 621,1039 620,1040 617,1040 617,1043 618,1044 618,1048 619,1049 619,1050 620,1051 620,1052 621,1053 621,1054 622,1055 622,1056 621,1057 621,1062 623,1064 634,1064 635,1065 636,1064 637,1064 639,1062 643,1066 644,1066 645,1067 646,1067 647,1068 651,1068 652,1069 653,1069 654,1070 653,1071 652,1071 650,1073 649,1073 648,1074 647,1074 646,1075 645,1075 643,1077 640,1077 639,1078 635,1074 632,1074 631,1073 626,1073 625,1072 622,1072 621,1073 617,1073 616,1074 608,1074 607,1073 603,1073 602,1074 600,1074 599,1075 597,1075 596,1076 594,1076 593,1077 591,1077 590,1078 590,1079 686,1079 686,1078 680,1072 680,1071 679,1070 679,1069 678,1068 678,1064 679,1063 679,1059 678,1058 677,1058 676,1057 673,1057 671,1055 671,1054 670,1053 670,1052 669,1051 669,1048 670,1047 670,1046 672,1044 672,1043 673,1042 673,1041 674,1040 673,1039 673,1037 672,1036 672,1035 671,1034 671,1032 672,1031 672,1027 673,1026 673,1025 672,1024 672,1023 671,1022 671,1020 669,1018 671,1016 672,1016 673,1015 676,1015 678,1013 678,1012 680,1010 680,1009 681,1008 681,1007 682,1006 682,1005 684,1003 684,1002 683,1002 680,999 675,999 674,998 Z" fill="black" stroke="none" /><path d="M1021,987 1021,988 Z" fill="black" stroke="none" /><path d="M1145,976 Z" fill="black" stroke="none" /><path d="M1181,962 1180,963 1179,963 1177,965 1178,966 1185,966 1186,965 1187,965 1186,965 1183,962 Z" fill="black" stroke="none" /><path d="M654,951 653,952 653,953 652,954 654,956 655,956 657,954 Z" fill="black" stroke="none" /><path d="M1261,945 1260,946 1259,946 1258,947 1256,947 1255,948 1249,948 1247,950 1246,950 1247,951 1247,954 1248,954 1250,956 1252,956 1253,955 1256,955 1257,956 1258,956 1261,959 1261,960 1262,960 1262,959 1265,956 1267,958 1267,959 1269,961 1273,961 1274,960 1274,959 1275,958 1275,957 1276,956 1277,956 1279,958 1279,959 1280,960 1281,960 1283,958 1284,958 1285,957 1284,956 1284,954 1283,953 1283,951 1282,950 1280,950 1279,949 1277,949 1276,948 1273,948 1272,947 1265,947 1264,946 1262,946 Z" fill="black" stroke="none" /><path d="M653,917 650,920 651,920 653,922 655,922 656,921 657,921 658,920 657,919 656,919 654,917 Z" fill="black" stroke="none" /><path d="M1063,916 1059,920 1059,922 1058,923 1058,927 1057,928 1057,930 1056,931 1056,935 1058,937 1059,937 1061,935 1062,935 1063,934 1063,932 1064,931 1064,919 1063,918 Z" fill="black" stroke="none" /><path d="M1166,912 1165,913 1164,913 1167,913 1167,912 Z" fill="black" stroke="none" /><path d="M714,902 716,904 716,905 731,905 730,905 729,904 728,904 727,903 726,903 725,902 Z" fill="black" stroke="none" /><path d="M0,0 0,1079 539,1079 539,1078 536,1078 535,1077 531,1077 530,1076 527,1076 526,1075 523,1075 522,1074 515,1074 514,1075 488,1075 487,1074 465,1074 464,1073 457,1073 456,1072 452,1072 451,1071 448,1071 445,1068 444,1068 439,1063 440,1062 443,1062 444,1061 449,1061 450,1060 456,1060 457,1059 460,1059 461,1060 465,1060 466,1061 467,1061 468,1060 470,1060 471,1059 472,1059 473,1058 474,1058 475,1057 476,1057 478,1055 475,1052 475,1051 473,1049 473,1048 472,1047 473,1046 473,1044 475,1042 475,1041 477,1039 478,1039 480,1037 481,1037 482,1036 484,1036 485,1035 486,1035 488,1033 494,1033 495,1034 496,1034 497,1033 498,1033 497,1032 488,1032 483,1027 483,1026 482,1025 486,1021 487,1021 489,1019 490,1020 493,1020 494,1021 506,1021 507,1022 509,1022 510,1023 511,1023 514,1026 514,1029 510,1033 515,1038 515,1039 517,1041 517,1042 519,1044 519,1045 519,1044 521,1042 521,1041 522,1040 522,1037 523,1036 523,1025 524,1024 524,1023 525,1022 525,1020 526,1019 526,1018 527,1017 528,1017 529,1016 532,1016 533,1015 534,1015 536,1017 536,1018 537,1019 537,1021 538,1022 538,1023 539,1024 539,1026 540,1027 540,1028 541,1029 541,1032 542,1033 546,1033 549,1030 549,1028 552,1025 550,1023 550,1022 549,1021 549,1020 547,1018 547,1015 548,1014 545,1011 545,1009 548,1006 550,1006 551,1005 564,1005 566,1007 566,1008 567,1009 567,1010 569,1012 569,1014 570,1015 570,1016 571,1017 571,1026 572,1026 573,1025 573,1024 575,1022 575,1020 576,1019 576,1017 577,1016 577,1013 576,1012 576,1007 579,1004 589,1004 590,1005 591,1005 592,1006 592,1012 591,1013 591,1038 592,1039 592,1041 593,1042 593,1043 594,1044 594,1045 597,1048 594,1051 594,1054 593,1055 594,1056 596,1056 597,1057 598,1056 599,1056 600,1055 601,1055 600,1054 600,1052 598,1050 598,1045 599,1044 599,1028 598,1027 598,1015 597,1014 597,1013 595,1011 595,1005 597,1003 595,1001 584,1001 583,1000 582,1000 581,999 578,999 577,998 562,998 561,997 560,997 559,996 558,996 557,995 557,990 558,989 558,988 560,986 561,986 564,983 565,983 566,982 567,982 568,981 569,981 570,980 571,980 572,979 572,977 573,976 573,974 572,973 573,972 575,972 576,971 579,971 581,969 581,966 578,963 577,963 576,962 578,960 584,960 585,959 587,959 588,958 588,957 593,952 593,951 596,948 596,947 600,943 600,942 601,941 602,941 603,940 603,939 608,934 608,933 611,930 611,929 615,925 615,924 617,922 618,922 619,921 619,920 622,917 622,916 629,909 629,908 631,906 631,902 630,901 630,900 628,898 625,898 624,897 612,897 611,896 592,896 591,895 589,895 588,894 587,894 586,893 586,892 585,891 585,885 586,884 586,882 587,881 587,879 588,878 588,874 589,873 589,867 590,866 590,863 591,862 591,856 592,855 592,792 591,791 591,776 590,775 590,768 591,767 591,758 592,757 592,748 593,747 593,739 594,738 594,734 595,733 595,729 596,728 596,722 597,721 597,718 598,717 598,715 599,714 599,709 600,708 600,703 601,702 601,700 602,699 602,697 603,696 603,691 604,690 604,689 605,688 605,686 606,685 606,683 607,682 607,679 608,678 608,676 609,675 609,673 610,672 610,669 611,668 611,665 612,664 612,662 613,661 613,660 614,659 614,655 615,654 615,651 616,650 616,649 617,648 617,646 618,645 618,641 619,640 619,637 620,636 620,635 621,634 621,632 622,631 622,627 623,626 623,625 624,624 624,623 625,622 625,620 626,619 626,616 627,615 627,614 629,612 629,610 630,609 630,607 632,605 632,604 633,603 633,601 634,600 634,598 635,597 635,595 636,594 636,592 637,591 637,588 638,587 638,586 639,585 639,584 640,583 640,581 641,580 641,577 642,576 642,574 643,573 643,572 644,571 644,568 645,567 645,566 646,565 646,564 649,561 649,560 660,549 660,548 661,547 662,547 663,546 663,545 671,537 671,536 672,535 673,535 674,534 674,533 679,528 680,528 684,524 685,524 700,509 701,509 709,501 709,500 710,499 711,499 712,498 712,497 714,495 715,495 723,487 724,487 728,483 729,483 733,479 734,479 735,478 735,477 736,476 737,476 749,464 750,464 757,457 758,457 762,453 763,453 764,452 764,451 765,450 766,450 774,442 775,442 777,440 778,440 784,434 785,434 799,420 800,420 800,419 803,416 803,415 804,414 804,413 805,412 805,410 806,409 806,406 807,405 807,403 808,402 808,392 809,391 809,375 810,374 810,370 811,369 811,368 812,367 812,366 813,365 813,360 814,359 814,354 813,353 813,349 812,348 812,346 810,344 810,343 809,342 809,340 808,339 808,338 806,336 806,335 805,334 805,332 804,331 804,330 802,328 802,327 801,326 801,324 798,321 798,320 797,319 797,318 795,316 794,316 793,315 792,315 790,313 789,313 784,308 784,307 782,305 782,304 780,302 780,301 779,300 779,299 778,298 778,296 777,295 777,294 776,293 776,291 775,290 775,288 774,287 774,286 773,285 773,284 772,283 772,281 771,280 771,277 770,276 770,275 769,274 769,272 768,271 768,265 767,264 767,261 766,260 766,259 765,258 765,256 764,255 764,253 763,252 763,251 761,249 761,248 760,247 760,246 757,243 757,242 756,241 756,240 754,238 754,237 753,236 753,235 752,234 752,233 750,231 750,230 749,229 749,226 748,225 748,224 746,222 746,218 745,217 745,213 744,212 744,211 743,210 743,209 742,208 742,206 741,205 741,203 740,202 740,201 739,200 739,198 738,197 738,194 737,193 737,188 736,187 736,182 737,181 737,175 738,174 738,168 739,167 739,166 741,164 741,163 742,162 742,161 743,160 743,158 744,157 744,154 745,153 745,152 746,151 746,150 749,147 750,147 751,146 752,146 755,143 756,143 758,141 759,141 764,136 764,135 767,132 767,131 776,122 776,121 804,93 805,93 809,89 810,89 811,88 812,88 814,86 815,86 816,85 817,85 819,83 820,83 821,82 822,82 823,81 824,81 825,80 826,80 828,78 830,78 831,77 832,77 834,75 835,75 836,74 838,74 839,73 841,73 842,72 843,72 844,71 851,71 852,70 853,70 854,71 858,71 859,72 860,72 861,73 862,73 863,74 865,74 866,75 867,75 869,77 870,77 871,78 872,78 874,80 875,80 876,81 877,81 878,82 880,82 881,83 882,83 883,84 886,84 887,83 889,83 890,82 891,82 892,81 893,81 895,79 896,79 897,78 898,78 899,77 900,77 901,76 902,76 903,75 905,75 906,74 915,74 916,75 918,75 919,76 920,76 921,77 922,77 923,78 925,78 926,79 928,79 930,81 932,81 933,82 935,82 936,83 937,83 938,84 939,84 940,85 941,85 942,86 943,86 944,87 945,87 947,89 949,89 950,90 951,90 953,92 954,92 955,93 956,93 957,94 958,94 961,97 962,97 982,117 982,118 983,119 984,119 986,121 986,122 987,122 992,127 993,127 996,130 996,131 999,134 999,135 1003,139 1003,140 1004,140 1006,142 1007,142 1008,143 1008,144 1009,144 1018,153 1018,154 1019,155 1019,157 1020,158 1020,159 1021,160 1021,162 1022,163 1022,164 1023,165 1023,167 1024,168 1024,170 1025,171 1025,173 1026,174 1026,178 1027,179 1027,183 1028,184 1028,194 1027,195 1027,197 1026,198 1026,199 1025,200 1025,201 1024,202 1024,203 1023,204 1023,206 1022,207 1022,209 1021,210 1021,212 1020,213 1020,216 1019,217 1019,219 1018,220 1018,221 1017,222 1017,224 1016,225 1016,226 1015,227 1015,229 1014,230 1014,231 1013,232 1013,234 1012,235 1012,237 1011,238 1011,239 1010,240 1010,241 1009,242 1009,245 1008,246 1008,248 1007,249 1007,250 1006,251 1006,252 1005,253 1005,259 1004,260 1004,266 1003,267 1003,269 1002,270 1002,272 1001,273 1001,276 1000,277 1000,279 998,281 998,282 997,283 997,285 996,286 996,287 995,288 995,289 994,290 994,291 993,292 993,294 991,296 991,297 990,298 990,299 989,300 989,301 988,302 988,303 986,305 986,306 985,307 985,308 984,309 984,310 983,311 983,313 982,314 982,315 981,316 981,318 980,319 980,320 979,321 979,323 978,324 978,339 979,340 979,347 980,348 980,353 981,354 981,356 982,357 982,358 984,360 985,360 988,363 989,363 990,364 991,364 993,366 994,366 995,367 996,367 998,369 999,369 1000,370 1001,370 1002,371 1003,371 1004,372 1005,372 1007,374 1008,374 1009,375 1010,375 1013,378 1014,378 1017,381 1018,381 1020,383 1021,383 1023,385 1024,385 1026,387 1027,387 1029,389 1030,389 1033,392 1034,392 1035,393 1036,393 1039,396 1040,396 1041,397 1042,397 1045,400 1046,400 1047,401 1048,401 1051,404 1052,404 1055,407 1056,407 1057,408 1058,408 1059,409 1060,409 1062,411 1063,411 1064,412 1065,412 1067,414 1068,414 1069,415 1070,415 1071,416 1072,416 1074,418 1075,418 1076,419 1078,419 1079,420 1080,420 1081,421 1082,421 1083,422 1084,422 1085,423 1087,423 1088,424 1089,424 1091,426 1093,426 1094,427 1096,427 1097,428 1098,428 1100,430 1102,430 1103,431 1105,431 1107,433 1108,433 1109,434 1111,434 1112,435 1113,435 1115,437 1116,437 1117,438 1119,438 1122,441 1124,441 1125,442 1126,442 1129,445 1131,445 1132,446 1133,446 1135,448 1136,448 1137,449 1138,449 1139,450 1140,450 1142,452 1143,452 1144,453 1145,453 1146,454 1147,454 1149,456 1150,456 1152,458 1153,458 1155,460 1156,460 1160,464 1161,464 1168,471 1169,471 1181,483 1182,483 1194,495 1194,496 1196,498 1196,499 1200,503 1200,504 1202,506 1202,507 1203,508 1203,509 1204,510 1204,511 1205,512 1205,513 1206,514 1206,515 1207,516 1207,518 1208,519 1208,520 1210,522 1210,524 1211,525 1211,528 1212,529 1212,531 1213,532 1213,533 1214,534 1214,535 1215,536 1215,539 1216,540 1216,542 1217,543 1217,544 1218,545 1218,547 1219,548 1219,552 1220,553 1220,555 1221,556 1221,558 1222,559 1222,566 1223,567 1223,574 1224,575 1224,578 1225,579 1225,584 1226,585 1226,597 1227,598 1227,603 1228,604 1228,607 1229,608 1229,614 1230,615 1230,624 1231,625 1231,628 1232,629 1232,632 1233,633 1233,640 1234,641 1234,645 1235,646 1235,649 1236,650 1236,652 1237,653 1237,661 1238,662 1238,668 1239,669 1239,671 1240,672 1240,675 1241,676 1241,681 1242,682 1242,685 1244,687 1244,690 1245,691 1245,696 1246,697 1246,699 1247,700 1247,701 1248,702 1248,706 1249,707 1249,712 1250,713 1250,715 1251,716 1251,718 1252,719 1252,725 1253,726 1253,730 1254,731 1254,733 1255,734 1255,738 1256,739 1256,744 1257,745 1257,747 1258,748 1258,750 1259,751 1259,755 1260,756 1260,762 1261,763 1261,765 1262,766 1262,769 1263,770 1263,776 1264,777 1264,780 1265,781 1265,783 1266,784 1266,787 1267,788 1267,795 1268,796 1268,799 1269,800 1269,802 1270,803 1270,806 1271,807 1271,814 1272,815 1272,818 1273,819 1273,820 1274,821 1274,825 1275,826 1275,833 1276,834 1276,836 1277,837 1277,839 1278,840 1278,845 1279,846 1279,849 1280,850 1280,852 1281,853 1281,856 1282,857 1282,865 1283,866 1283,868 1284,869 1284,871 1285,872 1285,875 1286,876 1286,881 1287,882 1287,884 1288,885 1288,888 1289,889 1289,892 1290,893 1290,894 1292,896 1293,896 1294,897 1302,897 1303,898 1304,898 1305,899 1306,899 1307,900 1308,900 1310,902 1310,903 1311,904 1311,906 1305,912 1305,914 1306,915 1306,916 1308,918 1308,919 1313,924 1311,926 1311,929 1313,931 1313,932 1314,933 1314,934 1315,934 1316,933 1318,933 1318,932 1319,931 1320,931 1321,930 1326,930 1329,933 1329,937 1328,938 1328,943 1327,944 1326,944 1325,945 1324,945 1323,946 1322,946 1321,947 1320,946 1319,946 1318,945 1317,945 1316,946 1314,946 1313,947 1310,947 1309,948 1303,948 1302,949 1300,949 1299,950 1296,950 1296,951 1303,958 1303,963 1302,964 1302,965 1303,965 1304,966 1305,966 1306,967 1308,967 1311,970 1312,970 1313,971 1316,971 1317,972 1323,966 1324,966 1325,965 1327,967 1327,968 1328,969 1328,972 1329,973 1329,974 1330,974 1333,977 1333,978 1335,980 1335,981 1334,982 1334,990 1333,991 1333,993 1332,994 1332,995 1331,996 1330,996 1329,997 1328,997 1327,998 1326,998 1325,999 1317,999 1316,1000 1315,1000 1314,1001 1314,1002 1313,1003 1313,1006 1314,1007 1314,1010 1312,1012 1312,1013 1311,1014 1312,1015 1312,1023 1311,1024 1311,1026 1310,1027 1310,1028 1308,1030 1308,1031 1307,1032 1307,1033 1308,1033 1309,1034 1310,1034 1312,1036 1313,1036 1314,1037 1316,1037 1317,1038 1318,1038 1319,1037 1327,1037 1328,1038 1330,1038 1331,1039 1333,1039 1334,1040 1334,1048 1331,1051 1330,1051 1329,1052 1328,1052 1327,1053 1326,1053 1325,1054 1324,1054 1323,1055 1322,1055 1324,1057 1325,1057 1331,1063 1331,1070 1330,1071 1329,1071 1328,1072 1327,1072 1326,1073 1323,1073 1322,1074 1313,1074 1312,1075 1309,1075 1298,1064 1298,1062 1297,1061 1297,1059 1296,1058 1296,1057 1295,1056 1295,1055 1294,1055 1293,1054 1292,1054 1291,1053 1290,1054 1287,1054 1286,1053 1284,1053 1283,1052 1283,1051 1281,1049 1281,1048 1280,1047 1271,1047 1270,1046 1269,1046 1267,1044 1267,1040 1266,1040 1265,1039 1263,1039 1262,1038 1256,1038 1255,1037 1251,1037 1250,1036 1244,1036 1243,1035 1229,1035 1228,1036 1227,1036 1226,1035 1224,1035 1223,1034 1222,1034 1219,1031 1216,1031 1213,1034 1209,1034 1208,1035 1194,1035 1193,1034 1192,1034 1191,1033 1191,1032 1193,1030 1193,1029 1196,1026 1198,1026 1199,1025 1199,1021 1198,1020 1198,1016 1197,1015 1197,1014 1196,1013 1195,1013 1194,1012 1192,1012 1191,1013 1186,1013 1185,1014 1184,1014 1184,1015 1183,1016 1181,1014 1180,1014 1176,1010 1176,1006 1177,1005 1177,1004 1179,1002 1179,1001 1178,1000 1178,999 1176,997 1173,997 1172,996 1164,996 1163,997 1157,997 1154,994 1154,993 1153,992 1153,988 1151,986 1149,986 1148,987 1146,987 1143,990 1142,990 1141,991 1140,991 1139,992 1133,992 1129,988 1129,986 1128,985 1128,980 1129,979 1130,979 1133,976 1134,976 1134,974 1135,973 1135,970 1138,967 1140,967 1141,966 1142,966 1143,967 1145,967 1146,966 1148,966 1149,965 1150,966 1151,966 1152,967 1161,967 1162,968 1163,968 1164,969 1166,969 1167,970 1170,967 1171,967 1173,965 1173,964 1172,963 1172,961 1169,958 1170,957 1170,956 1172,954 1172,952 1173,951 1173,949 1172,948 1172,946 1171,945 1171,940 1170,939 1170,938 1169,937 1168,937 1167,936 1162,936 1161,937 1157,937 1156,936 1154,936 1153,935 1153,934 1152,933 1152,930 1153,929 1153,928 1154,927 1154,925 1155,924 1154,924 1151,921 1150,921 1149,920 1149,919 1148,918 1148,917 1147,916 1147,915 1146,914 1146,913 1145,913 1143,911 1142,911 1139,908 1138,908 1136,906 1135,906 1134,905 1133,906 1128,906 1127,905 1126,905 1124,903 1123,903 1122,902 1119,902 1118,901 1099,901 1098,902 1097,902 1096,903 1095,903 1094,904 1094,905 1093,906 1091,906 1090,907 1087,907 1086,908 1085,908 1084,909 1083,909 1081,911 1079,911 1078,912 1077,912 1076,913 1079,916 1079,920 1078,921 1078,924 1082,928 1082,929 1084,931 1084,932 1085,933 1085,937 1084,938 1084,943 1083,944 1082,944 1081,945 1078,945 1077,946 1076,946 1075,947 1074,947 1072,949 1071,949 1070,950 1071,951 1071,959 1070,960 1070,963 1069,964 1069,971 1070,972 1070,976 1069,977 1068,977 1067,978 1066,977 1064,977 1061,974 1061,973 1060,972 1060,966 1061,965 1060,964 1060,955 1061,954 1061,953 1063,951 1064,951 1065,950 1061,946 1060,946 1059,945 1055,945 1054,946 1053,946 1052,947 1051,947 1048,950 1048,951 1049,952 1049,957 1050,958 1049,959 1049,965 1050,966 1050,968 1051,969 1051,970 1052,971 1052,972 1054,974 1054,975 1055,976 1055,977 1058,980 1058,983 1059,984 1059,985 1062,988 1065,988 1066,989 1070,989 1071,990 1074,990 1075,991 1076,991 1077,992 1077,995 1076,996 1075,996 1074,997 1072,997 1071,998 1062,998 1061,997 1046,997 1045,998 1035,998 1034,997 1029,997 1028,996 1027,996 1025,994 1024,994 1023,993 1019,993 1018,994 1017,994 1016,993 1013,993 1012,992 1011,992 1010,991 1011,990 1012,990 1013,989 1014,989 1015,988 1016,988 1016,987 1013,984 1011,984 1010,983 1001,983 1000,982 996,982 995,981 991,981 990,982 983,982 982,981 980,981 979,980 980,979 981,979 982,978 990,978 991,979 994,979 995,978 1003,978 1004,979 1007,979 1008,978 1009,978 1014,973 1016,973 1017,972 1018,972 1018,969 1019,968 1019,962 1020,961 1019,960 1019,954 1020,953 1020,947 1019,946 1019,939 1020,938 1020,934 1022,932 1022,928 1020,926 1020,925 1019,924 1019,923 1018,922 1018,921 1012,915 1011,915 1010,914 1006,914 1005,915 1004,915 1002,917 1001,917 1000,918 994,918 993,917 992,917 991,916 994,913 994,911 995,910 995,909 993,907 993,906 992,905 990,905 989,904 984,904 983,905 982,905 981,906 980,906 979,907 978,907 977,908 976,908 976,909 975,910 975,913 973,915 967,915 966,914 962,914 961,913 958,913 956,911 955,911 953,909 953,908 952,907 952,906 946,900 946,898 939,898 938,897 925,897 924,898 920,898 921,898 924,901 924,903 923,904 923,905 920,908 918,908 917,909 915,909 914,910 913,910 912,911 909,911 908,912 905,912 905,913 911,913 912,914 913,914 915,916 915,918 914,919 914,920 915,921 915,922 917,924 917,926 918,927 918,928 914,932 915,933 915,935 916,936 917,936 918,935 919,935 920,934 921,934 922,933 923,933 924,932 925,933 928,933 931,930 932,930 932,929 934,927 934,926 935,925 937,925 938,924 941,924 942,925 943,925 947,929 948,929 949,930 950,930 951,931 951,932 952,933 952,934 953,935 953,937 952,938 952,939 954,941 955,941 956,940 957,940 958,939 958,937 960,935 960,934 961,933 962,933 965,936 969,936 970,937 970,941 971,942 971,946 970,947 970,949 969,950 967,948 967,947 965,945 963,947 961,947 959,945 958,945 957,944 955,944 954,943 953,944 951,944 950,945 947,945 944,948 938,948 934,944 931,944 930,945 929,945 927,947 923,947 922,946 915,946 914,947 912,947 910,949 909,949 908,950 907,950 905,952 904,952 903,953 902,953 901,954 905,958 906,958 907,959 909,959 915,965 915,972 916,973 916,974 918,976 918,978 915,981 914,981 913,982 911,982 910,983 909,983 908,984 907,984 907,985 905,987 905,988 900,993 899,993 898,994 896,994 895,995 893,995 892,996 891,996 890,997 887,997 886,998 882,998 881,999 879,999 878,1000 877,1000 876,1001 875,1001 874,1002 873,1002 873,1004 874,1005 875,1005 877,1007 878,1007 879,1008 880,1008 881,1009 887,1009 888,1010 886,1012 884,1012 884,1013 883,1014 884,1014 887,1017 887,1018 884,1021 883,1021 882,1022 881,1022 880,1023 879,1023 877,1025 878,1026 878,1027 879,1028 880,1028 881,1029 886,1029 887,1030 887,1031 888,1032 886,1034 880,1034 879,1035 878,1035 877,1036 876,1036 874,1038 873,1038 869,1042 869,1043 866,1046 865,1046 864,1047 864,1048 868,1052 868,1053 869,1054 869,1055 867,1057 866,1057 865,1058 864,1058 863,1059 863,1060 862,1061 862,1064 863,1065 863,1069 864,1070 863,1071 863,1073 862,1074 862,1075 863,1076 863,1079 1916,1079 1916,1077 1917,1076 1919,1076 1919,0 Z" fill="black" stroke="none" /></svg>