<?xml version="1.0" encoding="utf-8" ?>
<svg baseProfile="tiny" height="1080px" version="1.2" viewBox="0,0,1920,1080" width="1920px" xmlns="http://www.w3.org/2000/svg" xmlns:ev="http://www.w3.org/2001/xml-events" xmlns:xlink="http://www.w3.org/1999/xlink"><defs /><path d="M1132,837 1131,838 1129,838 1128,839 1124,839 1123,840 1121,840 1120,841 1119,841 1117,843 1116,843 1115,844 1114,844 1112,846 1111,846 1108,849 1107,849 1105,851 1104,851 1103,852 1102,852 1100,854 1099,854 1098,855 1097,855 1093,859 1092,859 1091,860 1091,861 1087,865 1087,866 1083,870 1083,871 1080,874 1080,875 1079,876 1079,877 1074,882 1074,883 1071,886 1071,887 1070,888 1069,888 1069,889 1061,897 1061,898 1058,901 1058,902 1056,904 1056,905 1054,907 1054,908 1052,910 1052,911 1050,913 1050,914 1049,915 1049,916 1047,918 1047,919 1046,920 1046,921 1045,922 1045,923 1043,925 1043,926 1042,927 1042,928 1039,931 1039,932 1035,936 1035,937 1030,942 1030,943 1027,946 1027,947 1021,953 1021,954 1016,959 1015,959 1009,965 1009,966 1007,968 1007,969 1003,973 1003,974 993,984 993,985 990,988 990,989 989,990 989,991 988,992 988,994 987,995 987,997 986,998 986,1000 985,1001 985,1002 982,1005 981,1005 977,1009 976,1009 976,1010 974,1012 974,1013 973,1014 973,1015 972,1016 972,1017 967,1022 966,1022 964,1024 963,1024 957,1030 957,1031 954,1034 954,1035 952,1037 952,1038 951,1039 950,1039 950,1040 948,1042 948,1043 945,1046 945,1047 938,1054 938,1055 937,1056 937,1057 935,1059 935,1060 933,1062 933,1063 930,1066 930,1067 927,1070 927,1071 926,1072 926,1073 925,1074 925,1075 924,1076 924,1079 1270,1079 1270,1078 1269,1077 1268,1077 1265,1074 1264,1074 1263,1073 1262,1073 1256,1067 1256,1066 1253,1063 1253,1062 1252,1061 1252,1060 1251,1059 1251,1057 1250,1056 1250,1055 1248,1053 1248,1052 1247,1051 1247,1050 1246,1050 1240,1044 1240,1043 1237,1040 1237,1038 1236,1037 1236,1036 1235,1035 1235,1034 1234,1033 1234,1032 1233,1031 1233,1029 1232,1028 1232,1027 1230,1025 1230,1023 1229,1022 1229,1020 1227,1018 1227,1017 1226,1016 1226,1015 1225,1014 1225,1013 1224,1012 1224,1011 1222,1009 1222,1007 1221,1006 1221,1005 1220,1004 1220,1003 1219,1002 1219,1001 1218,1000 1218,999 1217,998 1217,997 1216,996 1216,995 1215,994 1215,993 1214,992 1214,990 1213,989 1213,987 1212,986 1212,985 1211,984 1211,982 1210,981 1210,979 1209,978 1209,977 1208,976 1208,975 1207,974 1207,971 1206,970 1206,968 1204,966 1204,964 1203,963 1203,960 1202,959 1202,958 1201,957 1201,956 1200,955 1200,953 1199,952 1199,950 1198,949 1198,948 1197,947 1197,946 1196,945 1196,942 1195,941 1195,939 1193,937 1193,936 1192,935 1192,932 1191,931 1191,930 1190,929 1190,928 1189,927 1189,925 1188,924 1188,922 1187,921 1187,919 1185,917 1185,915 1184,914 1184,912 1182,910 1182,909 1181,908 1181,906 1180,905 1180,903 1178,901 1178,900 1177,899 1177,897 1176,896 1176,894 1175,893 1175,892 1174,891 1174,890 1173,889 1173,887 1172,886 1172,885 1170,883 1170,881 1169,880 1169,879 1168,878 1168,876 1166,874 1166,873 1165,872 1165,871 1163,869 1163,868 1162,867 1162,866 1161,865 1161,864 1159,862 1159,861 1158,860 1158,859 1157,858 1157,857 1155,855 1155,854 1154,853 1154,852 1147,845 1147,844 1145,842 1144,842 1141,839 1140,839 1138,837 Z" fill="black" stroke="none" /><path d="M1291,680 1291,688 1290,689 1290,698 1289,699 1289,704 1290,705 1290,707 1291,708 1291,710 1292,711 1293,711 1295,713 1295,712 1296,711 1296,705 1297,704 1297,691 1296,690 1296,684 1295,683 1295,680 Z" fill="black" stroke="none" /><path d="M1280,674 1280,675 1279,676 1279,679 1278,680 1278,685 1279,686 1279,689 1280,690 1280,693 1281,693 1281,692 1282,691 1282,687 1283,686 1283,683 1284,682 1284,674 Z" fill="black" stroke="none" /><path d="M1295,616 1294,617 1293,617 1292,618 1291,618 1291,619 1290,620 1290,623 1291,624 1291,625 1294,628 1295,628 1296,627 1296,626 1297,625 1297,619 1296,618 1296,617 Z" fill="black" stroke="none" /><path d="M1340,598 1336,602 1336,605 1335,606 1335,607 1334,608 1334,615 1335,616 1335,619 1336,620 1336,623 1337,623 1337,622 1340,619 1340,617 1341,616 1341,614 1342,613 1342,606 1341,605 1341,601 1340,600 Z" fill="black" stroke="none" /><path d="M1310,561 1309,562 1309,563 1307,565 1307,582 1308,583 1308,584 1309,585 1309,587 1310,588 1310,589 1311,590 1311,591 1312,592 1312,593 1313,594 1313,603 1314,604 1314,605 1313,606 1313,612 1312,613 1312,617 1310,619 1309,619 1308,620 1307,620 1307,625 1308,626 1308,628 1307,629 1307,631 1306,632 1306,639 1307,640 1307,642 1310,645 1311,645 1312,646 1313,646 1315,648 1316,648 1317,649 1319,649 1320,648 1325,648 1325,647 1330,642 1330,641 1331,640 1331,639 1333,637 1334,638 1334,640 1335,641 1335,642 1336,643 1338,643 1339,642 1340,642 1340,640 1341,639 1341,631 1340,630 1340,629 1335,629 1333,631 1332,631 1331,630 1331,629 1330,628 1330,626 1331,625 1331,620 1330,619 1330,615 1331,614 1331,611 1329,609 1328,609 1327,608 1326,608 1325,607 1322,607 1321,606 1321,605 1320,604 1320,583 1321,582 1321,574 1320,573 1320,568 1318,566 1318,565 1317,565 1316,564 1315,564 1314,563 1313,563 1311,561 Z" fill="black" stroke="none" /><path d="M1152,406 1153,406 Z" fill="black" stroke="none" /><path d="M1096,400 1096,401 1095,402 1095,404 1096,405 1096,407 1096,404 1097,403 1097,402 1096,401 Z" fill="black" stroke="none" /><path d="M1130,398 1130,399 1131,399 1131,398 Z" fill="black" stroke="none" /><path d="M1085,398 1084,399 1084,401 1083,402 1083,407 1084,408 1084,410 1085,411 1089,411 1090,410 1090,409 1091,408 1091,402 1092,401 1092,399 1091,399 1090,398 Z" fill="black" stroke="none" /><path d="M1029,397 1027,399 1027,404 1026,405 1026,407 1028,409 1028,410 1032,410 1033,411 1038,411 1039,412 1040,412 1041,413 1044,413 1046,411 1046,405 1045,404 1045,400 1042,397 1037,397 1036,398 1035,397 Z" fill="black" stroke="none" /><path d="M1175,383 1173,385 1172,385 1172,386 1171,387 1171,397 1172,398 1172,404 1173,405 1173,406 1174,407 1175,407 1175,399 1176,398 1176,387 1175,386 Z" fill="black" stroke="none" /><path d="M1029,377 1028,378 1028,379 1027,380 1027,382 1028,383 1028,385 1029,386 1029,383 1030,382 1030,378 Z" fill="black" stroke="none" /><path d="M992,335 992,336 Z" fill="black" stroke="none" /><path d="M965,315 964,316 962,316 962,322 963,323 963,329 965,331 965,343 963,345 962,345 961,346 961,353 963,355 963,356 966,359 967,359 969,361 969,362 970,361 972,361 975,358 975,354 974,353 974,351 973,350 973,336 972,335 972,333 970,331 970,329 969,328 969,326 967,324 969,322 969,321 970,320 970,319 971,318 971,317 970,316 967,316 966,315 Z" fill="black" stroke="none" /><path d="M1029,300 1028,301 1028,302 1029,303 1029,304 1030,303 1030,301 Z" fill="black" stroke="none" /><path d="M1263,267 1262,268 1261,268 1260,269 1260,271 1259,272 1259,273 1260,274 1260,275 1259,276 1259,279 1260,279 1261,280 1264,280 1265,281 1267,281 1268,280 1274,280 1275,279 1278,279 1278,277 1277,276 1277,275 1278,274 1279,274 1280,273 1281,273 1282,272 1283,272 1283,271 1282,271 1281,270 1280,270 1279,269 1276,269 1275,268 1271,268 1270,267 Z" fill="black" stroke="none" /><path d="M1351,233 1351,235 1350,236 1350,242 1349,243 1349,245 1350,246 1350,248 1351,249 1351,250 1355,250 1356,249 1356,248 1357,247 1357,243 1356,242 1356,239 1355,238 1355,237 1352,234 1352,233 Z" fill="black" stroke="none" /><path d="M0,0 0,1079 834,1079 834,1069 835,1068 835,1066 836,1065 836,1063 837,1062 837,1061 838,1060 838,1059 839,1058 839,1057 840,1056 840,1055 841,1054 841,1053 842,1052 842,1051 843,1050 843,1048 844,1047 844,1046 845,1045 845,1044 846,1043 846,1041 847,1040 847,1038 848,1037 848,1036 849,1035 849,1034 850,1033 850,1032 851,1031 851,1030 853,1028 853,1027 855,1025 855,1024 857,1022 857,1021 858,1020 858,1019 859,1018 859,1017 861,1015 861,1013 862,1012 862,1010 865,1007 865,1006 866,1005 866,1004 868,1002 868,1001 869,1000 869,999 870,998 870,997 872,995 872,994 874,992 874,991 876,989 876,988 877,987 877,986 878,985 878,984 879,983 879,982 880,981 880,979 881,978 881,977 883,975 883,974 885,972 885,971 887,969 887,967 888,966 888,965 889,964 889,963 890,962 890,961 892,959 892,958 898,952 899,952 899,951 902,948 902,947 904,945 904,944 907,941 907,940 914,933 915,933 919,929 920,929 921,928 921,926 922,925 922,921 923,920 923,918 924,917 924,915 925,914 925,912 926,911 926,907 927,906 927,903 928,902 928,900 929,899 929,898 930,897 930,896 931,895 931,894 932,893 932,892 933,891 933,890 934,889 934,888 935,887 935,886 936,885 936,884 937,883 937,882 938,881 938,879 939,878 939,877 940,876 940,875 941,874 941,872 942,871 942,870 943,869 943,868 944,867 944,865 945,864 945,863 946,862 946,861 947,860 947,857 948,856 948,854 949,853 949,852 950,851 950,850 951,849 951,848 952,847 952,846 954,844 954,843 956,841 956,840 957,839 957,837 958,836 958,832 959,831 959,819 960,818 960,812 961,811 961,809 962,808 962,807 963,806 963,804 964,803 964,802 966,800 966,799 969,796 969,795 971,793 971,792 974,789 974,788 975,787 975,786 977,784 977,783 978,782 978,781 980,779 980,778 981,777 981,776 983,774 983,773 985,771 985,770 989,766 989,765 998,756 999,756 1000,755 1000,754 1002,752 1002,751 1003,750 1003,749 1004,748 1004,747 1005,746 1005,744 1006,743 1006,740 1007,739 1007,737 1008,736 1008,735 1009,734 1009,733 1010,732 1010,728 1011,727 1011,724 1010,723 1010,708 1011,707 1011,703 1012,702 1012,699 1013,698 1013,697 1014,696 1014,694 1016,692 1016,691 1019,688 1019,687 1025,681 1025,680 1026,679 1026,678 1028,676 1028,675 1030,673 1030,672 1031,671 1031,670 1032,669 1032,668 1033,667 1033,664 1034,663 1034,662 1035,661 1035,659 1036,658 1036,657 1037,656 1037,655 1038,654 1038,653 1039,652 1039,651 1040,650 1040,640 1041,639 1040,638 1040,634 1039,633 1039,628 1036,625 1036,614 1035,613 1035,607 1034,606 1034,586 1033,585 1033,580 1032,579 1032,578 1031,577 1031,575 1030,574 1030,572 1029,571 1029,564 1028,563 1028,561 1027,560 1027,536 1026,535 1026,516 1025,515 1025,507 1024,506 1024,501 1023,500 1023,494 1022,493 1022,491 1021,490 1021,488 1020,487 1020,484 1019,483 1019,480 1018,479 1018,477 1017,476 1017,474 1016,473 1016,469 1015,468 1015,465 1014,464 1014,462 1013,461 1013,458 1012,457 1012,455 1011,454 1011,453 1010,452 1010,450 1009,449 1009,447 1008,446 1008,442 1007,441 1007,439 1006,438 1006,436 1005,435 1005,413 1006,412 1007,412 1008,411 1009,411 1010,410 1011,410 1012,409 1012,408 1014,406 1013,405 1013,400 1014,399 1012,397 1012,396 1011,395 1011,392 1010,391 1011,390 1011,389 1012,388 1012,385 1011,384 1012,383 1012,376 1011,375 1011,374 1010,373 1010,372 1008,370 1008,369 1007,369 1006,368 1004,368 1003,369 1002,368 1000,368 997,365 997,361 1000,358 1000,357 998,355 996,355 995,354 991,358 992,359 992,365 989,368 989,369 988,370 988,371 987,372 987,373 989,375 989,376 990,377 990,378 992,380 992,381 990,383 988,383 987,384 986,384 983,387 983,389 982,390 982,391 981,392 981,393 979,395 990,395 991,394 991,393 993,391 993,389 992,388 993,387 993,385 997,381 999,381 1000,382 1001,382 1004,385 1004,394 1003,395 1004,396 1004,398 1005,399 1004,400 1004,402 1002,404 1001,404 1000,405 997,405 996,406 991,406 990,405 985,405 984,404 981,404 980,403 979,403 978,404 971,404 970,403 962,403 960,405 960,406 959,407 959,408 958,409 956,409 955,408 946,408 945,407 940,407 939,406 938,406 937,405 935,405 934,404 931,404 930,403 929,403 928,402 927,402 926,401 925,401 924,400 919,400 918,399 918,398 920,396 926,396 927,395 931,395 931,394 929,392 929,388 931,386 932,386 933,385 934,385 935,384 936,385 937,385 938,386 939,386 943,390 944,390 946,392 949,392 950,393 951,393 952,394 953,394 954,395 955,394 960,394 961,395 961,386 962,385 963,386 963,388 964,389 965,389 966,390 966,391 967,392 967,393 968,394 968,395 969,396 970,395 971,395 971,394 972,393 972,392 973,391 973,390 974,389 974,387 975,386 975,372 974,371 974,369 972,367 969,367 967,369 967,370 966,371 966,372 965,373 962,373 960,371 960,370 959,369 958,369 957,368 956,368 952,364 952,360 953,359 953,358 954,357 954,355 955,354 953,352 953,351 952,350 952,348 951,347 951,346 948,343 948,342 947,341 947,340 945,338 945,337 944,336 944,335 943,334 943,333 942,332 942,324 943,323 943,317 944,316 944,313 950,307 951,307 952,306 953,306 954,305 955,305 956,304 961,304 962,303 971,303 972,302 973,302 975,300 977,300 978,299 979,299 980,298 983,298 984,297 995,297 996,296 998,296 999,295 1000,295 1003,292 1004,292 1005,291 1006,291 1007,290 1009,290 1010,289 1016,289 1017,288 1023,288 1029,294 1029,295 1030,294 1032,294 1033,293 1033,292 1034,291 1034,290 1035,289 1035,286 1036,285 1036,284 1037,283 1037,279 1039,277 1039,276 1041,274 1042,274 1043,273 1044,273 1045,272 1048,272 1049,271 1051,271 1052,270 1054,270 1055,269 1057,269 1058,268 1059,268 1061,266 1062,266 1065,263 1066,263 1067,262 1068,262 1069,261 1072,261 1073,260 1074,260 1075,259 1077,259 1078,258 1079,259 1082,259 1087,264 1087,267 1086,268 1086,269 1085,270 1085,271 1084,272 1084,275 1082,277 1080,277 1079,276 1076,276 1075,277 1074,277 1073,278 1073,279 1072,280 1072,283 1073,284 1073,285 1074,286 1074,290 1071,293 1071,294 1070,295 1070,300 1069,301 1069,305 1070,306 1070,308 1072,310 1072,311 1074,313 1076,313 1077,314 1081,314 1082,315 1082,316 1083,317 1083,319 1084,320 1084,328 1083,329 1083,330 1082,331 1082,332 1081,333 1078,330 1077,330 1076,329 1074,329 1071,332 1071,334 1070,335 1070,339 1071,340 1071,343 1072,344 1072,345 1073,346 1073,347 1074,348 1074,350 1075,350 1077,352 1078,352 1079,351 1080,351 1081,350 1082,351 1082,353 1083,354 1083,358 1084,359 1084,362 1085,363 1085,366 1088,369 1088,371 1086,373 1085,373 1082,376 1080,376 1079,375 1075,375 1074,376 1073,376 1073,377 1070,380 1070,382 1069,383 1069,384 1068,385 1068,388 1074,394 1078,390 1079,390 1081,388 1082,388 1083,389 1087,389 1088,388 1089,388 1090,387 1094,387 1095,388 1097,388 1101,384 1101,382 1102,381 1102,377 1097,372 1097,371 1096,370 1094,370 1093,371 1091,369 1092,368 1096,368 1096,366 1097,365 1097,362 1099,360 1099,359 1101,357 1101,350 1102,349 1102,338 1101,337 1101,336 1100,335 1100,331 1101,330 1101,326 1102,325 1102,323 1101,322 1101,315 1102,314 1102,313 1104,311 1108,311 1109,312 1109,313 1111,315 1111,316 1112,317 1112,319 1113,319 1114,320 1114,321 1113,322 1112,322 1112,323 1111,324 1112,325 1112,326 1113,325 1114,325 1115,324 1115,320 1116,319 1117,319 1118,318 1120,318 1121,317 1123,317 1124,316 1129,316 1130,317 1130,318 1131,319 1131,320 1125,326 1125,332 1126,333 1126,335 1127,336 1127,342 1126,343 1126,344 1125,345 1125,347 1124,348 1124,352 1123,353 1123,354 1124,355 1124,357 1125,358 1125,359 1128,362 1128,363 1129,364 1129,366 1130,367 1130,368 1131,369 1131,370 1130,371 1130,373 1127,376 1127,377 1126,378 1126,382 1125,383 1125,384 1126,385 1126,388 1130,392 1130,394 1134,394 1135,393 1136,393 1137,392 1138,392 1139,393 1140,393 1141,394 1142,394 1143,395 1144,395 1149,400 1149,401 1149,399 1150,398 1150,392 1152,390 1152,389 1153,388 1153,380 1154,379 1154,376 1155,375 1155,373 1156,372 1156,371 1157,370 1157,368 1158,367 1158,365 1159,364 1160,364 1160,362 1163,359 1163,358 1165,356 1165,354 1166,353 1166,342 1165,341 1165,339 1166,338 1166,336 1167,335 1167,332 1166,331 1166,322 1167,321 1167,319 1169,317 1171,317 1173,319 1173,320 1175,322 1179,322 1179,321 1180,320 1180,318 1181,317 1180,316 1180,315 1178,313 1175,313 1172,316 1170,316 1169,317 1168,317 1165,314 1164,314 1163,313 1163,312 1162,311 1162,310 1161,309 1161,299 1162,298 1162,296 1163,295 1163,294 1164,293 1168,293 1169,294 1169,295 1172,298 1172,300 1173,301 1173,302 1174,303 1174,305 1175,306 1176,306 1177,305 1178,305 1180,303 1180,302 1183,299 1183,288 1184,287 1184,285 1185,284 1185,282 1186,281 1186,273 1185,272 1185,271 1186,270 1186,263 1185,262 1185,254 1186,253 1186,245 1187,244 1187,241 1189,239 1189,238 1190,237 1193,237 1194,236 1196,236 1197,235 1199,235 1200,234 1205,234 1205,230 1206,229 1206,228 1207,227 1207,226 1208,225 1212,225 1214,227 1214,235 1215,236 1215,237 1218,240 1219,240 1220,241 1221,241 1222,242 1224,242 1225,243 1227,243 1228,244 1229,243 1231,243 1232,242 1234,242 1235,241 1236,242 1237,242 1239,244 1241,244 1242,245 1246,245 1252,251 1252,252 1253,253 1254,253 1255,254 1256,254 1258,256 1259,256 1260,257 1261,257 1262,258 1265,258 1266,257 1267,257 1269,255 1270,255 1271,254 1272,254 1276,258 1285,258 1286,259 1287,259 1289,261 1289,262 1290,263 1290,267 1289,268 1292,271 1290,273 1290,274 1289,275 1289,276 1287,278 1287,279 1289,281 1289,282 1291,284 1291,285 1294,288 1295,288 1297,290 1298,290 1299,291 1300,291 1301,292 1306,292 1307,293 1311,293 1312,292 1314,292 1315,291 1318,291 1322,295 1324,295 1325,296 1326,295 1327,295 1329,293 1332,293 1333,292 1333,288 1332,287 1332,286 1328,282 1328,281 1327,280 1327,279 1326,278 1323,278 1322,277 1321,277 1319,279 1317,279 1313,275 1313,270 1314,269 1314,268 1315,267 1315,266 1316,265 1316,264 1318,262 1321,265 1321,266 1322,266 1323,265 1323,264 1324,263 1325,263 1326,262 1327,262 1328,261 1330,261 1331,260 1333,260 1333,259 1334,258 1334,252 1335,251 1335,248 1336,247 1336,246 1337,245 1338,245 1338,242 1340,240 1341,240 1341,239 1342,238 1342,232 1343,231 1343,225 1342,224 1342,218 1343,217 1343,209 1342,208 1347,203 1349,203 1350,204 1351,204 1352,205 1357,205 1358,206 1359,206 1363,210 1365,210 1366,209 1367,209 1368,210 1369,210 1371,212 1371,213 1373,215 1373,216 1374,217 1375,217 1380,222 1380,226 1385,231 1386,231 1389,234 1389,236 1391,238 1391,239 1392,240 1395,240 1396,239 1398,239 1399,240 1400,240 1403,237 1403,234 1404,233 1404,228 1405,227 1405,224 1404,223 1405,222 1405,221 1408,218 1409,219 1409,220 1410,221 1410,222 1411,223 1411,226 1412,227 1412,228 1416,232 1418,232 1420,234 1420,236 1421,237 1421,238 1422,239 1422,240 1424,242 1424,243 1425,244 1425,247 1426,248 1426,249 1427,250 1427,252 1428,253 1428,255 1429,256 1429,258 1430,259 1430,260 1432,262 1432,263 1433,264 1433,267 1434,268 1434,277 1428,283 1428,284 1426,286 1425,286 1424,287 1424,288 1423,289 1423,292 1424,293 1424,295 1425,296 1425,297 1426,298 1426,299 1427,300 1427,301 1428,302 1428,303 1431,306 1432,306 1434,308 1435,308 1441,314 1450,314 1451,315 1452,315 1457,320 1457,322 1458,323 1458,325 1459,326 1459,327 1460,328 1460,329 1461,330 1461,331 1462,332 1462,333 1463,334 1463,336 1464,337 1464,339 1465,340 1465,347 1466,348 1466,350 1467,351 1467,353 1468,354 1468,356 1469,357 1469,359 1470,360 1470,362 1471,363 1471,365 1472,366 1472,367 1473,368 1473,376 1472,377 1472,379 1471,380 1471,381 1469,383 1469,384 1463,390 1462,390 1460,392 1459,392 1457,394 1456,394 1454,396 1453,396 1452,397 1451,397 1450,398 1449,398 1448,399 1447,399 1446,400 1445,400 1444,401 1443,401 1442,402 1441,402 1440,403 1439,403 1438,404 1436,404 1435,405 1433,405 1432,406 1430,406 1429,407 1428,407 1427,408 1425,408 1424,409 1422,409 1421,410 1419,410 1418,411 1415,411 1414,412 1410,412 1409,413 1407,413 1406,414 1404,414 1403,415 1401,415 1400,416 1396,416 1395,417 1392,417 1391,418 1390,418 1389,419 1384,419 1383,420 1373,420 1372,421 1368,421 1367,422 1363,422 1362,423 1354,423 1353,424 1342,424 1341,425 1324,425 1323,426 1318,426 1317,427 1315,427 1314,428 1313,428 1312,429 1310,429 1309,430 1308,430 1307,431 1306,431 1305,432 1304,432 1303,433 1303,434 1302,435 1302,437 1301,438 1301,441 1300,442 1300,444 1299,445 1299,459 1298,460 1298,461 1296,463 1295,463 1292,466 1290,466 1288,464 1287,464 1286,463 1285,463 1284,462 1283,462 1282,463 1276,463 1273,460 1273,459 1272,458 1271,459 1270,459 1266,463 1257,463 1256,464 1251,464 1250,465 1249,464 1248,464 1247,463 1246,463 1242,459 1241,459 1240,458 1238,458 1237,459 1236,459 1234,461 1234,462 1231,465 1231,467 1230,468 1230,471 1229,472 1229,483 1228,484 1228,485 1225,488 1224,488 1223,487 1223,486 1222,485 1222,472 1221,471 1221,467 1220,466 1220,465 1219,464 1219,462 1218,461 1218,441 1219,440 1218,439 1218,428 1217,427 1217,423 1216,422 1216,417 1215,416 1215,413 1214,412 1214,409 1213,408 1213,377 1212,376 1211,377 1211,378 1210,379 1210,388 1209,389 1207,387 1207,386 1206,385 1206,382 1207,381 1207,380 1206,379 1206,378 1205,377 1205,376 1201,376 1200,375 1192,375 1191,376 1190,376 1187,379 1187,380 1186,381 1186,382 1185,383 1185,388 1186,389 1186,426 1187,427 1187,435 1188,436 1188,443 1189,444 1189,456 1188,457 1188,465 1187,466 1187,475 1188,476 1188,486 1187,487 1187,490 1188,491 1188,498 1189,499 1189,505 1190,506 1190,510 1192,512 1193,512 1195,514 1196,514 1198,516 1201,516 1202,515 1203,515 1205,513 1205,511 1204,510 1204,509 1203,508 1204,507 1204,506 1205,505 1205,504 1206,503 1206,502 1207,501 1207,500 1209,498 1210,498 1211,499 1213,499 1214,500 1215,500 1216,501 1216,500 1217,499 1217,498 1218,497 1218,496 1222,492 1222,491 1224,489 1227,489 1229,491 1230,491 1232,493 1234,493 1235,494 1238,494 1239,495 1251,495 1252,494 1259,494 1260,493 1268,493 1269,494 1273,494 1275,496 1275,497 1276,498 1276,499 1277,500 1277,502 1278,503 1278,505 1279,506 1279,508 1280,509 1280,510 1281,511 1281,512 1282,513 1282,515 1283,516 1283,517 1284,518 1284,534 1285,535 1285,536 1287,538 1287,539 1289,539 1290,538 1291,538 1292,537 1292,536 1293,535 1293,534 1296,531 1298,531 1299,530 1300,531 1301,531 1304,534 1304,535 1306,537 1306,538 1307,539 1308,539 1309,540 1321,540 1322,539 1325,539 1325,537 1326,536 1326,532 1327,531 1327,530 1330,527 1331,527 1332,526 1336,530 1336,545 1337,546 1341,546 1344,543 1345,543 1347,541 1346,540 1346,535 1347,534 1347,532 1348,531 1348,530 1349,529 1350,529 1351,528 1354,528 1355,527 1357,529 1358,529 1359,530 1359,531 1361,533 1362,533 1363,534 1366,534 1368,536 1369,536 1371,538 1371,545 1372,546 1372,548 1373,549 1373,550 1374,551 1374,552 1375,553 1375,554 1377,556 1377,557 1378,558 1379,558 1380,557 1381,557 1383,559 1383,560 1384,561 1384,563 1385,564 1385,565 1386,566 1386,569 1387,570 1387,573 1388,574 1388,577 1389,578 1389,585 1388,586 1388,593 1389,594 1389,597 1392,600 1392,601 1394,601 1396,599 1398,601 1398,603 1399,604 1399,608 1400,609 1400,612 1401,612 1402,611 1403,611 1404,610 1406,610 1407,609 1408,610 1408,611 1409,612 1409,615 1410,616 1410,622 1411,623 1411,644 1412,645 1412,646 1413,647 1413,648 1414,649 1414,650 1415,651 1415,652 1415,650 1417,648 1417,647 1419,645 1423,645 1424,644 1425,644 1428,641 1428,640 1429,639 1429,638 1430,637 1431,638 1431,639 1438,646 1438,647 1439,648 1439,653 1438,654 1438,655 1437,656 1437,658 1436,659 1436,660 1435,661 1435,662 1434,663 1434,664 1433,665 1433,666 1430,669 1429,669 1428,668 1426,668 1425,667 1424,667 1423,666 1422,667 1420,667 1419,668 1416,665 1416,664 1415,663 1413,663 1410,666 1410,667 1408,669 1407,669 1400,662 1398,662 1397,663 1395,661 1395,659 1393,657 1393,656 1391,658 1391,659 1390,660 1390,661 1389,662 1389,664 1388,665 1388,666 1387,667 1387,668 1386,669 1386,670 1385,671 1384,671 1379,676 1379,677 1378,678 1374,678 1371,681 1366,681 1365,680 1365,678 1364,677 1364,671 1363,670 1363,669 1362,668 1361,669 1359,669 1358,670 1358,671 1357,672 1357,675 1358,676 1358,677 1357,678 1357,681 1349,689 1346,689 1342,685 1342,683 1341,682 1341,681 1340,680 1340,678 1341,677 1341,676 1345,672 1345,671 1346,670 1346,668 1345,667 1345,666 1342,663 1341,663 1340,662 1336,662 1334,664 1332,664 1330,662 1330,661 1327,658 1327,656 1326,655 1326,653 1325,652 1319,652 1318,651 1317,652 1316,652 1315,653 1314,653 1313,654 1313,655 1312,656 1312,659 1311,660 1311,665 1310,666 1310,669 1309,670 1309,677 1308,678 1308,683 1307,684 1307,688 1306,689 1306,691 1305,692 1305,698 1304,699 1304,711 1305,712 1305,717 1306,718 1306,722 1307,723 1307,725 1311,729 1311,734 1310,735 1309,735 1308,736 1307,736 1306,737 1305,736 1302,736 1301,735 1299,735 1296,732 1296,731 1295,730 1295,728 1296,727 1296,722 1295,721 1295,720 1294,721 1294,726 1295,727 1295,733 1294,734 1294,735 1293,736 1293,737 1292,738 1292,740 1291,741 1291,742 1290,743 1290,745 1289,746 1289,751 1288,752 1288,758 1289,759 1289,763 1291,765 1292,765 1296,769 1296,783 1295,784 1295,785 1292,788 1292,796 1293,797 1293,798 1294,799 1294,801 1295,802 1295,807 1295,806 1296,805 1296,803 1298,801 1300,801 1303,804 1303,809 1302,810 1301,810 1300,811 1298,811 1296,809 1295,809 1295,811 1296,812 1296,813 1297,814 1297,818 1298,819 1298,829 1299,830 1299,838 1300,839 1300,841 1301,842 1301,844 1302,845 1302,847 1303,848 1303,851 1304,852 1304,854 1305,855 1305,858 1306,859 1306,872 1307,873 1307,879 1308,880 1308,883 1309,884 1309,889 1310,890 1310,894 1311,895 1311,899 1312,900 1312,906 1313,907 1313,916 1314,917 1314,932 1315,933 1315,953 1316,954 1316,960 1317,961 1317,966 1318,967 1318,972 1319,973 1319,976 1320,977 1320,979 1321,980 1321,983 1322,984 1322,987 1323,988 1323,991 1324,992 1324,995 1325,996 1325,999 1326,1000 1326,1002 1327,1003 1327,1005 1328,1006 1328,1007 1329,1008 1329,1009 1330,1010 1330,1011 1331,1012 1331,1013 1332,1014 1332,1015 1334,1017 1334,1018 1346,1030 1346,1031 1349,1034 1349,1035 1350,1036 1350,1037 1351,1038 1351,1039 1353,1041 1353,1042 1354,1043 1354,1044 1357,1047 1357,1048 1358,1049 1358,1050 1361,1053 1361,1054 1364,1057 1364,1058 1365,1059 1365,1060 1368,1063 1368,1064 1372,1068 1372,1069 1373,1070 1373,1073 1374,1074 1374,1075 1376,1077 1376,1079 1919,1079 1919,0 Z" fill="black" stroke="none" /></svg>