<?xml version="1.0" encoding="utf-8" ?>
<svg baseProfile="tiny" height="1080px" version="1.2" viewBox="0,0,1920,1080" width="1920px" xmlns="http://www.w3.org/2000/svg" xmlns:ev="http://www.w3.org/2001/xml-events" xmlns:xlink="http://www.w3.org/1999/xlink"><defs /><path d="M0,0 0,1079 636,1079 636,1062 635,1061 635,1059 634,1058 634,1055 633,1054 633,1047 632,1046 632,1041 631,1040 631,1039 630,1038 630,1034 629,1033 629,1025 628,1024 628,1020 627,1019 627,1017 626,1016 626,1003 625,1002 625,990 624,989 624,969 623,968 623,963 622,962 622,916 621,915 621,906 620,905 620,903 619,902 619,899 618,898 618,889 617,888 617,880 618,879 618,867 619,866 619,862 620,861 620,860 621,859 621,855 622,854 622,850 623,849 623,848 624,847 624,845 625,844 625,838 626,837 626,832 627,831 627,829 628,828 628,825 629,824 629,815 630,814 630,808 631,807 631,805 632,804 632,800 633,799 633,783 634,782 634,772 635,771 635,757 636,756 636,748 637,747 637,735 638,734 638,726 639,725 639,721 640,720 640,715 641,714 641,710 642,709 642,707 643,706 643,704 644,703 644,700 645,699 645,695 646,694 646,692 647,691 647,689 648,688 648,683 649,682 649,678 650,677 650,676 651,675 651,673 652,672 652,668 653,667 653,665 654,664 654,663 655,662 655,659 656,658 656,656 657,655 657,653 658,652 658,651 659,650 659,648 660,647 660,645 661,644 661,643 662,642 662,641 663,640 663,638 664,637 664,634 665,633 665,632 666,631 666,630 667,629 667,626 668,625 668,624 669,623 669,622 670,621 670,619 671,618 671,616 672,615 672,614 673,613 673,611 674,610 674,608 675,607 675,605 676,604 676,603 677,602 677,601 678,600 678,597 679,596 679,595 681,593 681,592 682,591 682,590 685,587 685,586 686,585 686,583 687,582 687,581 688,580 688,579 689,578 689,575 690,574 690,572 691,571 691,570 692,569 692,568 693,567 693,565 694,564 694,560 696,558 696,556 697,555 697,553 699,551 699,550 700,549 700,548 701,547 701,546 704,543 704,542 710,536 711,536 716,531 717,531 719,529 719,528 723,524 724,524 731,517 732,517 736,513 737,513 740,510 741,510 743,508 744,508 750,502 751,502 755,498 756,498 759,495 760,495 762,493 763,493 766,490 767,490 767,489 769,487 770,487 774,483 775,483 779,479 780,479 781,478 782,478 785,475 786,475 789,472 791,472 794,469 795,469 797,467 798,467 801,464 802,464 806,460 807,460 810,457 811,457 814,454 815,454 816,453 817,453 820,450 821,450 822,449 823,449 824,448 825,448 828,445 829,445 832,442 833,442 836,439 837,439 839,437 840,437 843,434 844,434 845,433 846,433 849,430 850,430 853,427 854,427 856,425 857,425 862,420 863,420 869,414 869,412 870,411 870,410 871,409 871,408 872,407 872,401 873,400 873,392 874,391 874,388 875,387 875,385 876,384 876,368 875,367 875,366 874,365 874,364 873,363 873,361 872,360 872,359 871,358 871,357 870,356 870,355 869,354 869,353 868,352 868,351 867,350 867,349 866,348 866,347 865,346 865,345 863,343 863,342 861,340 861,339 851,329 851,328 850,327 850,325 848,323 848,322 847,321 847,319 846,318 846,316 845,315 845,314 844,313 844,312 843,311 843,308 842,307 842,306 841,305 841,304 840,303 840,302 839,301 839,300 838,299 838,298 837,297 837,296 836,295 836,294 835,293 835,291 834,290 834,289 833,288 833,287 832,286 832,282 831,281 831,278 830,277 830,276 829,275 829,274 828,273 828,271 826,269 826,268 824,266 824,265 822,263 822,262 821,261 821,260 820,259 820,258 817,255 817,254 816,253 816,252 814,250 814,249 813,248 813,243 812,242 812,240 810,238 810,237 809,236 809,235 808,234 808,233 806,231 806,229 805,228 805,226 804,225 804,224 802,222 802,221 801,220 801,219 799,217 799,216 798,215 798,214 797,213 797,212 796,211 796,210 795,209 795,199 796,198 796,196 797,195 797,193 798,192 798,190 799,189 799,187 800,186 800,180 801,179 801,178 802,177 802,176 804,174 804,173 808,169 808,168 815,161 815,160 817,158 817,157 821,153 821,152 828,145 828,144 831,141 831,140 835,136 835,135 844,126 845,126 852,119 853,119 859,113 860,113 862,111 863,111 865,109 866,109 867,108 868,108 871,105 872,105 873,104 875,104 878,101 879,101 880,100 881,100 882,99 883,99 885,97 886,97 887,96 889,96 890,95 891,95 892,94 893,94 894,93 897,93 898,92 900,92 901,91 904,91 905,90 908,90 909,91 912,91 913,92 917,92 918,93 927,93 928,94 931,94 932,95 934,95 935,96 945,96 946,95 948,95 949,94 950,94 951,93 952,93 953,92 954,92 956,90 957,90 958,89 961,89 962,88 964,88 965,87 969,87 970,88 971,88 972,89 974,89 975,90 979,90 980,91 981,91 982,92 984,92 985,93 989,93 990,94 992,94 993,95 994,95 995,96 996,96 997,97 999,97 1000,98 1001,98 1002,99 1003,99 1004,100 1006,100 1007,101 1008,101 1009,102 1010,102 1011,103 1012,103 1013,104 1014,104 1015,105 1017,105 1019,107 1020,107 1021,108 1022,108 1025,111 1026,111 1032,117 1032,118 1033,118 1035,120 1035,121 1044,130 1045,130 1057,142 1057,143 1059,145 1060,145 1069,154 1069,155 1075,161 1075,162 1077,164 1077,165 1078,166 1078,167 1079,168 1079,170 1080,171 1080,173 1081,174 1081,176 1082,177 1082,178 1083,179 1083,182 1084,183 1084,187 1085,188 1085,193 1086,194 1086,206 1085,207 1085,208 1084,209 1084,211 1083,212 1083,213 1082,214 1082,216 1081,217 1081,220 1080,221 1080,224 1079,225 1079,228 1078,229 1078,230 1077,231 1077,233 1076,234 1076,236 1075,237 1075,239 1074,240 1074,242 1073,243 1073,246 1072,247 1072,252 1071,253 1071,255 1070,256 1070,258 1069,259 1069,277 1068,278 1068,284 1067,285 1067,286 1066,287 1066,288 1065,289 1065,292 1064,293 1064,294 1063,295 1063,296 1062,297 1062,298 1061,299 1061,301 1060,302 1060,304 1059,305 1059,306 1058,307 1058,309 1057,310 1057,312 1055,314 1055,315 1054,316 1054,317 1053,318 1053,319 1051,321 1051,322 1050,323 1050,324 1049,325 1049,326 1048,327 1048,328 1047,329 1047,330 1046,331 1046,334 1045,335 1045,336 1044,337 1044,345 1045,346 1045,347 1046,348 1046,350 1048,352 1048,353 1049,354 1049,355 1050,356 1050,357 1052,359 1052,360 1053,361 1053,371 1054,372 1054,378 1055,379 1055,381 1057,383 1058,383 1059,384 1060,384 1061,385 1062,385 1063,386 1064,386 1067,389 1068,389 1073,394 1074,394 1080,400 1081,400 1100,419 1101,419 1103,421 1103,422 1104,423 1105,423 1111,429 1112,429 1117,434 1118,434 1126,442 1127,442 1131,446 1132,446 1135,449 1136,449 1139,452 1140,452 1141,453 1142,453 1145,456 1146,456 1147,457 1148,457 1149,458 1150,458 1152,460 1153,460 1154,461 1155,461 1156,462 1157,462 1159,464 1161,464 1162,465 1163,465 1165,467 1166,467 1167,468 1168,468 1171,471 1172,471 1173,472 1174,472 1177,475 1178,475 1182,479 1183,479 1186,482 1187,482 1188,483 1189,483 1193,487 1194,487 1198,491 1199,491 1205,497 1206,497 1210,501 1211,501 1216,506 1217,506 1229,518 1229,519 1232,522 1232,523 1234,525 1234,526 1237,529 1237,530 1241,534 1241,535 1255,549 1255,550 1256,551 1256,552 1257,553 1257,554 1258,555 1258,556 1259,557 1259,558 1260,559 1260,560 1262,562 1262,563 1263,564 1263,566 1264,567 1264,570 1265,571 1265,572 1266,573 1266,574 1267,575 1267,578 1268,579 1268,581 1269,582 1269,583 1270,584 1270,586 1271,587 1271,593 1272,594 1272,597 1273,598 1273,600 1274,601 1274,606 1275,607 1275,615 1276,616 1276,619 1277,620 1277,622 1278,623 1278,635 1279,636 1279,641 1280,642 1280,644 1281,645 1281,648 1282,649 1282,663 1283,664 1283,672 1284,673 1284,675 1285,676 1285,681 1286,682 1286,694 1287,695 1287,698 1288,699 1288,701 1289,702 1289,708 1290,709 1290,719 1291,720 1291,724 1292,725 1292,729 1293,730 1293,741 1294,742 1294,750 1295,751 1295,754 1296,755 1296,759 1297,760 1297,773 1298,774 1298,779 1299,780 1299,782 1300,783 1300,790 1301,791 1301,798 1302,799 1302,802 1303,803 1303,804 1304,805 1304,812 1305,813 1305,822 1306,823 1306,827 1307,828 1307,832 1308,833 1308,841 1309,842 1309,847 1310,848 1310,850 1311,851 1311,854 1312,855 1312,865 1313,866 1313,871 1314,872 1314,875 1315,876 1315,880 1316,881 1316,886 1317,887 1317,888 1318,889 1318,890 1319,891 1319,896 1320,897 1320,903 1321,904 1321,906 1322,907 1322,910 1323,911 1323,918 1324,919 1324,923 1325,924 1325,926 1326,927 1326,930 1327,931 1327,937 1328,938 1328,942 1329,943 1329,944 1330,945 1330,949 1331,950 1331,955 1332,956 1332,959 1333,960 1333,964 1334,965 1334,973 1333,974 1333,994 1334,995 1334,1006 1333,1007 1333,1016 1332,1017 1332,1034 1331,1035 1331,1044 1330,1045 1330,1048 1329,1049 1329,1052 1328,1053 1328,1071 1327,1072 1327,1073 1326,1074 1326,1076 1325,1077 1325,1079 1916,1079 1916,1077 1917,1076 1919,1076 1919,0 Z" fill="black" stroke="none" /></svg>