<?xml version="1.0" encoding="utf-8" ?>
<svg baseProfile="tiny" height="1080px" version="1.2" viewBox="0,0,1920,1080" width="1920px" xmlns="http://www.w3.org/2000/svg" xmlns:ev="http://www.w3.org/2001/xml-events" xmlns:xlink="http://www.w3.org/1999/xlink"><defs /><path d="M890,782 890,797 889,798 889,805 888,806 888,809 887,810 887,811 886,812 886,813 885,814 885,819 884,820 884,824 883,825 883,827 882,828 882,832 881,833 881,836 879,838 879,840 878,841 878,858 877,859 877,884 878,885 878,899 879,900 879,906 881,908 881,909 882,910 882,911 884,913 884,914 885,915 886,915 887,916 887,917 888,918 888,919 889,920 889,921 890,921 891,922 903,922 904,921 906,921 907,920 908,920 913,915 913,914 914,913 914,912 918,908 918,907 921,904 921,903 922,902 922,901 925,898 925,897 928,894 928,892 929,891 929,890 930,889 930,888 931,887 931,885 930,884 930,882 929,881 929,880 928,879 928,877 927,876 927,870 928,869 928,864 927,863 927,861 926,860 926,858 925,857 925,854 924,853 924,852 921,849 921,848 918,845 918,844 917,843 917,842 915,840 915,839 914,838 914,835 913,834 913,833 912,832 912,831 911,830 911,827 910,826 910,820 909,819 909,818 908,817 908,816 907,815 907,812 906,811 906,808 905,807 905,806 903,804 903,800 902,799 902,796 899,793 899,790 898,789 898,788 893,783 892,783 891,782 Z" fill="black" stroke="none" /><path d="M0,0 0,1079 832,1079 832,1051 833,1050 833,1049 834,1048 834,1047 835,1046 835,1017 836,1016 836,1009 835,1008 835,1000 834,999 834,998 832,996 832,995 829,992 829,991 828,990 828,988 827,987 827,985 826,984 826,983 825,982 825,979 824,978 824,969 823,968 823,965 822,964 822,963 821,962 821,957 820,956 820,949 819,948 819,946 818,945 818,944 817,943 817,931 816,930 816,922 815,921 815,920 814,919 814,916 813,915 813,902 812,901 812,897 811,896 811,893 810,892 810,881 809,880 809,862 808,861 808,845 807,844 807,843 806,842 806,839 805,838 805,819 806,818 806,815 808,813 808,811 809,810 809,808 810,807 810,806 811,805 811,801 812,800 812,790 811,789 811,788 809,786 809,783 808,782 808,780 806,778 806,777 805,776 805,774 804,773 804,772 802,770 802,768 801,767 801,764 800,763 800,762 799,761 799,760 798,759 798,756 797,755 797,753 796,752 796,751 795,750 795,749 794,748 794,747 793,746 793,745 786,738 785,738 784,737 784,736 782,734 782,733 781,732 781,731 780,730 780,725 779,724 779,711 780,710 780,704 781,703 781,693 780,692 780,690 779,689 779,685 778,684 779,683 779,678 780,677 780,675 781,674 781,672 782,671 782,666 781,665 781,664 780,663 780,661 779,660 779,656 778,655 778,648 777,647 777,646 773,646 772,647 771,647 770,648 770,649 769,650 769,652 768,653 768,654 766,656 766,657 765,658 765,661 762,664 762,665 761,666 761,668 760,669 760,670 758,672 758,673 757,674 757,676 754,679 754,680 753,681 753,682 752,683 752,684 750,686 750,687 749,688 749,689 747,691 747,692 746,693 746,694 743,697 743,698 742,699 742,701 740,703 740,704 739,705 739,706 738,707 738,708 736,710 736,711 735,712 735,713 734,714 734,715 732,717 732,718 731,719 731,721 730,722 730,723 728,725 728,727 727,728 727,729 726,730 726,731 725,732 725,733 724,734 724,735 723,736 723,737 722,738 722,739 720,741 720,743 719,744 719,745 717,747 717,748 716,749 716,750 714,752 714,753 712,755 712,757 710,759 710,760 708,762 708,763 705,766 705,768 702,771 702,772 697,777 697,778 694,781 694,782 693,783 693,784 691,786 691,787 690,788 690,789 689,790 689,791 688,792 688,793 686,795 686,797 683,800 683,801 682,802 682,804 680,806 679,806 678,807 677,807 676,808 674,808 673,809 672,809 669,812 669,815 668,816 668,818 667,819 667,822 666,823 666,826 665,827 665,828 664,829 664,830 660,834 660,835 654,841 654,842 652,844 652,845 651,846 651,847 649,849 649,850 648,851 648,852 647,853 647,854 645,856 645,857 643,859 642,859 639,862 638,862 635,865 633,863 632,863 631,862 631,861 630,860 630,855 631,854 631,853 632,852 632,850 633,849 633,845 634,844 634,840 635,839 635,838 636,837 636,833 637,832 637,821 638,820 638,817 639,816 639,814 640,813 640,810 641,809 641,804 642,803 642,796 643,795 643,792 644,791 644,783 645,782 645,778 646,777 646,776 647,775 647,771 648,770 648,764 649,763 649,762 650,761 650,760 651,759 651,757 652,756 652,753 653,752 653,751 655,749 655,747 656,746 656,745 658,743 658,742 659,741 659,740 662,737 662,735 663,734 663,731 664,730 664,729 665,728 665,727 666,726 666,723 667,722 667,720 668,719 668,718 669,717 669,716 670,715 670,711 671,710 671,707 673,705 673,704 674,703 674,699 675,698 675,696 677,694 677,692 678,691 678,688 679,687 679,686 680,685 680,684 681,683 681,682 682,681 682,678 683,677 683,676 685,674 685,672 686,671 686,669 687,668 687,667 689,665 689,663 690,662 690,661 692,659 692,657 693,656 693,654 694,653 694,652 695,651 695,650 697,648 697,647 700,644 700,643 701,642 701,641 704,638 704,637 705,636 705,635 708,632 708,630 709,629 709,628 711,626 711,625 712,624 712,622 714,620 714,619 715,618 715,617 716,616 716,614 718,612 718,610 719,609 719,606 720,605 720,602 721,601 721,600 722,599 722,596 723,595 723,581 724,580 724,576 725,575 725,574 726,573 726,569 727,568 727,563 728,562 728,561 729,560 729,559 730,558 730,555 731,554 731,552 732,551 732,550 733,549 733,547 734,546 734,542 735,541 735,537 736,536 736,530 737,529 737,518 738,517 738,503 739,502 739,500 741,498 741,496 742,495 742,494 745,491 745,490 749,486 749,485 752,482 752,481 753,480 753,478 756,475 756,474 757,473 757,472 760,469 760,468 765,463 766,463 766,462 768,460 768,459 773,454 774,454 778,450 778,449 779,448 779,447 783,443 783,442 786,439 786,438 789,435 789,434 790,433 790,432 791,431 791,421 787,417 786,417 777,408 777,407 772,402 771,402 768,399 768,398 762,392 762,391 759,388 759,387 758,387 757,386 757,385 753,381 753,380 752,379 752,377 751,376 751,374 750,373 750,369 749,368 749,357 750,356 750,354 751,353 751,352 752,351 752,349 753,348 753,346 754,345 754,344 755,343 755,342 756,341 756,340 757,339 757,337 759,335 759,334 760,333 760,332 761,331 761,330 763,328 763,327 764,326 764,325 765,324 765,323 767,321 767,320 770,317 771,317 774,314 775,314 776,313 777,313 778,312 779,312 780,311 781,311 782,310 783,310 784,309 786,309 787,308 788,308 789,307 793,307 794,306 798,306 799,305 800,305 802,303 804,303 805,302 809,302 810,301 816,301 817,302 822,302 823,303 827,303 828,304 834,304 835,305 838,305 837,305 836,304 836,303 835,302 836,301 836,300 838,298 845,298 846,297 847,297 851,293 851,292 852,291 852,290 853,289 853,286 856,283 857,283 858,282 859,282 860,281 861,281 862,280 863,280 864,279 866,279 867,278 868,278 869,277 870,277 871,276 872,276 873,275 874,275 875,274 888,274 889,275 890,275 893,278 894,278 895,279 895,284 894,285 894,288 896,290 897,290 898,291 899,291 901,293 902,293 906,297 907,297 910,300 911,300 912,301 912,306 911,307 911,308 910,309 910,310 909,311 909,314 908,315 908,321 909,322 909,326 908,327 908,328 907,329 906,329 904,331 903,331 903,332 902,333 902,334 901,335 901,345 900,346 900,347 896,351 895,351 894,352 886,352 884,350 883,350 881,348 881,347 879,345 878,345 876,343 876,342 875,341 875,346 878,349 878,396 881,399 883,399 884,400 890,400 891,401 893,401 894,402 895,402 896,403 900,403 901,404 906,404 907,405 908,405 909,406 910,406 911,407 914,407 915,408 917,408 918,409 919,409 920,410 921,410 922,411 926,411 927,412 928,412 929,413 930,413 932,415 934,415 937,418 938,418 939,419 946,419 947,420 949,420 950,421 951,421 953,423 954,423 955,424 956,424 957,425 958,425 959,426 965,426 966,427 974,427 975,428 976,428 977,429 978,429 979,430 981,430 982,431 984,431 987,434 988,434 989,435 990,435 996,441 996,442 998,444 998,445 1000,447 1000,448 1001,449 1001,453 1002,454 1002,456 1005,459 1005,460 1006,461 1007,461 1008,462 1008,463 1010,465 1011,465 1012,466 1012,467 1013,467 1014,468 1015,468 1016,469 1017,469 1018,470 1019,470 1021,472 1022,472 1023,473 1024,473 1025,474 1025,475 1027,477 1027,478 1030,481 1030,482 1031,482 1033,484 1034,484 1035,485 1036,485 1037,486 1039,486 1040,487 1041,487 1044,490 1045,490 1046,491 1048,491 1049,492 1052,492 1053,491 1061,491 1062,492 1063,492 1065,494 1068,494 1069,495 1070,495 1073,498 1074,498 1077,501 1079,501 1080,502 1081,502 1087,508 1087,509 1088,510 1088,511 1090,513 1091,513 1094,516 1095,516 1096,517 1097,517 1101,521 1102,521 1103,522 1103,523 1104,523 1108,527 1109,527 1111,529 1112,529 1114,531 1115,531 1116,532 1117,532 1118,533 1119,533 1122,536 1123,536 1130,543 1131,543 1145,557 1145,558 1148,561 1148,562 1163,577 1163,578 1165,580 1165,587 1164,588 1164,589 1163,590 1162,590 1161,591 1160,591 1160,592 1158,594 1158,595 1156,597 1156,598 1153,601 1149,601 1148,600 1148,599 1145,596 1144,596 1143,595 1142,595 1141,594 1140,594 1139,593 1138,593 1137,592 1134,592 1133,591 1127,591 1126,590 1126,588 1125,587 1125,583 1124,582 1123,582 1120,579 1119,579 1118,578 1116,578 1115,577 1114,577 1113,576 1112,576 1111,575 1109,575 1108,574 1107,574 1105,572 1105,571 1103,569 1093,569 1092,570 1069,570 1068,569 1064,569 1063,568 1061,568 1060,567 1059,567 1058,566 1056,566 1055,565 1054,565 1053,564 1053,563 1052,563 1049,560 1049,559 1047,557 1047,556 1046,555 1046,554 1045,553 1045,551 1044,550 1044,549 1043,549 1042,548 1041,548 1040,547 1035,547 1034,546 1032,546 1030,544 1029,544 1022,537 1021,537 1020,536 1018,536 1017,535 1016,535 1015,534 1014,534 1013,533 1010,533 1009,532 1008,532 1007,531 1006,531 1005,530 1004,530 1003,529 999,529 998,528 994,528 993,527 992,527 991,526 988,526 987,525 983,525 982,524 975,524 974,525 973,525 972,526 972,529 971,530 971,538 970,539 970,544 969,545 969,547 968,548 968,552 967,553 967,568 966,569 966,582 967,583 967,586 968,587 968,588 969,589 969,590 970,591 970,592 971,593 971,594 974,597 974,598 975,599 975,601 976,602 976,603 977,604 977,616 976,617 976,618 975,619 975,620 969,626 968,626 967,627 966,627 965,628 965,630 964,631 964,639 965,640 965,643 967,645 967,646 968,647 968,649 971,652 971,653 972,654 972,655 974,657 974,658 975,659 975,662 976,663 976,664 977,665 977,666 978,667 978,670 979,671 979,676 980,677 980,688 981,689 981,695 980,696 980,709 981,710 981,714 982,715 982,722 983,723 983,728 984,729 984,731 985,732 985,734 986,735 986,741 987,742 987,745 989,747 989,751 990,752 990,759 991,760 991,762 992,763 992,764 993,765 993,771 994,772 994,778 995,779 995,781 996,782 996,784 997,785 997,792 998,793 998,796 999,797 999,798 1000,799 1000,801 1001,802 1001,809 1002,810 1002,813 1003,814 1003,815 1004,816 1004,820 1005,821 1005,828 1006,829 1006,831 1007,832 1007,833 1008,834 1008,839 1009,840 1009,848 1010,849 1010,850 1012,852 1012,873 1013,874 1013,887 1014,888 1014,889 1015,890 1015,894 1016,895 1016,905 1015,906 1015,911 1014,912 1014,914 1013,915 1013,917 1012,918 1012,921 1011,922 1011,923 1009,925 1009,926 1008,927 1008,928 1007,929 1006,929 1002,933 1001,933 998,936 997,936 996,937 995,937 993,939 992,939 991,940 990,940 989,941 987,941 986,942 984,942 983,943 982,943 981,944 979,944 978,945 975,945 974,946 973,946 972,947 971,947 970,948 968,948 967,949 965,949 963,951 962,951 961,952 960,952 959,953 958,953 955,956 954,956 953,957 952,957 949,960 948,960 947,961 946,961 944,963 943,963 932,974 932,975 931,976 931,986 932,987 932,988 934,990 934,991 937,994 937,995 941,999 941,1000 942,1001 942,1002 944,1004 944,1005 945,1006 945,1007 950,1012 951,1012 952,1013 952,1014 960,1022 961,1022 962,1023 964,1023 965,1024 966,1024 967,1025 967,1026 971,1030 971,1033 972,1034 972,1035 973,1036 973,1038 974,1039 974,1046 973,1047 973,1048 972,1049 971,1049 970,1050 954,1050 953,1049 950,1049 949,1048 945,1048 944,1047 931,1047 930,1046 922,1046 921,1045 918,1045 917,1044 915,1044 914,1043 912,1043 911,1042 910,1042 903,1035 903,1034 902,1033 902,1032 899,1029 899,1028 891,1020 890,1020 889,1019 888,1019 886,1017 884,1017 883,1016 880,1016 879,1015 877,1017 877,1018 878,1019 878,1029 879,1030 879,1032 880,1033 880,1035 881,1036 881,1057 882,1058 882,1064 883,1065 883,1066 884,1067 884,1079 1919,1079 1919,0 Z" fill="black" stroke="none" /></svg>