<?xml version="1.0" encoding="utf-8" ?>
<svg baseProfile="tiny" height="1080px" version="1.2" viewBox="0,0,1920,1080" width="1920px" xmlns="http://www.w3.org/2000/svg" xmlns:ev="http://www.w3.org/2001/xml-events" xmlns:xlink="http://www.w3.org/1999/xlink"><defs /><path d="M879,732 879,737 878,738 878,745 877,746 877,748 875,750 875,753 874,754 874,762 873,763 873,766 872,767 872,768 871,769 871,773 870,774 870,782 869,783 869,784 868,785 868,786 867,787 867,790 866,791 866,798 865,799 865,801 864,802 864,803 863,804 863,813 862,814 862,817 861,818 861,819 860,820 860,821 859,822 859,832 858,833 858,838 857,839 857,841 856,842 856,854 855,855 855,860 854,861 854,862 853,863 853,865 852,866 852,876 853,877 853,880 854,879 855,879 855,878 858,875 860,875 864,871 864,868 865,867 865,861 866,860 866,859 867,858 867,856 868,855 868,849 869,848 869,844 870,843 870,841 871,840 871,839 872,838 872,835 873,834 873,830 874,829 874,828 875,827 875,824 876,823 876,817 877,816 877,813 878,812 878,811 879,810 879,809 880,808 880,801 881,800 881,796 882,795 882,794 883,793 883,791 884,790 884,783 885,782 885,780 887,778 887,763 886,762 886,761 885,760 885,759 884,758 884,754 883,753 883,735 882,734 882,733 881,732 Z" fill="black" stroke="none" /><path d="M883,695 883,705 883,701 884,700 884,699 883,698 Z" fill="black" stroke="none" /><path d="M946,399 946,401 945,402 945,403 946,404 946,426 947,427 947,428 948,428 950,430 950,431 952,433 952,434 953,435 953,436 954,437 954,439 955,440 956,440 957,441 958,440 955,437 955,432 957,430 957,425 956,425 955,424 955,423 954,422 954,420 953,419 953,417 954,416 954,407 953,406 952,406 950,404 950,403 949,402 949,401 948,400 948,399 Z" fill="black" stroke="none" /><path d="M0,0 0,1079 775,1079 775,1075 774,1074 775,1073 775,1067 776,1066 776,1057 777,1056 777,1055 778,1054 778,1052 779,1051 779,1043 780,1042 780,1039 781,1038 781,1037 782,1036 782,1027 781,1026 781,1021 780,1020 779,1020 778,1019 776,1019 775,1018 774,1018 772,1016 772,1015 771,1014 771,1013 770,1012 770,1009 769,1008 769,989 770,988 770,982 771,981 771,973 772,972 772,956 773,955 773,942 774,941 774,931 775,930 775,914 776,913 776,888 777,887 777,874 778,873 778,866 779,865 779,848 780,847 780,816 779,815 779,796 780,795 780,789 781,788 781,785 782,784 782,748 783,747 783,722 784,721 784,717 785,716 785,713 786,712 786,672 785,671 785,667 784,666 784,650 785,649 785,647 786,646 786,619 787,618 787,614 788,613 788,611 789,610 789,605 788,604 787,604 786,605 785,605 785,606 784,607 784,608 783,609 783,610 782,611 782,614 781,615 781,617 779,619 779,620 778,621 775,621 774,620 772,620 771,619 770,619 769,620 768,620 767,621 765,619 765,616 767,614 770,614 770,605 769,604 769,601 768,600 768,597 769,596 769,595 770,594 770,593 772,591 772,590 777,585 778,585 779,584 780,584 782,582 783,582 785,580 785,579 786,578 786,576 787,575 787,571 788,570 788,568 789,567 789,559 790,558 790,550 791,549 791,542 790,541 790,539 788,537 788,536 787,535 787,527 785,525 782,525 780,523 779,523 776,520 775,520 774,519 767,519 766,518 759,518 758,517 757,517 751,511 750,511 749,510 748,510 747,509 743,509 742,510 740,510 738,508 738,507 737,506 737,505 736,504 736,503 734,501 734,500 732,498 732,497 731,496 731,491 732,490 732,487 733,486 733,478 732,477 731,477 728,474 728,473 727,472 727,467 726,466 726,464 724,462 724,461 722,459 722,458 724,456 725,456 726,455 727,455 728,454 728,451 727,450 727,448 726,447 726,446 725,445 725,444 722,441 722,439 721,438 721,437 719,435 719,430 718,429 719,428 719,422 720,421 720,420 721,419 721,418 722,417 722,416 723,415 723,414 724,413 724,412 725,411 725,406 726,405 726,401 727,400 727,398 728,397 728,396 729,395 729,393 730,392 730,391 731,390 731,388 732,387 732,385 733,384 733,376 734,375 734,370 735,369 735,367 736,366 736,364 737,363 737,357 738,356 738,350 739,349 739,347 740,346 740,345 741,344 741,339 742,338 742,335 743,334 743,333 744,332 744,330 745,329 745,326 746,325 746,322 747,321 747,320 748,319 748,317 749,316 749,312 750,311 750,309 751,308 751,307 752,306 752,305 753,304 753,302 754,301 754,300 756,298 756,296 757,295 757,294 760,291 760,290 762,288 762,287 764,285 764,284 765,283 765,282 768,279 768,278 771,275 771,274 778,267 778,266 790,254 791,254 795,250 796,250 808,238 808,236 809,235 809,232 810,231 810,217 811,216 811,213 812,212 812,207 811,206 811,204 810,203 810,202 809,201 809,200 807,198 807,197 802,192 802,191 797,186 797,185 794,182 794,181 793,180 793,179 790,176 790,175 789,174 789,173 786,170 786,169 785,168 785,167 778,160 778,159 775,156 775,155 774,154 773,154 772,153 772,152 769,149 769,148 768,147 768,146 767,145 767,144 766,143 766,142 764,140 764,137 763,136 763,126 764,125 764,117 765,116 765,115 767,113 767,112 768,111 768,110 769,109 769,108 771,106 771,105 772,104 772,103 776,99 776,98 777,97 778,97 779,96 779,95 781,93 782,93 782,92 785,89 786,89 786,88 789,85 790,85 790,84 792,82 793,82 794,81 795,81 797,79 798,79 799,78 801,78 802,77 803,77 804,76 806,76 807,75 808,75 809,76 812,76 813,77 818,77 819,76 820,76 822,74 824,74 825,73 826,73 828,71 832,71 833,70 838,70 839,71 849,71 850,72 852,72 853,73 855,73 856,74 860,74 863,77 864,77 865,78 867,78 868,79 869,79 871,81 872,81 875,84 876,84 878,86 879,86 885,92 885,93 886,94 886,95 887,96 887,97 888,98 888,100 889,101 889,104 890,105 890,106 891,107 891,108 892,109 892,111 893,112 893,115 894,116 894,118 895,119 895,123 894,124 894,136 893,137 893,145 892,146 892,155 891,156 891,158 890,159 890,163 889,164 889,172 890,173 890,175 891,176 891,177 892,178 892,183 893,184 893,189 898,194 899,194 901,196 902,196 903,197 904,197 905,198 915,198 916,199 917,199 918,200 919,200 920,201 924,201 925,202 928,202 932,206 933,206 934,207 935,207 936,208 939,208 940,209 950,209 951,210 955,210 956,211 957,211 958,212 959,212 960,213 961,213 963,215 964,215 965,216 966,216 968,218 969,218 971,220 972,220 976,224 977,224 982,229 982,230 983,231 983,232 985,234 985,235 986,236 986,238 987,239 987,240 988,241 988,242 989,243 989,244 990,245 990,255 991,256 991,261 990,262 990,311 989,312 989,316 988,317 988,318 987,319 987,322 986,323 986,327 985,328 985,329 984,330 984,332 983,333 983,338 982,339 982,345 981,346 981,348 980,349 980,352 979,353 979,368 978,369 978,377 979,378 979,390 980,391 980,393 982,395 982,399 983,400 983,404 984,405 984,406 985,407 985,409 986,410 986,415 987,416 987,418 989,420 989,422 990,423 990,428 991,429 991,430 992,431 992,432 993,433 993,437 994,438 994,444 996,446 996,447 997,448 997,468 996,469 996,471 994,473 994,474 989,479 988,479 987,480 986,480 985,481 984,481 982,483 981,483 978,486 978,488 977,489 977,493 978,494 978,497 979,498 979,505 980,506 980,508 981,509 981,510 982,511 982,514 983,515 983,517 985,519 985,521 986,522 986,525 987,526 987,528 988,529 988,530 989,531 989,535 990,536 990,560 989,561 989,569 988,570 988,572 987,573 987,578 986,579 986,641 985,642 985,658 984,659 984,672 983,673 983,692 982,693 982,718 981,719 981,723 980,724 980,728 979,729 979,742 978,743 978,752 977,753 977,755 976,756 976,757 975,758 975,762 974,763 974,765 972,767 972,769 971,770 971,781 970,782 970,786 969,787 969,788 968,789 968,791 967,792 967,796 966,797 966,798 964,800 964,802 963,803 963,804 962,805 962,806 960,808 960,811 959,812 959,814 957,816 957,817 956,818 956,821 955,822 955,823 953,825 953,826 952,827 952,830 950,832 950,833 949,834 949,835 948,836 948,838 945,841 945,845 944,846 944,847 943,848 943,849 942,850 942,851 941,852 941,856 940,857 940,859 939,860 939,861 938,862 938,864 937,865 937,869 936,870 936,871 935,872 935,873 934,874 934,878 933,879 933,883 932,884 932,885 931,886 931,887 930,888 930,891 929,892 929,894 928,895 928,896 927,897 927,899 926,900 926,905 925,906 925,908 924,909 924,910 923,911 923,915 922,916 922,924 921,925 921,928 920,929 920,931 919,932 919,937 918,938 918,944 917,945 917,947 916,948 916,951 915,952 915,959 914,960 914,966 913,967 913,969 912,970 912,971 911,972 911,973 910,974 910,975 909,976 909,977 908,978 908,995 922,1009 922,1010 931,1019 932,1019 935,1022 936,1022 937,1023 938,1023 939,1024 940,1024 942,1026 943,1026 944,1027 947,1027 948,1028 950,1028 951,1029 952,1029 953,1030 959,1030 960,1031 969,1031 970,1032 971,1032 973,1034 975,1034 976,1035 977,1035 982,1040 982,1042 983,1043 983,1045 985,1047 985,1053 984,1054 984,1055 982,1057 981,1057 980,1058 979,1058 978,1059 976,1059 975,1060 971,1060 970,1061 950,1061 949,1062 929,1062 928,1061 908,1061 907,1060 904,1060 903,1059 902,1059 901,1058 897,1058 896,1057 893,1057 892,1056 890,1056 889,1055 884,1055 883,1056 877,1056 876,1057 871,1057 870,1058 866,1058 865,1059 862,1059 861,1060 860,1060 859,1061 858,1061 857,1062 857,1067 858,1068 858,1069 859,1070 859,1073 860,1074 856,1078 855,1078 855,1079 1919,1079 1919,0 Z" fill="black" stroke="none" /></svg>