<?xml version="1.0" encoding="utf-8" ?>
<svg baseProfile="tiny" height="1080px" version="1.2" viewBox="0,0,1920,1080" width="1920px" xmlns="http://www.w3.org/2000/svg" xmlns:ev="http://www.w3.org/2001/xml-events" xmlns:xlink="http://www.w3.org/1999/xlink"><defs /><path d="M1385,1012 1385,1013 1381,1017 1382,1018 1384,1018 1385,1019 1394,1019 1395,1018 1396,1018 1396,1017 1392,1013 1390,1013 1389,1012 Z" fill="black" stroke="none" /><path d="M1343,920 1343,923 1342,924 1343,925 1343,942 1344,943 1344,947 1343,948 1343,964 1344,965 1344,967 1347,970 1347,971 1348,972 1354,972 1355,973 1356,973 1357,972 1358,972 1363,967 1364,967 1365,966 1366,966 1367,965 1369,965 1369,964 1368,963 1368,961 1364,957 1365,956 1365,955 1366,954 1366,950 1366,952 1364,954 1363,954 1361,952 1361,951 1360,950 1359,950 1358,949 1357,949 1355,947 1353,947 1352,948 1350,946 1350,944 1349,943 1350,942 1350,940 1351,939 1351,937 1352,936 1352,935 1351,934 1351,931 1350,930 1350,928 1349,927 1349,926 1347,924 1347,921 1346,920 Z" fill="black" stroke="none" /><path d="M0,0 0,1079 1294,1079 1294,1078 1292,1076 1292,1075 1286,1069 1286,1068 1282,1064 1282,1063 1278,1059 1278,1058 1272,1052 1272,1051 1269,1048 1269,1047 1263,1041 1263,1040 1260,1037 1260,1036 1258,1034 1258,1033 1255,1030 1255,1029 1253,1027 1253,1026 1252,1025 1252,1024 1249,1021 1249,1020 1248,1019 1248,1018 1245,1015 1245,1014 1243,1012 1243,1011 1241,1009 1241,1008 1240,1007 1240,1005 1238,1003 1238,1002 1236,1000 1236,999 1233,996 1233,995 1232,994 1232,993 1230,991 1230,990 1229,989 1229,988 1227,986 1227,985 1225,983 1225,982 1223,980 1223,979 1222,978 1222,977 1219,974 1219,973 1217,971 1217,970 1214,967 1214,966 1211,963 1211,962 1207,958 1207,957 1204,954 1204,953 1202,951 1202,950 1199,947 1199,946 1187,934 1186,934 1183,931 1182,931 1180,929 1179,929 1162,912 1162,911 1150,899 1150,898 1146,894 1146,893 1142,889 1142,888 1136,882 1136,881 1134,879 1134,878 1132,876 1132,875 1130,873 1130,872 1128,870 1128,868 1125,865 1125,864 1124,863 1124,861 1123,860 1123,859 1122,858 1122,857 1121,856 1121,853 1120,852 1120,850 1119,849 1119,847 1118,846 1118,843 1117,842 1117,836 1116,835 1116,828 1115,827 1115,779 1114,778 1114,773 1113,772 1113,767 1112,766 1112,763 1111,762 1111,745 1112,744 1112,740 1113,739 1113,736 1114,735 1114,732 1115,731 1115,724 1114,723 1114,717 1113,716 1113,708 1112,707 1112,704 1111,703 1111,701 1110,700 1110,694 1109,693 1109,687 1108,686 1108,685 1107,684 1107,682 1106,681 1106,678 1105,677 1105,673 1106,672 1106,671 1107,670 1107,669 1113,663 1114,663 1117,660 1118,660 1119,659 1120,659 1123,656 1124,656 1131,649 1132,649 1133,648 1133,647 1134,646 1134,645 1135,644 1135,643 1136,642 1136,640 1137,639 1137,636 1138,635 1138,634 1139,633 1139,631 1140,630 1140,629 1141,628 1141,627 1142,626 1142,625 1143,624 1143,621 1144,620 1144,619 1145,618 1145,617 1146,616 1146,613 1147,612 1147,608 1148,607 1148,606 1149,605 1149,604 1150,603 1150,600 1151,599 1151,596 1152,595 1152,594 1153,593 1153,592 1154,591 1154,589 1155,588 1155,586 1157,584 1157,583 1158,582 1158,580 1160,578 1160,577 1161,576 1161,575 1162,574 1162,572 1163,571 1163,570 1164,569 1164,568 1165,567 1165,564 1166,563 1166,561 1167,560 1167,559 1168,558 1168,557 1169,556 1169,555 1170,554 1170,552 1171,551 1171,550 1176,545 1176,544 1177,543 1177,542 1179,540 1179,539 1183,535 1184,535 1186,533 1187,533 1189,531 1189,530 1192,527 1192,526 1194,524 1194,523 1197,520 1197,519 1204,512 1204,511 1211,504 1211,503 1212,502 1213,502 1214,501 1214,500 1216,498 1217,498 1218,497 1218,496 1220,494 1221,494 1222,493 1222,492 1223,491 1224,491 1226,489 1226,488 1227,487 1228,487 1239,476 1240,476 1244,472 1245,472 1248,469 1249,469 1251,467 1252,467 1255,464 1257,464 1260,461 1261,461 1262,460 1263,460 1264,459 1265,459 1267,457 1268,457 1269,456 1270,456 1272,454 1273,454 1274,453 1275,453 1276,452 1277,452 1280,449 1282,449 1283,448 1284,448 1285,447 1286,447 1288,445 1290,445 1291,444 1292,444 1294,442 1295,442 1296,441 1298,441 1300,439 1301,439 1302,438 1303,438 1304,437 1306,437 1308,435 1309,435 1310,434 1312,434 1313,433 1314,433 1315,432 1316,432 1317,431 1318,431 1319,430 1322,430 1323,429 1325,429 1326,428 1327,428 1328,427 1329,427 1330,426 1334,426 1335,425 1337,425 1338,424 1339,424 1340,423 1348,423 1349,422 1353,422 1354,421 1355,421 1356,420 1359,420 1360,419 1364,419 1365,418 1367,418 1368,417 1370,417 1371,416 1376,416 1377,415 1386,415 1387,414 1391,414 1392,413 1394,413 1395,412 1397,412 1398,411 1400,411 1401,410 1403,410 1404,409 1407,409 1408,408 1412,408 1413,407 1415,407 1416,406 1417,406 1418,405 1419,405 1425,399 1426,399 1427,398 1427,397 1430,394 1430,393 1433,390 1433,389 1436,386 1436,385 1437,384 1437,382 1438,381 1438,379 1439,378 1439,376 1442,373 1442,372 1444,370 1444,369 1447,366 1447,365 1449,363 1449,362 1450,361 1450,360 1451,359 1451,358 1452,357 1452,356 1453,355 1453,354 1454,353 1454,351 1455,350 1455,343 1456,342 1456,338 1457,337 1457,334 1458,333 1458,325 1459,324 1459,321 1464,316 1465,316 1466,315 1468,315 1469,314 1475,314 1476,313 1483,313 1484,312 1491,312 1492,313 1493,313 1494,314 1496,314 1497,315 1504,315 1511,322 1511,323 1512,324 1513,324 1516,321 1518,321 1519,320 1521,320 1522,321 1523,321 1526,324 1527,324 1530,327 1530,328 1534,332 1535,332 1538,335 1539,335 1540,336 1541,336 1542,337 1544,337 1545,336 1548,336 1549,335 1551,335 1553,337 1554,337 1562,345 1562,346 1563,347 1563,348 1565,350 1565,351 1566,350 1567,350 1568,349 1573,349 1574,350 1574,352 1575,353 1575,354 1576,355 1576,356 1578,358 1578,359 1579,360 1579,361 1580,362 1580,363 1581,364 1582,364 1584,366 1585,366 1587,368 1593,368 1594,369 1595,369 1596,370 1596,371 1598,373 1598,374 1602,378 1608,372 1609,372 1610,371 1611,371 1612,372 1614,372 1615,373 1616,373 1618,375 1618,383 1617,384 1617,386 1616,387 1616,388 1614,390 1614,391 1611,394 1610,394 1609,395 1606,395 1603,392 1602,392 1602,394 1601,395 1601,413 1600,414 1601,415 1601,421 1602,422 1602,424 1603,425 1604,424 1604,423 1606,421 1607,421 1608,422 1608,423 1609,424 1609,425 1610,426 1610,428 1610,427 1611,426 1611,425 1612,424 1612,422 1613,421 1613,416 1614,415 1614,414 1615,413 1615,411 1617,409 1618,410 1618,411 1619,412 1619,422 1620,423 1620,428 1621,429 1620,430 1620,434 1619,435 1619,438 1617,440 1615,438 1615,437 1613,435 1613,434 1611,432 1611,431 1610,430 1609,431 1609,432 1607,434 1605,434 1603,432 1602,433 1602,435 1601,436 1601,439 1600,440 1600,441 1599,442 1599,443 1598,444 1598,446 1597,447 1597,450 1596,451 1596,454 1595,455 1595,457 1594,458 1594,459 1592,461 1592,462 1588,466 1587,466 1586,467 1585,467 1584,468 1580,468 1579,469 1575,469 1574,470 1572,470 1568,474 1568,475 1565,478 1559,478 1558,479 1557,479 1549,487 1549,488 1548,489 1548,490 1546,492 1546,493 1543,496 1542,496 1540,498 1540,499 1534,505 1534,506 1531,509 1531,510 1525,516 1524,516 1522,518 1521,518 1520,519 1518,519 1517,520 1513,520 1512,521 1510,521 1507,524 1507,525 1506,526 1506,528 1505,529 1505,534 1504,535 1504,536 1502,538 1502,539 1501,540 1500,540 1499,541 1498,541 1497,542 1496,542 1494,544 1493,544 1491,546 1486,546 1486,547 1485,548 1485,549 1484,550 1484,551 1483,552 1482,552 1481,551 1481,535 1480,534 1477,534 1476,533 1474,533 1473,534 1471,534 1466,539 1466,540 1464,542 1464,543 1463,544 1463,545 1462,546 1462,547 1456,553 1456,554 1454,556 1454,557 1452,559 1452,561 1451,562 1451,564 1450,565 1450,567 1449,568 1449,569 1448,570 1448,572 1447,573 1447,576 1446,577 1446,579 1445,580 1445,581 1444,582 1444,584 1443,585 1443,587 1441,589 1441,591 1440,592 1440,593 1439,594 1439,597 1437,599 1437,601 1436,602 1436,604 1435,605 1435,607 1433,609 1433,612 1432,613 1432,618 1431,619 1431,621 1430,622 1430,624 1429,625 1429,628 1428,629 1428,632 1427,633 1427,635 1426,636 1426,639 1425,640 1425,650 1424,651 1424,655 1423,656 1423,657 1422,658 1422,660 1421,661 1421,666 1420,667 1420,669 1419,670 1419,671 1418,672 1418,673 1417,674 1417,676 1416,677 1416,678 1414,680 1414,681 1412,683 1412,684 1409,687 1409,688 1406,691 1406,692 1404,694 1404,695 1401,698 1401,699 1399,701 1399,702 1398,703 1398,704 1397,705 1397,707 1396,708 1396,713 1395,714 1395,729 1394,730 1394,735 1393,736 1393,740 1392,741 1392,752 1391,753 1391,782 1390,783 1390,787 1389,788 1389,789 1388,790 1388,791 1387,792 1387,794 1386,795 1386,797 1385,798 1385,799 1384,800 1384,801 1383,802 1383,803 1382,804 1382,806 1381,807 1381,812 1380,813 1380,815 1378,817 1378,818 1377,819 1377,820 1376,821 1376,822 1375,823 1375,827 1376,828 1376,831 1379,834 1379,835 1380,835 1385,840 1386,840 1387,841 1387,842 1391,846 1391,847 1393,849 1393,850 1394,851 1394,852 1396,852 1397,853 1397,854 1398,855 1399,855 1409,865 1409,866 1417,874 1417,875 1422,880 1422,881 1423,881 1424,882 1424,883 1428,887 1428,888 1431,891 1431,892 1433,894 1433,895 1436,898 1436,899 1438,901 1438,902 1440,904 1440,905 1442,907 1442,908 1443,909 1443,911 1444,912 1444,913 1447,916 1447,917 1450,920 1450,921 1451,922 1451,923 1454,926 1454,927 1455,928 1455,929 1458,932 1458,934 1459,935 1459,936 1462,939 1462,940 1463,941 1464,941 1465,942 1465,943 1466,944 1466,945 1467,945 1468,946 1468,947 1470,949 1470,950 1473,953 1473,954 1474,955 1474,956 1477,959 1477,960 1480,963 1480,964 1481,965 1481,966 1484,969 1484,970 1486,972 1486,973 1488,975 1488,976 1492,980 1492,982 1493,983 1493,985 1495,987 1495,988 1496,989 1496,990 1497,991 1497,992 1500,995 1500,996 1502,998 1502,999 1503,1000 1503,1001 1504,1002 1504,1004 1506,1006 1506,1009 1507,1010 1507,1016 1508,1017 1508,1029 1507,1030 1507,1035 1506,1036 1506,1038 1505,1039 1505,1041 1504,1042 1504,1044 1503,1045 1503,1048 1501,1050 1501,1051 1500,1052 1500,1054 1499,1055 1499,1058 1498,1059 1498,1060 1497,1061 1497,1062 1496,1063 1496,1064 1495,1065 1495,1066 1494,1067 1494,1068 1493,1069 1493,1070 1492,1071 1492,1073 1491,1074 1491,1076 1490,1077 1490,1079 1919,1079 1919,0 Z" fill="black" stroke="none" /></svg>