<?xml version="1.0" encoding="utf-8" ?>
<svg baseProfile="tiny" height="1080px" version="1.2" viewBox="0,0,1920,1080" width="1920px" xmlns="http://www.w3.org/2000/svg" xmlns:ev="http://www.w3.org/2001/xml-events" xmlns:xlink="http://www.w3.org/1999/xlink"><defs /><path d="M995,716 995,717 991,721 991,725 990,726 990,732 989,733 989,736 988,737 988,739 987,740 987,745 986,746 986,751 985,752 985,753 984,754 984,756 983,757 983,762 982,763 982,768 981,769 981,770 980,771 980,773 979,774 979,780 978,781 978,785 977,786 977,787 976,788 976,791 975,792 975,800 974,801 974,804 973,805 973,806 972,807 972,813 971,814 971,822 970,823 970,824 969,825 969,829 968,830 968,840 967,841 967,843 965,845 965,853 964,854 964,858 963,859 963,862 962,863 962,871 964,873 966,873 967,872 967,871 968,870 971,870 972,869 974,869 975,868 976,868 979,865 980,865 980,864 981,863 981,862 983,860 983,858 984,857 984,854 985,853 985,851 986,850 986,848 987,847 987,844 988,843 988,840 989,839 989,837 991,835 991,833 992,832 992,829 993,828 993,825 994,824 994,823 995,822 995,817 996,816 996,809 997,808 997,806 998,805 998,804 999,803 999,801 1000,800 1000,796 1001,795 1001,792 1002,791 1002,788 1003,787 1003,780 1004,779 1004,775 1005,774 1005,772 1006,771 1006,769 1007,768 1007,761 1008,760 1008,749 1007,748 1007,741 1006,740 1006,738 1005,737 1005,736 1004,735 1004,730 1003,729 1003,726 1002,725 1002,724 1000,722 1000,721 999,720 999,718 998,718 997,717 996,717 Z" fill="black" stroke="none" /><path d="M0,0 0,1079 832,1079 832,1072 833,1071 833,1070 834,1069 834,1068 835,1067 835,1064 836,1063 836,1060 838,1058 838,1057 839,1056 839,1054 840,1053 840,1052 841,1051 841,1050 842,1049 842,1048 843,1047 843,1045 844,1044 844,1043 845,1042 845,1041 846,1040 846,1035 847,1034 847,1026 848,1025 848,1014 847,1013 847,1009 846,1008 846,1006 845,1005 845,1004 844,1003 844,1000 843,999 843,987 844,986 844,983 845,982 845,980 846,979 846,973 847,972 847,965 848,964 848,963 849,962 849,961 850,960 850,956 849,955 849,952 848,951 848,950 847,949 847,945 846,944 846,922 845,921 845,919 844,918 844,917 843,916 843,914 842,913 842,902 843,901 843,897 844,896 844,892 845,891 845,885 846,884 846,873 849,870 849,868 850,867 850,865 851,864 851,862 852,861 852,859 853,858 853,847 854,846 855,846 856,845 856,839 853,836 851,836 849,838 848,838 847,837 846,837 845,836 845,835 844,834 844,833 842,831 842,830 847,825 848,825 850,823 854,823 856,825 857,825 860,828 860,829 860,823 861,822 861,819 860,818 856,818 855,817 854,817 852,815 853,814 853,812 854,811 854,801 853,800 853,799 852,798 850,798 849,797 848,798 847,798 845,800 842,800 841,799 841,798 840,797 840,795 839,794 839,782 838,781 838,779 837,778 839,776 839,775 840,774 840,773 848,765 850,765 853,762 854,762 855,761 856,761 866,751 866,750 867,749 867,748 868,747 868,745 869,744 869,740 870,739 870,735 871,734 871,728 872,727 872,720 873,719 873,706 874,705 874,696 875,695 875,690 874,689 874,659 873,658 873,629 874,628 874,607 875,606 875,600 876,599 876,593 877,592 877,582 878,581 878,579 879,578 879,577 880,576 880,574 881,573 881,569 882,568 882,566 883,565 883,564 884,563 884,559 885,558 885,555 887,553 887,551 888,550 888,548 889,547 889,544 890,543 890,541 891,540 891,535 892,534 892,531 893,530 893,528 894,527 894,524 895,523 895,518 896,517 896,513 897,512 897,506 898,505 898,491 899,490 899,482 900,481 900,476 901,475 901,469 902,468 902,462 903,461 903,457 902,456 902,455 903,454 903,447 904,446 904,442 905,441 905,439 906,438 906,437 907,436 907,435 910,432 910,431 913,428 913,427 914,426 914,425 923,416 923,415 924,414 925,414 927,412 928,412 929,411 931,411 933,409 934,409 935,408 935,407 936,406 936,404 937,403 937,391 936,390 936,385 935,384 935,382 933,380 933,379 932,378 932,377 930,375 930,374 925,369 925,368 924,367 923,367 918,362 918,361 916,359 916,358 915,357 915,356 914,355 914,354 913,353 913,352 912,351 912,349 911,348 911,345 910,344 910,338 911,337 911,335 912,334 912,333 913,332 913,330 914,329 914,324 913,323 913,319 912,318 912,317 911,316 911,315 910,314 910,311 909,310 909,309 908,308 908,307 907,306 907,303 906,302 906,300 904,298 904,297 903,296 903,294 902,293 902,292 900,290 900,289 899,288 899,287 898,286 898,285 896,283 896,282 895,281 895,279 893,277 893,276 892,275 892,274 891,273 891,271 890,270 890,269 889,268 889,267 888,266 888,262 887,261 887,259 886,258 886,257 885,256 885,254 884,253 884,248 883,247 883,244 882,243 882,241 881,240 881,235 880,234 880,228 879,227 879,225 878,224 878,222 877,221 877,211 876,210 876,204 875,203 875,202 874,201 874,199 873,198 873,196 872,195 872,194 871,193 871,192 870,191 870,190 869,189 869,187 868,186 868,185 867,184 867,183 866,182 866,179 865,178 865,174 864,173 864,172 863,171 863,169 862,168 862,164 861,163 861,154 860,153 860,145 859,144 859,125 860,124 860,122 861,121 861,119 862,118 862,116 863,115 863,114 864,113 864,111 865,110 865,109 866,108 866,106 869,103 869,101 870,100 870,99 871,98 871,97 872,96 872,95 873,94 873,92 875,90 875,89 876,88 876,87 877,86 877,84 879,82 879,81 881,79 881,78 883,76 883,75 884,74 884,73 885,72 885,71 888,68 888,67 892,63 892,62 899,55 900,55 904,51 905,51 908,48 909,48 910,47 911,47 912,46 913,46 914,45 915,45 916,44 918,44 919,43 920,43 921,42 922,42 923,41 924,41 925,40 926,40 927,39 928,39 929,38 930,38 931,37 932,37 933,36 934,36 936,34 937,34 938,33 940,33 941,32 942,32 943,31 945,31 946,30 963,30 964,31 966,31 967,32 969,32 970,33 973,33 974,34 975,34 976,35 979,35 980,36 996,36 997,35 999,35 1000,34 1003,34 1004,33 1008,33 1009,32 1023,32 1024,33 1030,33 1031,34 1034,34 1035,35 1036,35 1037,36 1039,36 1040,37 1043,37 1045,39 1046,39 1047,40 1048,40 1049,41 1051,41 1053,43 1054,43 1055,44 1056,44 1057,45 1058,45 1060,47 1061,47 1062,48 1063,48 1064,49 1065,49 1067,51 1068,51 1069,52 1070,52 1076,58 1077,58 1080,61 1081,61 1084,64 1085,64 1090,69 1090,70 1096,76 1097,76 1104,83 1104,84 1113,93 1114,93 1118,97 1119,97 1128,106 1128,107 1129,108 1129,109 1131,111 1131,121 1132,122 1132,125 1133,126 1133,129 1134,130 1134,134 1135,135 1135,138 1136,139 1136,144 1137,145 1137,154 1136,155 1136,178 1135,179 1135,180 1124,191 1124,192 1122,194 1122,195 1121,196 1121,198 1120,199 1120,200 1119,201 1119,202 1118,203 1118,204 1117,205 1117,206 1116,207 1116,208 1115,209 1115,210 1114,211 1114,212 1113,213 1113,214 1111,216 1111,217 1110,218 1110,220 1109,221 1109,223 1107,225 1107,226 1106,227 1106,228 1105,229 1105,230 1103,232 1103,233 1102,234 1102,236 1101,237 1101,238 1100,239 1100,240 1099,241 1099,243 1098,244 1098,246 1097,247 1097,249 1096,250 1096,252 1095,253 1095,256 1094,257 1094,260 1093,261 1093,262 1092,263 1092,269 1093,270 1093,273 1094,274 1094,276 1098,280 1098,281 1103,286 1103,287 1104,288 1104,289 1105,290 1105,292 1106,293 1106,300 1107,301 1107,305 1108,306 1108,307 1109,308 1109,310 1110,311 1110,315 1111,316 1111,318 1113,320 1113,322 1114,323 1114,326 1115,327 1115,329 1116,330 1116,346 1117,347 1117,353 1118,354 1118,355 1121,358 1122,358 1123,359 1125,359 1126,360 1127,360 1129,362 1130,362 1132,364 1133,364 1136,367 1137,367 1144,374 1145,374 1148,377 1148,378 1151,381 1151,382 1152,383 1152,384 1155,387 1155,388 1158,391 1158,392 1159,393 1159,394 1162,397 1162,398 1163,399 1163,400 1167,404 1167,405 1170,408 1170,409 1173,412 1173,413 1176,416 1176,417 1177,418 1177,419 1178,420 1178,421 1180,423 1180,424 1181,425 1181,426 1182,427 1182,428 1184,430 1184,431 1185,432 1185,434 1186,435 1186,437 1187,438 1187,440 1188,441 1188,443 1189,444 1189,446 1190,447 1190,451 1191,452 1191,455 1193,457 1193,458 1196,461 1196,462 1197,463 1197,464 1198,465 1198,466 1200,468 1200,469 1201,470 1201,471 1202,471 1203,472 1203,473 1204,474 1204,475 1206,477 1206,478 1207,479 1207,480 1208,481 1208,482 1211,485 1211,486 1212,487 1212,489 1214,491 1214,492 1215,493 1215,495 1216,496 1216,497 1218,499 1218,501 1219,502 1219,504 1221,506 1221,507 1222,508 1222,511 1223,512 1223,515 1225,517 1225,519 1226,520 1226,525 1227,526 1227,528 1229,530 1229,534 1230,535 1230,545 1231,546 1231,549 1232,550 1232,553 1233,554 1233,578 1232,579 1232,582 1231,583 1231,586 1230,587 1230,592 1229,593 1229,595 1228,596 1228,598 1227,599 1227,602 1226,603 1226,606 1225,607 1225,609 1224,610 1224,612 1223,613 1223,616 1222,617 1222,620 1221,621 1221,623 1220,624 1220,626 1219,627 1219,632 1218,633 1218,636 1217,637 1217,639 1216,640 1216,644 1215,645 1215,652 1214,653 1214,657 1213,658 1213,660 1212,661 1212,666 1211,667 1211,678 1210,679 1210,684 1209,685 1209,687 1208,688 1208,694 1207,695 1207,706 1206,707 1206,710 1205,711 1205,714 1204,715 1204,723 1203,724 1203,731 1202,732 1202,734 1201,735 1201,738 1200,739 1200,745 1199,746 1199,751 1198,752 1198,753 1197,754 1197,757 1196,758 1196,763 1195,764 1195,767 1194,768 1194,769 1193,770 1193,773 1192,774 1192,778 1191,779 1191,781 1190,782 1190,783 1189,784 1189,790 1188,791 1188,799 1187,800 1187,809 1188,810 1188,830 1189,831 1189,856 1190,857 1190,869 1191,870 1191,907 1192,908 1192,925 1193,926 1193,943 1192,944 1192,952 1191,953 1191,956 1190,957 1190,960 1189,961 1189,972 1188,973 1188,984 1187,985 1187,988 1185,990 1185,992 1184,993 1184,994 1177,1001 1176,1001 1175,1002 1174,1002 1172,1004 1171,1004 1167,1008 1166,1008 1162,1012 1161,1012 1158,1015 1158,1016 1157,1017 1157,1018 1156,1019 1156,1032 1157,1033 1157,1035 1158,1036 1158,1056 1159,1057 1159,1070 1158,1071 1158,1079 1916,1079 1916,1077 1917,1076 1919,1076 1919,0 Z" fill="black" stroke="none" /></svg>