<?xml version="1.0" encoding="utf-8" ?>
<svg baseProfile="tiny" height="1080px" version="1.2" viewBox="0,0,1920,1080" width="1920px" xmlns="http://www.w3.org/2000/svg" xmlns:ev="http://www.w3.org/2001/xml-events" xmlns:xlink="http://www.w3.org/1999/xlink"><defs /><path d="M1200,939 1199,940 1199,941 1198,942 1198,943 1195,946 1194,946 1194,948 1193,949 1193,967 1194,968 1194,973 1195,974 1195,981 1196,982 1196,992 1197,993 1197,999 1198,1000 1198,1001 1200,1003 1200,1005 1201,1006 1201,1010 1203,1012 1203,1013 1204,1014 1204,1016 1205,1017 1205,1018 1206,1019 1207,1019 1209,1021 1209,1022 1210,1022 1212,1024 1212,1025 1213,1026 1217,1026 1217,1025 1220,1022 1220,1021 1221,1020 1221,1019 1222,1018 1222,1017 1223,1016 1223,1014 1224,1013 1224,1009 1225,1008 1225,1005 1226,1004 1226,1003 1227,1002 1227,1001 1228,1000 1228,999 1229,998 1229,997 1230,996 1230,993 1231,992 1231,984 1229,982 1229,980 1227,978 1227,977 1225,975 1225,973 1224,972 1224,971 1222,969 1222,968 1221,967 1221,965 1220,964 1220,963 1218,961 1218,960 1217,959 1217,957 1216,956 1216,954 1214,952 1214,951 1210,947 1210,946 1204,940 1203,940 1202,939 Z" fill="black" stroke="none" /><path d="M1145,552 1145,556 Z" fill="black" stroke="none" /><path d="M999,395 998,396 998,397 997,398 996,398 995,399 995,403 994,404 994,413 995,414 994,415 994,425 995,426 995,429 996,430 996,432 997,433 997,434 998,435 998,439 999,440 999,446 1000,447 1000,448 1001,449 1001,452 1002,453 1002,456 1005,459 1005,460 1006,461 1006,466 1007,467 1007,468 1009,470 1009,474 1010,475 1010,477 1013,480 1013,481 1014,482 1014,485 1015,485 1017,487 1017,488 1018,489 1018,491 1019,492 1020,492 1022,494 1024,494 1025,495 1029,495 1031,493 1031,490 1030,489 1030,488 1029,487 1029,485 1028,484 1028,480 1027,479 1027,474 1026,473 1026,466 1025,465 1025,459 1023,457 1023,455 1022,454 1022,448 1021,447 1021,446 1020,445 1020,443 1019,442 1019,439 1018,438 1018,435 1016,433 1016,432 1015,431 1015,429 1014,428 1014,425 1012,423 1012,421 1011,420 1011,417 1010,416 1010,414 1008,412 1008,411 1007,410 1007,407 1006,406 1006,405 1005,405 1003,403 1003,401 1002,400 1002,399 999,396 Z" fill="black" stroke="none" /><path d="M0,0 0,1079 1099,1079 1099,1072 1100,1071 1100,1069 1101,1068 1101,1054 1100,1053 1100,1052 1099,1051 1099,1048 1098,1047 1098,1042 1097,1041 1097,1039 1095,1037 1095,1036 1094,1035 1094,1034 1093,1033 1093,1032 1091,1030 1091,1028 1090,1027 1090,1026 1089,1025 1089,1024 1088,1023 1088,1022 1087,1021 1087,1018 1086,1017 1086,1015 1085,1014 1085,1013 1084,1012 1084,1009 1083,1008 1083,1005 1082,1004 1082,1002 1081,1001 1081,1000 1080,999 1080,997 1079,996 1079,994 1078,993 1078,992 1077,991 1077,989 1076,988 1076,985 1075,984 1075,982 1074,981 1074,980 1072,978 1072,977 1071,976 1071,975 1070,975 1069,974 1069,973 1067,971 1067,970 1065,968 1065,967 1064,966 1064,964 1062,962 1062,961 1061,960 1061,957 1060,956 1060,954 1059,953 1059,951 1058,950 1058,945 1057,944 1057,934 1056,933 1056,929 1055,928 1055,927 1054,926 1054,923 1053,922 1053,920 1052,919 1052,917 1051,916 1051,915 1050,914 1050,912 1049,911 1049,910 1048,909 1048,908 1046,906 1046,905 1045,904 1045,903 1044,902 1044,901 1043,900 1043,899 1042,898 1042,895 1041,894 1041,892 1040,891 1040,890 1039,889 1039,888 1038,887 1038,885 1037,884 1037,882 1036,881 1036,880 1035,879 1035,878 1034,877 1034,876 1033,875 1033,874 1030,871 1030,870 1029,869 1029,868 1028,867 1028,865 1027,864 1027,862 1026,861 1026,860 1023,857 1023,856 1019,852 1019,851 1016,848 1016,847 1015,846 1015,845 1014,844 1014,843 1012,841 1012,839 1011,838 1011,837 1009,835 1009,834 1008,833 1008,830 1007,829 1007,828 996,817 995,817 994,816 994,815 990,811 990,810 989,809 989,808 988,807 988,806 986,804 986,802 985,801 985,799 984,798 984,796 983,795 983,794 982,793 982,790 981,789 981,786 980,785 980,783 979,782 979,778 978,777 978,767 977,766 977,762 976,761 976,759 975,758 975,754 974,753 974,747 973,746 973,739 972,738 972,735 971,734 971,731 970,730 970,727 969,726 969,724 968,723 968,722 967,721 967,717 966,716 966,713 965,712 965,711 964,710 964,709 963,708 963,705 962,704 962,702 960,700 960,699 955,694 954,694 948,688 948,687 942,681 942,680 939,677 939,676 937,674 937,673 935,671 935,670 933,668 933,666 932,665 932,664 930,662 930,660 929,659 929,656 928,655 928,654 927,653 927,651 926,650 926,636 927,635 927,633 928,632 928,629 929,628 929,618 930,617 930,611 931,610 931,609 930,608 930,602 929,601 929,594 928,593 928,592 927,591 927,590 926,589 926,587 925,586 925,583 924,582 924,581 923,580 923,579 922,578 922,573 921,572 921,569 920,568 920,567 919,566 919,563 918,562 918,555 917,554 917,551 916,550 916,549 915,548 915,544 914,543 914,539 913,538 913,536 912,535 912,534 911,533 911,530 910,529 910,527 909,526 909,525 908,524 908,523 907,522 907,520 906,519 906,517 905,516 905,515 904,514 904,513 903,512 903,508 902,507 902,505 901,504 901,503 900,502 900,500 899,499 899,497 898,496 898,495 896,493 896,491 895,490 895,489 893,487 893,485 892,484 892,480 891,479 891,477 890,476 890,474 889,473 889,468 888,467 888,398 887,397 887,368 888,367 888,344 889,343 889,340 890,339 890,338 891,337 891,334 892,333 892,329 893,328 893,327 894,326 894,325 895,324 895,323 896,322 896,320 898,318 898,317 899,316 899,315 900,314 900,313 904,309 904,308 905,307 906,307 907,306 907,305 913,299 914,299 917,296 918,296 919,295 920,295 923,292 924,292 925,291 926,291 927,290 928,290 929,289 930,289 931,288 933,288 934,287 936,287 937,286 938,286 939,285 940,285 941,284 943,284 947,280 948,280 949,279 949,278 950,277 951,277 952,276 952,275 954,273 955,273 959,269 960,269 961,268 962,268 965,265 966,265 967,264 967,263 970,260 970,259 971,258 971,257 975,253 975,252 978,249 978,248 981,245 981,244 983,242 983,241 993,231 993,230 996,227 996,226 998,224 998,223 1000,221 1000,220 1001,219 1001,218 1003,216 1003,215 1004,214 1004,213 1005,212 1005,211 1006,210 1006,209 1007,208 1007,205 1008,204 1008,198 1009,197 1009,192 1010,191 1010,190 1011,189 1011,188 1012,187 1012,185 1013,184 1013,183 1014,182 1014,180 1015,179 1015,174 1016,173 1016,164 1017,163 1017,154 1018,153 1018,150 1019,149 1019,145 1020,144 1020,139 1021,138 1021,136 1023,134 1023,133 1024,132 1024,130 1026,128 1026,125 1027,124 1027,121 1030,118 1030,117 1031,116 1031,115 1032,114 1032,111 1033,110 1033,107 1035,105 1035,103 1037,101 1038,101 1041,98 1042,98 1043,97 1044,97 1045,96 1047,96 1048,95 1049,95 1050,94 1054,94 1055,93 1064,93 1065,92 1071,92 1072,93 1099,93 1100,94 1103,94 1104,95 1105,95 1106,96 1107,96 1108,97 1111,97 1112,98 1115,98 1117,100 1119,100 1123,104 1124,104 1128,108 1129,108 1131,110 1132,110 1133,111 1135,111 1136,112 1139,112 1140,113 1142,113 1144,115 1145,115 1146,116 1147,116 1149,118 1150,118 1151,119 1152,119 1153,120 1154,120 1159,125 1159,126 1163,130 1163,131 1164,131 1165,132 1165,133 1166,134 1166,135 1167,136 1167,137 1168,138 1168,139 1169,140 1169,141 1170,142 1170,143 1171,144 1171,145 1173,147 1173,149 1175,151 1175,152 1176,153 1176,155 1177,156 1177,159 1178,160 1178,164 1179,165 1179,167 1180,168 1180,171 1181,172 1181,176 1182,177 1182,179 1183,180 1183,182 1184,183 1184,187 1185,188 1185,205 1184,206 1184,210 1183,211 1183,213 1182,214 1182,216 1181,217 1181,219 1180,220 1180,221 1173,228 1172,228 1168,232 1167,232 1164,235 1163,235 1159,239 1158,239 1157,240 1155,240 1153,242 1152,242 1151,243 1149,243 1137,255 1136,255 1133,258 1132,258 1130,260 1129,260 1126,263 1125,263 1121,267 1120,267 1116,271 1115,271 1115,272 1114,273 1114,274 1113,275 1112,275 1112,276 1111,277 1111,288 1110,289 1110,291 1112,293 1112,294 1113,294 1114,295 1115,295 1119,299 1120,299 1121,300 1122,300 1125,303 1126,303 1129,306 1130,306 1134,310 1135,310 1136,311 1137,311 1140,314 1141,314 1142,315 1143,315 1146,318 1147,318 1148,319 1149,319 1152,322 1153,322 1156,325 1157,325 1163,331 1163,332 1166,335 1166,337 1167,338 1167,340 1169,342 1169,343 1170,344 1170,347 1171,348 1171,349 1172,350 1172,351 1173,352 1173,354 1174,355 1174,358 1176,360 1176,361 1177,362 1177,365 1178,366 1178,369 1179,370 1179,371 1180,372 1180,373 1181,374 1181,379 1182,380 1182,382 1183,383 1183,384 1184,385 1184,388 1185,389 1185,394 1186,395 1186,397 1187,398 1187,399 1188,400 1188,405 1189,406 1189,412 1190,413 1190,414 1191,415 1191,417 1192,418 1192,426 1193,427 1193,433 1194,434 1194,435 1195,436 1195,437 1196,438 1196,440 1197,441 1197,442 1199,444 1199,445 1200,446 1200,448 1203,451 1203,452 1204,453 1204,455 1207,458 1207,459 1208,460 1208,461 1210,463 1210,464 1211,465 1211,466 1212,467 1212,468 1213,469 1213,470 1214,471 1214,473 1215,474 1215,487 1216,488 1216,490 1219,493 1219,494 1222,497 1222,498 1223,499 1223,500 1224,501 1224,502 1225,503 1225,506 1226,507 1226,548 1225,549 1225,554 1224,555 1224,558 1223,559 1223,563 1222,564 1222,571 1221,572 1221,573 1220,574 1220,576 1219,577 1219,585 1218,586 1218,603 1217,604 1217,606 1216,607 1216,609 1215,610 1215,615 1214,616 1214,619 1213,620 1213,621 1212,622 1212,624 1211,625 1211,628 1210,629 1210,631 1209,632 1209,633 1208,634 1208,636 1207,637 1207,640 1206,641 1206,643 1205,644 1205,645 1204,646 1204,647 1203,648 1203,650 1202,651 1202,652 1201,653 1201,654 1200,655 1200,658 1199,659 1199,660 1198,661 1198,663 1197,664 1197,665 1196,666 1196,668 1195,669 1195,671 1194,672 1194,679 1195,680 1195,683 1196,684 1196,690 1197,691 1197,692 1198,693 1198,694 1199,695 1199,696 1200,697 1200,698 1201,699 1201,700 1203,702 1203,703 1204,704 1204,705 1205,706 1205,707 1207,709 1207,710 1208,711 1208,712 1210,714 1210,715 1211,716 1211,717 1212,718 1212,719 1215,722 1215,723 1216,724 1216,725 1219,728 1219,729 1223,733 1223,734 1226,737 1226,739 1229,742 1229,743 1231,745 1231,746 1234,749 1234,750 1236,752 1236,753 1238,755 1238,756 1239,757 1240,757 1241,758 1241,759 1244,762 1244,763 1245,764 1245,765 1248,768 1248,769 1249,770 1249,771 1255,777 1255,778 1257,780 1257,781 1260,784 1260,785 1263,788 1263,789 1266,792 1266,793 1267,794 1267,795 1270,798 1270,799 1271,800 1271,801 1274,804 1274,805 1275,806 1275,807 1277,809 1277,810 1279,812 1279,814 1281,816 1281,817 1282,818 1282,819 1283,820 1283,821 1285,823 1285,824 1286,825 1286,826 1289,829 1289,830 1290,831 1290,833 1291,834 1291,835 1293,837 1293,838 1294,839 1294,840 1295,841 1295,842 1297,844 1297,845 1298,846 1298,848 1300,850 1300,851 1301,852 1301,854 1303,856 1303,857 1304,858 1304,859 1305,860 1305,862 1307,864 1307,865 1308,866 1308,868 1309,869 1309,870 1311,872 1311,873 1312,874 1312,876 1313,877 1313,879 1315,881 1315,883 1316,884 1316,886 1317,887 1317,888 1319,890 1319,892 1320,893 1320,895 1321,896 1321,897 1323,899 1323,901 1324,902 1324,904 1325,905 1325,907 1326,908 1326,909 1327,910 1327,913 1328,914 1328,917 1329,918 1329,919 1330,920 1330,922 1331,923 1331,927 1332,928 1332,929 1333,930 1333,932 1334,933 1334,935 1335,936 1335,938 1336,939 1336,941 1337,942 1337,943 1338,944 1338,948 1339,949 1339,951 1340,952 1340,954 1341,955 1341,957 1342,958 1342,961 1343,962 1343,965 1344,966 1344,969 1345,970 1345,974 1346,975 1346,996 1345,997 1345,1000 1344,1001 1344,1002 1343,1003 1343,1004 1342,1005 1342,1006 1341,1007 1341,1008 1340,1009 1340,1010 1339,1011 1339,1012 1338,1013 1338,1015 1337,1016 1337,1017 1336,1018 1336,1019 1335,1020 1335,1021 1334,1022 1334,1024 1332,1026 1332,1028 1331,1029 1331,1030 1330,1031 1330,1032 1329,1033 1329,1034 1328,1035 1328,1037 1327,1038 1327,1039 1326,1040 1326,1041 1325,1042 1325,1044 1324,1045 1324,1046 1323,1047 1323,1048 1321,1050 1321,1051 1320,1052 1320,1053 1319,1054 1319,1056 1318,1057 1318,1059 1317,1060 1317,1061 1316,1062 1316,1063 1313,1066 1313,1067 1312,1068 1312,1069 1311,1070 1311,1074 1310,1075 1310,1079 1919,1079 1919,0 Z" fill="black" stroke="none" /></svg>