<?xml version="1.0" encoding="utf-8" ?>
<svg baseProfile="tiny" height="1080px" version="1.2" viewBox="0,0,1920,1080" width="1920px" xmlns="http://www.w3.org/2000/svg" xmlns:ev="http://www.w3.org/2001/xml-events" xmlns:xlink="http://www.w3.org/1999/xlink"><defs /><path d="M0,0 0,1079 904,1079 904,1075 905,1074 905,1061 906,1060 906,1050 907,1049 907,1040 908,1039 908,1033 907,1032 907,1028 906,1027 906,1025 904,1023 903,1023 901,1021 899,1021 898,1020 894,1020 889,1015 889,1013 888,1012 888,1002 887,1001 887,997 886,996 886,995 885,994 885,991 884,990 884,982 883,981 883,979 882,978 882,977 881,976 881,971 880,970 880,948 879,947 879,938 878,937 878,929 877,928 877,904 876,903 876,891 875,890 875,888 874,887 874,884 873,883 873,872 872,871 872,867 871,866 871,865 870,864 870,863 869,862 869,860 868,859 868,858 867,857 867,856 866,855 866,853 865,852 865,851 864,850 864,849 863,848 863,847 862,846 862,843 861,842 861,839 859,837 859,836 858,835 858,833 855,830 855,829 854,828 854,827 853,826 853,825 851,823 851,821 850,820 850,817 849,816 849,814 848,813 848,801 849,800 849,786 848,785 848,780 847,779 847,761 846,760 846,751 845,750 845,748 841,744 841,743 840,743 839,742 838,742 837,743 837,744 835,746 834,746 834,747 833,748 833,749 832,750 832,751 830,753 830,754 829,755 829,762 828,763 828,765 827,766 827,767 826,768 826,769 825,770 825,776 824,777 824,779 823,780 823,781 822,782 822,785 821,786 821,792 820,793 820,794 819,795 819,799 818,800 818,801 819,802 819,805 820,806 820,809 821,810 821,814 822,815 822,818 823,819 823,825 822,826 822,827 815,834 815,836 814,837 814,841 813,842 813,845 812,846 812,847 811,848 811,849 810,850 810,853 809,854 809,855 808,856 808,857 807,858 807,862 806,863 806,879 805,880 805,892 806,893 806,895 807,896 807,898 809,900 809,901 810,902 810,904 811,905 811,906 813,908 813,910 814,911 814,913 818,917 819,917 820,918 821,918 824,921 824,924 825,925 825,931 826,932 826,934 827,935 827,936 828,937 828,940 829,941 829,943 830,944 830,945 832,947 832,948 833,949 834,949 844,959 844,960 846,962 846,963 847,964 847,965 848,966 848,967 850,969 850,970 851,971 851,972 855,976 855,977 856,978 856,979 858,981 858,984 859,985 859,997 858,998 858,999 857,1000 857,1001 849,1009 848,1009 847,1010 847,1011 846,1012 845,1012 842,1015 841,1015 840,1016 839,1016 838,1017 837,1017 835,1019 834,1019 833,1020 832,1020 831,1021 830,1021 828,1023 827,1023 826,1024 825,1024 817,1032 817,1033 814,1036 814,1037 811,1040 811,1041 810,1042 810,1043 809,1044 809,1045 808,1046 807,1046 803,1050 801,1050 800,1051 798,1051 797,1052 795,1052 794,1053 789,1053 788,1054 745,1054 744,1053 743,1053 742,1052 742,1050 741,1049 741,1046 742,1045 742,1042 743,1041 743,1040 745,1038 745,1037 747,1035 747,1034 750,1031 751,1031 752,1030 753,1030 756,1027 757,1027 773,1011 773,1010 775,1008 775,1007 776,1006 776,1005 778,1003 778,1002 779,1001 779,999 780,998 780,997 782,995 782,994 783,993 783,989 784,988 784,982 783,981 783,979 782,978 782,977 780,975 780,974 779,973 779,972 776,969 776,967 775,966 775,965 774,964 774,963 772,961 772,959 771,958 771,957 768,954 768,953 767,952 767,951 763,947 763,946 749,932 749,931 741,923 741,922 740,922 739,921 739,920 737,918 737,917 735,915 735,914 733,912 733,911 731,909 731,908 727,904 727,903 726,902 726,901 725,900 725,899 724,898 724,876 725,875 725,873 726,872 726,859 727,858 727,811 726,810 726,806 725,805 725,803 723,801 722,801 721,800 722,799 722,798 725,795 725,782 724,781 724,780 723,779 723,776 722,775 722,772 721,771 721,768 720,767 720,750 721,749 721,747 722,746 722,742 723,741 723,736 724,735 724,732 725,731 725,730 726,729 726,726 727,725 727,722 728,721 728,720 729,719 729,718 730,717 730,712 731,711 731,676 732,675 732,673 733,672 733,670 734,669 734,665 735,664 735,661 736,660 736,659 737,658 737,656 738,655 738,654 739,653 739,652 742,649 742,648 743,647 743,646 745,644 745,643 746,642 746,640 747,639 747,638 748,637 748,635 749,634 749,627 750,626 750,623 751,622 751,621 752,620 752,613 753,612 753,609 752,608 752,599 751,598 751,596 749,594 749,590 750,589 750,587 753,584 753,583 754,582 755,582 758,579 759,579 760,578 761,578 762,577 763,577 771,569 771,568 772,567 772,565 774,563 774,562 775,561 775,559 776,558 776,557 778,555 778,554 779,553 779,551 780,550 780,549 781,548 781,547 782,546 782,544 783,543 783,540 784,539 784,537 785,536 785,535 786,534 786,530 787,529 787,524 788,523 788,522 789,521 789,520 790,519 790,516 791,515 791,512 793,510 793,509 794,508 794,506 795,505 795,503 797,501 797,499 798,498 798,494 799,493 799,492 800,491 800,489 801,488 801,485 802,484 802,480 803,479 803,478 804,477 804,476 805,475 805,473 806,472 806,470 808,468 808,467 809,466 809,465 810,464 810,463 812,461 812,460 814,458 814,457 819,452 819,451 823,447 823,446 831,438 832,438 834,436 835,436 837,434 838,434 839,433 840,433 843,430 845,430 846,429 848,429 850,427 851,427 853,425 853,424 854,423 854,422 855,421 855,420 856,419 857,419 858,418 861,418 862,417 864,417 865,416 866,416 867,415 868,415 870,413 871,413 872,412 874,412 875,411 879,411 880,410 882,410 883,409 884,409 885,408 886,408 887,407 888,407 889,406 890,406 891,405 892,405 893,404 894,404 898,400 898,399 899,398 899,396 900,395 900,393 901,392 901,390 900,389 900,387 899,386 899,373 898,372 898,368 897,367 897,366 896,365 896,364 895,363 895,358 894,357 894,354 891,351 891,349 890,348 890,342 890,343 888,345 887,345 886,346 886,350 885,351 885,353 884,354 884,358 882,360 879,360 878,361 877,361 875,363 874,363 868,369 863,369 862,368 861,368 860,367 855,367 854,368 853,368 851,370 851,371 850,372 850,373 849,374 848,374 847,375 846,375 845,376 844,375 842,375 840,373 840,368 839,367 839,365 837,363 837,362 836,361 835,361 833,359 832,359 827,354 827,353 825,351 825,347 830,342 830,341 831,340 831,337 832,336 832,331 831,330 831,328 830,327 830,325 831,324 831,318 830,317 830,315 828,313 828,302 829,301 829,300 830,299 830,297 831,296 831,295 835,291 836,291 837,290 839,290 840,289 847,289 848,288 849,288 850,287 850,286 851,285 851,283 852,282 852,280 853,279 853,276 854,275 854,273 855,272 855,271 859,267 859,266 860,265 860,263 861,262 861,260 866,255 867,255 869,253 870,253 881,242 882,242 884,240 885,240 888,237 889,237 890,236 892,236 893,235 894,235 895,234 896,234 897,233 898,233 899,232 900,232 901,231 902,231 903,230 905,230 906,229 908,229 909,228 910,228 911,227 913,227 914,226 916,226 917,225 918,225 919,224 921,224 922,223 925,223 926,222 941,222 942,223 949,223 950,224 952,224 953,225 954,225 955,226 956,226 957,227 960,227 961,228 962,228 963,229 964,229 965,230 967,230 968,231 972,231 973,232 974,232 975,233 977,233 978,234 982,234 983,233 987,233 988,232 995,232 996,233 1002,233 1004,235 1004,236 1005,237 1003,239 1000,239 999,240 996,240 995,241 994,241 993,242 992,242 990,244 989,244 988,245 983,245 982,244 981,244 980,243 980,244 978,246 978,247 977,248 977,250 978,251 978,252 979,252 980,253 984,249 998,249 999,248 1006,248 1007,249 1010,249 1011,250 1012,250 1014,252 1015,252 1016,253 1019,253 1020,254 1023,254 1024,255 1025,255 1027,257 1027,266 1028,267 1028,273 1029,274 1029,276 1030,277 1030,278 1031,279 1031,286 1034,289 1035,289 1036,290 1037,290 1039,292 1040,292 1041,293 1042,293 1043,294 1044,294 1045,295 1046,295 1047,296 1049,296 1050,297 1051,297 1052,296 1053,296 1056,293 1056,292 1058,290 1058,287 1057,286 1056,286 1055,285 1054,285 1053,284 1051,284 1049,282 1049,280 1048,279 1049,278 1052,278 1053,277 1064,277 1065,278 1071,278 1074,275 1074,274 1075,273 1075,272 1079,268 1079,267 1081,265 1081,261 1082,260 1082,257 1083,256 1083,255 1085,253 1085,252 1089,248 1097,248 1098,249 1099,249 1101,251 1102,251 1108,257 1108,258 1110,260 1110,261 1111,262 1111,263 1112,264 1112,266 1113,267 1113,269 1114,270 1114,271 1115,272 1115,275 1114,276 1114,277 1113,278 1113,287 1114,288 1114,289 1115,290 1115,291 1116,292 1116,294 1117,295 1117,297 1118,298 1118,299 1120,301 1120,302 1121,303 1121,304 1122,305 1122,306 1123,307 1123,309 1124,310 1124,315 1123,316 1124,317 1124,320 1125,321 1125,322 1126,323 1126,325 1127,326 1127,327 1128,328 1128,331 1129,332 1129,334 1130,335 1130,336 1131,337 1131,338 1132,339 1132,341 1133,342 1133,348 1132,349 1132,350 1131,351 1131,352 1129,354 1129,355 1128,356 1128,357 1127,358 1127,359 1126,360 1126,361 1125,362 1125,364 1124,365 1124,366 1123,367 1123,368 1122,369 1122,370 1121,371 1121,372 1120,373 1120,374 1117,377 1116,377 1113,380 1110,380 1108,378 1105,381 1104,381 1103,382 1100,382 1099,381 1099,380 1098,379 1098,378 1097,377 1097,376 1096,375 1096,374 1095,373 1095,372 1091,368 1090,368 1089,367 1088,367 1086,365 1084,365 1083,364 1078,364 1075,361 1075,360 1074,359 1074,357 1073,356 1073,353 1072,352 1072,346 1071,345 1071,341 1070,340 1070,336 1069,335 1069,334 1068,333 1068,332 1067,331 1067,330 1066,329 1065,329 1061,325 1060,325 1059,324 1058,325 1056,325 1055,326 1054,326 1052,328 1051,328 1050,329 1049,329 1048,330 1047,330 1046,329 1045,329 1042,326 1042,325 1041,324 1041,322 1040,321 1040,320 1036,320 1035,321 1035,323 1034,324 1034,329 1035,330 1035,334 1036,335 1035,336 1035,339 1034,340 1034,342 1032,344 1030,344 1029,345 1026,342 1026,341 1024,341 1023,340 1022,340 1022,350 1021,351 1021,354 1020,355 1020,358 1019,359 1019,361 1018,362 1018,363 1017,364 1017,366 1016,367 1016,369 1014,371 1014,372 1013,373 1013,374 1010,377 1010,378 1009,379 1009,383 1008,384 1008,387 1007,388 1007,389 1005,391 1005,393 1003,395 1003,397 1002,398 1002,399 1001,400 1001,401 1000,402 1000,403 991,412 991,414 990,415 990,418 989,419 989,425 990,426 990,428 991,429 991,431 992,432 992,433 994,435 994,436 1001,443 1001,444 1009,452 1009,453 1010,454 1010,455 1011,456 1012,456 1023,467 1023,469 1024,470 1024,472 1025,473 1025,477 1026,478 1026,480 1027,480 1029,482 1029,483 1031,485 1031,486 1029,488 1027,486 1025,486 1025,488 1024,489 1024,491 1023,492 1023,494 1022,495 1022,498 1021,499 1021,505 1020,506 1020,508 1017,511 1017,513 1016,514 1016,515 1015,516 1015,517 1014,518 1014,519 1013,520 1013,521 1012,522 1012,524 1011,525 1011,526 1010,527 1010,528 1009,529 1009,530 1008,531 1008,532 1006,534 1006,535 1004,537 1004,538 1001,541 1001,542 999,544 999,545 990,554 990,555 989,556 989,557 988,558 986,558 985,559 984,559 982,557 982,554 980,554 980,555 979,556 979,557 975,561 975,562 974,563 973,563 970,566 969,566 968,567 967,567 966,568 965,568 963,570 962,570 959,573 958,573 954,577 954,578 952,580 952,582 950,584 950,586 949,587 949,590 948,591 948,594 947,595 947,598 946,599 946,601 945,602 945,603 943,605 943,606 941,608 941,609 939,611 939,612 938,613 938,614 937,615 937,617 936,618 936,632 937,633 937,644 938,645 938,661 937,662 937,676 936,677 936,681 935,682 935,687 934,688 934,709 933,710 933,720 932,721 932,724 931,725 931,730 930,731 930,743 929,744 929,748 928,749 928,752 927,753 927,758 926,759 926,766 925,767 925,769 924,770 924,772 923,773 923,783 922,784 922,790 923,791 923,803 924,804 924,808 925,809 925,811 926,812 926,815 927,816 927,819 928,820 928,821 929,822 929,823 930,824 930,826 931,827 931,828 933,830 933,832 934,833 934,838 935,839 935,842 936,843 936,844 937,845 937,849 938,850 938,854 939,855 939,857 940,858 940,859 941,860 941,871 942,872 942,876 943,877 943,879 944,880 944,883 945,884 945,913 946,914 946,923 947,924 947,933 948,934 948,968 949,969 949,992 950,993 950,997 951,998 951,1002 952,1003 952,1018 951,1019 951,1020 950,1021 950,1023 949,1024 949,1045 950,1046 950,1047 951,1048 951,1049 952,1050 952,1057 953,1058 953,1062 954,1063 954,1064 955,1065 955,1067 956,1068 956,1071 955,1072 955,1077 954,1078 954,1079 1919,1079 1919,0 Z" fill="black" stroke="none" /></svg>