<?xml version="1.0" encoding="utf-8" ?>
<svg baseProfile="tiny" height="1080px" version="1.2" viewBox="0,0,1920,1080" width="1920px" xmlns="http://www.w3.org/2000/svg" xmlns:ev="http://www.w3.org/2001/xml-events" xmlns:xlink="http://www.w3.org/1999/xlink"><defs /><path d="M825,1069 824,1070 821,1070 822,1071 823,1071 824,1072 825,1072 826,1073 830,1073 831,1072 832,1072 834,1070 832,1070 831,1069 Z" fill="black" stroke="none" /><path d="M710,1066 709,1067 707,1067 706,1068 705,1068 704,1069 703,1069 702,1070 705,1070 706,1071 708,1071 710,1073 711,1073 712,1074 713,1074 714,1075 715,1074 716,1074 716,1073 717,1072 717,1070 714,1067 713,1067 712,1066 Z" fill="black" stroke="none" /><path d="M882,1052 882,1054 877,1059 877,1061 876,1062 876,1065 877,1066 877,1069 878,1070 878,1073 879,1074 880,1074 882,1076 882,1077 883,1078 883,1079 884,1079 884,1075 885,1074 885,1071 886,1070 885,1069 885,1068 884,1067 884,1058 883,1057 883,1053 Z" fill="black" stroke="none" /><path d="M0,0 0,1079 620,1079 620,1077 619,1076 619,1064 618,1063 618,1037 617,1036 617,1026 616,1025 616,1016 615,1015 615,1001 614,1000 614,963 613,962 613,955 612,954 612,935 613,934 613,931 614,930 614,925 615,924 615,919 616,918 616,916 617,915 617,911 618,910 618,905 619,904 619,898 620,897 620,896 621,895 621,892 622,891 622,886 623,885 623,881 624,880 624,877 625,876 625,871 626,870 626,864 627,863 627,860 628,859 628,856 629,855 629,847 630,846 630,841 631,840 631,838 632,837 632,833 633,832 633,823 634,822 634,811 635,810 635,799 636,798 636,791 637,790 637,781 638,780 638,777 639,776 639,774 640,773 640,770 641,769 641,763 642,762 642,760 643,759 643,757 644,756 644,753 645,752 645,749 646,748 646,746 647,745 647,744 648,743 648,739 649,738 649,736 651,734 651,733 652,732 652,729 653,728 653,727 655,725 655,723 656,722 656,720 658,718 658,717 659,716 659,713 660,712 660,710 662,708 662,706 663,705 663,702 664,701 664,700 665,699 665,698 666,697 666,696 667,695 667,692 668,691 668,690 669,689 669,687 670,686 670,684 671,683 671,681 672,680 672,679 673,678 673,676 674,675 674,673 675,672 675,669 677,667 677,666 678,665 678,662 679,661 679,660 680,659 680,658 681,657 681,656 682,655 682,653 683,652 683,650 685,648 685,647 686,646 686,645 688,643 688,642 689,641 689,640 690,639 690,638 692,636 692,635 693,634 693,633 697,629 697,628 701,624 701,623 703,621 704,621 704,620 706,618 707,618 710,615 711,615 713,613 714,613 717,610 718,610 720,608 721,608 723,606 724,606 726,604 727,604 729,602 730,602 732,600 733,600 734,599 735,599 737,597 738,597 740,595 741,595 748,588 749,588 756,581 757,581 761,577 762,577 766,573 767,573 768,572 769,572 772,569 773,569 777,565 778,565 781,562 782,562 783,561 784,561 787,558 788,558 789,557 790,557 793,554 794,554 795,553 796,553 798,551 799,551 800,550 801,550 803,548 804,548 805,547 806,547 807,546 808,546 809,545 810,545 811,544 812,544 813,543 814,543 815,542 816,542 817,541 819,541 821,539 823,539 824,538 825,538 826,537 827,537 830,534 831,534 834,531 835,531 836,530 837,530 839,528 840,528 845,523 846,523 846,522 849,519 849,504 848,503 848,500 849,499 849,495 850,494 850,493 855,488 856,488 859,485 859,484 860,483 860,482 861,481 861,480 862,479 862,478 863,477 863,476 865,474 866,474 868,472 869,472 870,471 871,471 879,463 880,463 881,462 882,462 883,461 886,461 887,460 894,460 895,461 899,461 900,462 913,462 914,461 919,461 920,462 921,462 922,463 924,463 925,464 932,464 933,465 947,465 948,464 952,464 953,463 956,463 957,462 958,462 959,463 960,463 961,464 965,464 966,463 968,463 970,461 971,461 975,457 975,456 976,455 976,454 978,452 978,451 980,449 984,449 985,448 989,448 991,446 992,446 993,445 994,445 995,444 995,442 996,441 996,440 997,439 997,438 999,436 1002,436 1005,439 1005,440 1006,441 1006,445 1007,446 1007,447 1008,447 1009,448 1011,448 1012,447 1012,444 1013,443 1013,441 1016,438 1017,438 1018,437 1020,437 1021,436 1025,436 1026,435 1029,435 1030,434 1031,434 1032,433 1033,433 1035,431 1038,431 1039,432 1040,432 1045,437 1046,437 1047,438 1048,438 1050,436 1055,436 1058,439 1058,440 1059,441 1059,455 1060,456 1060,459 1062,461 1062,462 1063,463 1064,463 1065,464 1066,464 1071,469 1071,470 1072,471 1072,473 1073,474 1073,481 1074,482 1074,491 1075,492 1075,494 1076,495 1076,497 1077,498 1077,499 1078,500 1078,501 1079,502 1079,503 1080,504 1080,505 1081,506 1081,507 1082,508 1082,509 1084,511 1084,512 1092,520 1093,520 1096,523 1097,523 1099,525 1101,525 1103,527 1105,527 1106,528 1107,528 1108,529 1109,529 1110,530 1111,530 1112,531 1114,531 1115,532 1117,532 1118,533 1120,533 1121,534 1122,534 1123,535 1125,535 1126,536 1128,536 1129,537 1130,537 1131,538 1132,538 1134,540 1135,540 1136,541 1137,541 1139,543 1140,543 1142,545 1143,545 1145,547 1146,547 1147,548 1148,548 1149,549 1150,549 1151,550 1152,550 1153,551 1154,551 1156,553 1157,553 1158,554 1159,554 1160,555 1161,555 1162,556 1163,556 1165,558 1166,558 1168,560 1169,560 1176,567 1176,568 1177,569 1178,569 1184,575 1185,575 1186,576 1187,576 1188,577 1189,577 1190,578 1191,578 1193,580 1194,580 1196,582 1197,582 1200,585 1202,585 1204,587 1205,587 1206,588 1208,588 1209,589 1210,589 1211,590 1213,590 1214,591 1215,591 1216,592 1217,592 1218,593 1219,593 1220,594 1221,594 1222,595 1223,595 1226,598 1227,598 1230,601 1230,602 1233,605 1233,606 1234,607 1234,608 1236,610 1236,611 1237,612 1237,613 1238,614 1238,615 1239,616 1239,617 1240,618 1240,619 1241,620 1241,621 1242,622 1242,623 1243,624 1243,625 1244,626 1244,627 1245,628 1245,629 1247,631 1247,632 1250,635 1250,636 1252,638 1252,639 1254,641 1254,642 1255,643 1255,644 1256,645 1256,646 1258,648 1258,649 1259,650 1259,652 1260,653 1260,654 1261,655 1261,656 1262,657 1262,659 1263,660 1263,662 1264,663 1264,665 1265,666 1265,667 1266,668 1266,672 1267,673 1267,677 1268,678 1268,679 1269,680 1269,682 1270,683 1270,687 1271,688 1271,690 1272,691 1272,693 1273,694 1273,695 1274,696 1274,699 1275,700 1275,703 1276,704 1276,707 1277,708 1277,710 1278,711 1278,717 1279,718 1279,723 1280,724 1280,727 1281,728 1281,731 1282,732 1282,742 1283,743 1283,748 1284,749 1284,752 1285,753 1285,760 1286,761 1286,773 1287,774 1287,778 1288,779 1288,781 1289,782 1289,789 1290,790 1290,799 1291,800 1291,803 1292,804 1292,808 1293,809 1293,822 1294,823 1294,830 1295,831 1295,834 1296,835 1296,839 1297,840 1297,852 1298,853 1298,858 1299,859 1299,862 1300,863 1300,868 1301,869 1301,877 1302,878 1302,882 1303,883 1303,885 1304,886 1304,892 1305,893 1305,902 1306,903 1306,906 1307,907 1307,911 1308,912 1308,920 1309,921 1309,926 1310,927 1310,930 1311,931 1311,935 1312,936 1312,943 1313,944 1313,948 1314,949 1314,951 1315,952 1315,956 1316,957 1316,961 1317,962 1317,964 1318,965 1318,967 1319,968 1319,971 1320,972 1320,977 1321,978 1321,981 1322,982 1322,984 1323,985 1323,990 1324,991 1324,995 1325,996 1325,998 1326,999 1326,1001 1327,1002 1327,1008 1328,1009 1328,1012 1329,1013 1329,1015 1330,1016 1330,1020 1331,1021 1331,1024 1332,1025 1332,1026 1333,1027 1333,1028 1334,1029 1334,1068 1335,1069 1335,1070 1334,1071 1334,1073 1333,1074 1334,1075 1334,1079 1915,1079 1915,1078 1918,1075 1919,1075 1919,0 Z" fill="black" stroke="none" /></svg>