<?xml version="1.0" encoding="utf-8" ?>
<svg baseProfile="tiny" height="1080px" version="1.2" viewBox="0,0,1920,1080" width="1920px" xmlns="http://www.w3.org/2000/svg" xmlns:ev="http://www.w3.org/2001/xml-events" xmlns:xlink="http://www.w3.org/1999/xlink"><defs /><path d="M713,744 711,746 711,753 712,754 712,756 713,757 713,766 714,767 714,776 715,777 715,779 716,780 716,786 717,787 717,796 718,797 718,800 719,799 720,799 721,798 721,777 717,773 716,773 715,772 715,771 714,770 714,763 715,762 715,757 714,756 714,745 Z" fill="black" stroke="none" /><path d="M710,733 Z" fill="black" stroke="none" /><path d="M894,696 894,697 893,698 893,727 894,728 894,731 895,732 895,735 896,736 896,752 897,753 897,759 898,760 898,762 899,763 899,768 900,769 900,782 901,783 901,787 902,788 902,790 903,791 903,800 904,801 904,811 905,812 905,814 906,815 906,817 907,818 907,825 908,826 908,834 909,835 909,838 910,839 910,843 911,844 911,853 912,854 912,867 913,868 913,870 914,871 914,873 915,874 915,878 916,879 916,884 917,885 917,889 918,890 918,891 919,892 919,894 920,895 920,898 921,899 923,899 924,900 925,900 926,899 929,899 930,898 932,898 933,897 934,897 934,896 936,894 938,894 939,893 940,893 943,890 943,888 944,887 944,868 943,867 943,858 942,857 942,856 941,855 941,851 940,850 940,838 939,837 939,835 938,834 938,833 937,832 937,825 936,824 936,817 935,816 935,815 934,814 934,811 933,810 933,801 932,800 932,796 931,795 931,793 930,792 930,789 929,788 929,777 928,776 928,773 927,772 927,770 926,769 926,764 925,763 925,757 924,756 924,754 922,752 922,749 921,748 921,746 920,745 920,744 919,743 919,741 918,740 918,737 917,736 917,735 915,733 915,732 914,731 914,729 913,728 913,726 911,724 911,722 910,721 910,718 909,717 909,716 908,715 908,714 907,713 907,712 906,711 906,708 905,707 905,706 902,703 902,701 901,700 901,699 898,696 Z" fill="black" stroke="none" /><path d="M733,389 732,390 730,390 729,391 727,391 725,393 725,394 724,395 727,395 728,396 734,396 735,395 736,395 737,394 737,393 738,392 738,391 737,390 736,390 735,389 Z" fill="black" stroke="none" /><path d="M452,369 Z" fill="black" stroke="none" /><path d="M864,349 864,352 863,353 863,362 864,363 864,364 866,362 866,361 867,360 867,359 868,358 868,355 869,354 868,353 868,352 867,351 866,351 Z" fill="black" stroke="none" /><path d="M878,348 878,349 877,350 877,353 876,354 877,355 879,355 879,348 Z" fill="black" stroke="none" /><path d="M470,343 470,345 469,346 467,346 466,347 466,348 464,350 463,350 462,351 462,352 461,353 459,353 458,354 458,355 455,358 455,360 454,361 454,362 455,363 455,364 456,364 458,366 459,366 459,362 460,361 460,360 461,359 461,358 462,357 462,356 464,354 464,353 466,351 467,351 468,350 468,349 471,346 471,345 470,344 Z" fill="black" stroke="none" /><path d="M773,301 772,302 772,303 771,304 769,304 768,303 767,303 766,304 765,304 764,305 759,305 758,304 757,304 756,303 753,303 752,304 751,304 749,306 749,307 748,308 748,310 747,311 747,314 746,315 746,319 745,320 745,321 744,322 742,322 741,321 740,321 739,320 739,314 737,312 736,312 734,314 733,314 733,315 732,316 732,325 733,326 733,327 734,327 736,329 738,329 739,330 740,330 741,331 744,331 745,332 748,332 749,333 750,333 751,334 753,334 755,336 755,337 756,338 756,339 757,339 759,341 760,341 761,342 765,342 766,341 767,341 768,340 769,340 774,335 780,335 781,336 783,336 785,334 785,331 782,328 782,327 783,326 783,325 784,324 782,322 781,322 779,324 780,325 780,326 781,327 781,328 779,330 777,330 776,331 773,331 772,330 769,330 768,329 766,329 765,328 765,327 768,324 765,321 765,320 764,319 764,318 763,317 763,316 764,315 765,315 767,313 770,313 771,312 771,304 772,303 775,303 776,302 777,302 777,301 Z" fill="black" stroke="none" /><path d="M818,258 817,259 816,259 815,260 814,260 814,264 815,265 815,267 817,267 817,266 818,265 818,263 819,262 819,261 820,260 819,259 819,258 Z" fill="black" stroke="none" /><path d="M365,217 364,218 362,218 362,220 361,221 361,224 360,225 360,228 361,229 361,230 362,231 362,233 363,234 363,235 364,236 364,237 365,238 365,237 366,236 366,234 367,233 367,229 368,228 368,225 367,224 367,223 366,222 366,219 365,218 Z" fill="black" stroke="none" /><path d="M0,0 0,1079 722,1079 722,1077 723,1076 723,1070 724,1069 724,1064 725,1063 725,1057 726,1056 726,1050 725,1049 725,1044 724,1043 724,1039 723,1038 723,1025 722,1024 722,1019 721,1018 721,1016 720,1015 720,1014 719,1013 719,1011 717,1009 716,1009 713,1006 712,1006 711,1005 710,1005 708,1003 707,1003 706,1002 705,1002 704,1001 703,1001 699,997 698,997 697,996 693,996 692,997 686,997 685,996 684,996 683,995 683,991 682,990 682,988 684,986 688,986 689,987 690,987 692,989 695,989 695,987 694,986 694,985 693,984 693,983 692,982 692,979 690,977 690,975 689,974 689,959 690,958 690,956 691,955 691,954 692,953 692,922 691,921 691,919 690,918 690,917 689,916 689,915 688,914 688,909 687,908 687,907 685,905 685,902 684,901 684,900 683,900 681,898 681,897 680,896 680,894 679,894 678,893 678,892 677,891 677,889 674,886 674,885 673,884 673,883 671,881 671,880 670,879 670,878 669,877 669,876 666,873 666,872 663,869 663,868 662,867 662,866 660,864 660,863 658,861 658,860 656,858 656,857 655,856 655,855 654,854 654,853 653,852 653,851 652,850 652,847 651,846 651,843 650,842 650,840 649,839 649,837 648,836 648,829 647,828 647,784 646,783 646,779 644,777 644,776 643,775 643,771 642,770 642,759 643,758 643,731 642,730 642,725 639,725 638,724 636,724 634,722 634,718 631,715 630,716 629,716 628,717 627,717 626,716 625,716 624,715 616,715 615,714 616,713 622,713 623,712 624,712 625,711 625,710 616,710 615,709 604,709 603,710 591,710 590,711 589,711 587,713 580,713 579,714 578,713 543,713 542,712 523,712 522,713 437,713 436,712 427,712 426,711 425,711 424,710 423,710 422,709 421,709 419,707 418,707 413,702 413,701 411,699 411,698 410,697 410,696 409,695 409,694 408,693 408,692 407,691 407,690 406,689 406,688 405,687 405,686 404,685 404,683 403,682 403,681 401,679 401,677 400,676 400,675 399,674 399,673 398,672 398,671 397,670 397,668 396,667 396,665 395,664 395,663 394,662 394,660 393,659 393,657 392,656 392,654 391,653 391,652 390,651 390,648 389,647 389,643 388,642 388,640 387,639 387,637 386,636 386,632 385,631 385,626 384,625 384,623 383,622 383,619 382,618 382,613 381,612 381,608 380,607 380,605 379,604 379,603 378,602 378,598 377,597 377,595 376,594 376,593 375,592 375,590 374,589 374,585 373,584 373,583 372,582 372,580 371,579 371,575 370,574 370,572 369,571 369,570 368,569 368,567 367,566 367,561 366,560 366,558 365,557 365,556 364,555 364,551 363,550 363,545 362,544 362,542 361,541 361,539 360,538 360,533 359,532 359,525 358,524 358,522 357,521 357,519 356,518 356,499 355,498 355,455 354,454 354,448 353,447 353,443 352,442 352,435 351,434 351,432 350,431 350,430 349,429 349,426 348,425 348,421 347,420 347,419 346,418 346,416 345,415 345,410 344,409 344,404 343,403 343,395 344,394 344,392 345,391 345,389 347,387 347,386 348,385 348,384 350,382 351,382 352,381 352,380 355,377 356,377 356,376 357,375 357,373 358,372 358,371 359,370 359,366 360,365 360,356 359,355 359,347 358,346 358,343 357,342 357,339 356,338 356,324 355,323 355,301 354,300 354,296 353,295 353,291 352,290 352,284 351,283 351,281 349,279 349,276 348,275 348,273 347,272 347,270 346,269 346,266 347,265 347,262 348,261 348,260 347,259 347,256 346,256 345,255 343,255 340,252 339,252 338,251 338,249 337,248 337,246 336,245 336,243 335,242 335,237 336,236 336,232 337,231 337,227 338,226 338,225 339,224 340,224 341,223 342,223 344,221 345,221 346,220 346,219 349,216 349,215 350,214 350,213 353,210 354,210 356,208 357,208 358,207 359,208 360,208 361,209 364,209 365,208 365,206 366,205 366,203 365,202 365,196 368,193 370,193 371,192 375,192 376,191 379,191 380,190 381,190 382,189 383,189 384,188 386,188 387,187 394,187 395,186 397,186 398,185 401,185 402,186 403,186 405,184 406,184 409,181 415,181 416,182 417,182 418,183 420,183 422,185 423,185 424,186 437,186 438,187 439,187 440,188 441,188 442,189 452,189 453,190 455,190 456,191 457,191 458,192 458,193 460,195 460,196 461,197 461,202 462,203 462,221 461,222 461,233 460,234 461,235 461,248 460,249 460,253 459,254 459,260 458,261 458,265 459,266 459,271 460,272 460,274 461,275 461,277 462,278 462,280 463,281 466,281 467,280 469,280 470,279 471,280 472,280 473,281 475,281 476,280 478,280 480,278 481,278 482,277 483,277 484,276 485,276 486,275 487,275 488,274 490,274 493,277 493,278 494,279 494,290 493,291 493,293 492,294 492,296 491,297 491,300 490,301 490,303 488,305 488,306 487,307 487,310 486,311 486,312 484,314 484,315 483,316 483,317 482,318 482,319 481,320 481,321 480,322 480,325 479,326 479,327 478,328 478,329 477,330 477,331 476,332 476,335 475,336 475,337 474,338 474,340 478,340 481,343 481,348 482,349 485,349 486,348 486,347 489,344 490,345 491,345 493,347 493,351 492,352 492,354 488,358 488,360 487,361 487,364 486,365 486,367 485,368 485,369 482,372 481,372 480,373 479,373 478,374 477,374 476,375 474,375 473,376 471,376 469,378 468,378 467,379 465,379 463,377 463,376 459,372 459,370 458,370 458,371 457,372 457,373 455,375 455,376 454,377 454,378 453,379 453,381 452,382 452,384 449,387 449,389 448,390 448,392 449,393 449,395 450,396 450,401 451,402 451,410 452,410 453,411 455,411 456,412 456,413 457,414 457,417 458,418 457,419 457,423 458,424 458,425 460,427 460,429 461,430 461,433 460,434 460,435 459,436 458,435 457,435 455,433 454,433 454,434 453,435 453,436 455,438 455,441 457,443 457,444 458,445 458,447 461,450 461,451 464,454 464,455 465,456 465,457 466,458 466,459 467,460 467,461 468,462 468,464 469,465 469,468 471,470 471,472 472,473 472,480 473,481 473,487 474,488 474,497 475,498 475,508 474,509 474,526 475,527 475,530 476,531 476,539 477,540 477,545 479,547 479,548 480,549 480,550 481,551 481,552 482,553 482,554 483,555 483,556 484,557 484,560 485,561 485,562 492,569 494,569 495,570 496,570 498,572 499,572 500,573 501,573 502,574 505,574 507,572 508,572 511,569 512,569 515,566 516,566 517,565 519,565 520,564 521,564 523,562 525,562 526,561 530,561 531,560 532,560 533,559 534,559 535,558 536,558 537,557 538,557 539,556 540,556 542,554 543,554 544,553 545,553 548,550 549,550 556,543 557,543 560,540 561,540 562,539 563,539 566,536 567,536 568,535 569,535 570,534 571,534 573,532 575,532 576,531 579,531 580,530 581,530 582,529 583,529 584,528 588,528 589,527 590,527 593,524 594,524 605,513 606,513 610,509 610,508 611,507 611,506 615,502 615,501 618,498 618,497 619,496 619,495 621,493 621,492 622,491 622,489 623,488 623,487 625,485 625,484 627,482 627,481 636,472 637,472 643,466 643,465 644,464 644,463 647,460 649,460 650,461 654,461 655,460 656,460 657,459 661,459 662,458 663,458 666,455 671,455 672,454 672,451 671,450 655,450 654,449 650,449 649,448 647,448 645,446 645,445 644,444 645,443 645,436 648,433 659,433 660,434 664,434 665,433 667,433 668,432 676,432 677,433 678,433 681,436 681,437 682,438 682,440 681,441 681,442 679,444 682,447 682,448 684,450 685,449 688,449 689,448 690,448 691,447 694,447 695,446 702,446 703,447 712,447 713,446 717,446 718,445 719,445 720,444 722,444 722,443 723,442 723,440 724,439 724,438 725,437 729,437 729,431 728,430 728,427 727,426 727,423 726,422 726,420 727,419 727,417 726,416 726,412 724,410 724,408 723,407 723,405 720,402 720,401 718,399 718,397 719,396 719,394 718,393 718,391 715,388 715,386 716,385 716,379 717,378 717,376 718,375 721,375 722,374 727,374 728,375 729,375 730,374 738,374 739,375 740,375 741,376 741,381 742,382 743,382 745,384 745,385 746,386 746,388 751,393 752,393 753,394 756,394 757,395 757,396 759,398 760,398 762,396 763,396 765,394 768,394 774,400 775,400 776,399 778,399 779,398 779,396 780,395 780,393 781,392 781,390 783,388 783,387 789,381 794,386 794,388 795,389 795,393 796,394 796,399 798,401 799,401 800,402 803,402 805,400 806,400 807,399 807,398 808,397 808,396 809,395 809,392 810,391 810,390 811,389 813,389 814,388 816,388 816,387 818,385 818,384 819,383 819,381 820,380 817,377 814,377 813,378 811,378 810,377 808,377 807,376 803,376 802,375 797,375 796,376 794,376 793,377 791,377 790,378 789,378 787,376 785,376 783,374 782,374 777,369 776,369 775,368 774,368 773,369 772,369 771,370 760,370 759,369 753,369 752,370 750,368 750,367 749,366 749,364 748,363 748,359 747,358 747,357 748,356 748,350 745,347 744,347 743,346 741,346 740,345 737,348 737,349 736,350 736,351 735,352 735,353 734,354 736,356 738,356 739,355 740,355 743,358 743,360 744,361 743,362 743,364 742,365 742,366 741,367 740,367 739,368 735,368 734,367 733,367 731,365 731,364 729,362 729,361 727,361 725,359 725,362 721,366 718,366 716,364 714,364 713,363 711,363 709,361 710,360 710,359 713,356 714,356 716,354 716,352 717,351 717,344 718,343 718,339 716,337 716,335 714,333 714,332 713,331 713,330 712,329 712,325 711,324 711,314 710,313 710,307 709,306 709,294 708,293 708,280 707,279 707,271 706,270 706,265 707,264 707,258 708,257 708,254 709,253 709,252 710,251 710,249 711,248 711,245 712,244 712,240 713,239 713,235 714,234 714,230 715,229 715,226 714,225 714,222 713,221 713,220 712,219 712,217 711,216 711,215 710,214 710,213 709,212 709,210 710,209 710,207 711,206 711,205 712,204 712,203 713,202 713,201 714,200 714,199 715,198 715,197 716,196 716,195 717,194 717,193 719,191 719,189 721,187 721,186 722,185 722,184 723,183 723,181 724,180 724,179 726,177 726,176 727,175 727,174 728,173 728,172 730,170 730,169 731,168 731,167 734,164 734,163 748,149 749,149 752,146 753,146 756,143 757,143 759,141 760,141 761,140 762,140 764,138 765,138 766,137 767,137 770,134 772,134 774,132 775,132 776,131 777,131 778,130 779,130 780,129 781,129 782,128 783,128 784,127 786,127 787,126 791,126 792,125 798,125 799,124 802,124 803,123 806,123 807,122 811,122 812,121 816,121 817,120 820,120 821,119 826,119 827,118 836,118 837,119 838,118 843,118 844,117 853,117 854,118 855,118 856,119 858,119 859,120 861,120 863,122 864,122 865,123 866,123 870,127 871,127 875,131 876,131 879,134 880,134 885,139 886,139 888,141 889,141 890,142 891,142 892,143 893,143 895,145 896,145 897,146 899,146 902,149 904,149 905,150 906,150 908,152 909,152 919,162 919,163 920,164 921,164 922,165 922,166 924,168 925,168 928,171 929,171 931,173 932,173 933,174 933,175 934,175 942,183 942,184 943,184 944,185 944,186 946,188 946,189 952,195 952,196 956,200 956,201 959,204 959,205 960,206 960,207 961,208 961,210 962,211 962,212 964,214 964,215 965,216 965,219 967,221 967,223 968,224 968,227 969,228 969,232 970,233 970,234 971,235 971,241 972,242 972,249 973,250 973,254 974,255 974,259 975,260 975,266 976,267 975,268 975,275 976,276 976,283 977,284 977,292 976,293 976,298 975,299 975,303 974,304 974,309 973,310 973,312 972,313 972,314 971,315 971,316 970,317 970,318 969,319 969,320 967,322 967,324 966,325 966,326 964,328 964,329 963,330 963,331 962,332 962,333 959,336 959,337 955,341 955,342 951,346 951,347 939,359 938,359 935,362 934,362 933,363 932,363 929,366 928,366 927,367 926,367 923,370 922,370 920,372 920,374 919,375 919,377 920,378 920,380 921,381 921,382 922,383 922,384 923,384 924,385 925,385 926,386 928,386 930,388 931,388 932,389 936,389 937,390 940,390 942,392 943,392 944,393 945,393 946,394 949,394 950,395 952,395 953,396 954,396 955,397 956,397 958,399 959,399 960,400 972,400 973,401 975,401 977,403 978,403 979,404 980,404 981,405 982,405 984,407 985,407 986,408 987,408 991,412 992,412 999,419 1000,419 1002,421 1002,422 1009,429 1009,430 1012,433 1012,434 1013,435 1013,436 1014,437 1014,438 1016,440 1016,442 1017,443 1017,444 1019,446 1019,447 1020,448 1020,452 1021,453 1021,455 1023,457 1023,459 1024,460 1024,463 1025,464 1025,465 1026,466 1026,467 1027,468 1027,472 1028,473 1028,477 1029,478 1029,479 1030,480 1030,481 1031,482 1031,489 1032,490 1032,492 1034,494 1034,497 1035,498 1035,504 1036,505 1036,507 1037,508 1037,509 1038,510 1038,515 1039,516 1039,525 1040,526 1040,531 1041,532 1041,541 1040,542 1040,550 1039,551 1039,577 1038,578 1038,602 1039,603 1039,689 1040,690 1040,721 1039,722 1039,766 1040,767 1040,769 1041,770 1041,772 1042,773 1042,779 1043,780 1043,784 1044,785 1044,807 1045,808 1045,809 1046,810 1046,811 1047,812 1047,813 1050,816 1050,817 1054,821 1054,822 1058,826 1058,827 1059,827 1061,829 1061,830 1065,834 1065,835 1071,841 1071,842 1073,844 1073,845 1076,848 1076,849 1079,852 1079,853 1081,855 1081,856 1083,858 1083,859 1086,862 1086,863 1087,864 1087,865 1088,866 1088,868 1090,870 1090,871 1091,872 1091,877 1092,878 1092,880 1094,882 1094,885 1095,886 1095,895 1096,896 1096,898 1097,899 1097,901 1098,902 1098,918 1099,919 1099,923 1098,924 1098,932 1097,933 1097,935 1095,937 1095,939 1094,940 1094,942 1091,945 1091,946 1090,947 1090,948 1087,951 1087,952 1086,953 1086,954 1085,955 1084,955 1084,956 1079,961 1078,961 1078,962 1077,963 1077,965 1076,966 1076,985 1077,986 1077,988 1078,989 1078,1010 1079,1011 1079,1016 1080,1017 1080,1025 1081,1026 1081,1029 1082,1030 1082,1032 1083,1033 1083,1043 1084,1044 1084,1052 1085,1053 1085,1055 1086,1056 1086,1060 1087,1061 1087,1074 1088,1075 1088,1077 1089,1078 1089,1079 1916,1079 1916,1078 1918,1076 1919,1076 1919,0 Z" fill="black" stroke="none" /></svg>