<?xml version="1.0" encoding="utf-8" ?>
<svg baseProfile="tiny" height="1080px" version="1.2" viewBox="0,0,1920,1080" width="1920px" xmlns="http://www.w3.org/2000/svg" xmlns:ev="http://www.w3.org/2001/xml-events" xmlns:xlink="http://www.w3.org/1999/xlink"><defs /><path d="M1344,1060 1343,1061 1343,1062 1342,1063 1344,1065 1344,1066 1346,1066 1347,1067 1348,1067 1349,1066 1351,1066 1353,1064 1355,1064 1356,1063 1363,1063 1363,1062 1362,1061 1361,1061 1360,1060 1358,1060 1357,1061 1351,1061 1350,1060 Z" fill="black" stroke="none" /><path d="M1306,1016 1306,1018 1308,1018 1308,1017 1307,1016 Z" fill="black" stroke="none" /><path d="M1265,1009 1265,1010 Z" fill="black" stroke="none" /><path d="M1262,1003 1263,1003 1265,1005 1265,1003 Z" fill="black" stroke="none" /><path d="M1286,999 1285,1000 1284,1000 1282,1002 1282,1004 1283,1005 1283,1007 1284,1008 1285,1008 1286,1009 1288,1009 1288,1008 1290,1006 1290,1000 1289,999 Z" fill="black" stroke="none" /><path d="M1297,997 1296,998 1295,998 1294,999 1294,1003 1295,1004 1297,1004 1298,1005 1299,1005 1300,1004 1301,1004 1302,1003 1303,1003 1304,1002 1306,1002 1306,1001 1307,1000 1307,999 1306,999 1305,998 1304,998 1303,997 Z" fill="black" stroke="none" /><path d="M780,980 776,984 775,984 782,984 783,983 783,980 Z" fill="black" stroke="none" /><path d="M739,961 738,962 738,965 739,965 740,966 742,966 743,965 744,965 745,964 745,961 Z" fill="black" stroke="none" /><path d="M815,960 814,961 813,961 813,962 816,965 820,965 820,962 819,961 817,961 816,960 Z" fill="black" stroke="none" /><path d="M1317,949 1316,950 1316,951 1317,952 1318,951 1318,949 Z" fill="black" stroke="none" /><path d="M781,949 781,951 782,950 Z" fill="black" stroke="none" /><path d="M1340,942 1340,945 1341,946 1344,946 1346,944 1347,944 1348,943 1348,942 Z" fill="black" stroke="none" /><path d="M766,939 766,943 767,942 767,939 Z" fill="black" stroke="none" /><path d="M744,937 742,939 742,949 741,950 742,950 744,952 746,950 745,949 745,947 744,946 745,945 745,941 747,939 746,939 Z" fill="black" stroke="none" /><path d="M804,929 803,930 802,930 801,931 798,931 796,933 796,935 792,939 792,941 791,942 791,944 792,945 792,951 795,951 796,950 798,950 800,948 802,950 803,950 804,951 806,951 807,952 811,952 813,950 813,949 814,948 814,947 815,946 816,946 817,945 834,945 835,944 836,944 837,943 838,943 838,937 836,935 836,933 835,933 834,932 832,932 831,931 830,931 829,930 828,930 827,929 822,929 821,930 812,930 811,929 Z" fill="black" stroke="none" /><path d="M811,920 810,921 809,921 807,923 805,923 804,924 805,924 806,925 825,925 826,926 827,925 828,925 829,924 828,924 826,922 821,922 820,921 817,921 816,920 Z" fill="black" stroke="none" /><path d="M1310,916 Z" fill="black" stroke="none" /><path d="M1317,898 1315,900 1315,901 1314,902 1315,903 1315,906 1316,907 1316,908 1317,908 1318,909 1319,909 1320,910 1321,910 1322,911 1324,911 1325,912 1325,911 1326,910 1326,908 1325,907 1325,906 1324,905 1324,904 1323,903 1323,901 1321,899 1319,899 1318,898 Z" fill="black" stroke="none" /><path d="M0,0 0,1079 1052,1079 1052,1078 1053,1077 1054,1077 1055,1076 1089,1076 1090,1077 1094,1077 1095,1078 1095,1079 1357,1079 1357,1078 1356,1078 1355,1077 1353,1077 1352,1076 1346,1076 1345,1077 1342,1077 1341,1078 1337,1078 1336,1077 1335,1077 1334,1076 1330,1076 1329,1075 1328,1076 1323,1076 1322,1075 1320,1075 1319,1074 1318,1074 1317,1073 1315,1073 1314,1072 1312,1072 1310,1070 1311,1069 1314,1069 1315,1068 1316,1068 1317,1067 1319,1067 1320,1066 1322,1066 1324,1064 1326,1064 1328,1066 1329,1066 1331,1068 1334,1068 1336,1066 1336,1064 1337,1063 1337,1062 1336,1061 1336,1060 1335,1059 1336,1058 1336,1057 1337,1056 1338,1056 1339,1055 1341,1055 1344,1058 1348,1058 1348,1057 1351,1054 1366,1054 1367,1053 1369,1053 1371,1051 1372,1051 1374,1049 1375,1049 1376,1048 1377,1048 1377,1042 1375,1040 1367,1040 1366,1039 1358,1039 1357,1038 1350,1038 1349,1039 1346,1039 1345,1038 1343,1038 1342,1039 1337,1039 1336,1038 1335,1038 1334,1037 1329,1037 1328,1038 1326,1038 1325,1039 1317,1039 1316,1038 1314,1038 1313,1037 1312,1037 1310,1035 1309,1035 1308,1034 1306,1034 1305,1035 1304,1035 1303,1036 1297,1036 1296,1037 1293,1037 1292,1036 1291,1036 1290,1035 1290,1034 1289,1033 1289,1025 1288,1024 1287,1024 1286,1023 1283,1023 1281,1025 1280,1025 1280,1032 1277,1035 1276,1035 1273,1038 1269,1034 1269,1033 1268,1032 1268,1031 1267,1030 1267,1029 1266,1028 1266,1027 1265,1026 1265,1025 1259,1019 1259,1018 1257,1016 1257,1015 1256,1014 1256,1008 1255,1007 1255,1006 1256,1005 1256,1002 1254,1000 1249,1000 1248,999 1200,999 1199,1000 1190,1000 1189,999 1181,999 1180,998 1179,998 1178,999 1161,999 1160,1000 1157,1000 1156,1001 1155,1000 1152,1000 1151,1001 1140,1001 1139,1002 1137,1002 1134,999 1132,999 1131,998 1127,998 1126,997 1125,997 1124,998 1114,998 1113,997 1101,997 1100,998 1099,997 1091,997 1090,996 1083,996 1082,997 1054,997 1053,998 1040,998 1039,999 1031,999 1030,998 1014,998 1013,997 1012,997 1011,996 991,996 990,995 990,994 989,993 989,992 988,991 988,987 987,986 987,985 986,984 983,984 981,986 981,987 979,989 975,989 972,986 972,985 971,984 963,984 962,985 961,985 960,984 958,984 954,980 953,980 952,979 946,979 945,980 944,980 943,981 941,981 940,982 934,982 933,981 931,981 930,980 928,980 927,979 924,979 923,980 921,980 920,981 915,981 914,980 912,980 911,981 905,981 904,980 899,980 898,979 892,979 891,978 890,978 889,979 880,979 879,980 868,980 867,979 864,979 863,978 862,978 861,977 860,977 857,974 857,970 858,969 855,969 855,971 853,973 852,973 854,975 854,976 853,977 852,977 851,978 849,978 847,976 848,975 848,972 847,971 847,970 846,969 846,968 844,966 843,966 842,965 841,965 840,964 839,964 837,962 834,962 831,965 829,965 828,966 824,966 823,967 823,971 822,972 822,973 821,974 820,974 819,975 818,975 815,978 814,978 812,980 811,980 810,979 809,979 808,978 801,978 800,979 797,976 797,974 796,973 796,971 796,972 794,974 793,974 787,980 787,984 788,984 789,985 790,985 791,986 797,986 798,987 799,987 801,989 801,993 800,994 799,994 798,995 800,995 802,997 803,997 804,998 806,998 807,999 812,999 813,1000 813,1001 814,1002 814,1003 813,1004 813,1005 812,1006 815,1009 816,1009 817,1010 816,1011 814,1011 813,1012 808,1012 807,1013 804,1013 803,1014 802,1014 801,1015 800,1015 799,1016 798,1016 797,1017 796,1017 797,1018 799,1018 800,1019 802,1019 803,1020 805,1020 806,1021 815,1021 816,1022 817,1022 819,1024 820,1024 821,1025 821,1026 820,1027 820,1028 819,1029 819,1032 817,1034 815,1034 814,1035 810,1035 809,1034 802,1034 801,1035 790,1035 789,1036 781,1036 780,1037 771,1037 770,1036 769,1037 767,1037 766,1038 765,1038 761,1042 760,1042 758,1044 757,1044 756,1045 748,1045 747,1044 745,1044 744,1043 742,1043 741,1042 739,1042 738,1041 737,1041 735,1039 735,1038 734,1037 734,1036 732,1034 732,1028 731,1027 731,1020 733,1018 731,1016 729,1016 727,1014 726,1014 725,1013 723,1013 722,1012 721,1012 720,1011 719,1011 718,1010 718,1007 719,1006 719,1005 720,1004 721,1004 722,1003 725,1003 727,1001 728,1001 730,999 730,995 727,992 729,990 733,990 734,989 737,989 738,988 747,988 748,989 751,989 752,990 756,990 757,989 766,989 767,988 771,988 772,987 770,985 769,985 768,984 766,984 765,983 764,983 763,982 762,982 761,981 760,981 759,980 758,981 756,981 755,982 753,982 752,983 751,983 750,984 749,984 747,986 746,986 745,987 736,987 735,986 733,986 732,985 731,985 730,984 729,984 728,983 727,983 725,981 724,981 723,980 723,977 725,975 726,975 728,973 728,972 727,971 727,970 726,969 729,966 730,966 731,965 733,965 733,964 734,963 734,962 733,961 727,961 726,960 717,960 716,959 714,959 712,957 712,956 713,955 713,954 714,953 716,953 717,952 720,952 721,953 722,953 723,952 728,952 729,951 730,952 733,952 734,951 734,945 732,943 730,943 729,942 725,942 724,941 723,941 721,939 720,939 717,936 717,932 718,931 718,930 719,929 719,926 718,925 718,924 717,923 716,923 710,917 709,917 708,916 699,916 698,915 691,915 690,914 669,914 668,913 670,911 671,911 672,910 675,910 676,909 677,909 678,910 682,910 683,911 684,911 685,910 687,910 688,909 689,909 690,908 699,908 700,907 711,907 712,906 716,906 717,905 718,905 714,901 713,901 712,900 710,900 709,899 708,899 707,898 704,898 703,897 699,897 698,896 688,896 687,895 683,895 682,894 680,894 679,893 678,893 675,890 675,868 674,867 674,852 673,851 673,845 674,844 674,835 675,834 675,829 676,828 676,825 677,824 677,820 678,819 678,813 679,812 679,809 680,808 680,807 681,806 681,802 682,801 682,795 683,794 683,792 684,791 684,789 685,788 685,782 686,781 686,776 687,775 687,773 688,772 688,770 689,769 689,764 690,763 690,759 691,758 691,755 692,754 692,750 693,749 693,741 694,740 694,735 695,734 695,729 696,728 696,719 697,718 697,704 698,703 698,695 699,694 699,690 700,689 700,684 701,683 701,678 702,677 702,674 703,673 703,671 704,670 704,668 705,667 705,664 706,663 706,660 707,659 707,656 708,655 708,649 709,648 709,646 710,645 710,644 711,643 711,641 712,640 712,637 713,636 713,635 714,634 714,632 715,631 715,629 716,628 716,626 717,625 717,624 718,623 718,622 719,621 719,619 720,618 720,616 722,614 722,613 723,612 723,610 724,609 724,607 726,605 726,603 727,602 727,600 728,599 728,597 729,596 729,595 730,594 730,592 731,591 731,589 733,587 733,586 734,585 734,583 735,582 735,580 736,579 736,578 737,577 737,576 738,575 738,573 739,572 739,571 741,569 741,567 742,566 742,564 743,563 743,562 744,561 744,560 745,559 745,557 746,556 746,554 747,553 747,552 748,551 748,550 749,549 749,547 750,546 750,544 753,541 753,540 754,539 754,538 755,537 755,536 757,534 757,532 758,531 758,530 760,528 760,527 761,526 761,524 762,523 762,522 764,520 764,518 765,517 765,516 766,515 766,514 768,512 768,511 777,502 778,502 779,501 780,501 783,498 784,498 788,494 789,494 793,490 794,490 794,489 796,487 797,487 800,484 801,484 804,481 805,481 807,479 808,479 811,476 812,476 813,475 814,475 817,472 818,472 819,471 820,471 823,468 824,468 827,465 828,465 830,463 831,463 837,457 838,457 841,454 842,454 843,453 844,453 848,449 849,449 850,448 851,448 853,446 854,446 856,444 857,444 859,442 860,442 861,441 862,441 864,439 865,439 866,438 868,438 869,437 870,437 872,435 873,435 874,434 875,434 878,431 879,431 880,430 881,430 883,428 884,428 885,427 886,427 889,424 890,424 891,423 892,423 895,420 896,420 897,419 898,419 899,418 900,418 902,416 903,416 904,415 905,415 908,412 909,412 910,411 911,411 912,410 913,410 916,407 917,407 920,404 922,404 924,402 925,402 926,401 927,401 929,399 930,399 932,397 933,397 935,395 936,395 938,393 939,393 943,389 944,389 947,386 948,386 960,374 960,373 962,371 962,370 963,369 963,367 964,366 964,364 966,362 966,357 967,356 967,352 968,351 968,350 970,348 970,345 971,344 971,341 972,340 972,339 975,336 975,334 977,332 977,322 976,321 976,320 975,319 975,317 974,316 974,314 973,313 973,312 971,310 971,309 970,308 970,307 969,306 969,305 966,302 966,301 962,297 960,297 959,296 957,296 952,291 952,290 951,289 951,288 949,286 949,285 948,284 948,282 947,281 947,280 946,279 946,278 945,277 945,275 944,274 944,272 943,271 943,269 942,268 942,267 941,266 941,264 940,263 940,261 939,260 939,258 938,257 938,256 937,255 937,249 936,248 936,242 934,240 934,239 933,238 933,237 932,236 932,235 930,233 930,232 929,231 929,230 927,228 927,227 926,226 926,225 925,224 925,223 924,222 924,221 922,219 922,218 921,217 921,215 919,213 919,212 918,211 918,208 917,207 917,206 916,205 916,204 915,203 915,200 914,199 914,195 913,194 913,193 912,192 912,191 911,190 911,186 910,185 910,175 909,174 909,151 910,150 910,149 911,148 911,147 913,145 913,144 914,143 914,142 915,141 915,140 916,139 916,137 919,134 919,133 921,131 922,131 926,127 927,127 931,123 932,123 940,115 940,114 942,112 942,111 950,103 951,103 951,102 960,93 960,92 968,84 969,84 972,81 973,81 977,77 978,77 981,74 983,74 986,71 987,71 988,70 989,70 992,67 994,67 995,66 996,66 998,64 999,64 1000,63 1001,63 1002,62 1003,62 1004,61 1005,61 1006,60 1007,60 1008,59 1010,59 1011,58 1013,58 1014,57 1016,57 1017,56 1031,56 1032,57 1033,57 1034,58 1035,58 1036,59 1037,59 1039,61 1040,61 1041,62 1043,62 1044,63 1046,63 1048,65 1049,65 1051,67 1053,67 1054,68 1057,68 1058,69 1059,69 1060,68 1063,68 1064,67 1066,67 1067,66 1069,66 1070,65 1072,65 1073,64 1075,64 1076,63 1089,63 1090,64 1092,64 1094,66 1096,66 1097,67 1100,67 1102,69 1103,69 1104,70 1105,70 1106,71 1107,71 1108,72 1109,72 1111,74 1113,74 1114,75 1115,75 1117,77 1118,77 1119,78 1120,78 1121,79 1122,79 1125,82 1126,82 1130,86 1131,86 1137,92 1138,92 1140,94 1141,94 1144,97 1145,97 1151,103 1151,104 1160,113 1161,113 1162,114 1162,115 1163,116 1164,116 1167,119 1167,120 1174,127 1174,128 1175,129 1176,129 1177,130 1179,130 1180,131 1181,131 1184,134 1184,135 1185,136 1185,137 1186,138 1186,140 1187,141 1187,142 1188,143 1188,144 1189,145 1189,146 1191,148 1191,149 1192,150 1192,151 1193,152 1193,153 1194,154 1194,155 1195,156 1195,159 1196,160 1196,163 1197,164 1197,165 1198,166 1198,170 1199,171 1199,179 1198,180 1198,182 1196,184 1196,186 1195,187 1195,188 1194,189 1194,190 1193,191 1193,195 1192,196 1192,200 1191,201 1191,204 1190,205 1190,208 1189,209 1189,213 1188,214 1188,217 1187,218 1187,219 1186,220 1186,221 1185,222 1185,224 1184,225 1184,226 1182,228 1182,229 1181,230 1181,231 1180,232 1180,233 1179,234 1179,235 1178,236 1178,237 1177,238 1177,240 1176,241 1176,242 1175,243 1175,245 1174,246 1174,253 1173,254 1173,260 1172,261 1172,262 1171,263 1171,264 1170,265 1170,267 1169,268 1169,269 1168,270 1168,271 1167,272 1167,273 1166,274 1166,275 1165,276 1165,277 1163,279 1163,280 1162,281 1162,282 1159,285 1159,286 1158,287 1158,288 1155,291 1155,292 1153,294 1153,295 1150,298 1150,299 1149,300 1149,301 1148,302 1148,303 1146,305 1146,306 1145,307 1145,308 1144,309 1144,312 1143,313 1143,326 1142,327 1142,331 1141,332 1141,335 1140,336 1140,339 1139,340 1139,344 1138,345 1138,352 1139,353 1139,360 1140,361 1140,363 1144,367 1144,368 1147,371 1147,372 1151,376 1151,377 1156,382 1157,382 1159,384 1159,385 1160,385 1163,388 1163,389 1164,389 1166,391 1166,392 1167,393 1168,393 1175,400 1176,400 1180,404 1181,404 1190,413 1191,413 1204,426 1205,426 1210,431 1211,431 1212,432 1212,433 1213,433 1214,434 1215,434 1218,437 1219,437 1220,438 1221,438 1224,441 1225,441 1226,442 1227,442 1229,444 1230,444 1231,445 1232,445 1233,446 1234,446 1235,447 1236,447 1238,449 1240,449 1243,452 1244,452 1245,453 1246,453 1249,456 1250,456 1251,457 1252,457 1255,460 1256,460 1260,464 1261,464 1265,468 1266,468 1269,471 1270,471 1272,473 1273,473 1280,480 1281,480 1290,489 1290,490 1291,491 1292,491 1293,492 1293,493 1300,500 1300,501 1306,507 1306,508 1323,525 1323,526 1324,527 1324,528 1326,530 1326,531 1327,532 1327,533 1329,535 1329,536 1331,538 1331,539 1332,540 1332,541 1333,542 1333,543 1334,544 1334,546 1335,547 1335,549 1337,551 1337,552 1338,553 1338,555 1339,556 1339,557 1340,558 1340,559 1341,560 1341,561 1342,562 1342,566 1343,567 1343,571 1344,572 1344,574 1345,575 1345,577 1346,578 1346,582 1347,583 1347,586 1348,587 1348,588 1349,589 1349,593 1350,594 1350,601 1351,602 1351,605 1352,606 1352,614 1353,615 1353,644 1354,645 1354,657 1355,658 1355,662 1356,663 1356,668 1357,669 1357,684 1358,685 1358,696 1359,697 1359,702 1360,703 1360,710 1361,711 1361,726 1362,727 1362,732 1363,733 1363,735 1364,736 1364,741 1365,742 1365,756 1366,757 1366,762 1367,763 1367,767 1368,768 1368,781 1369,782 1369,790 1370,791 1370,793 1371,794 1371,799 1372,800 1372,811 1373,812 1373,817 1374,818 1374,821 1375,822 1375,827 1376,828 1376,836 1377,837 1377,841 1378,842 1378,844 1379,845 1379,851 1380,852 1380,859 1381,860 1381,863 1382,864 1382,867 1383,868 1383,875 1384,876 1384,878 1385,879 1385,881 1386,882 1386,884 1387,885 1387,892 1386,893 1386,894 1384,896 1371,896 1370,897 1365,897 1364,898 1358,898 1357,899 1355,899 1355,900 1354,901 1356,903 1356,907 1355,908 1351,908 1348,905 1348,903 1345,906 1343,906 1342,907 1341,907 1340,908 1339,908 1338,909 1337,909 1337,913 1340,916 1340,917 1342,919 1342,920 1344,920 1345,921 1354,921 1357,924 1357,925 1358,926 1358,928 1359,929 1359,936 1358,937 1358,939 1357,940 1357,944 1358,945 1358,946 1359,947 1359,948 1360,949 1361,949 1362,950 1362,951 1363,952 1363,955 1364,956 1364,957 1365,958 1365,959 1367,961 1368,961 1370,963 1371,963 1373,965 1374,965 1375,966 1376,966 1377,967 1378,967 1382,971 1383,971 1384,972 1391,972 1392,971 1393,972 1396,972 1397,973 1395,975 1395,980 1393,982 1392,982 1392,983 1391,984 1391,987 1392,988 1392,989 1393,990 1395,990 1396,991 1406,991 1407,990 1435,990 1436,991 1434,993 1429,993 1428,994 1427,994 1425,996 1419,996 1418,997 1405,997 1404,996 1396,996 1393,993 1392,994 1389,994 1388,995 1388,996 1387,997 1387,999 1388,1000 1388,1001 1389,1002 1389,1003 1391,1005 1391,1006 1392,1007 1392,1008 1393,1009 1393,1010 1394,1011 1394,1013 1395,1014 1395,1021 1394,1022 1394,1023 1392,1025 1392,1027 1391,1028 1391,1031 1390,1032 1390,1035 1389,1036 1389,1037 1388,1038 1388,1039 1387,1040 1387,1045 1386,1046 1386,1050 1385,1051 1385,1052 1384,1053 1384,1055 1383,1056 1383,1058 1382,1059 1382,1062 1381,1063 1381,1069 1382,1070 1379,1073 1378,1073 1377,1074 1374,1074 1373,1075 1371,1075 1370,1076 1365,1076 1364,1077 1362,1077 1361,1078 1360,1078 1360,1079 1915,1079 1915,1078 1918,1075 1919,1075 1919,0 Z" fill="black" stroke="none" /></svg>