<?xml version="1.0" encoding="utf-8" ?>
<svg baseProfile="tiny" height="1080px" version="1.2" viewBox="0,0,1920,1080" width="1920px" xmlns="http://www.w3.org/2000/svg" xmlns:ev="http://www.w3.org/2001/xml-events" xmlns:xlink="http://www.w3.org/1999/xlink"><defs /><path d="M1302,861 1301,862 1300,862 1298,864 1298,865 1295,868 1295,869 1294,870 1294,873 1293,874 1293,876 1292,877 1292,878 1291,879 1291,880 1290,881 1290,882 1289,883 1289,884 1287,886 1287,887 1285,889 1285,890 1283,892 1283,893 1282,894 1282,895 1279,898 1279,899 1278,900 1278,901 1276,903 1276,904 1275,905 1275,906 1273,908 1273,909 1271,911 1271,912 1270,913 1270,914 1268,916 1268,917 1267,918 1267,919 1266,920 1266,921 1263,924 1263,926 1261,928 1261,930 1260,931 1260,933 1259,934 1259,935 1257,937 1257,938 1256,939 1256,940 1251,945 1250,945 1248,947 1248,948 1245,951 1245,952 1244,953 1244,954 1242,956 1242,957 1241,958 1241,959 1240,960 1240,961 1239,962 1239,963 1238,964 1238,965 1237,966 1237,967 1236,968 1236,969 1235,970 1235,972 1234,973 1234,979 1233,980 1233,994 1232,995 1232,999 1231,1000 1231,1002 1230,1003 1230,1006 1229,1007 1229,1010 1227,1012 1227,1013 1226,1014 1226,1015 1225,1016 1225,1017 1222,1020 1222,1021 1219,1024 1219,1025 1218,1026 1218,1027 1216,1029 1216,1035 1215,1036 1215,1040 1216,1041 1216,1044 1217,1045 1217,1046 1218,1047 1218,1048 1221,1051 1221,1052 1222,1053 1222,1055 1223,1056 1223,1057 1225,1059 1225,1061 1226,1062 1226,1064 1227,1065 1227,1066 1228,1067 1228,1068 1229,1069 1229,1074 1230,1075 1230,1076 1232,1078 1232,1079 1353,1079 1353,1075 1352,1074 1352,1071 1351,1070 1351,1069 1350,1068 1350,1064 1349,1063 1349,1057 1348,1056 1348,1054 1347,1053 1347,1052 1346,1051 1346,1050 1345,1049 1345,1048 1338,1041 1338,1040 1337,1039 1337,1038 1335,1036 1335,1034 1334,1033 1334,1031 1333,1030 1333,1029 1331,1027 1331,1026 1329,1024 1329,1023 1327,1021 1327,1019 1326,1018 1326,1017 1324,1015 1324,1013 1323,1012 1323,1009 1322,1008 1322,1006 1321,1005 1321,1002 1320,1001 1320,989 1321,988 1321,986 1322,985 1322,982 1323,981 1323,975 1324,974 1324,938 1323,937 1323,925 1322,924 1322,904 1321,903 1321,897 1320,896 1320,893 1319,892 1319,889 1318,888 1318,886 1317,885 1317,884 1316,883 1316,882 1315,881 1315,878 1314,877 1314,876 1312,874 1312,872 1311,871 1311,869 1310,868 1310,867 1307,864 1307,863 1306,862 1305,862 1304,861 Z" fill="black" stroke="none" /><path d="M1217,402 1216,403 1216,404 1215,405 1215,406 1214,407 1214,410 1215,411 1215,412 1216,413 1219,413 1220,414 1220,413 1222,411 1222,405 1219,402 Z" fill="black" stroke="none" /><path d="M1220,307 1218,309 1218,314 1219,315 1219,317 1220,318 1220,317 1224,313 1224,312 1225,311 1225,309 1224,308 1224,307 Z" fill="black" stroke="none" /><path d="M1302,283 1300,285 1299,285 1298,286 1298,287 1299,288 1299,290 1301,290 1302,291 1303,290 1304,290 1306,288 1306,286 1303,283 Z" fill="black" stroke="none" /><path d="M1206,254 1205,255 1204,255 1203,256 1202,256 1201,257 1201,260 1200,261 1200,272 1201,273 1201,274 1202,275 1205,275 1206,276 1207,276 1208,277 1209,277 1210,278 1211,278 1212,279 1212,280 1215,283 1215,293 1216,294 1216,296 1220,300 1220,301 1220,300 1221,299 1221,288 1220,287 1220,286 1221,285 1221,282 1222,281 1222,279 1225,276 1226,276 1230,272 1230,270 1229,269 1228,269 1227,268 1227,267 1228,266 1229,266 1230,265 1231,265 1232,264 1232,263 1233,262 1233,258 1232,257 1232,256 1227,256 1226,255 1222,255 1221,254 1220,254 1219,255 1218,255 1217,256 1215,256 1214,255 1211,255 1210,254 Z" fill="black" stroke="none" /><path d="M1277,189 1277,196 1278,197 1278,198 1279,199 1279,200 1281,202 1282,202 1284,204 1287,204 1289,202 1289,201 1290,200 1290,198 1291,197 1291,196 1290,195 1290,194 1289,193 1289,192 1288,191 1288,190 1287,190 1286,189 Z" fill="black" stroke="none" /><path d="M0,0 0,177 1,177 2,178 2,182 3,183 3,188 4,189 4,196 5,197 5,204 6,205 6,208 5,209 5,211 4,212 4,213 2,215 0,215 0,238 2,238 4,240 4,241 5,241 6,242 6,263 5,264 5,269 4,270 4,277 3,278 3,291 4,292 4,307 5,308 5,311 4,312 4,313 1,316 0,316 0,1079 1131,1079 1131,1078 1124,1071 1124,1070 1123,1069 1123,1068 1122,1067 1122,1066 1121,1065 1121,1063 1120,1062 1120,1060 1119,1059 1119,1058 1118,1057 1118,1056 1117,1055 1117,1051 1116,1050 1116,1047 1115,1046 1115,1044 1114,1043 1114,1035 1113,1034 1113,1032 1114,1031 1114,1018 1115,1017 1115,1014 1116,1013 1116,1009 1117,1008 1117,1003 1118,1002 1118,1000 1119,999 1119,997 1120,996 1120,992 1121,991 1121,987 1122,986 1122,984 1123,983 1123,980 1124,979 1124,969 1125,968 1125,958 1126,957 1126,952 1127,951 1127,947 1128,946 1128,939 1129,938 1129,935 1130,934 1130,933 1131,932 1131,930 1132,929 1132,926 1133,925 1133,924 1134,923 1134,921 1135,920 1135,917 1136,916 1136,912 1137,911 1137,909 1138,908 1138,906 1139,905 1139,901 1140,900 1140,896 1141,895 1141,893 1142,892 1142,888 1143,887 1143,881 1144,880 1144,875 1145,874 1145,870 1146,869 1146,864 1147,863 1147,857 1148,856 1148,849 1149,848 1149,846 1150,845 1150,842 1151,841 1151,839 1152,838 1152,835 1153,834 1153,831 1154,830 1154,828 1155,827 1155,825 1156,824 1156,823 1157,822 1157,821 1158,820 1158,818 1159,817 1159,815 1161,813 1161,811 1162,810 1162,808 1163,807 1163,806 1164,805 1164,804 1165,803 1165,802 1166,801 1166,799 1168,797 1168,796 1169,795 1169,793 1170,792 1170,791 1172,789 1172,787 1173,786 1173,784 1175,782 1175,780 1176,779 1176,771 1177,770 1177,756 1178,755 1178,744 1179,743 1179,740 1180,739 1180,737 1181,736 1181,733 1182,732 1182,731 1183,730 1183,728 1184,727 1184,725 1185,724 1185,723 1186,722 1186,721 1187,720 1187,719 1188,718 1188,717 1189,716 1189,715 1190,714 1190,713 1192,711 1192,710 1198,704 1199,704 1212,691 1212,690 1213,689 1213,687 1214,686 1214,684 1215,683 1215,682 1216,681 1216,680 1217,679 1217,677 1218,676 1218,674 1219,673 1219,672 1218,671 1218,669 1217,669 1216,668 1216,667 1215,666 1215,664 1216,663 1216,662 1218,660 1218,659 1219,658 1219,654 1218,653 1217,653 1216,652 1215,653 1212,653 1209,650 1209,649 1210,648 1210,637 1211,636 1211,633 1212,632 1212,631 1213,630 1213,628 1214,627 1214,623 1213,622 1213,619 1212,618 1212,615 1211,614 1211,610 1210,609 1210,608 1211,607 1211,603 1210,602 1210,598 1211,597 1211,591 1212,590 1212,588 1213,587 1213,586 1214,585 1214,584 1215,583 1215,581 1216,580 1216,579 1217,578 1217,577 1218,576 1218,574 1219,573 1219,571 1220,570 1220,568 1221,567 1221,562 1222,561 1222,552 1223,551 1223,549 1224,548 1224,547 1225,546 1225,545 1226,544 1226,542 1228,540 1228,539 1229,538 1229,537 1230,536 1230,535 1232,533 1232,532 1233,531 1233,530 1236,527 1236,526 1237,525 1237,523 1239,521 1239,519 1240,518 1240,515 1241,514 1241,512 1242,511 1242,509 1243,508 1243,496 1242,495 1242,492 1241,491 1241,488 1240,487 1240,484 1239,483 1239,481 1238,480 1238,478 1237,477 1237,475 1236,474 1236,472 1235,471 1235,470 1234,469 1234,465 1233,464 1233,459 1232,458 1232,455 1231,454 1231,450 1230,449 1230,439 1229,438 1229,436 1228,435 1228,434 1227,433 1225,433 1223,431 1222,431 1220,429 1219,429 1217,427 1215,427 1214,426 1212,426 1211,425 1211,423 1210,422 1210,421 1209,421 1208,420 1208,419 1207,418 1207,412 1208,411 1208,407 1207,406 1207,403 1206,402 1206,399 1205,398 1205,397 1204,396 1204,394 1203,393 1203,391 1202,390 1202,388 1201,387 1201,385 1200,384 1200,372 1199,371 1199,365 1198,364 1198,361 1197,360 1197,359 1194,356 1194,354 1193,353 1193,350 1192,349 1192,348 1191,347 1191,346 1190,345 1190,343 1189,342 1188,342 1186,340 1185,340 1180,335 1180,334 1177,331 1176,331 1175,330 1170,330 1169,329 1166,329 1165,328 1164,328 1160,324 1160,323 1159,322 1159,319 1160,318 1160,317 1161,316 1161,311 1162,310 1162,308 1163,307 1163,306 1164,305 1164,303 1165,302 1165,299 1166,298 1166,295 1167,294 1167,293 1168,292 1168,288 1169,287 1169,282 1170,281 1170,280 1171,279 1171,278 1172,277 1172,275 1182,265 1182,258 1183,257 1183,255 1184,254 1184,247 1183,246 1183,243 1184,242 1184,240 1185,239 1185,238 1186,237 1186,236 1187,235 1188,236 1190,236 1192,238 1196,238 1197,237 1198,237 1199,236 1200,236 1202,234 1201,233 1201,232 1197,232 1196,231 1196,226 1197,225 1197,224 1198,223 1199,224 1199,225 1200,225 1201,226 1203,224 1204,224 1205,223 1206,223 1208,221 1209,221 1210,220 1211,220 1215,216 1215,215 1218,212 1220,212 1221,211 1220,211 1219,210 1217,210 1215,208 1215,207 1216,206 1216,205 1217,204 1217,203 1218,202 1218,199 1217,198 1217,196 1218,195 1218,194 1219,193 1219,192 1220,191 1221,192 1224,192 1225,193 1227,193 1228,194 1229,194 1231,196 1231,197 1230,198 1230,203 1229,204 1230,205 1230,208 1229,209 1229,213 1230,214 1230,216 1231,217 1231,221 1232,222 1232,224 1234,226 1234,231 1233,232 1233,233 1232,234 1232,240 1233,241 1233,242 1234,243 1235,243 1237,241 1237,233 1236,232 1236,226 1239,223 1240,223 1242,221 1243,221 1245,219 1245,218 1246,217 1246,211 1245,210 1245,209 1244,208 1244,206 1243,205 1243,204 1236,197 1236,196 1238,194 1239,194 1240,193 1242,193 1243,192 1244,192 1245,191 1247,191 1248,190 1249,190 1250,189 1251,189 1252,188 1252,186 1253,185 1253,184 1254,183 1254,182 1259,177 1260,177 1260,176 1262,174 1262,173 1261,172 1254,172 1249,167 1248,167 1246,165 1244,165 1243,166 1242,165 1241,165 1234,158 1234,157 1233,156 1233,152 1232,151 1232,150 1231,149 1231,144 1233,142 1233,140 1238,135 1239,135 1241,133 1242,133 1244,131 1245,131 1248,128 1249,128 1250,127 1252,127 1253,126 1254,126 1255,125 1256,125 1257,124 1258,124 1259,123 1261,123 1262,122 1264,122 1265,121 1267,121 1268,120 1272,120 1273,119 1276,119 1277,120 1279,120 1280,121 1281,121 1282,122 1283,122 1284,123 1293,123 1294,122 1298,122 1299,121 1301,121 1302,120 1303,120 1304,119 1305,119 1307,117 1308,117 1309,116 1310,116 1311,115 1312,115 1313,114 1316,114 1317,113 1339,113 1340,114 1344,114 1345,115 1347,115 1348,116 1349,116 1350,117 1351,117 1352,118 1353,118 1355,120 1356,120 1357,121 1358,121 1360,123 1361,123 1363,125 1364,125 1365,126 1366,126 1369,129 1370,129 1384,143 1384,144 1386,146 1386,147 1387,148 1387,149 1388,150 1388,151 1389,152 1389,153 1390,154 1390,157 1391,158 1391,165 1390,166 1390,169 1389,170 1389,173 1388,174 1388,177 1387,178 1387,179 1386,180 1386,181 1385,182 1385,185 1384,186 1384,190 1385,191 1385,193 1387,195 1388,195 1389,196 1389,202 1388,203 1388,209 1387,210 1387,213 1388,214 1388,219 1387,220 1387,223 1386,224 1386,226 1385,227 1385,230 1384,231 1384,239 1385,240 1385,248 1386,249 1386,255 1387,256 1387,257 1388,258 1388,259 1389,260 1389,262 1390,263 1390,265 1391,266 1391,270 1392,271 1392,274 1393,275 1393,278 1394,279 1394,281 1395,282 1395,284 1396,285 1396,287 1398,289 1398,290 1399,291 1399,292 1400,293 1400,294 1404,298 1404,299 1408,303 1409,303 1410,302 1413,302 1414,301 1415,301 1416,300 1416,299 1418,297 1418,296 1423,291 1427,291 1428,290 1429,290 1430,289 1431,290 1432,290 1434,292 1435,292 1437,294 1438,294 1439,293 1439,292 1440,291 1440,290 1442,288 1446,288 1447,287 1449,287 1451,285 1462,285 1463,286 1465,286 1466,287 1468,287 1468,286 1475,279 1477,279 1478,280 1480,280 1481,281 1482,281 1484,283 1484,284 1486,286 1486,288 1487,289 1487,290 1488,291 1488,292 1490,294 1490,295 1491,296 1491,299 1490,300 1490,301 1491,302 1491,303 1495,307 1496,307 1498,309 1494,313 1493,313 1492,314 1490,314 1489,315 1483,315 1482,316 1481,316 1481,317 1480,318 1480,319 1479,320 1479,323 1480,324 1482,324 1483,325 1484,325 1486,327 1487,327 1490,330 1491,329 1494,329 1495,328 1497,328 1498,327 1499,328 1505,328 1508,325 1516,325 1517,326 1518,326 1519,327 1521,327 1523,329 1524,329 1527,332 1527,333 1528,334 1528,339 1531,342 1531,343 1533,345 1534,345 1535,346 1535,347 1536,347 1537,348 1538,348 1539,349 1540,349 1541,350 1542,350 1548,356 1549,356 1550,357 1551,356 1552,356 1553,355 1555,355 1556,354 1558,354 1561,357 1562,357 1563,358 1566,358 1570,354 1571,354 1572,353 1573,353 1574,354 1574,355 1580,361 1581,361 1582,362 1584,362 1585,363 1591,363 1592,364 1597,364 1598,365 1604,365 1606,363 1607,363 1608,362 1609,362 1610,361 1612,361 1613,362 1616,362 1617,361 1621,365 1621,366 1631,376 1631,377 1633,379 1633,380 1639,386 1639,387 1640,388 1640,389 1641,390 1641,392 1642,393 1642,396 1643,397 1643,400 1644,401 1644,403 1645,404 1645,410 1644,411 1644,414 1643,415 1643,416 1642,417 1642,418 1637,423 1636,423 1634,425 1633,425 1632,426 1627,426 1626,427 1619,427 1618,428 1617,428 1616,429 1615,429 1614,430 1612,430 1611,431 1610,431 1609,432 1607,432 1606,433 1604,433 1603,434 1600,434 1599,435 1596,435 1595,436 1594,436 1593,437 1590,437 1589,438 1586,438 1585,439 1583,439 1582,440 1581,440 1580,441 1578,441 1577,442 1574,442 1573,443 1571,443 1570,444 1569,444 1568,445 1565,445 1564,446 1562,446 1561,447 1559,447 1558,448 1532,448 1531,449 1529,449 1528,450 1526,450 1524,452 1523,452 1521,454 1520,454 1519,455 1519,456 1516,459 1516,460 1515,461 1515,463 1514,464 1514,465 1513,466 1513,468 1512,469 1512,472 1511,473 1511,479 1510,480 1510,483 1509,484 1509,485 1508,486 1508,488 1507,489 1507,495 1506,496 1506,498 1505,499 1505,500 1504,501 1504,503 1503,504 1503,508 1502,509 1502,510 1501,511 1501,512 1500,513 1500,516 1499,517 1499,520 1498,521 1498,522 1497,523 1497,524 1496,525 1496,529 1495,530 1495,531 1493,533 1493,535 1492,536 1492,540 1491,541 1491,542 1490,543 1490,544 1489,545 1489,547 1488,548 1488,551 1486,553 1486,554 1485,555 1485,558 1484,559 1484,561 1482,563 1482,565 1481,566 1481,569 1480,570 1480,572 1479,573 1479,574 1478,575 1478,578 1477,579 1477,583 1475,585 1475,587 1474,588 1474,641 1473,642 1473,644 1472,645 1472,646 1470,648 1470,649 1469,650 1469,651 1466,654 1466,656 1465,657 1465,658 1463,660 1463,661 1462,662 1462,663 1461,664 1461,665 1459,667 1459,668 1458,669 1458,671 1457,672 1457,674 1456,675 1456,676 1455,677 1455,679 1454,680 1454,684 1453,685 1453,703 1454,704 1454,740 1453,741 1453,764 1452,765 1452,772 1451,773 1451,802 1450,803 1450,817 1449,818 1449,825 1448,826 1448,839 1447,840 1447,871 1446,872 1446,875 1445,876 1445,879 1444,880 1444,890 1443,891 1443,901 1442,902 1442,904 1441,905 1441,908 1440,909 1440,919 1439,920 1439,927 1438,928 1438,930 1437,931 1437,935 1436,936 1436,950 1435,951 1435,955 1434,956 1434,958 1433,959 1433,967 1432,968 1432,977 1431,978 1431,979 1430,980 1430,999 1431,1000 1431,1003 1432,1004 1432,1013 1433,1014 1433,1019 1434,1020 1434,1022 1435,1023 1435,1026 1436,1027 1436,1029 1437,1030 1437,1031 1438,1032 1438,1033 1439,1034 1439,1036 1440,1037 1440,1039 1441,1040 1441,1042 1442,1043 1442,1045 1443,1046 1443,1050 1444,1051 1444,1055 1445,1056 1445,1058 1446,1059 1446,1069 1447,1070 1446,1071 1446,1079 1919,1079 1919,0 Z" fill="black" stroke="none" /></svg>