<?xml version="1.0" encoding="utf-8" ?>
<svg baseProfile="tiny" height="1080px" version="1.2" viewBox="0,0,1920,1080" width="1920px" xmlns="http://www.w3.org/2000/svg" xmlns:ev="http://www.w3.org/2001/xml-events" xmlns:xlink="http://www.w3.org/1999/xlink"><defs /><path d="M646,1074 645,1075 640,1075 639,1076 635,1076 634,1077 599,1077 598,1078 596,1078 596,1079 682,1079 682,1078 676,1078 675,1077 662,1077 661,1076 655,1076 654,1075 649,1075 648,1074 Z" fill="black" stroke="none" /><path d="M650,1055 649,1056 647,1056 647,1057 646,1058 646,1059 643,1062 643,1063 646,1066 650,1066 651,1065 652,1065 654,1063 655,1063 656,1062 655,1062 651,1058 651,1057 650,1056 Z" fill="black" stroke="none" /><path d="M609,1051 605,1055 605,1056 602,1059 601,1059 600,1060 597,1060 596,1061 594,1061 593,1062 593,1063 594,1063 595,1064 602,1064 603,1065 607,1065 608,1064 613,1064 614,1063 624,1063 625,1062 625,1061 624,1060 624,1056 625,1055 624,1054 624,1053 623,1054 621,1054 620,1055 619,1054 618,1054 616,1052 615,1052 614,1051 Z" fill="black" stroke="none" /><path d="M621,1039 620,1040 615,1040 614,1041 614,1043 615,1044 625,1044 626,1043 626,1042 628,1040 626,1040 625,1039 Z" fill="black" stroke="none" /><path d="M646,1037 646,1038 645,1039 645,1041 646,1042 646,1043 650,1043 650,1042 651,1041 651,1039 650,1038 649,1038 648,1037 Z" fill="black" stroke="none" /><path d="M590,986 589,987 593,987 592,987 591,986 Z" fill="black" stroke="none" /><path d="M0,0 0,1079 551,1079 551,1078 549,1076 549,1075 548,1074 548,1071 547,1070 547,1043 548,1042 548,1041 549,1040 549,1039 550,1038 550,1036 551,1035 551,1033 552,1032 552,1031 553,1030 553,1029 554,1028 554,1025 555,1024 555,1021 556,1020 556,1007 555,1006 555,995 557,993 557,992 560,989 560,988 563,985 564,985 568,981 569,981 571,979 571,978 572,977 572,973 575,970 576,970 578,968 578,965 577,965 576,964 574,964 572,962 574,960 586,960 595,951 596,951 598,949 604,955 604,958 602,960 602,961 601,962 601,963 600,964 600,965 601,966 602,966 604,968 605,968 606,969 607,969 608,970 611,970 612,969 613,969 620,962 621,962 622,961 623,961 624,960 625,961 627,961 628,962 630,962 631,963 635,963 636,964 638,964 639,965 644,965 645,964 655,964 656,965 658,965 661,968 664,968 668,972 665,975 664,975 663,976 662,976 661,977 660,977 658,979 650,979 649,978 645,978 644,977 643,977 642,976 630,976 629,977 626,977 625,978 612,978 611,979 610,979 608,981 607,981 606,982 604,982 603,983 597,983 596,984 595,984 595,987 596,988 601,988 602,989 603,989 604,990 609,990 610,989 612,989 613,988 623,988 624,989 627,989 628,990 630,990 631,991 630,992 629,992 628,993 623,993 622,994 610,994 609,993 605,993 604,994 604,995 602,997 602,998 601,999 606,1004 607,1004 608,1005 611,1005 612,1006 615,1006 616,1007 620,1007 621,1006 629,1006 630,1005 644,1005 645,1006 650,1006 651,1005 665,1005 666,1004 669,1004 670,1005 675,1005 676,1006 678,1006 679,1007 681,1007 682,1008 683,1008 684,1009 686,1009 687,1010 689,1010 690,1011 692,1011 697,1016 698,1016 700,1018 700,1020 701,1021 701,1023 702,1024 702,1025 703,1025 708,1030 715,1030 716,1029 720,1029 721,1028 722,1028 723,1029 725,1029 726,1030 727,1030 728,1031 729,1031 731,1033 731,1035 732,1036 732,1037 735,1040 735,1041 731,1045 729,1045 728,1046 722,1046 720,1044 720,1043 719,1042 719,1040 715,1036 713,1036 712,1035 708,1035 707,1036 706,1036 706,1037 700,1043 700,1044 699,1045 698,1045 696,1047 697,1048 700,1048 701,1049 702,1049 703,1050 705,1050 706,1051 709,1051 710,1052 718,1052 719,1051 720,1051 721,1050 726,1050 727,1051 729,1051 730,1052 732,1052 733,1053 736,1053 737,1054 738,1054 740,1056 741,1056 742,1057 743,1057 744,1058 745,1058 746,1059 746,1062 745,1063 744,1063 743,1064 738,1064 737,1065 734,1065 733,1066 732,1066 730,1068 729,1068 727,1070 727,1071 723,1075 720,1075 719,1076 716,1076 715,1077 711,1077 710,1078 706,1078 706,1079 1916,1079 1916,1078 1918,1076 1919,1076 1919,0 Z" fill="black" stroke="none" /></svg>