<?xml version="1.0" encoding="utf-8" ?>
<svg baseProfile="tiny" height="1080px" version="1.2" viewBox="0,0,1920,1080" width="1920px" xmlns="http://www.w3.org/2000/svg" xmlns:ev="http://www.w3.org/2001/xml-events" xmlns:xlink="http://www.w3.org/1999/xlink"><defs /><path d="M976,865 975,866 973,866 972,867 964,867 963,868 960,868 959,869 958,869 956,871 956,872 953,875 953,876 951,878 951,879 948,882 948,883 946,885 946,886 944,888 944,889 942,891 942,892 939,895 939,896 937,898 937,899 935,901 935,902 933,904 933,905 930,908 930,909 926,913 926,914 925,915 925,916 922,919 922,920 918,924 918,925 914,929 914,930 910,934 910,935 904,941 904,942 900,946 900,947 897,950 897,951 895,953 895,954 889,960 889,961 881,969 881,970 880,971 879,971 878,972 878,973 874,977 874,978 873,979 873,980 872,981 872,982 870,984 870,987 869,988 869,989 868,990 868,991 867,992 867,993 866,994 866,996 865,997 865,998 863,1000 863,1001 862,1002 862,1004 861,1005 861,1006 859,1008 859,1009 858,1010 858,1011 855,1014 855,1015 853,1017 853,1018 850,1021 850,1022 847,1025 847,1026 846,1027 846,1028 844,1030 844,1031 843,1032 843,1033 840,1036 840,1037 838,1039 837,1039 834,1042 833,1042 829,1046 828,1046 827,1047 825,1047 823,1049 822,1049 818,1053 818,1054 817,1055 817,1059 811,1065 810,1065 809,1066 808,1066 808,1073 809,1074 808,1075 808,1079 1004,1079 1004,1076 1005,1075 1005,1069 1006,1068 1006,1066 1007,1065 1007,1062 1008,1061 1008,1057 1009,1056 1009,1055 1010,1054 1010,1053 1011,1052 1011,1049 1012,1048 1012,1046 1013,1045 1013,1044 1014,1043 1014,1042 1015,1041 1015,1039 1016,1038 1016,1036 1017,1035 1017,1034 1018,1033 1018,1031 1019,1030 1019,1026 1020,1025 1020,1022 1021,1021 1021,1019 1022,1018 1022,1005 1021,1004 1021,1002 1020,1001 1020,997 1019,996 1019,991 1018,990 1018,987 1017,986 1017,984 1016,983 1016,979 1015,978 1015,975 1014,974 1014,972 1013,971 1013,968 1012,967 1012,961 1011,960 1011,957 1010,956 1010,953 1009,952 1009,947 1008,946 1008,940 1007,939 1007,935 1006,934 1006,932 1005,931 1005,927 1004,926 1004,920 1003,919 1003,917 1002,916 1002,915 1001,914 1001,911 1000,910 1000,906 999,905 999,904 998,903 998,902 997,901 997,899 996,898 996,895 995,894 995,893 994,892 994,891 993,890 993,888 992,887 992,885 991,884 991,883 990,882 990,881 989,880 989,877 988,876 988,875 985,872 985,870 980,865 Z" fill="black" stroke="none" /><path d="M980,674 980,681 981,680 981,674 Z" fill="black" stroke="none" /><path d="M1111,598 1109,600 1107,600 1106,601 1105,601 1104,602 1104,604 1103,605 1103,612 1104,613 1104,615 1105,615 1106,616 1113,616 1114,617 1117,617 1118,616 1119,616 1119,613 1120,612 1119,611 1115,611 1112,608 1112,598 Z" fill="black" stroke="none" /><path d="M969,460 968,461 967,461 966,462 965,462 965,463 961,467 961,469 960,470 960,473 957,476 957,478 956,479 956,482 955,483 955,484 954,485 954,486 953,487 953,491 952,492 952,496 950,498 950,499 949,500 949,506 948,507 948,510 947,511 947,512 946,513 946,515 945,516 945,526 944,527 944,530 943,531 943,532 942,533 942,538 941,539 941,546 940,547 940,548 939,549 939,551 938,552 938,572 937,573 937,586 938,587 938,591 937,592 937,593 936,594 936,595 937,596 937,597 939,597 939,587 940,586 940,585 942,583 944,583 945,582 948,582 949,581 950,581 950,580 951,579 951,576 952,575 952,574 953,573 953,572 954,571 954,569 955,568 955,564 956,563 956,561 957,560 957,558 958,557 958,554 959,553 959,549 960,548 960,547 961,546 961,545 962,544 962,539 963,538 963,533 964,532 964,530 965,529 965,527 966,526 966,514 967,513 967,504 968,503 968,501 969,500 969,497 970,496 970,464 969,463 Z" fill="black" stroke="none" /><path d="M0,0 0,181 1,181 2,182 2,185 3,186 3,209 2,210 2,216 1,217 0,217 0,1079 717,1079 717,1077 716,1076 716,1073 715,1072 715,1068 716,1067 716,1034 717,1033 717,1028 718,1027 718,1019 719,1018 719,1000 720,999 720,992 721,991 721,988 722,987 722,984 723,983 723,979 724,978 724,976 725,975 725,974 726,973 726,971 727,970 727,969 728,968 728,967 730,965 730,964 731,963 731,961 734,958 734,956 735,955 735,954 737,952 737,951 738,950 738,948 739,947 739,946 741,944 741,943 742,942 742,941 744,939 744,938 745,937 745,936 746,935 746,934 749,931 749,930 750,929 750,928 752,926 752,925 754,923 754,922 756,920 756,919 757,918 757,917 758,916 758,915 759,914 759,913 760,912 760,911 761,910 761,909 762,908 762,907 763,906 763,904 764,903 764,902 765,901 765,899 766,898 766,897 767,896 767,894 770,891 770,890 772,888 772,887 774,885 774,884 775,883 775,881 776,880 776,878 777,877 777,876 778,875 778,873 779,872 779,864 780,863 780,860 781,859 781,857 782,856 782,854 783,853 783,849 784,848 784,846 785,845 785,844 786,843 786,840 787,839 787,836 788,835 788,834 790,832 790,831 791,830 791,829 793,827 793,826 794,825 794,824 795,823 795,822 798,819 798,818 801,815 801,814 803,812 803,811 806,808 806,807 809,804 809,803 810,802 810,801 814,797 814,796 817,793 817,792 820,789 820,788 825,783 825,782 835,772 835,771 836,770 836,769 838,767 838,766 839,765 839,763 841,761 841,760 842,759 842,758 843,757 843,755 844,754 844,753 845,752 845,751 846,750 846,748 847,747 847,745 848,744 848,743 849,742 849,741 850,740 850,737 851,736 851,728 852,727 852,724 853,723 853,721 854,720 854,718 855,717 855,715 856,714 856,713 857,712 857,711 858,710 858,709 859,708 859,707 860,706 860,705 862,703 862,702 866,698 866,697 871,692 872,692 878,686 879,686 883,682 884,682 885,681 886,681 894,673 894,671 895,670 895,667 896,666 896,662 897,661 897,654 896,653 896,650 895,649 895,648 894,647 894,646 891,643 891,642 890,641 890,640 889,639 889,636 890,635 890,630 891,629 891,625 892,624 892,620 893,619 893,618 894,617 894,605 893,604 893,600 892,599 892,589 893,588 893,585 894,584 894,583 895,582 895,575 896,574 896,571 897,570 897,569 898,568 898,566 899,565 899,559 900,558 900,556 901,555 901,554 902,553 902,552 903,551 903,545 904,544 904,543 905,542 905,541 906,540 906,537 907,536 907,531 908,530 908,529 910,527 910,523 911,522 911,520 912,519 912,518 913,517 913,516 914,515 914,511 915,510 915,509 916,508 916,507 917,506 917,505 918,504 918,501 919,500 919,499 920,498 920,497 921,496 921,494 922,493 922,490 923,489 923,488 925,486 925,484 926,483 926,480 927,479 927,478 928,477 928,476 929,475 929,472 930,471 930,470 931,469 931,468 932,467 932,466 933,465 933,461 934,460 934,459 936,457 936,455 937,454 937,451 938,450 938,449 939,448 939,447 940,446 940,445 941,444 941,442 943,440 943,439 944,438 944,436 945,435 945,433 947,431 947,429 948,428 948,426 949,425 949,424 950,423 950,422 951,421 951,417 952,416 952,412 953,411 953,408 954,407 954,393 953,392 953,388 952,387 952,386 945,379 944,379 941,376 940,376 939,375 938,375 935,372 934,372 932,370 931,370 930,369 930,368 929,368 925,364 924,364 920,360 919,360 914,355 913,355 909,351 908,351 907,350 907,349 899,341 899,340 898,340 897,339 897,337 895,335 895,334 893,332 893,331 891,329 891,328 890,327 890,326 889,325 889,324 885,320 885,319 884,318 884,316 883,315 883,302 884,301 884,297 885,296 885,294 888,291 889,291 890,290 892,290 893,291 896,291 897,292 898,292 899,293 900,293 901,294 901,299 900,300 900,302 901,303 901,304 902,305 904,303 904,301 902,299 902,298 901,297 902,296 902,293 904,291 904,287 905,286 905,280 906,279 905,278 905,273 906,272 906,271 909,268 917,268 918,269 922,269 923,270 925,270 927,272 927,274 928,275 928,276 928,275 930,273 931,273 934,270 935,270 936,269 937,269 939,267 939,265 940,264 940,262 941,261 941,260 944,257 945,257 946,256 955,256 957,258 958,258 959,257 961,257 963,255 964,255 965,254 973,254 974,253 977,253 978,252 979,252 982,249 983,249 983,248 985,246 986,246 987,245 988,245 988,244 989,243 990,243 991,242 994,242 995,241 1002,241 1003,242 1013,242 1014,243 1018,243 1019,244 1021,244 1022,245 1023,245 1024,246 1026,246 1027,247 1029,247 1031,249 1033,249 1034,250 1045,250 1046,249 1048,249 1051,246 1055,246 1059,242 1059,233 1058,232 1058,226 1056,226 1055,225 1053,225 1052,224 1050,224 1049,223 1048,223 1044,219 1044,215 1042,213 1042,212 1041,211 1041,210 1040,209 1040,208 1039,207 1039,206 1037,204 1037,203 1028,194 1027,194 1023,190 1023,189 1020,186 1020,185 1019,184 1019,183 1017,181 1017,179 1016,178 1016,175 1013,172 1011,172 1010,171 1009,171 1008,170 1007,170 1006,169 1002,169 1001,170 999,170 998,171 996,171 995,172 993,172 992,173 991,173 990,174 989,174 988,175 987,175 986,176 984,176 983,177 979,177 977,175 977,174 975,172 974,172 972,170 971,170 970,169 967,169 966,168 962,168 961,167 960,167 959,166 959,155 958,154 958,153 955,153 953,155 953,166 952,167 946,167 945,166 945,165 943,163 943,162 941,160 941,157 943,155 943,152 942,151 939,151 938,152 938,154 936,156 935,156 934,157 930,157 929,156 926,156 925,157 923,157 922,158 922,159 921,160 921,163 920,164 920,166 919,167 914,167 913,168 912,167 908,167 907,166 905,166 904,165 903,165 902,164 901,164 897,160 897,158 898,157 898,156 899,155 899,154 900,153 900,151 902,149 902,148 903,147 903,146 904,145 904,144 907,141 907,140 909,138 910,138 913,135 914,135 915,134 916,134 918,132 919,132 920,131 921,131 922,130 923,130 923,129 924,128 925,128 927,126 928,126 929,125 930,125 931,124 932,124 933,125 936,125 937,124 938,124 940,122 940,120 941,119 941,117 942,116 942,115 945,112 945,111 947,109 947,108 949,106 949,105 953,101 953,100 955,98 956,98 957,97 958,97 959,96 960,96 964,92 964,91 966,89 967,89 967,88 972,83 972,82 975,79 976,79 980,75 980,74 981,73 981,72 983,70 983,69 984,68 985,68 987,66 992,66 994,68 995,68 997,70 998,70 999,71 1001,71 1002,72 1004,72 1005,71 1006,71 1007,72 1008,72 1009,73 1010,73 1011,74 1011,75 1012,76 1012,77 1010,79 1009,79 1005,83 1003,83 1001,81 1000,81 999,80 997,80 996,81 995,81 995,82 994,83 992,83 990,85 989,85 988,86 987,86 986,87 986,92 987,93 988,93 990,95 996,95 997,94 998,94 999,93 1000,93 1001,92 1004,92 1007,95 1006,96 1005,96 1003,98 1003,99 1004,99 1006,101 1007,101 1008,102 1010,102 1011,103 1015,103 1016,102 1017,102 1018,101 1019,101 1021,99 1022,99 1022,98 1024,96 1025,96 1025,95 1029,91 1029,90 1030,89 1030,88 1033,85 1033,84 1039,78 1040,78 1044,74 1045,74 1048,71 1049,71 1051,69 1052,69 1054,67 1056,67 1057,66 1079,66 1080,65 1081,65 1084,62 1085,62 1086,61 1087,61 1088,60 1090,60 1091,59 1094,59 1095,58 1099,58 1100,59 1105,59 1106,60 1110,60 1111,61 1119,61 1120,62 1121,62 1122,63 1123,63 1124,64 1126,64 1128,66 1129,66 1130,67 1131,67 1132,68 1133,68 1135,70 1136,70 1137,71 1139,71 1141,73 1142,73 1143,74 1144,74 1145,75 1146,75 1153,82 1154,82 1156,84 1157,84 1158,85 1160,85 1161,86 1162,86 1164,88 1165,88 1166,89 1167,89 1168,90 1169,90 1170,91 1171,91 1172,92 1173,92 1174,93 1175,93 1176,94 1177,94 1184,101 1184,102 1185,103 1185,104 1186,105 1186,108 1187,109 1187,115 1188,116 1188,124 1189,125 1189,134 1190,135 1190,139 1191,140 1191,144 1192,145 1192,155 1191,156 1191,160 1190,161 1190,162 1189,163 1189,166 1188,167 1188,172 1187,173 1187,175 1186,176 1186,177 1185,178 1185,180 1184,181 1184,183 1183,184 1183,185 1182,186 1182,187 1181,188 1181,189 1180,190 1180,191 1179,192 1179,193 1178,194 1178,196 1177,197 1177,199 1176,200 1176,201 1175,202 1175,204 1174,205 1174,225 1175,226 1175,227 1177,229 1177,230 1182,235 1183,235 1185,237 1185,238 1186,239 1186,240 1187,241 1187,246 1186,247 1186,270 1187,271 1187,272 1188,273 1188,274 1189,275 1189,279 1190,280 1190,281 1196,287 1197,287 1202,292 1203,292 1206,295 1208,295 1209,296 1210,296 1213,299 1214,299 1217,302 1218,302 1222,306 1222,307 1223,308 1223,309 1232,318 1234,318 1236,320 1237,320 1238,321 1239,321 1241,323 1242,323 1247,328 1248,328 1249,329 1250,329 1251,330 1252,330 1255,333 1256,333 1257,334 1258,334 1259,335 1259,336 1260,336 1267,343 1267,344 1270,347 1270,348 1271,349 1271,350 1272,351 1272,352 1274,354 1274,355 1275,356 1275,357 1276,358 1276,359 1278,361 1278,363 1279,364 1279,365 1280,366 1280,367 1281,368 1281,369 1282,370 1282,371 1283,372 1283,373 1284,374 1284,375 1285,376 1285,377 1286,378 1286,380 1287,381 1287,382 1289,384 1289,386 1290,387 1290,389 1291,390 1291,391 1292,392 1292,394 1293,395 1293,401 1294,402 1294,410 1295,411 1295,414 1296,415 1296,419 1297,420 1297,441 1298,442 1298,470 1299,471 1299,489 1300,490 1300,512 1299,513 1299,522 1298,523 1298,530 1297,531 1297,538 1296,539 1296,545 1295,546 1295,547 1294,548 1294,549 1293,550 1293,552 1292,553 1292,561 1293,562 1293,601 1292,602 1292,607 1291,608 1291,614 1290,615 1290,622 1289,623 1289,628 1287,630 1287,631 1286,632 1286,633 1285,634 1285,635 1283,637 1283,638 1282,639 1282,640 1281,641 1281,642 1279,644 1279,645 1278,646 1278,647 1277,648 1277,649 1274,652 1274,653 1272,655 1271,655 1270,656 1269,656 1268,657 1267,657 1265,659 1263,659 1262,660 1260,660 1259,661 1258,661 1257,662 1256,662 1255,663 1253,663 1252,664 1250,664 1249,665 1248,665 1247,666 1246,666 1245,667 1243,667 1242,668 1240,668 1238,670 1236,670 1235,671 1233,671 1232,672 1230,672 1228,674 1226,674 1225,675 1223,675 1222,676 1220,676 1218,678 1216,678 1215,679 1212,679 1211,680 1210,680 1209,681 1208,681 1207,682 1205,682 1204,683 1203,683 1202,684 1201,684 1200,685 1198,685 1197,686 1195,686 1194,687 1192,687 1190,689 1188,689 1187,690 1185,690 1184,691 1183,691 1182,692 1181,692 1180,693 1178,693 1177,694 1176,694 1175,695 1174,695 1172,697 1170,697 1169,698 1167,698 1166,699 1165,699 1162,702 1161,702 1161,703 1157,707 1157,708 1155,710 1155,711 1154,712 1154,717 1153,718 1154,719 1154,762 1155,763 1155,800 1156,801 1156,814 1157,815 1157,856 1156,857 1156,870 1155,871 1155,890 1154,891 1154,902 1153,903 1153,910 1152,911 1152,964 1151,965 1151,1018 1150,1019 1150,1025 1149,1026 1149,1028 1148,1029 1148,1033 1147,1034 1147,1043 1146,1044 1146,1046 1145,1047 1145,1049 1144,1050 1144,1053 1143,1054 1143,1059 1142,1060 1142,1062 1141,1063 1141,1065 1140,1066 1140,1072 1139,1073 1139,1079 1919,1079 1919,0 Z" fill="black" stroke="none" /></svg>