<?xml version="1.0" encoding="utf-8" ?>
<svg baseProfile="tiny" height="1080px" version="1.2" viewBox="0,0,1920,1080" width="1920px" xmlns="http://www.w3.org/2000/svg" xmlns:ev="http://www.w3.org/2001/xml-events" xmlns:xlink="http://www.w3.org/1999/xlink"><defs /><path d="M1284,1044 1284,1048 1288,1048 1286,1046 1285,1046 1284,1045 Z" fill="black" stroke="none" /><path d="M1261,921 1260,922 1258,922 1257,923 1254,923 1253,924 1251,924 1251,925 1254,928 1254,929 1255,930 1255,935 1257,937 1258,937 1259,936 1260,936 1261,935 1261,934 1262,933 1262,932 1263,931 1263,929 1264,928 1263,927 1263,923 1262,922 1262,921 Z" fill="black" stroke="none" /><path d="M1340,898 1339,899 1338,899 1336,901 1336,902 1334,904 1334,905 1332,907 1331,907 1329,909 1329,912 1328,913 1328,917 1327,918 1327,920 1328,921 1331,921 1332,922 1333,921 1334,921 1336,919 1342,919 1343,918 1345,918 1347,916 1348,916 1351,913 1352,913 1352,911 1351,910 1351,909 1350,909 1347,906 1346,906 1345,905 1345,904 1344,903 1344,902 Z" fill="black" stroke="none" /><path d="M1261,892 1260,893 1259,893 1258,894 1258,898 1259,898 1260,899 1261,899 1264,902 1264,903 1266,905 1265,906 1254,906 1253,907 1252,907 1250,909 1249,909 1250,909 1252,911 1252,912 1253,912 1254,913 1255,913 1257,915 1258,915 1260,917 1260,918 1261,919 1267,919 1268,918 1270,918 1271,919 1273,919 1274,920 1274,924 1272,926 1271,926 1270,927 1270,928 1269,929 1268,929 1268,935 1269,936 1270,936 1271,937 1272,937 1276,941 1277,941 1279,943 1278,944 1277,944 1273,948 1271,948 1270,947 1267,947 1266,948 1263,948 1262,947 1260,947 1259,946 1258,946 1257,945 1254,945 1253,946 1250,946 1246,950 1247,951 1247,952 1249,954 1249,958 1250,958 1251,959 1253,959 1254,960 1262,960 1263,959 1264,959 1265,958 1266,959 1268,959 1269,960 1273,960 1276,963 1276,964 1278,966 1278,967 1280,969 1280,970 1281,970 1282,969 1287,969 1288,968 1290,968 1291,967 1293,967 1294,966 1295,966 1296,965 1296,964 1295,963 1295,962 1292,962 1289,959 1289,957 1291,955 1295,955 1296,954 1297,954 1298,953 1299,953 1300,952 1303,952 1306,955 1307,955 1308,956 1309,956 1310,957 1311,957 1312,956 1314,956 1316,958 1316,959 1317,960 1317,961 1318,962 1320,962 1321,961 1322,961 1324,959 1325,959 1326,958 1330,958 1331,959 1333,959 1335,957 1335,953 1334,952 1334,951 1333,950 1332,950 1329,953 1325,953 1324,952 1324,951 1323,950 1323,949 1322,948 1322,946 1321,945 1321,944 1320,944 1319,943 1322,940 1322,937 1323,936 1323,929 1322,928 1322,927 1321,926 1320,926 1319,925 1315,925 1314,926 1313,925 1313,920 1314,919 1317,919 1319,917 1319,916 1320,915 1320,911 1319,910 1319,909 1318,908 1315,908 1314,907 1313,908 1304,908 1303,909 1298,904 1298,901 1297,900 1297,898 1296,897 1295,897 1294,896 1291,896 1290,895 1284,895 1283,896 1279,896 1278,895 1269,895 1268,894 1264,894 1263,893 1262,893 Z" fill="black" stroke="none" /><path d="M1269,831 1269,837 1269,836 1270,835 1270,832 Z" fill="black" stroke="none" /><path d="M0,0 0,1079 1276,1079 1276,1078 1275,1077 1275,1076 1274,1075 1273,1075 1272,1074 1272,1073 1269,1070 1270,1069 1270,1061 1271,1060 1271,1054 1272,1053 1272,1052 1276,1048 1276,1047 1277,1046 1277,1040 1275,1038 1275,1034 1274,1033 1274,1031 1275,1030 1275,1029 1274,1028 1274,1026 1273,1025 1273,1023 1272,1022 1272,1013 1273,1012 1273,1011 1274,1010 1274,1005 1273,1004 1273,1002 1270,999 1268,999 1267,998 1242,998 1241,997 1238,997 1237,996 1234,996 1233,995 1229,995 1228,996 1227,995 1223,995 1222,994 1206,994 1205,995 1192,995 1191,996 1186,996 1185,997 1175,997 1174,996 1162,996 1161,995 1155,995 1154,994 1124,994 1123,995 1068,995 1067,994 1053,994 1052,995 1049,995 1048,996 1033,996 1032,995 1025,995 1024,996 978,996 977,997 913,997 912,998 903,998 902,997 854,997 853,996 808,996 807,995 793,995 792,996 781,996 780,995 723,995 722,994 716,994 715,993 709,993 708,994 699,994 698,993 695,993 694,992 693,992 692,991 693,990 694,990 695,989 696,989 697,988 697,985 698,984 694,980 694,972 699,967 704,967 705,968 714,968 716,966 716,965 717,964 717,961 718,960 718,957 719,956 719,952 718,951 718,950 717,950 716,949 715,949 714,948 712,948 711,947 708,947 707,946 704,946 703,945 702,945 700,943 701,942 702,942 703,941 707,941 708,940 710,940 711,939 712,939 713,938 714,938 715,937 716,937 717,936 718,936 719,935 720,935 720,930 721,929 721,927 722,926 722,923 724,921 724,919 725,918 725,917 726,916 725,915 725,912 729,908 731,908 732,907 733,907 734,906 736,906 737,905 739,905 735,901 733,901 732,900 729,900 728,899 724,899 723,898 699,898 698,897 685,897 684,896 680,896 675,891 675,866 676,865 676,854 677,853 677,843 678,842 678,735 679,734 679,729 680,728 680,726 681,725 681,720 682,719 682,714 683,713 683,711 685,709 685,707 686,706 686,705 689,702 689,701 690,700 690,699 691,698 692,698 697,693 698,693 699,692 700,692 703,689 704,689 704,688 710,682 711,682 713,680 714,680 716,678 718,678 719,677 720,677 722,675 723,675 724,674 727,674 728,673 729,673 732,670 733,670 736,667 737,667 739,665 740,665 742,663 743,663 747,659 748,659 749,658 750,658 753,655 754,655 757,652 758,652 759,651 760,651 763,648 764,648 767,645 768,645 769,644 770,644 773,641 774,641 775,640 776,640 778,638 779,638 780,637 781,637 785,633 787,633 788,632 789,632 792,629 794,629 795,628 796,628 798,626 799,626 800,625 801,625 804,622 806,622 807,621 808,621 809,620 810,620 812,618 814,618 815,617 816,617 819,614 822,614 825,611 826,611 827,610 830,610 833,607 834,607 835,606 838,606 841,603 844,603 845,602 846,602 848,600 849,600 850,599 853,599 854,598 855,598 857,596 859,596 860,595 862,595 863,594 864,594 865,593 866,593 867,592 868,592 869,591 871,591 872,590 873,590 875,588 877,588 878,587 879,587 881,585 882,585 883,584 885,584 886,583 887,583 889,581 890,581 891,580 893,580 894,579 895,579 897,577 899,577 900,576 902,576 904,574 905,574 906,573 908,573 909,572 910,572 912,570 913,570 914,569 917,569 918,568 919,568 920,567 921,567 922,566 923,566 924,565 928,565 929,564 930,564 931,563 932,563 933,562 935,562 936,561 940,561 941,560 942,560 943,559 945,559 946,558 949,558 950,557 951,557 953,555 954,555 956,553 957,553 958,552 958,551 960,549 960,547 962,545 962,543 963,542 963,540 964,539 964,538 966,536 966,535 967,534 967,532 968,531 968,530 970,528 970,526 971,525 971,523 973,521 973,520 974,519 974,517 975,516 975,515 976,514 976,513 978,511 978,509 980,507 980,506 982,504 982,503 983,502 983,501 984,500 984,499 985,498 985,486 984,485 984,484 983,483 983,482 982,481 982,478 981,477 981,475 980,474 980,473 978,471 978,470 975,467 975,466 971,462 970,462 969,461 965,461 964,460 961,460 959,458 958,458 952,452 952,451 950,449 950,448 949,447 949,446 948,445 948,444 947,443 947,441 946,440 946,439 945,438 945,436 944,435 944,431 943,430 943,429 942,428 942,427 941,426 941,424 940,423 940,421 939,420 939,419 938,418 938,416 937,415 937,412 936,411 936,407 935,406 935,404 934,403 934,399 933,398 933,390 932,389 932,387 931,386 931,385 930,384 930,383 929,382 929,380 928,379 928,378 927,377 927,376 926,375 926,373 925,372 925,370 924,369 924,368 923,367 923,366 922,365 922,362 921,361 921,358 919,356 919,355 918,354 918,352 917,351 917,350 916,349 916,348 915,347 915,346 914,345 914,344 913,343 913,342 912,341 912,340 911,339 911,338 910,337 910,335 909,334 909,333 908,332 908,331 906,329 906,327 905,326 905,324 903,322 903,321 902,320 902,319 901,318 901,317 900,316 900,315 899,314 899,313 898,312 898,310 897,309 897,308 896,307 896,306 894,304 894,302 893,301 893,292 894,291 894,287 895,286 895,283 896,282 896,277 897,276 897,273 898,272 898,269 899,268 899,265 900,264 900,262 901,261 901,258 902,257 902,255 903,254 903,252 904,251 904,249 907,246 907,245 910,242 910,241 912,239 913,239 915,237 915,236 916,235 917,235 917,234 919,232 920,232 924,228 925,228 929,224 930,224 932,222 933,222 938,217 939,217 948,208 949,208 953,204 954,204 956,202 957,202 958,201 959,201 966,194 967,194 967,193 969,191 970,191 972,189 972,188 975,185 975,184 980,179 981,179 988,172 989,172 991,170 992,170 995,167 996,167 996,166 997,165 998,165 1000,163 1001,163 1003,161 1004,161 1005,160 1006,160 1008,158 1009,158 1010,157 1011,157 1012,156 1013,156 1014,155 1015,155 1017,153 1018,153 1019,152 1020,152 1021,151 1022,151 1023,150 1024,150 1025,149 1027,149 1028,148 1030,148 1032,146 1035,146 1036,145 1038,145 1039,144 1041,144 1042,143 1045,143 1046,142 1052,142 1053,141 1063,141 1064,142 1068,142 1069,143 1070,143 1071,144 1072,144 1074,146 1075,146 1077,148 1078,148 1080,150 1081,150 1082,151 1083,151 1084,152 1085,152 1086,153 1088,153 1091,156 1091,157 1097,163 1099,163 1100,164 1103,164 1104,163 1105,163 1106,162 1107,162 1109,160 1110,160 1114,156 1115,156 1116,155 1117,155 1118,154 1120,154 1121,153 1124,153 1125,152 1127,152 1128,151 1131,151 1132,150 1139,150 1140,151 1141,151 1142,152 1143,152 1144,153 1145,153 1146,154 1147,154 1148,155 1149,155 1150,156 1153,156 1154,157 1158,157 1159,158 1160,158 1161,159 1162,159 1163,160 1165,160 1166,161 1168,161 1171,164 1172,164 1175,167 1176,167 1178,169 1179,169 1185,175 1186,175 1188,177 1189,177 1191,179 1192,179 1199,186 1200,186 1204,190 1205,190 1209,194 1210,194 1211,195 1212,195 1216,199 1217,199 1221,203 1222,203 1228,209 1229,209 1230,210 1231,210 1233,212 1233,213 1234,213 1241,220 1241,222 1244,225 1244,226 1245,226 1251,232 1252,232 1254,234 1255,234 1256,235 1257,235 1258,236 1260,236 1261,237 1263,237 1265,239 1267,239 1268,240 1269,240 1271,242 1270,243 1270,246 1271,247 1271,248 1272,249 1272,250 1273,251 1273,252 1274,253 1274,258 1275,259 1275,264 1276,265 1276,267 1279,270 1279,271 1280,272 1280,273 1281,274 1281,275 1282,276 1282,279 1283,280 1283,282 1284,283 1284,284 1285,285 1285,286 1286,287 1286,289 1287,290 1287,292 1288,293 1288,297 1289,298 1289,314 1288,315 1288,318 1287,319 1287,321 1286,322 1286,324 1285,325 1285,327 1284,328 1284,330 1283,331 1283,333 1282,334 1282,337 1281,338 1281,340 1280,341 1280,343 1279,344 1279,346 1278,347 1278,349 1277,350 1277,352 1276,353 1276,355 1275,356 1275,358 1274,359 1274,361 1272,363 1272,365 1271,366 1271,367 1270,368 1270,369 1269,370 1269,371 1268,372 1268,373 1267,374 1267,375 1266,376 1266,377 1264,379 1264,380 1262,382 1262,383 1259,386 1259,387 1256,390 1256,391 1254,393 1254,394 1253,395 1253,396 1252,397 1252,398 1251,399 1251,400 1250,401 1250,403 1249,404 1249,412 1248,413 1248,416 1247,417 1247,418 1246,419 1246,421 1245,422 1245,424 1244,425 1244,426 1242,428 1242,429 1241,430 1241,432 1239,434 1239,435 1238,436 1238,437 1237,438 1237,439 1236,440 1236,441 1234,443 1234,444 1233,445 1233,447 1230,450 1230,451 1229,452 1229,453 1224,458 1224,459 1221,462 1220,462 1213,469 1211,469 1210,470 1209,470 1208,471 1208,474 1207,475 1207,476 1202,481 1202,493 1203,494 1203,502 1204,503 1204,530 1205,531 1205,541 1206,542 1206,552 1207,553 1207,554 1208,555 1208,556 1212,560 1213,560 1214,561 1216,561 1217,562 1219,562 1220,563 1221,563 1223,565 1226,565 1227,566 1228,566 1231,569 1234,569 1235,570 1236,570 1239,573 1241,573 1242,574 1243,574 1245,576 1246,576 1247,577 1248,577 1250,579 1251,579 1252,580 1254,580 1257,583 1258,583 1259,584 1261,584 1262,585 1263,585 1265,587 1266,587 1267,588 1269,588 1272,591 1274,591 1275,592 1277,592 1279,594 1280,594 1281,595 1283,595 1284,596 1285,596 1287,598 1288,598 1289,599 1291,599 1292,600 1293,600 1294,601 1296,601 1297,602 1301,602 1302,603 1306,603 1307,604 1310,604 1312,606 1313,606 1314,607 1315,607 1316,608 1317,608 1319,610 1320,610 1324,614 1325,614 1326,615 1327,615 1328,616 1329,616 1330,617 1331,617 1332,618 1333,618 1335,620 1336,620 1337,621 1338,621 1339,622 1340,622 1341,623 1342,623 1343,624 1344,624 1345,625 1346,625 1347,626 1348,626 1350,628 1351,628 1352,629 1354,629 1355,630 1356,630 1358,632 1359,632 1360,633 1362,633 1363,634 1364,634 1366,636 1367,636 1368,637 1370,637 1372,639 1373,639 1374,640 1376,640 1377,641 1378,641 1380,643 1381,643 1382,644 1384,644 1385,645 1386,645 1389,648 1391,648 1392,649 1393,649 1396,652 1398,652 1401,655 1402,655 1406,659 1407,659 1415,667 1416,667 1418,669 1418,670 1422,674 1422,675 1423,675 1424,676 1424,677 1426,679 1426,680 1428,682 1428,683 1429,684 1429,685 1432,688 1432,689 1433,690 1433,691 1435,693 1435,694 1436,695 1436,697 1439,700 1439,702 1440,703 1440,704 1441,705 1441,706 1442,707 1442,708 1444,710 1444,711 1447,714 1447,717 1448,718 1448,719 1450,721 1450,723 1451,724 1451,725 1452,726 1452,727 1454,729 1454,731 1455,732 1455,734 1456,735 1456,737 1457,738 1457,739 1458,740 1458,741 1459,742 1459,743 1460,744 1460,745 1462,747 1462,751 1463,752 1463,760 1464,761 1464,763 1465,764 1465,768 1466,769 1466,840 1465,841 1465,846 1464,847 1464,852 1463,853 1463,878 1462,879 1462,886 1463,887 1463,891 1462,892 1462,897 1463,898 1463,899 1466,902 1466,903 1467,904 1467,907 1468,908 1468,911 1469,912 1469,914 1470,915 1470,917 1471,918 1471,919 1472,920 1472,922 1473,923 1473,930 1474,931 1474,940 1473,941 1473,946 1472,947 1472,949 1471,950 1471,951 1470,952 1470,954 1469,955 1469,956 1468,957 1468,958 1469,959 1469,966 1468,967 1468,969 1467,970 1467,972 1466,973 1466,975 1465,976 1465,977 1464,978 1464,979 1463,980 1463,981 1461,983 1461,984 1459,986 1459,987 1458,988 1458,989 1452,995 1451,995 1445,1001 1445,1002 1444,1003 1444,1004 1443,1005 1443,1007 1442,1008 1442,1010 1441,1011 1441,1017 1440,1018 1440,1024 1439,1025 1439,1029 1438,1030 1438,1032 1437,1033 1437,1037 1436,1038 1436,1043 1435,1044 1435,1047 1434,1048 1434,1052 1433,1053 1433,1061 1432,1062 1432,1070 1431,1071 1431,1073 1430,1074 1430,1075 1429,1076 1429,1079 1916,1079 1916,1078 1918,1076 1919,1076 1919,0 Z" fill="black" stroke="none" /></svg>