<?xml version="1.0" encoding="utf-8" ?>
<svg baseProfile="tiny" height="1080px" version="1.2" viewBox="0,0,1920,1080" width="1920px" xmlns="http://www.w3.org/2000/svg" xmlns:ev="http://www.w3.org/2001/xml-events" xmlns:xlink="http://www.w3.org/1999/xlink"><defs /><path d="M1066,1075 1064,1077 1064,1079 1074,1079 1074,1078 1071,1075 Z" fill="black" stroke="none" /><path d="M1085,1050 1084,1051 1083,1051 1082,1052 1082,1056 1084,1056 1085,1057 1086,1056 1087,1056 1088,1055 1089,1055 1088,1054 1088,1052 1087,1051 1086,1051 Z" fill="black" stroke="none" /><path d="M1108,1043 1107,1044 1108,1045 1109,1044 Z" fill="black" stroke="none" /><path d="M1082,1040 1084,1042 1084,1043 1085,1044 1086,1044 1086,1040 Z" fill="black" stroke="none" /><path d="M1046,1040 1044,1042 1044,1043 1043,1044 1043,1045 1041,1047 1042,1048 1043,1048 1044,1049 1049,1049 1050,1050 1056,1050 1057,1051 1060,1051 1061,1050 1061,1049 1062,1048 1060,1046 1060,1045 1059,1044 1056,1044 1055,1043 1054,1043 1053,1042 1052,1042 1051,1041 1050,1041 1049,1040 Z" fill="black" stroke="none" /><path d="M638,984 640,984 Z" fill="black" stroke="none" /><path d="M822,976 822,977 825,980 825,985 823,987 823,988 826,991 826,992 827,992 828,991 829,991 830,990 831,990 832,989 833,989 834,988 834,986 832,984 832,983 830,981 830,979 829,978 829,977 828,976 Z" fill="black" stroke="none" /><path d="M1060,972 1059,973 1062,973 1063,972 Z" fill="black" stroke="none" /><path d="M770,964 769,965 770,965 Z" fill="black" stroke="none" /><path d="M869,961 868,962 868,964 869,965 871,965 872,964 872,961 Z" fill="black" stroke="none" /><path d="M1051,960 1049,962 1048,962 1048,964 1047,965 1048,966 1049,966 1050,965 1051,965 1052,964 1052,963 1053,962 1053,961 1052,960 Z" fill="black" stroke="none" /><path d="M860,960 859,961 859,963 860,964 860,965 861,964 861,961 Z" fill="black" stroke="none" /><path d="M793,960 792,961 793,962 Z" fill="black" stroke="none" /><path d="M785,959 783,961 785,963 Z" fill="black" stroke="none" /><path d="M836,954 836,961 838,961 838,958 839,957 838,956 838,954 Z" fill="black" stroke="none" /><path d="M780,948 778,950 782,954 783,954 784,953 784,952 785,951 785,950 784,950 782,948 Z" fill="black" stroke="none" /><path d="M769,948 768,949 768,950 770,952 772,950 773,950 772,950 771,949 771,948 Z" fill="black" stroke="none" /><path d="M744,947 742,949 742,951 743,952 743,953 744,954 748,954 749,953 751,953 752,952 753,952 754,951 755,951 756,950 755,949 755,947 Z" fill="black" stroke="none" /><path d="M826,935 825,936 823,936 823,937 822,938 822,941 821,942 821,946 820,947 820,949 819,950 820,951 820,953 821,954 821,955 824,958 824,959 823,960 823,961 824,962 824,963 826,965 826,964 827,963 827,957 828,956 828,954 829,953 829,950 831,948 832,948 834,946 836,946 837,945 841,945 842,944 842,943 843,942 843,941 842,940 842,939 841,938 837,938 836,939 834,939 833,938 832,938 831,937 829,937 828,936 827,936 Z" fill="black" stroke="none" /><path d="M766,926 766,927 764,929 763,929 762,930 751,930 750,929 749,929 748,928 747,928 746,927 743,927 742,928 741,928 740,929 736,929 735,930 734,930 732,932 731,932 730,933 728,933 727,934 726,934 725,935 724,935 725,936 726,936 727,937 729,937 730,938 732,938 733,939 735,939 736,940 740,940 741,941 754,941 755,942 761,942 762,941 771,941 775,937 776,937 776,936 777,935 776,934 776,933 774,931 774,930 773,929 772,929 770,927 768,927 767,926 Z" fill="black" stroke="none" /><path d="M869,916 868,917 868,919 867,920 868,920 869,921 876,921 877,920 878,920 878,919 877,918 877,917 876,916 Z" fill="black" stroke="none" /><path d="M885,902 884,903 878,903 876,905 883,905 884,906 887,906 888,905 890,905 890,904 889,904 888,903 887,903 886,902 Z" fill="black" stroke="none" /><path d="M677,897 676,898 672,898 670,900 670,902 671,902 672,903 673,903 674,904 678,904 679,905 687,905 688,906 694,906 695,907 701,907 702,908 708,908 709,909 722,909 723,910 730,910 731,909 734,909 735,908 746,908 747,907 752,907 753,906 767,906 768,905 769,905 767,903 759,903 758,902 753,902 752,901 743,901 742,900 734,900 733,899 729,899 728,898 706,898 705,897 Z" fill="black" stroke="none" /><path d="M866,865 865,866 864,866 864,867 862,869 852,869 851,870 850,870 841,879 841,880 838,883 838,885 837,886 837,890 839,892 839,893 840,894 844,894 845,895 854,895 855,896 863,896 864,895 865,895 866,896 869,896 870,897 871,897 872,898 873,898 874,899 875,899 876,900 887,900 887,899 889,897 890,897 891,896 892,896 893,895 894,895 895,894 898,894 898,892 897,891 897,890 898,889 898,888 899,887 898,886 898,885 897,884 897,883 896,883 893,880 893,879 892,879 888,875 887,875 886,874 884,874 882,872 881,872 880,871 879,871 875,867 873,867 872,866 870,866 869,865 Z" fill="black" stroke="none" /><path d="M714,450 712,452 711,452 708,455 709,456 709,457 710,458 711,458 712,457 714,457 715,456 716,456 717,455 717,451 715,451 Z" fill="black" stroke="none" /><path d="M699,446 699,449 700,448 701,448 Z" fill="black" stroke="none" /><path d="M924,389 923,390 923,392 921,394 921,396 916,401 916,402 915,403 915,405 914,406 915,407 915,410 916,411 916,413 917,414 917,415 918,415 919,416 920,416 921,417 921,420 922,421 922,423 923,424 923,426 926,429 926,431 925,432 925,433 924,434 924,435 923,436 923,437 922,438 922,439 921,440 921,442 920,443 919,442 918,442 917,441 916,442 916,445 915,446 915,449 914,450 914,452 913,453 913,455 912,456 912,473 913,474 913,483 914,484 914,486 915,487 915,488 916,489 916,490 915,491 915,492 913,494 913,507 914,508 914,511 915,512 915,521 916,522 916,525 917,526 918,526 919,525 919,524 920,523 921,523 922,524 927,524 928,523 928,522 929,521 929,520 932,517 932,516 933,515 933,513 934,512 934,510 935,509 935,502 934,501 934,500 933,499 933,498 932,497 932,496 931,495 921,495 920,494 919,494 918,493 918,492 917,491 917,488 919,486 919,484 920,483 920,482 921,481 921,479 922,478 922,476 926,472 927,472 928,471 929,471 930,470 931,470 931,468 932,467 932,454 931,453 931,442 930,441 930,439 929,438 929,436 928,435 928,430 927,429 927,428 928,427 928,404 927,403 927,396 926,395 926,394 925,393 925,392 924,391 Z" fill="black" stroke="none" /><path d="M691,386 691,387 688,390 687,390 686,391 685,391 684,392 683,392 680,395 679,395 678,396 676,396 675,395 675,394 673,392 672,392 671,391 669,391 668,392 667,392 666,393 666,394 664,396 664,399 665,399 667,401 667,402 668,402 669,403 674,403 675,402 675,401 676,400 677,400 684,407 684,408 687,411 688,411 689,412 691,412 692,413 700,413 703,410 703,397 702,396 702,394 701,393 701,392 700,391 700,390 698,388 697,388 696,387 695,387 694,386 Z" fill="black" stroke="none" /><path d="M586,381 586,386 588,388 591,388 592,387 592,384 590,382 589,382 588,381 Z" fill="black" stroke="none" /><path d="M1081,285 1080,286 1078,286 1077,287 1077,290 1076,291 1076,294 1080,298 1081,298 1082,299 1083,299 1085,301 1086,301 1087,300 1090,300 1091,299 1092,299 1095,296 1095,295 1096,294 1095,293 1095,289 1094,288 1094,286 1093,286 1092,285 Z" fill="black" stroke="none" /><path d="M0,0 0,1079 643,1079 643,1075 642,1074 642,1073 643,1072 643,1070 647,1066 647,1065 648,1064 648,1061 646,1059 645,1059 644,1058 643,1058 642,1057 642,1056 641,1055 642,1054 642,1050 643,1049 643,1047 644,1046 644,1045 645,1044 645,1041 646,1040 646,1039 647,1038 647,1037 648,1036 648,1035 650,1033 650,1031 649,1030 649,1027 648,1026 648,1025 647,1024 647,1023 642,1018 642,1017 641,1016 641,1010 642,1009 642,1008 643,1007 644,1007 645,1006 646,1006 647,1005 658,1005 659,1004 664,1004 665,1003 671,1003 672,1004 677,1004 678,1005 679,1005 681,1007 681,1011 680,1012 680,1014 679,1015 679,1019 680,1020 680,1022 681,1023 681,1025 684,1028 688,1028 689,1027 690,1027 691,1026 699,1026 700,1027 701,1027 702,1028 703,1028 705,1030 705,1031 706,1032 706,1033 704,1035 703,1035 702,1036 700,1036 699,1037 694,1037 693,1038 691,1038 690,1037 683,1037 680,1040 679,1040 679,1045 677,1047 677,1048 678,1049 681,1049 682,1050 687,1050 688,1049 696,1049 697,1050 703,1050 704,1049 707,1049 708,1048 709,1048 709,1044 710,1043 711,1043 712,1042 713,1042 714,1041 715,1041 716,1040 716,1036 713,1033 715,1031 716,1031 721,1026 723,1026 724,1025 727,1025 728,1026 730,1026 736,1032 736,1033 733,1036 732,1036 731,1037 731,1038 729,1040 733,1044 732,1045 731,1045 730,1046 729,1046 728,1047 727,1047 726,1048 726,1049 720,1055 721,1056 721,1057 722,1057 723,1058 725,1058 726,1057 727,1057 728,1056 729,1056 733,1052 734,1052 735,1051 736,1051 737,1050 738,1050 739,1049 741,1049 742,1048 743,1048 744,1047 745,1047 743,1045 743,1044 744,1043 745,1043 747,1041 747,1040 748,1039 748,1034 747,1033 748,1032 748,1031 750,1029 750,1025 751,1024 752,1024 753,1023 761,1023 762,1022 763,1022 764,1023 765,1023 766,1024 769,1024 770,1023 771,1023 772,1024 773,1024 774,1025 773,1026 772,1026 771,1027 769,1027 768,1026 766,1026 763,1029 763,1036 762,1037 762,1039 761,1040 761,1041 759,1043 758,1043 755,1046 754,1046 752,1048 753,1049 753,1056 749,1060 749,1061 748,1062 747,1062 746,1063 744,1063 743,1064 742,1064 741,1065 739,1065 738,1066 721,1066 720,1067 719,1067 717,1069 716,1069 715,1070 714,1070 713,1071 706,1071 705,1070 703,1070 702,1069 697,1069 696,1068 695,1068 694,1069 680,1069 679,1070 677,1070 672,1075 672,1079 1053,1079 1053,1078 1048,1073 1047,1073 1046,1072 1044,1072 1043,1071 1042,1071 1041,1070 1040,1070 1035,1065 1035,1064 1034,1063 1034,1062 1033,1061 1033,1060 1032,1059 1032,1058 1031,1057 1031,1055 1030,1054 1030,1050 1028,1048 1028,1045 1027,1044 1027,1042 1025,1040 1024,1040 1023,1039 1022,1039 1020,1037 1019,1037 1018,1036 1017,1036 1016,1035 1015,1035 1011,1031 1010,1031 1003,1024 1002,1024 1001,1023 1001,1022 999,1020 999,1019 997,1017 997,1016 996,1015 996,1014 995,1013 995,1012 994,1011 994,1010 993,1009 993,1008 992,1007 992,1004 988,1000 987,1000 986,999 985,999 984,998 977,998 976,997 957,997 956,998 953,998 952,999 948,999 947,1000 945,1000 944,999 939,999 938,998 932,998 931,997 920,997 919,998 908,998 907,999 901,999 900,998 897,998 896,997 893,997 892,998 888,998 887,999 885,999 884,1000 876,1000 875,999 863,999 862,998 858,998 857,997 852,997 851,998 838,998 837,997 832,997 831,996 824,996 823,997 821,997 820,998 819,998 819,1003 820,1003 821,1004 822,1004 823,1005 824,1005 827,1008 829,1008 830,1009 831,1009 832,1010 831,1011 830,1011 829,1012 825,1012 824,1013 819,1013 818,1014 811,1014 810,1013 810,1012 809,1011 809,1010 808,1009 808,1008 807,1007 806,1007 805,1006 804,1006 803,1007 802,1007 801,1008 800,1008 799,1009 798,1009 796,1011 796,1016 795,1017 795,1018 796,1019 796,1020 798,1022 798,1023 799,1024 799,1025 798,1026 797,1026 794,1029 793,1029 792,1030 789,1030 786,1027 786,1026 785,1025 785,1022 784,1021 784,1019 785,1018 784,1017 784,1016 782,1014 782,1013 781,1012 781,1010 779,1008 779,1006 778,1005 778,997 779,996 779,995 775,995 774,994 741,994 740,995 707,995 706,996 695,996 694,995 666,995 665,996 662,996 661,997 643,997 642,996 634,996 633,997 583,997 582,996 579,996 578,995 573,995 572,994 566,994 565,993 564,993 562,991 562,990 563,989 563,988 566,985 567,985 572,980 572,978 573,977 573,974 575,972 576,972 577,971 579,971 581,969 581,965 580,965 579,964 577,964 576,965 575,965 574,964 565,964 564,965 563,964 560,964 559,963 557,963 556,962 556,961 557,960 584,960 585,959 587,959 588,958 588,957 590,955 591,955 591,954 593,952 593,951 596,948 596,947 600,943 600,942 607,935 607,934 611,930 611,929 614,926 614,925 618,921 618,920 625,913 625,912 629,908 629,907 634,902 634,901 635,900 636,900 638,898 639,898 641,896 644,896 645,895 649,895 650,894 651,894 651,893 652,892 652,890 653,889 653,884 654,883 654,881 655,880 655,875 656,874 656,871 658,869 658,867 659,866 659,864 660,863 660,861 662,859 662,857 663,856 663,854 664,853 664,852 666,850 666,849 667,848 667,845 669,843 669,842 670,841 670,840 671,839 671,837 672,836 672,835 673,834 673,833 674,832 674,829 675,828 675,826 676,825 676,824 677,823 677,821 678,820 678,817 679,816 679,815 680,814 680,813 681,812 681,809 682,808 682,772 683,771 683,769 684,768 684,766 685,765 685,761 686,760 686,758 687,757 687,754 688,753 688,749 689,748 689,746 691,744 691,743 692,742 692,740 693,739 693,738 694,737 694,736 695,735 695,734 696,733 696,731 697,730 697,729 699,727 699,726 700,725 700,724 701,723 701,722 702,721 702,720 703,719 703,717 704,716 704,715 705,714 705,711 706,710 706,707 707,706 707,698 706,697 706,695 705,694 705,693 704,692 704,691 703,691 696,684 696,683 694,681 694,680 693,679 693,678 692,677 692,676 687,671 686,671 683,668 683,667 682,666 682,665 681,664 681,663 680,662 680,660 679,659 679,650 680,649 680,639 681,638 681,633 682,632 682,626 683,625 683,623 684,622 684,620 685,619 685,594 684,593 684,592 683,591 683,590 682,589 682,585 681,584 681,577 680,576 680,573 679,572 679,570 678,569 678,568 675,565 674,565 673,564 673,563 675,561 675,557 674,556 673,556 671,554 671,553 670,552 671,551 671,550 673,548 683,548 684,547 685,547 686,546 687,546 688,545 689,545 691,543 692,543 693,542 695,542 696,541 697,541 697,540 696,539 691,539 690,538 690,537 691,536 693,536 694,537 697,537 698,538 702,538 704,540 704,541 705,541 706,542 713,542 714,541 715,541 714,541 713,540 713,539 712,538 712,537 714,535 715,535 717,533 718,533 722,537 722,538 720,540 720,541 721,542 729,542 730,541 729,540 729,537 730,536 730,535 731,534 731,532 732,531 732,529 734,527 735,527 736,526 740,526 741,525 750,525 751,526 756,526 757,525 758,525 760,523 760,522 761,521 761,520 762,519 762,518 761,517 761,515 760,515 759,514 758,514 757,513 751,513 749,515 748,515 746,517 745,517 744,518 739,518 737,516 736,516 735,515 735,514 733,512 733,511 729,507 729,506 728,505 728,504 727,503 727,502 726,501 726,499 725,498 725,497 724,497 724,498 723,499 723,500 722,501 722,502 719,505 719,506 718,507 717,507 715,505 714,505 708,499 706,499 703,502 702,502 701,503 700,503 699,504 691,504 690,503 683,503 682,504 681,504 680,505 678,503 677,503 676,502 676,501 675,500 675,497 676,496 676,494 678,492 678,490 679,489 679,487 680,486 681,486 682,485 684,485 685,484 687,484 688,483 689,483 690,482 691,482 692,481 693,481 694,480 695,480 696,479 701,479 702,478 710,478 711,479 712,479 714,481 715,481 716,482 716,483 717,484 717,486 720,489 720,490 721,491 721,492 721,487 720,487 719,486 719,484 718,483 718,475 717,474 717,470 716,469 716,468 715,467 715,466 714,466 710,462 710,460 709,461 706,461 702,457 701,457 700,456 699,456 698,457 697,457 696,458 689,458 688,459 686,459 685,460 681,460 680,461 679,461 678,462 678,463 676,465 672,461 672,460 668,460 666,462 665,462 664,463 663,463 662,464 659,464 658,465 656,465 655,466 649,466 648,467 647,467 645,469 645,473 646,474 646,477 647,478 647,482 646,483 646,485 642,489 642,493 644,495 644,497 645,498 645,515 643,517 643,518 641,520 641,521 640,522 640,524 639,525 637,523 636,523 634,521 634,520 629,515 629,514 626,511 626,510 622,506 622,505 621,504 621,503 619,501 619,500 618,499 618,498 617,497 617,496 616,495 616,494 615,493 615,491 614,490 614,489 613,488 613,487 612,486 612,485 611,484 611,483 610,482 610,480 608,478 608,477 609,476 610,477 611,477 612,478 614,478 616,480 617,480 619,482 621,482 621,480 619,478 619,475 620,474 620,470 619,470 618,469 617,469 616,468 615,468 614,467 611,467 610,466 607,466 606,465 604,465 603,464 602,464 600,462 599,462 592,455 592,454 591,453 591,452 590,451 590,450 589,449 589,447 588,446 588,445 586,443 586,441 585,440 585,436 584,435 584,426 585,425 585,422 586,421 587,421 588,422 589,422 590,423 595,423 596,422 596,416 597,415 597,411 596,410 596,405 597,404 597,399 596,398 594,398 592,400 592,401 589,404 588,404 586,406 585,406 584,405 582,405 580,403 579,403 578,402 578,400 577,399 577,398 576,397 576,396 575,395 575,393 574,392 574,390 572,388 572,387 571,386 571,379 570,378 570,375 569,374 569,373 568,372 568,365 570,363 570,361 571,360 571,357 572,356 572,354 575,351 575,350 576,349 576,348 577,347 577,346 578,345 578,344 579,343 579,342 580,341 580,339 581,338 581,337 583,335 583,334 584,333 584,332 585,331 585,329 586,328 586,327 587,326 587,324 588,323 588,320 589,319 589,318 590,317 590,316 591,315 591,314 592,313 592,311 593,310 593,309 594,308 594,307 595,306 595,305 596,304 596,302 599,299 599,298 600,297 600,296 602,294 602,293 603,292 603,290 604,289 604,288 606,286 606,285 607,284 607,283 620,270 621,270 623,268 624,268 625,267 626,267 627,266 629,266 630,265 632,265 633,264 634,264 635,263 637,263 638,262 639,262 640,261 641,261 643,259 644,259 646,257 647,257 650,254 651,254 654,251 658,251 662,255 663,254 665,254 669,250 671,252 672,252 674,254 674,255 675,256 675,263 676,264 676,265 677,265 678,264 679,264 680,263 680,259 681,258 681,256 682,255 683,255 685,253 687,253 688,252 689,252 691,250 693,250 694,249 696,249 697,248 698,248 699,247 703,247 705,245 705,244 706,243 707,243 708,244 708,249 709,250 709,252 710,253 710,254 711,255 711,258 712,259 712,261 711,262 711,266 710,267 710,268 709,269 709,275 711,275 712,274 714,274 715,273 716,273 717,272 718,272 719,271 720,271 722,269 724,269 725,268 726,268 727,267 728,267 730,265 732,265 736,261 737,261 738,260 739,260 741,258 742,258 743,257 744,257 746,255 747,255 748,254 749,254 750,253 752,253 755,250 756,250 757,249 757,248 758,247 758,244 759,243 759,240 760,239 760,236 761,235 761,226 760,225 760,221 759,220 759,215 758,214 758,212 757,211 757,209 756,208 756,206 755,205 755,200 753,198 753,195 754,194 754,174 755,173 755,172 756,171 756,163 755,162 755,158 754,157 754,152 753,151 753,149 752,148 752,147 751,146 751,145 750,144 750,142 749,141 749,137 748,136 748,133 747,132 747,130 746,129 746,109 747,108 747,105 748,104 748,102 749,101 749,97 750,96 750,93 751,92 751,91 752,90 752,88 753,87 753,86 754,85 754,84 756,82 756,81 757,80 757,79 765,71 765,70 767,68 768,68 769,67 770,67 772,65 773,65 774,64 775,64 776,63 777,63 778,62 779,62 781,60 782,60 783,59 784,59 785,58 786,58 788,56 789,56 790,55 791,55 793,53 794,53 795,52 796,52 797,51 798,51 799,50 800,50 801,49 802,49 803,48 805,48 806,47 808,47 809,46 810,46 811,45 813,45 814,44 817,44 818,43 820,43 821,42 829,42 830,43 838,43 839,44 842,44 843,45 846,45 847,46 851,46 852,47 858,47 859,48 867,48 868,49 870,49 871,50 880,50 881,51 884,51 885,52 888,52 889,53 892,53 893,54 896,54 897,55 899,55 900,56 901,56 903,58 904,58 905,59 906,59 907,60 908,60 909,61 910,61 912,63 913,63 926,76 926,77 929,80 929,81 930,82 930,83 931,84 931,85 932,86 932,87 933,88 933,89 934,90 934,92 935,93 935,94 936,95 936,97 937,98 937,99 938,100 938,101 939,102 939,109 940,110 940,112 941,113 941,116 942,117 942,120 943,121 943,122 944,123 944,124 945,125 945,128 946,129 946,132 947,133 947,144 946,145 946,149 945,150 945,152 944,153 944,154 942,156 942,157 941,158 941,159 938,162 938,163 935,166 935,167 934,168 934,169 932,171 932,172 930,174 930,175 927,178 927,179 924,182 924,183 921,186 920,186 920,187 918,189 917,189 915,191 915,192 910,197 910,198 908,200 908,206 905,209 903,209 902,210 901,210 899,212 899,213 898,214 898,216 897,217 897,220 898,221 898,223 899,224 900,224 901,225 904,225 905,224 907,224 908,223 911,223 912,224 913,224 916,227 916,230 915,231 914,231 913,232 911,232 910,231 907,231 905,229 904,229 903,228 901,228 901,229 900,230 900,231 898,233 898,249 899,249 901,251 902,251 904,253 906,253 907,254 910,254 912,256 914,256 916,254 916,252 913,249 913,248 912,247 912,246 911,245 912,244 913,244 914,243 918,243 919,242 920,242 921,241 921,240 923,238 923,236 924,235 924,233 922,231 922,229 923,228 923,227 928,222 929,222 931,220 932,220 932,219 933,218 934,218 935,217 937,217 938,216 940,216 941,215 942,215 943,214 944,214 945,213 947,213 948,212 950,212 951,213 952,213 953,214 954,214 958,218 958,220 959,221 959,231 958,232 958,241 961,244 965,244 970,239 970,238 973,235 974,235 975,234 975,233 976,232 980,232 981,233 982,233 983,234 984,234 989,239 989,241 990,242 990,243 991,244 991,245 992,246 992,247 994,249 994,250 1003,259 1004,259 1006,261 1007,261 1008,262 1010,262 1012,264 1013,264 1016,267 1017,267 1018,268 1019,268 1021,270 1022,270 1023,271 1023,276 1022,277 1022,278 1021,279 1021,284 1020,285 1020,291 1021,292 1021,293 1025,297 1026,297 1028,299 1029,299 1030,300 1030,301 1031,302 1032,302 1033,303 1037,303 1039,301 1039,300 1041,298 1042,298 1043,297 1044,297 1044,296 1046,294 1036,294 1035,293 1031,293 1030,292 1029,292 1026,289 1026,288 1025,287 1025,286 1029,282 1030,282 1030,281 1032,279 1032,278 1033,277 1033,276 1036,273 1036,272 1037,271 1037,270 1038,269 1038,268 1040,266 1040,265 1043,262 1044,262 1045,261 1047,261 1048,260 1057,260 1058,261 1059,261 1060,260 1063,260 1065,258 1067,258 1068,257 1071,257 1072,258 1075,258 1076,259 1078,259 1081,262 1082,262 1087,267 1088,267 1090,269 1091,269 1092,270 1093,270 1094,271 1097,271 1098,272 1099,272 1100,273 1101,273 1102,274 1103,274 1109,280 1109,281 1110,282 1110,284 1111,285 1111,288 1112,289 1112,297 1113,298 1113,303 1112,304 1112,306 1111,307 1111,308 1110,309 1110,311 1109,312 1109,321 1104,326 1100,326 1096,322 1096,321 1095,320 1095,319 1096,318 1096,315 1095,314 1095,311 1094,310 1094,309 1089,304 1087,304 1086,303 1085,304 1085,309 1086,310 1086,320 1085,321 1084,321 1083,322 1077,322 1076,323 1074,323 1073,324 1073,325 1072,326 1072,337 1071,338 1071,339 1070,340 1070,341 1064,347 1064,348 1065,349 1065,350 1067,352 1067,353 1068,354 1068,355 1069,356 1069,358 1070,359 1070,362 1071,363 1071,366 1072,367 1072,368 1073,369 1073,371 1074,372 1074,373 1075,373 1077,375 1079,375 1080,376 1079,377 1078,377 1074,381 1070,381 1069,382 1068,382 1067,383 1066,383 1064,385 1064,386 1063,387 1063,390 1062,391 1062,429 1061,430 1061,449 1060,450 1060,454 1059,455 1059,457 1058,458 1058,474 1057,475 1057,494 1056,495 1056,497 1055,498 1055,500 1054,501 1054,505 1053,506 1053,510 1052,511 1052,513 1051,514 1051,515 1050,516 1050,518 1049,519 1049,520 1048,521 1048,522 1047,523 1047,524 1046,525 1046,526 1043,529 1043,530 1042,531 1042,532 1041,533 1041,534 1038,537 1038,538 1036,540 1036,541 1035,542 1035,543 1032,546 1032,547 1027,552 1027,553 1023,557 1023,558 1020,561 1019,561 1015,565 1014,565 1013,566 1011,566 1010,567 1008,567 1007,568 994,568 993,567 990,567 989,566 987,566 986,565 985,565 984,564 983,564 982,563 981,563 980,562 979,562 969,552 968,552 967,551 966,551 965,550 964,550 962,548 962,547 961,547 959,549 959,550 958,551 958,559 957,560 958,561 958,568 959,569 959,572 960,573 960,575 961,576 961,577 962,578 962,579 964,581 964,582 970,588 970,589 978,597 978,599 979,600 979,602 980,603 980,604 981,605 981,606 982,607 982,611 983,612 983,623 982,624 982,627 981,628 981,629 980,630 980,631 978,633 978,634 975,637 975,638 971,642 971,643 968,646 968,655 969,656 969,658 971,660 971,661 975,665 975,666 978,669 978,670 981,673 981,674 982,675 984,675 985,676 985,677 989,681 989,682 992,685 992,686 993,687 993,688 996,691 996,692 997,693 997,694 1000,697 1000,698 1001,699 1001,700 1004,703 1004,705 1005,706 1005,707 1006,708 1006,709 1008,711 1008,713 1009,714 1009,715 1011,717 1011,719 1012,720 1012,723 1013,724 1013,726 1014,727 1014,730 1015,731 1015,742 1016,743 1016,758 1017,759 1017,761 1019,763 1019,765 1020,766 1020,767 1022,769 1022,770 1023,771 1023,772 1025,774 1025,775 1026,776 1026,777 1027,778 1027,780 1030,783 1030,784 1031,785 1031,786 1034,789 1034,790 1035,791 1035,793 1038,796 1038,797 1039,798 1039,799 1040,800 1040,801 1042,803 1042,805 1043,806 1043,807 1045,809 1045,810 1046,811 1046,813 1047,814 1047,815 1049,817 1049,818 1050,819 1050,822 1051,823 1051,824 1053,826 1053,827 1054,828 1054,830 1056,832 1056,833 1057,834 1057,837 1058,838 1058,839 1060,841 1060,842 1061,843 1061,845 1062,846 1062,847 1064,849 1064,850 1065,851 1065,853 1067,855 1067,856 1068,857 1068,858 1069,859 1069,861 1071,863 1071,864 1072,865 1072,867 1073,868 1073,869 1075,871 1075,873 1076,874 1076,876 1077,877 1077,878 1079,880 1079,882 1080,883 1080,885 1081,886 1081,887 1082,888 1082,890 1083,891 1083,893 1086,896 1091,896 1092,897 1096,897 1097,896 1114,896 1115,897 1119,897 1120,898 1120,902 1116,906 1103,906 1102,907 1099,907 1098,908 1095,908 1094,909 1089,909 1088,910 1085,910 1084,911 1083,911 1082,912 1081,912 1082,913 1083,913 1084,914 1086,914 1087,915 1090,915 1091,916 1092,916 1093,917 1093,921 1091,923 1088,923 1087,922 1085,922 1084,923 1082,923 1081,924 1081,926 1080,927 1080,928 1078,930 1074,930 1071,927 1071,926 1070,925 1070,924 1069,924 1068,923 1064,923 1063,922 1062,923 1059,923 1058,924 1057,924 1055,926 1054,925 1051,925 1050,926 1049,926 1048,927 1048,929 1049,930 1049,932 1048,933 1048,936 1047,937 1047,942 1048,943 1048,944 1050,946 1050,950 1051,951 1051,953 1052,954 1054,952 1055,952 1056,951 1057,951 1058,950 1064,950 1065,951 1069,951 1070,952 1073,952 1074,953 1075,953 1079,957 1079,958 1077,960 1076,960 1075,961 1061,961 1060,962 1058,962 1058,965 1060,967 1061,967 1062,968 1066,968 1067,967 1070,967 1071,966 1074,966 1075,965 1080,965 1081,966 1090,966 1091,965 1094,965 1095,964 1096,964 1097,965 1098,965 1100,967 1101,967 1103,965 1104,965 1104,961 1103,960 1103,959 1102,958 1103,957 1103,956 1104,955 1104,954 1106,952 1106,951 1107,950 1108,950 1110,952 1110,953 1111,954 1111,958 1110,959 1110,960 1109,961 1109,972 1110,973 1110,977 1111,978 1123,978 1124,979 1126,979 1127,980 1127,982 1126,983 1126,984 1124,986 1124,987 1119,992 1116,992 1115,993 1112,993 1111,994 1107,994 1106,995 1105,995 1102,998 1102,1002 1103,1003 1104,1003 1105,1004 1115,1004 1116,1005 1120,1005 1121,1006 1123,1006 1124,1007 1125,1007 1126,1008 1127,1008 1128,1009 1130,1009 1132,1011 1132,1012 1133,1013 1133,1014 1135,1016 1135,1017 1136,1018 1136,1024 1137,1025 1137,1029 1138,1030 1138,1034 1139,1035 1139,1040 1137,1042 1135,1042 1134,1043 1128,1043 1127,1042 1121,1042 1120,1043 1118,1043 1117,1044 1117,1045 1119,1047 1119,1048 1118,1049 1116,1049 1115,1050 1107,1050 1106,1051 1106,1056 1108,1058 1109,1058 1110,1057 1111,1057 1113,1059 1113,1060 1112,1061 1112,1062 1113,1063 1114,1063 1115,1064 1117,1064 1118,1065 1120,1065 1121,1066 1131,1066 1133,1064 1140,1064 1141,1065 1142,1065 1143,1066 1144,1066 1145,1067 1146,1067 1148,1069 1149,1069 1150,1070 1147,1073 1146,1073 1145,1074 1146,1075 1146,1077 1147,1078 1147,1079 1919,1079 1919,0 Z" fill="black" stroke="none" /></svg>