<?xml version="1.0" encoding="utf-8" ?>
<svg baseProfile="tiny" height="1080px" version="1.2" viewBox="0,0,1920,1080" width="1920px" xmlns="http://www.w3.org/2000/svg" xmlns:ev="http://www.w3.org/2001/xml-events" xmlns:xlink="http://www.w3.org/1999/xlink"><defs /><path d="M1258,934 1257,935 1256,935 1250,941 1249,941 1249,942 1244,947 1244,948 1241,951 1241,952 1240,953 1240,954 1238,956 1238,957 1237,958 1237,959 1234,962 1234,963 1226,971 1225,971 1220,976 1220,977 1219,978 1219,980 1218,981 1218,982 1217,983 1217,984 1216,985 1216,988 1215,989 1215,992 1214,993 1214,995 1213,996 1213,997 1211,999 1211,1001 1209,1003 1209,1006 1208,1007 1208,1010 1209,1011 1209,1015 1210,1016 1210,1019 1211,1020 1211,1025 1212,1026 1212,1030 1214,1032 1214,1033 1218,1037 1218,1038 1222,1042 1222,1043 1223,1044 1223,1045 1224,1046 1224,1047 1225,1048 1225,1049 1226,1050 1226,1052 1227,1053 1227,1054 1229,1056 1229,1057 1230,1058 1230,1060 1231,1061 1231,1063 1233,1065 1233,1067 1234,1068 1234,1073 1235,1074 1235,1075 1236,1076 1236,1077 1237,1078 1237,1079 1281,1079 1281,1072 1280,1071 1280,1069 1279,1068 1279,1067 1278,1066 1278,1064 1277,1063 1277,1061 1276,1060 1276,1059 1275,1058 1275,1056 1274,1055 1274,1053 1273,1052 1273,1051 1271,1049 1271,1048 1270,1047 1270,1046 1268,1044 1268,1043 1267,1042 1267,1041 1266,1040 1266,1039 1265,1038 1265,1037 1264,1036 1264,1035 1263,1034 1263,1031 1262,1030 1262,1028 1261,1027 1261,1026 1260,1025 1260,1021 1259,1020 1259,1013 1258,1012 1258,1008 1257,1007 1257,989 1256,988 1256,983 1257,982 1257,977 1258,976 1258,972 1259,971 1259,956 1260,955 1260,953 1261,952 1261,950 1262,949 1262,946 1261,945 1261,942 1260,941 1260,940 1259,939 1259,936 1258,935 Z" fill="black" stroke="none" /><path d="M1189,358 1188,359 1186,359 1185,360 1184,360 1183,361 1178,361 1177,362 1175,362 1175,363 1169,369 1168,369 1167,370 1165,370 1164,371 1163,371 1162,372 1161,372 1160,373 1159,373 1158,374 1158,375 1157,376 1157,377 1158,378 1158,379 1159,380 1159,381 1156,384 1152,384 1158,384 1159,385 1162,385 1163,384 1165,384 1167,382 1169,382 1170,381 1172,381 1174,383 1174,384 1175,385 1175,387 1175,386 1177,384 1178,384 1179,383 1179,382 1181,380 1181,379 1182,378 1183,378 1184,377 1184,375 1185,374 1185,372 1187,370 1188,370 1189,369 1190,369 1190,368 1191,367 1191,366 1192,365 1192,364 1193,363 1193,361 1190,358 Z" fill="black" stroke="none" /><path d="M1167,300 1167,301 1171,305 1173,305 1174,306 1175,306 1176,305 1175,304 1174,304 1173,303 1173,302 1171,300 Z" fill="black" stroke="none" /><path d="M0,0 0,1079 1132,1079 1132,1078 1131,1077 1131,1076 1128,1073 1128,1072 1127,1071 1127,1070 1125,1068 1125,1067 1123,1065 1123,1064 1120,1061 1120,1060 1118,1058 1118,1057 1116,1055 1116,1054 1110,1048 1110,1047 1108,1045 1108,1044 1106,1042 1106,1041 1105,1040 1105,1039 1103,1037 1103,1036 1102,1035 1102,1034 1101,1033 1101,1032 1099,1030 1099,1029 1098,1028 1098,1027 1097,1026 1097,1024 1096,1023 1096,1022 1095,1021 1095,1017 1094,1016 1094,1011 1093,1010 1093,1002 1094,1001 1094,994 1095,993 1095,990 1096,989 1096,988 1097,987 1097,985 1098,984 1098,981 1099,980 1099,978 1100,977 1100,976 1101,975 1101,974 1102,973 1102,970 1103,969 1103,968 1104,967 1104,966 1105,965 1105,962 1106,961 1106,958 1108,956 1108,955 1109,954 1109,951 1110,950 1110,949 1111,948 1111,947 1112,946 1112,945 1113,944 1113,941 1114,940 1114,939 1115,938 1115,937 1116,936 1116,934 1117,933 1117,931 1118,930 1118,928 1119,927 1119,926 1120,925 1120,922 1121,921 1121,919 1122,918 1122,917 1123,916 1123,915 1124,914 1124,911 1125,910 1125,908 1126,907 1126,906 1127,905 1127,903 1128,902 1128,900 1129,899 1129,898 1130,897 1130,896 1131,895 1131,893 1132,892 1132,889 1133,888 1133,887 1134,886 1134,885 1135,884 1135,881 1136,880 1136,878 1137,877 1137,875 1138,874 1138,872 1139,871 1139,863 1140,862 1140,859 1141,858 1141,857 1142,856 1142,854 1143,853 1143,847 1144,846 1144,845 1145,844 1145,843 1146,842 1146,839 1147,838 1147,832 1148,831 1148,830 1149,829 1149,828 1150,827 1150,825 1151,824 1151,822 1155,818 1155,817 1158,814 1158,813 1162,809 1162,808 1165,805 1165,804 1169,800 1169,799 1170,798 1170,797 1173,794 1173,793 1176,790 1176,789 1198,767 1198,766 1199,765 1199,764 1202,761 1202,760 1204,758 1204,757 1206,755 1206,751 1207,750 1207,744 1208,743 1208,741 1210,739 1210,738 1211,737 1211,736 1212,735 1212,734 1213,733 1213,732 1214,731 1214,729 1215,728 1215,725 1216,724 1216,722 1217,721 1217,719 1218,718 1218,716 1219,715 1219,713 1221,711 1221,710 1222,709 1222,708 1223,707 1223,706 1224,705 1225,705 1229,701 1230,701 1233,698 1234,698 1236,696 1237,696 1239,694 1239,693 1240,692 1240,691 1241,690 1241,688 1243,686 1243,685 1244,684 1244,682 1245,681 1245,680 1246,679 1246,678 1247,677 1247,675 1248,674 1248,672 1249,671 1249,669 1250,668 1250,667 1251,666 1251,665 1252,664 1252,647 1251,646 1251,641 1250,640 1250,639 1248,637 1248,635 1247,634 1247,633 1245,631 1245,627 1244,626 1244,603 1245,602 1245,598 1244,597 1244,580 1243,579 1243,575 1242,574 1242,573 1241,572 1241,570 1240,569 1240,564 1239,563 1239,560 1238,559 1238,558 1237,557 1237,556 1235,554 1235,553 1234,552 1234,550 1233,549 1233,544 1232,543 1232,539 1231,538 1231,522 1232,521 1232,513 1233,512 1233,497 1234,496 1234,460 1233,459 1233,447 1232,446 1232,439 1231,438 1231,436 1230,435 1230,433 1229,432 1229,427 1230,426 1230,421 1229,420 1229,418 1228,417 1228,416 1227,415 1226,415 1225,414 1224,414 1222,412 1221,412 1220,411 1216,411 1215,412 1213,412 1212,413 1211,413 1210,414 1209,414 1208,415 1203,415 1202,414 1201,414 1200,413 1199,413 1198,412 1197,412 1191,406 1191,405 1190,404 1188,404 1187,403 1182,403 1181,404 1175,404 1174,405 1173,405 1172,406 1171,406 1167,410 1167,411 1165,413 1164,413 1161,416 1160,416 1159,417 1158,417 1157,418 1156,418 1153,421 1151,421 1150,422 1147,422 1146,423 1141,423 1140,422 1140,421 1139,420 1139,418 1134,413 1133,413 1129,409 1129,404 1130,403 1130,400 1133,397 1134,397 1135,396 1136,396 1137,395 1137,394 1138,393 1138,391 1137,390 1132,390 1131,391 1130,391 1129,390 1126,390 1123,387 1123,383 1124,382 1124,381 1125,380 1125,379 1131,373 1132,373 1132,370 1131,369 1131,367 1129,365 1130,364 1134,364 1138,360 1138,359 1141,356 1141,355 1145,351 1151,351 1153,349 1153,345 1154,344 1154,341 1153,340 1153,334 1152,333 1149,333 1148,334 1147,334 1146,335 1145,335 1145,336 1142,339 1142,340 1138,344 1136,344 1135,343 1134,343 1133,342 1133,341 1132,340 1132,335 1131,334 1131,332 1128,329 1128,328 1126,326 1126,325 1125,324 1125,323 1124,322 1124,320 1123,319 1123,316 1125,314 1126,314 1127,313 1133,313 1134,312 1138,312 1139,311 1141,311 1142,310 1143,310 1144,309 1159,309 1159,306 1158,305 1157,305 1154,302 1149,302 1148,303 1148,304 1147,305 1145,305 1144,304 1144,303 1138,297 1138,295 1137,294 1138,293 1138,289 1139,288 1139,286 1138,285 1137,285 1134,282 1134,281 1133,281 1132,282 1124,282 1123,281 1122,281 1117,276 1117,270 1119,268 1121,268 1122,267 1123,268 1124,268 1125,269 1126,269 1127,270 1131,270 1133,268 1134,268 1135,267 1135,266 1137,264 1138,264 1142,268 1142,269 1143,270 1143,272 1144,273 1144,274 1145,275 1146,275 1147,276 1149,276 1150,275 1150,272 1149,271 1149,269 1148,268 1148,262 1149,261 1149,257 1150,256 1150,250 1151,249 1151,240 1152,239 1152,236 1153,235 1153,233 1154,232 1154,231 1155,230 1155,229 1156,228 1156,227 1158,225 1158,224 1160,222 1160,221 1161,220 1161,219 1163,217 1163,216 1166,213 1166,212 1175,203 1176,203 1184,195 1185,195 1186,194 1187,194 1189,192 1190,192 1194,188 1195,188 1196,187 1197,187 1198,186 1199,186 1201,184 1203,184 1205,182 1207,182 1208,181 1209,181 1210,180 1211,180 1214,177 1215,177 1216,176 1217,176 1218,175 1228,175 1229,176 1231,176 1232,177 1235,177 1236,176 1237,176 1238,175 1239,175 1240,174 1243,174 1245,176 1246,176 1248,178 1245,181 1245,182 1243,184 1238,184 1237,183 1236,183 1235,182 1232,182 1231,183 1229,183 1227,185 1229,187 1230,187 1231,188 1232,188 1233,189 1237,189 1238,188 1239,188 1240,187 1241,187 1242,186 1243,186 1244,187 1248,187 1249,188 1256,188 1257,189 1271,189 1272,190 1276,190 1277,191 1284,191 1285,190 1295,190 1296,191 1300,191 1301,192 1302,192 1303,193 1304,193 1306,195 1307,195 1309,197 1310,197 1312,199 1313,199 1316,202 1316,203 1317,204 1317,205 1318,206 1318,207 1319,208 1319,211 1320,212 1320,215 1321,216 1321,218 1322,219 1322,224 1323,225 1323,229 1324,230 1324,233 1325,234 1325,238 1326,239 1326,243 1327,244 1327,266 1328,267 1328,273 1329,274 1329,277 1330,278 1330,279 1331,280 1331,281 1332,282 1332,283 1335,286 1335,287 1339,291 1339,292 1342,295 1342,296 1343,297 1343,298 1346,301 1346,302 1349,305 1349,306 1351,308 1352,308 1356,312 1357,312 1359,314 1361,314 1362,315 1364,315 1366,317 1369,317 1370,318 1372,318 1373,319 1374,319 1376,321 1377,321 1378,322 1379,322 1383,326 1383,327 1384,328 1384,329 1385,330 1385,332 1387,334 1387,336 1388,337 1388,338 1390,340 1390,341 1393,344 1394,344 1395,345 1396,345 1402,351 1402,352 1406,356 1407,356 1410,359 1411,359 1421,369 1421,370 1425,374 1425,375 1428,378 1428,379 1430,381 1430,382 1432,384 1432,385 1434,387 1434,388 1436,390 1436,391 1437,392 1437,393 1439,395 1439,396 1440,397 1440,398 1441,399 1441,400 1442,401 1442,402 1443,403 1443,404 1444,405 1444,406 1445,407 1445,408 1446,409 1446,410 1447,411 1447,413 1448,414 1448,416 1449,417 1449,418 1450,419 1450,420 1451,421 1451,423 1452,424 1452,426 1453,427 1453,428 1454,429 1454,432 1455,433 1455,436 1456,437 1456,439 1457,440 1457,442 1458,443 1458,447 1459,448 1459,453 1460,454 1460,456 1461,457 1461,458 1462,459 1462,463 1463,464 1463,467 1464,468 1464,470 1465,471 1465,472 1466,473 1466,476 1467,477 1467,480 1468,481 1468,483 1469,484 1469,489 1470,490 1470,503 1471,504 1471,511 1472,512 1472,515 1473,516 1473,524 1474,525 1474,534 1475,535 1475,539 1476,540 1476,543 1477,544 1477,558 1478,559 1478,580 1479,581 1479,590 1480,591 1480,600 1481,601 1481,643 1482,644 1482,651 1483,652 1483,653 1484,654 1484,658 1485,659 1485,675 1484,676 1484,677 1483,678 1483,679 1481,681 1481,682 1477,686 1477,687 1473,691 1473,692 1472,693 1471,693 1470,694 1469,694 1467,696 1466,696 1465,697 1463,697 1462,698 1461,698 1460,699 1460,700 1459,701 1459,704 1458,705 1458,707 1457,708 1457,710 1456,711 1456,714 1455,715 1455,731 1454,732 1454,735 1453,736 1453,737 1452,738 1452,739 1451,740 1451,747 1450,748 1450,755 1449,756 1449,758 1448,759 1448,762 1447,763 1447,772 1446,773 1446,776 1445,777 1445,780 1444,781 1444,785 1443,786 1443,793 1442,794 1442,796 1441,797 1441,798 1440,799 1440,801 1439,802 1439,804 1436,807 1436,809 1434,811 1434,812 1432,814 1432,816 1431,817 1431,818 1430,819 1430,820 1429,821 1429,822 1428,823 1428,825 1426,827 1426,828 1425,829 1425,831 1424,832 1424,834 1422,836 1422,837 1421,838 1421,840 1420,841 1420,842 1418,844 1418,846 1417,847 1417,849 1414,852 1414,854 1413,855 1413,856 1411,858 1411,859 1410,860 1410,861 1409,862 1409,863 1407,865 1407,867 1406,868 1406,873 1405,874 1405,875 1404,876 1404,877 1402,879 1402,880 1400,882 1400,883 1399,884 1399,885 1398,886 1398,887 1396,889 1396,891 1395,892 1395,894 1394,895 1394,897 1392,899 1392,901 1391,902 1391,906 1390,907 1390,908 1389,909 1389,910 1388,911 1388,913 1387,914 1387,917 1386,918 1386,919 1385,920 1385,921 1384,922 1384,924 1383,925 1383,928 1381,930 1381,932 1380,933 1380,936 1379,937 1379,938 1378,939 1378,940 1377,941 1377,942 1376,943 1376,945 1375,946 1375,947 1374,948 1374,949 1373,950 1373,951 1372,952 1372,954 1370,956 1370,957 1369,958 1369,961 1368,962 1368,966 1367,967 1367,968 1366,969 1366,973 1365,974 1365,983 1364,984 1364,986 1363,987 1363,988 1362,989 1362,991 1361,992 1361,995 1360,996 1360,1003 1361,1004 1361,1006 1362,1007 1362,1010 1363,1011 1363,1012 1364,1013 1364,1015 1365,1016 1365,1018 1366,1019 1366,1021 1367,1022 1367,1026 1368,1027 1368,1038 1369,1039 1369,1045 1370,1046 1370,1048 1372,1050 1372,1051 1373,1052 1373,1053 1374,1053 1384,1063 1384,1064 1385,1065 1385,1066 1387,1068 1387,1071 1388,1072 1388,1074 1390,1076 1390,1077 1391,1078 1391,1079 1919,1079 1919,0 Z" fill="black" stroke="none" /></svg>