<?xml version="1.0" encoding="utf-8" ?>
<svg baseProfile="tiny" height="1080px" version="1.2" viewBox="0,0,1920,1080" width="1920px" xmlns="http://www.w3.org/2000/svg" xmlns:ev="http://www.w3.org/2001/xml-events" xmlns:xlink="http://www.w3.org/1999/xlink"><defs /><path d="M766,552 766,561 765,562 765,570 766,571 769,568 773,568 774,567 774,566 775,565 775,563 776,562 776,561 777,560 776,559 776,558 775,557 775,556 774,555 774,553 772,553 771,552 Z" fill="black" stroke="none" /><path d="M770,514 769,515 769,516 768,517 768,518 767,519 767,523 770,523 771,522 771,521 773,519 773,515 772,514 Z" fill="black" stroke="none" /><path d="M0,0 0,1079 836,1079 836,1053 835,1052 835,1027 834,1026 834,1020 833,1019 833,1008 834,1007 834,991 835,990 835,982 836,981 836,965 837,964 837,960 838,959 838,955 839,954 839,946 840,945 840,941 841,940 841,939 842,938 842,935 843,934 843,927 844,926 844,922 845,921 845,914 846,913 846,910 845,909 845,905 844,904 844,900 843,899 843,857 844,856 844,852 845,851 845,850 846,849 846,845 847,844 847,840 848,839 848,837 849,836 849,834 850,833 850,829 851,828 851,825 852,824 852,822 853,821 853,818 854,817 854,814 855,813 855,810 856,809 856,807 857,806 857,804 860,801 860,799 861,798 861,797 862,796 862,795 863,794 863,793 864,792 864,788 865,787 865,786 866,785 866,784 867,783 867,782 868,781 868,778 869,777 869,774 870,773 870,772 872,770 872,769 871,768 871,767 868,764 866,764 865,763 864,763 862,761 862,760 859,757 859,755 862,752 863,752 864,751 865,751 866,750 867,750 869,748 869,739 868,739 867,738 867,737 865,735 864,735 858,729 858,728 857,727 857,726 856,725 856,724 855,723 855,716 854,715 854,714 851,711 851,705 853,703 859,703 860,702 861,702 862,701 862,700 866,696 866,693 865,692 865,690 864,689 864,688 867,685 868,685 869,686 869,687 870,688 870,690 869,691 869,695 871,697 872,697 873,696 875,696 877,694 877,693 879,691 879,690 880,689 880,687 881,686 881,685 882,684 882,681 883,680 883,672 882,671 882,668 881,667 881,662 876,657 874,657 871,654 870,654 863,647 863,646 862,645 862,644 861,643 861,641 860,640 860,639 859,638 859,637 858,636 858,631 857,630 857,625 856,624 856,622 855,621 855,617 854,616 854,602 853,601 853,590 851,588 851,587 849,585 849,584 847,584 846,583 845,583 844,584 842,584 839,587 839,590 838,591 838,594 836,596 835,596 834,597 833,597 831,595 831,593 832,592 832,591 833,590 833,586 831,584 831,583 830,582 830,581 829,580 828,580 827,579 824,579 823,580 822,580 821,581 820,581 818,583 814,583 813,584 809,584 808,585 807,585 804,588 803,588 802,589 800,589 799,590 793,590 792,589 791,589 789,587 785,587 784,586 780,586 779,585 774,585 773,586 772,586 771,587 765,587 764,586 762,586 761,587 760,587 758,589 758,590 757,591 757,592 754,595 751,595 750,594 750,572 751,571 751,555 750,554 750,545 751,544 751,542 752,541 752,540 753,539 753,536 754,535 754,531 756,529 756,527 757,526 757,523 758,522 758,521 761,518 761,517 762,516 762,515 763,514 764,514 765,513 765,511 766,510 766,509 768,507 768,506 769,505 769,504 772,501 772,500 773,499 773,498 776,495 776,494 777,493 777,491 778,490 778,489 780,487 780,486 782,484 782,483 783,482 783,481 786,478 786,477 788,475 788,474 792,470 792,468 793,467 793,463 794,462 794,461 797,458 797,457 798,456 798,455 800,453 800,450 801,449 801,445 802,444 802,440 803,439 803,438 804,437 804,436 806,434 806,433 808,431 808,429 809,428 809,422 810,421 810,417 811,416 811,415 812,414 812,413 813,412 813,410 814,409 814,407 816,405 816,404 817,403 817,402 819,400 819,399 821,397 821,396 824,393 824,392 827,389 827,388 828,387 828,385 829,384 829,382 830,381 830,380 831,379 831,377 832,376 832,374 833,373 833,372 835,370 835,369 836,368 836,366 838,364 838,363 839,362 839,361 841,359 841,358 843,356 843,355 847,351 847,350 851,346 851,345 854,342 854,341 857,338 857,337 872,322 873,322 877,318 878,318 879,317 880,317 883,314 884,314 887,311 888,311 889,310 890,310 893,307 894,307 895,306 896,306 899,303 900,303 901,302 902,302 904,300 905,300 906,299 908,299 909,298 910,298 912,296 913,296 914,295 916,295 919,292 920,292 921,291 922,291 924,289 925,289 926,288 927,288 928,287 929,287 932,284 933,284 937,280 937,278 938,277 938,274 939,273 939,272 943,268 943,265 944,264 944,262 945,261 945,260 950,255 951,255 954,252 954,251 955,250 955,248 956,247 956,246 957,245 957,244 959,242 959,241 960,240 960,239 961,238 961,237 963,235 963,233 964,232 964,231 965,230 965,221 964,220 964,218 963,217 963,215 959,211 959,209 956,206 956,205 955,204 955,203 952,200 952,199 951,198 951,197 948,194 948,193 937,182 937,181 936,180 936,178 935,177 935,176 934,175 934,174 933,173 933,171 932,170 932,168 931,167 931,166 930,165 930,164 929,163 929,160 928,159 928,158 927,157 927,156 926,155 926,154 925,153 925,151 923,149 923,148 922,147 922,146 921,145 921,143 918,140 918,138 917,137 917,136 915,134 915,133 914,132 914,131 913,130 913,129 912,128 912,127 910,125 910,122 909,121 909,120 908,119 908,118 907,117 907,115 906,114 906,112 905,111 905,110 903,108 903,106 902,105 902,102 901,101 901,96 902,95 902,84 903,83 903,80 906,77 906,76 914,68 914,67 917,64 917,63 919,61 919,60 922,57 922,56 925,53 925,52 943,34 944,34 945,33 946,33 950,29 951,29 955,25 956,25 959,22 960,22 961,21 962,21 965,18 967,18 968,17 969,17 970,16 971,16 972,15 973,15 974,14 979,14 980,13 983,13 984,12 987,12 988,13 989,13 990,14 992,14 994,16 995,16 996,17 1006,17 1007,18 1012,18 1013,17 1017,17 1018,16 1026,16 1027,17 1029,17 1030,18 1039,18 1040,19 1042,19 1044,21 1046,21 1047,22 1048,22 1049,23 1050,23 1052,25 1053,25 1054,26 1055,26 1058,29 1059,29 1066,36 1067,36 1070,39 1071,39 1072,40 1073,40 1074,41 1075,41 1077,43 1078,43 1079,44 1080,44 1081,45 1082,45 1084,47 1085,47 1086,48 1087,48 1093,54 1094,54 1095,55 1096,55 1097,56 1098,56 1099,57 1100,57 1103,60 1103,61 1104,62 1104,63 1105,64 1105,72 1108,75 1108,76 1110,78 1110,79 1111,80 1111,81 1112,82 1112,83 1113,84 1113,88 1114,89 1114,94 1115,95 1115,100 1114,101 1114,107 1113,108 1113,112 1112,113 1112,115 1111,116 1111,118 1110,119 1110,123 1109,124 1109,126 1108,127 1108,129 1106,131 1106,133 1105,134 1105,135 1103,137 1103,138 1101,140 1101,141 1099,143 1099,144 1098,145 1098,148 1097,149 1097,150 1096,151 1096,153 1095,154 1095,158 1094,159 1094,160 1093,161 1093,162 1092,163 1092,164 1091,165 1091,168 1090,169 1090,170 1089,171 1089,172 1088,173 1088,174 1087,175 1087,176 1086,177 1086,178 1079,185 1079,188 1078,189 1078,198 1079,199 1079,201 1080,202 1080,203 1082,205 1082,206 1083,207 1083,209 1084,210 1084,215 1085,216 1085,219 1086,220 1086,222 1087,223 1087,231 1088,232 1088,235 1091,238 1091,239 1093,241 1093,242 1095,244 1095,245 1096,246 1096,247 1097,247 1098,248 1098,249 1100,251 1101,251 1104,254 1105,254 1106,255 1107,255 1109,257 1110,257 1111,258 1112,258 1114,260 1115,260 1116,261 1117,261 1118,262 1119,262 1121,264 1122,264 1123,265 1124,265 1125,266 1126,266 1129,269 1130,269 1134,273 1134,274 1135,274 1136,275 1136,276 1139,279 1140,279 1141,280 1143,280 1144,281 1145,281 1146,282 1147,282 1148,283 1152,283 1153,284 1157,284 1158,285 1159,285 1161,287 1162,287 1163,288 1164,288 1167,291 1169,291 1170,292 1171,292 1173,294 1174,294 1175,295 1176,295 1179,298 1180,298 1181,299 1182,299 1192,309 1192,310 1197,315 1197,316 1203,322 1203,323 1208,328 1208,329 1211,332 1211,333 1215,337 1215,338 1226,349 1226,350 1230,354 1230,355 1232,357 1232,358 1234,360 1234,361 1235,362 1235,363 1237,365 1237,366 1238,367 1238,368 1239,369 1239,370 1241,372 1241,374 1242,375 1242,376 1244,378 1244,379 1245,380 1245,383 1246,384 1246,385 1248,387 1248,389 1249,390 1249,391 1250,392 1250,393 1251,394 1251,395 1252,396 1252,398 1253,399 1253,401 1254,402 1254,403 1255,404 1255,405 1256,406 1256,408 1257,409 1257,410 1258,411 1258,412 1259,413 1259,414 1260,415 1260,418 1262,420 1262,421 1263,422 1263,424 1264,425 1264,426 1265,427 1265,428 1266,429 1266,430 1267,431 1267,433 1268,434 1268,436 1269,437 1269,438 1270,439 1270,440 1271,441 1271,444 1272,445 1272,447 1274,449 1274,451 1275,452 1275,455 1276,456 1276,457 1277,458 1277,460 1278,461 1278,464 1279,465 1279,467 1280,468 1280,469 1281,470 1281,472 1282,473 1282,476 1283,477 1283,480 1284,481 1284,483 1285,484 1285,487 1286,488 1286,497 1287,498 1287,509 1288,510 1288,518 1289,519 1289,563 1288,564 1288,571 1287,572 1287,577 1286,578 1286,590 1285,591 1285,594 1284,595 1284,596 1283,597 1283,600 1282,601 1282,605 1281,606 1281,608 1279,610 1279,611 1278,612 1278,613 1275,616 1275,617 1266,626 1265,626 1262,629 1261,629 1260,630 1259,630 1257,632 1256,632 1255,633 1254,633 1253,634 1252,634 1251,635 1250,635 1249,636 1248,636 1247,637 1245,637 1244,638 1243,638 1241,640 1240,640 1239,641 1238,641 1237,642 1236,642 1235,643 1234,643 1232,645 1230,645 1228,647 1227,647 1226,648 1225,648 1224,649 1223,649 1221,651 1220,651 1219,652 1218,652 1217,653 1216,653 1214,655 1213,655 1212,656 1211,656 1210,657 1209,657 1205,661 1205,662 1204,663 1204,666 1203,667 1203,704 1202,705 1202,708 1201,709 1201,711 1200,712 1200,714 1199,715 1199,717 1195,721 1195,722 1191,726 1191,727 1188,730 1188,731 1184,735 1184,736 1174,746 1173,746 1171,748 1170,748 1167,751 1167,752 1166,753 1166,754 1165,755 1165,757 1164,758 1164,772 1165,773 1165,780 1166,781 1166,814 1167,815 1167,822 1168,823 1168,826 1169,827 1169,842 1170,843 1170,863 1171,864 1171,879 1170,880 1170,893 1169,894 1169,903 1168,904 1168,906 1167,907 1167,909 1166,910 1166,916 1165,917 1165,919 1164,920 1164,921 1163,922 1163,924 1162,925 1162,929 1161,930 1161,932 1159,934 1159,937 1158,938 1158,940 1157,941 1157,942 1156,943 1156,944 1155,945 1155,950 1154,951 1154,955 1153,956 1153,959 1152,960 1152,966 1151,967 1151,983 1150,984 1150,989 1149,990 1149,993 1148,994 1148,1000 1147,1001 1147,1014 1146,1015 1146,1021 1145,1022 1145,1026 1144,1027 1144,1035 1143,1036 1143,1045 1142,1046 1142,1050 1141,1051 1141,1055 1140,1056 1140,1064 1139,1065 1139,1069 1138,1070 1138,1071 1137,1072 1137,1074 1136,1075 1136,1079 1919,1079 1919,0 Z" fill="black" stroke="none" /></svg>