<?xml version="1.0" encoding="utf-8" ?>
<svg baseProfile="tiny" height="1080px" version="1.2" viewBox="0,0,1920,1080" width="1920px" xmlns="http://www.w3.org/2000/svg" xmlns:ev="http://www.w3.org/2001/xml-events" xmlns:xlink="http://www.w3.org/1999/xlink"><defs /><path d="M890,788 889,789 888,789 887,790 886,790 885,791 884,791 882,793 881,793 880,794 879,794 878,795 877,795 875,797 874,797 873,798 872,798 871,799 870,799 867,802 866,802 862,806 861,806 857,810 856,810 855,811 855,812 854,813 853,813 845,821 844,821 825,840 825,841 824,842 824,843 823,844 822,844 822,845 817,850 817,851 813,855 813,856 806,863 806,864 802,868 802,869 798,873 798,874 794,878 794,879 790,883 790,884 787,887 787,888 784,891 784,892 783,893 783,894 780,897 780,898 777,901 777,902 775,904 775,905 768,912 768,913 767,914 766,914 764,916 764,917 763,918 762,918 755,925 754,925 750,929 750,930 746,934 746,935 742,939 742,940 737,945 736,945 716,965 716,966 714,968 713,968 713,969 697,985 697,986 694,989 694,990 691,993 691,994 690,995 690,996 687,999 687,1000 686,1001 686,1002 683,1005 683,1006 676,1013 676,1014 671,1019 671,1020 668,1023 668,1024 667,1025 667,1026 665,1028 665,1029 664,1030 664,1031 662,1033 662,1034 661,1035 661,1036 660,1037 660,1039 659,1040 659,1041 658,1042 658,1043 657,1044 657,1046 656,1047 656,1048 653,1051 653,1053 651,1055 651,1057 650,1058 650,1061 649,1062 649,1063 645,1067 645,1068 643,1070 643,1071 642,1072 642,1074 641,1075 641,1076 640,1077 640,1079 1038,1079 1038,1075 1039,1074 1039,1066 1040,1065 1040,1062 1041,1061 1041,1054 1042,1053 1042,1041 1043,1040 1043,1037 1044,1036 1044,1034 1045,1033 1045,1027 1046,1026 1046,1020 1047,1019 1047,1017 1048,1016 1048,1011 1049,1010 1049,982 1050,981 1050,974 1051,973 1051,969 1050,968 1050,965 1049,964 1049,963 1048,962 1048,961 1047,960 1047,959 1046,958 1046,957 1045,956 1045,954 1043,952 1043,951 1042,950 1042,947 1041,946 1041,945 1039,943 1039,942 1038,941 1038,939 1037,938 1037,937 1035,935 1035,934 1034,933 1034,931 1032,929 1032,928 1031,927 1031,925 1030,924 1030,922 1028,920 1028,919 1027,918 1027,916 1026,915 1026,913 1024,911 1024,910 1023,909 1023,908 1021,906 1021,905 1019,903 1019,902 1018,901 1018,900 1016,898 1016,897 1014,895 1014,894 1012,892 1012,891 1008,887 1008,886 997,875 997,874 988,865 988,864 981,857 981,856 974,849 974,848 968,842 968,841 966,839 966,838 963,835 963,834 954,825 953,825 952,824 952,823 950,821 949,821 947,819 947,818 946,818 944,816 944,815 943,814 942,814 940,812 940,811 939,810 938,810 936,808 936,807 935,806 934,806 931,803 930,803 929,802 928,802 925,799 924,799 922,797 921,797 919,795 918,795 917,794 916,794 914,792 913,792 912,791 910,791 909,790 908,790 907,789 905,789 904,788 Z" fill="black" stroke="none" /><path d="M818,435 816,437 816,438 815,439 815,448 814,449 814,462 815,463 815,471 816,472 816,473 817,474 817,475 818,476 818,482 819,483 819,484 820,485 821,485 826,490 827,489 827,488 828,487 828,486 829,485 829,484 830,483 830,443 828,441 828,440 827,439 827,438 826,437 826,436 824,436 823,435 Z" fill="black" stroke="none" /><path d="M727,418 726,419 722,419 721,420 720,420 718,422 718,426 720,428 721,428 722,429 724,429 725,430 727,430 728,431 730,431 732,433 732,434 733,435 733,436 734,437 734,440 735,441 735,442 739,446 740,446 741,447 746,447 747,446 748,446 749,445 751,445 752,444 754,444 755,445 757,445 758,446 759,446 763,442 763,435 762,434 762,433 761,432 761,428 762,427 762,423 760,421 759,421 758,420 757,420 756,419 731,419 730,418 Z" fill="black" stroke="none" /><path d="M677,383 676,384 680,384 678,384 Z" fill="black" stroke="none" /><path d="M639,274 639,275 638,276 638,277 637,278 637,290 636,291 636,293 635,294 635,295 634,296 634,299 633,300 633,303 634,304 634,306 635,307 635,308 647,320 648,320 649,319 650,319 655,314 656,314 659,311 665,311 666,312 670,312 671,311 672,311 673,310 674,310 675,309 676,309 677,308 678,308 680,306 680,301 675,296 674,296 670,292 669,292 668,291 667,292 665,292 664,291 661,291 660,290 658,290 657,289 655,289 652,286 651,286 Z" fill="black" stroke="none" /><path d="M932,151 931,152 931,155 936,155 936,153 937,152 936,151 Z" fill="black" stroke="none" /><path d="M0,0 0,157 1,157 2,158 2,159 3,160 3,164 4,165 4,170 5,171 5,194 6,195 6,216 7,217 7,235 6,236 6,249 5,250 5,257 4,258 4,260 3,261 3,264 2,265 2,282 1,283 0,283 0,1079 558,1079 558,1071 559,1070 559,1068 560,1067 560,1064 561,1063 561,1059 562,1058 562,1055 563,1054 563,1053 564,1052 564,1051 565,1050 565,1049 566,1048 566,1046 567,1045 567,1044 568,1043 568,1041 569,1040 569,1039 570,1038 570,1037 572,1035 572,1034 574,1032 574,1031 575,1030 575,1029 576,1028 576,1026 577,1025 577,1022 578,1021 578,1020 579,1019 579,1017 580,1016 580,1014 581,1013 581,1012 582,1011 582,1009 583,1008 583,1007 584,1006 584,1004 585,1003 585,1002 586,1001 586,1000 587,999 587,997 588,996 588,994 589,993 589,992 591,990 591,989 593,987 593,986 595,984 595,983 596,982 596,981 598,979 598,978 599,977 599,976 600,975 600,974 602,972 602,971 603,970 603,969 605,967 605,966 606,965 606,964 607,963 607,962 609,960 609,959 610,958 610,957 613,954 613,953 615,951 615,950 618,947 618,946 620,944 620,943 621,942 621,941 622,940 622,939 624,937 624,936 626,934 626,933 630,929 630,928 636,922 637,922 642,917 643,917 652,908 652,907 656,903 656,902 658,900 658,899 659,898 659,897 660,896 660,894 661,893 661,891 662,890 662,888 663,887 663,884 664,883 664,882 665,881 665,872 670,867 670,866 672,864 672,863 674,861 674,860 675,859 675,858 677,856 677,855 678,854 678,853 679,852 679,851 681,849 681,848 682,847 682,845 684,843 684,842 685,841 685,840 686,839 686,837 689,834 689,831 691,829 691,828 693,826 693,824 694,823 694,822 696,820 696,819 697,818 697,817 698,816 698,815 700,813 700,812 701,811 701,809 703,807 703,805 704,804 704,797 705,796 705,784 706,783 706,780 707,779 707,775 708,774 708,767 709,766 709,764 710,763 710,762 711,761 711,759 712,758 712,757 713,756 713,755 715,753 715,752 719,748 719,747 722,744 722,743 727,738 727,737 734,730 734,729 738,725 738,724 742,720 742,719 748,713 748,712 750,710 750,709 752,707 752,706 753,705 753,704 756,701 756,700 757,699 757,697 758,696 758,695 759,694 759,692 760,691 760,686 761,685 761,681 762,680 762,678 763,677 763,675 764,674 764,669 765,668 765,664 767,662 767,660 768,659 768,658 769,657 769,655 770,654 770,653 771,652 771,651 772,650 772,649 774,647 774,646 776,644 776,643 777,642 777,641 779,639 779,638 780,637 780,636 782,634 782,633 784,631 784,630 785,629 785,628 786,627 786,626 787,625 787,624 788,623 788,622 789,621 789,620 790,619 790,615 791,614 791,607 792,606 792,603 793,602 793,597 794,596 794,584 793,583 793,580 792,579 792,578 791,577 791,572 790,571 790,566 789,565 789,564 788,563 788,562 786,560 786,559 783,556 783,554 782,553 782,552 781,551 781,549 780,548 780,533 781,532 781,529 782,528 782,523 783,522 783,512 784,511 784,509 785,508 785,506 786,505 786,495 787,494 787,485 788,484 788,476 787,475 787,474 786,473 786,472 785,471 779,477 779,478 778,479 778,480 777,481 777,482 775,484 768,484 763,479 757,479 756,478 754,478 753,477 747,477 746,476 743,476 742,475 738,475 737,476 735,476 734,477 733,477 732,478 730,478 729,479 728,478 721,478 718,481 717,481 714,484 713,484 712,485 711,485 710,486 709,486 708,485 706,485 704,483 704,482 702,480 701,480 698,477 696,477 695,476 694,476 693,475 685,475 684,474 683,474 680,471 678,471 675,468 674,468 669,463 668,463 667,462 666,462 665,461 664,461 663,460 661,460 659,462 656,462 655,461 654,461 653,460 653,459 652,458 652,456 651,455 651,453 650,452 650,444 651,443 651,442 652,441 652,436 651,435 650,435 648,433 648,432 647,431 647,430 646,429 646,425 645,424 645,423 644,422 644,421 643,420 643,419 642,418 642,414 643,413 643,410 644,409 644,407 645,406 645,405 647,403 647,401 648,400 648,398 647,397 647,391 648,390 648,389 649,388 649,387 650,386 650,384 649,383 649,382 648,381 648,380 647,379 647,378 645,378 643,380 639,376 639,377 638,378 638,380 637,381 637,382 636,383 636,385 635,386 635,394 634,395 634,412 635,413 635,416 636,417 636,418 637,419 637,422 638,423 638,427 639,428 639,429 638,430 638,431 633,436 633,438 632,439 631,439 630,438 630,437 627,434 626,434 624,432 619,437 619,438 618,439 618,440 617,441 617,443 616,444 616,446 615,447 615,449 614,450 614,451 612,453 612,454 610,456 608,456 607,455 606,455 601,450 600,450 597,447 596,447 592,443 591,443 589,441 588,441 586,439 585,439 583,437 582,437 581,436 580,436 579,435 573,435 572,434 569,434 568,433 565,433 563,431 562,431 559,428 559,427 557,425 557,424 556,423 556,422 555,421 555,419 554,418 554,414 553,413 553,409 552,408 552,403 551,402 551,399 550,398 550,396 549,395 549,394 548,393 547,393 546,392 541,392 540,391 539,391 538,390 537,390 535,388 534,388 533,387 533,386 531,384 531,382 530,381 530,380 529,379 528,379 527,378 525,378 523,380 523,386 522,387 522,388 521,389 521,390 519,392 518,392 516,390 516,389 514,387 514,379 511,376 510,376 509,377 503,377 502,376 501,376 500,375 497,375 496,374 495,374 493,372 492,372 491,371 490,371 489,370 488,371 487,371 485,373 483,373 482,374 480,374 479,373 475,373 474,374 473,374 470,377 469,377 468,378 466,378 465,377 465,376 464,375 464,374 462,372 462,371 461,370 461,369 460,368 460,366 459,365 459,364 458,363 458,362 455,359 455,358 454,357 454,356 453,355 453,353 452,352 452,350 451,349 451,348 451,349 450,350 450,353 449,354 449,356 447,358 446,358 445,359 444,359 442,361 442,362 440,364 440,365 436,369 435,368 435,367 434,366 434,363 433,362 433,357 434,356 434,354 435,353 435,352 436,351 439,351 440,352 441,352 442,351 443,351 444,350 444,342 443,341 443,335 444,334 444,332 445,331 445,330 448,327 449,327 450,328 451,328 452,327 452,326 453,325 453,324 456,321 456,320 457,319 457,317 458,316 458,312 459,311 459,309 460,308 460,305 461,304 461,302 462,301 462,300 464,298 464,297 465,296 465,295 466,294 468,294 469,295 471,295 472,296 475,296 476,295 477,295 478,294 481,294 482,293 482,292 483,291 483,290 484,289 484,287 481,284 480,284 474,278 474,277 473,276 470,276 469,277 469,278 467,280 465,278 465,276 464,275 464,273 463,272 463,271 466,268 467,268 468,269 472,269 473,268 474,268 474,263 472,261 472,259 477,254 479,254 480,253 481,253 484,250 484,249 485,248 486,248 489,245 490,245 491,246 493,246 494,247 495,247 496,248 502,248 503,249 504,249 511,242 512,242 513,243 520,243 522,241 523,241 524,240 525,240 527,238 529,238 530,237 531,237 532,236 533,236 534,235 536,235 537,234 538,234 539,233 540,233 541,232 542,232 543,231 545,231 546,230 548,230 549,229 550,229 551,228 554,228 555,227 561,227 562,228 568,228 569,227 570,227 571,226 573,226 574,225 575,225 576,224 577,224 579,222 580,222 586,228 587,228 588,227 590,227 591,226 591,222 593,220 593,219 594,218 595,218 596,217 597,217 598,216 599,216 601,214 606,214 607,215 609,215 610,216 610,217 611,218 611,220 612,221 612,226 616,230 621,230 622,231 629,231 631,229 632,230 633,230 634,231 639,231 640,232 641,232 643,234 643,246 644,247 644,250 643,251 643,253 641,255 640,255 639,256 639,260 638,261 638,266 639,267 639,268 647,268 649,266 650,266 650,265 651,264 651,261 652,260 652,255 651,254 651,243 652,242 652,238 653,237 653,235 655,233 655,232 658,229 658,228 659,227 659,222 661,220 665,220 667,222 668,222 670,224 671,224 672,225 673,225 674,226 677,226 678,227 680,227 681,228 683,228 684,229 688,229 689,230 693,230 694,229 697,229 698,228 700,228 701,227 703,227 704,226 725,226 726,227 729,227 730,228 732,228 733,229 735,229 736,230 737,230 738,231 740,231 741,232 744,232 745,233 755,233 756,234 763,234 764,233 774,233 775,234 777,234 778,235 779,235 780,236 782,236 783,237 784,237 785,238 788,238 789,239 790,238 791,238 792,237 793,237 794,236 795,236 796,235 798,235 799,234 801,234 802,233 805,233 806,232 807,232 809,230 810,230 810,229 815,224 816,224 818,222 819,222 820,221 821,221 822,220 824,220 825,219 826,219 827,218 831,218 832,217 838,217 840,219 842,219 844,217 844,216 845,215 845,214 847,212 847,211 848,210 848,209 854,203 855,203 857,201 864,201 865,200 866,200 866,199 867,198 867,191 866,190 866,187 865,186 865,182 864,181 864,161 865,160 865,159 864,158 864,144 865,143 865,142 866,141 866,139 868,137 868,136 869,135 869,134 870,133 870,131 871,130 871,129 872,128 872,126 873,125 873,122 874,121 874,118 876,116 876,115 880,111 881,111 882,110 884,110 886,108 889,108 891,110 891,111 892,112 892,113 893,114 893,115 892,116 892,118 889,121 889,122 892,125 900,125 901,124 902,124 903,123 904,123 906,121 906,120 909,117 911,117 912,118 913,118 916,121 919,121 920,122 923,122 924,123 927,123 928,124 930,124 931,125 932,125 933,126 934,126 935,127 936,127 944,135 945,135 946,136 946,137 947,138 947,139 948,140 948,142 949,143 949,144 950,145 951,144 951,143 952,142 952,141 955,138 956,138 957,137 960,137 961,138 963,138 964,139 965,139 968,142 969,142 970,143 994,143 995,142 996,142 998,140 999,140 1000,139 1001,139 1002,138 1005,138 1006,137 1014,137 1015,136 1018,136 1019,135 1030,135 1032,137 1033,137 1034,138 1035,138 1037,140 1037,142 1038,143 1038,152 1037,153 1037,155 1036,156 1036,157 1035,158 1035,163 1034,164 1034,166 1033,167 1033,173 1032,174 1032,175 1029,178 1028,178 1026,180 1025,180 1023,182 1023,184 1022,185 1023,186 1023,195 1024,196 1024,204 1023,205 1023,206 1022,207 1022,208 1021,209 1021,211 1020,212 1020,215 1019,216 1019,218 1018,219 1018,220 1017,221 1017,222 1011,228 1010,228 1010,229 1008,231 1008,232 1007,233 1007,234 1006,235 1006,237 1005,238 1005,240 1003,242 1003,243 1002,244 1002,245 1001,246 1001,248 1000,249 1000,251 999,252 999,253 998,254 998,256 997,257 997,259 996,260 996,261 995,262 995,272 996,273 996,275 997,276 997,277 998,278 998,279 999,280 1000,280 1002,282 1002,283 1003,284 1004,284 1005,285 1005,286 1006,287 1007,287 1008,288 1009,288 1010,289 1012,289 1013,290 1014,290 1016,292 1017,292 1019,294 1020,294 1021,295 1022,295 1024,297 1025,297 1026,298 1027,298 1028,299 1029,299 1030,300 1031,300 1032,301 1033,301 1037,305 1038,305 1040,307 1042,307 1043,308 1045,308 1046,309 1061,309 1062,310 1067,310 1068,311 1072,311 1073,312 1074,312 1075,313 1076,313 1077,314 1080,314 1081,315 1082,315 1083,316 1084,316 1086,318 1087,318 1089,320 1090,320 1091,321 1092,321 1096,325 1097,325 1100,328 1101,328 1103,330 1104,330 1110,336 1111,336 1115,340 1116,340 1118,342 1118,343 1119,343 1128,352 1128,353 1132,357 1132,359 1133,360 1133,361 1135,363 1135,364 1136,365 1136,366 1137,367 1137,368 1138,369 1138,371 1139,372 1139,382 1138,383 1138,384 1137,385 1137,387 1136,388 1136,389 1135,390 1135,392 1133,394 1133,395 1132,396 1132,397 1130,399 1130,400 1129,401 1129,402 1127,404 1127,405 1126,406 1126,407 1124,409 1124,410 1122,412 1122,413 1111,424 1110,424 1109,425 1108,425 1107,426 1106,426 1105,427 1104,427 1103,428 1102,428 1095,435 1095,436 1092,439 1091,439 1091,440 1089,442 1088,442 1087,443 1087,444 1086,445 1085,445 1079,451 1079,452 1078,453 1077,453 1076,454 1076,455 1069,462 1069,463 1053,479 1053,480 1047,486 1047,487 1045,489 1045,490 1044,491 1044,493 1043,494 1043,526 1044,527 1044,533 1045,534 1045,545 1046,546 1046,565 1045,566 1045,574 1044,575 1044,577 1043,578 1043,580 1042,581 1042,583 1040,585 1040,586 1033,593 1032,593 1029,596 1028,596 1027,597 1026,597 1022,601 1022,602 1021,603 1021,608 1020,609 1020,628 1021,629 1021,635 1022,636 1022,638 1023,639 1023,641 1024,642 1024,645 1025,646 1025,648 1026,649 1026,651 1027,652 1027,654 1028,655 1028,657 1029,658 1029,659 1030,660 1030,662 1031,663 1031,665 1032,666 1032,668 1033,669 1033,670 1034,671 1034,672 1035,673 1035,676 1036,677 1036,679 1037,680 1037,682 1038,683 1038,694 1039,695 1039,706 1040,707 1040,708 1041,709 1041,710 1042,711 1042,713 1043,714 1043,715 1045,717 1045,718 1046,719 1046,720 1047,721 1047,722 1049,724 1049,725 1050,726 1050,727 1051,728 1051,729 1053,731 1053,732 1054,733 1054,734 1056,736 1056,737 1057,738 1057,739 1058,740 1058,741 1060,743 1060,744 1061,745 1061,746 1062,747 1062,748 1064,750 1064,751 1065,752 1065,753 1066,754 1066,755 1068,757 1068,758 1069,759 1069,760 1070,761 1070,762 1072,764 1072,766 1073,767 1073,769 1075,771 1075,772 1076,773 1076,774 1079,777 1079,778 1080,779 1080,780 1081,781 1081,782 1083,784 1083,785 1084,786 1084,787 1086,789 1086,790 1088,792 1088,793 1091,796 1091,797 1094,800 1094,801 1095,802 1095,804 1098,807 1098,808 1099,809 1099,811 1102,814 1102,816 1103,817 1103,818 1105,820 1105,821 1106,822 1106,824 1107,825 1107,826 1109,828 1109,829 1110,830 1110,833 1111,834 1111,835 1113,837 1113,838 1114,839 1114,840 1115,841 1115,842 1117,844 1117,847 1118,848 1118,850 1119,851 1119,852 1120,853 1120,854 1121,855 1121,857 1122,858 1122,859 1123,860 1123,861 1124,862 1124,863 1125,864 1125,867 1126,868 1126,869 1127,870 1127,871 1128,872 1128,874 1129,875 1129,878 1130,879 1130,880 1131,881 1131,882 1132,883 1132,886 1133,887 1133,889 1134,890 1134,892 1135,893 1135,895 1136,896 1136,901 1137,902 1137,904 1138,905 1138,906 1139,907 1139,909 1140,910 1140,913 1141,914 1141,916 1142,917 1142,918 1143,919 1143,921 1144,922 1144,925 1145,926 1145,927 1146,928 1146,930 1147,931 1147,936 1148,937 1148,940 1149,941 1149,944 1150,945 1150,966 1149,967 1149,969 1148,970 1148,973 1147,974 1147,977 1146,978 1146,979 1145,980 1145,983 1144,984 1144,989 1143,990 1143,999 1142,1000 1142,1003 1141,1004 1141,1007 1140,1008 1140,1014 1139,1015 1139,1021 1138,1022 1138,1024 1137,1025 1137,1028 1136,1029 1136,1034 1135,1035 1135,1038 1134,1039 1134,1040 1133,1041 1133,1044 1132,1045 1132,1050 1131,1051 1131,1054 1130,1055 1130,1056 1129,1057 1129,1062 1128,1063 1128,1066 1127,1067 1127,1068 1126,1069 1126,1071 1125,1072 1125,1079 1919,1079 1919,0 Z" fill="black" stroke="none" /></svg>