<?xml version="1.0" encoding="utf-8" ?>
<svg baseProfile="tiny" height="1080px" version="1.2" viewBox="0,0,1920,1080" width="1920px" xmlns="http://www.w3.org/2000/svg" xmlns:ev="http://www.w3.org/2001/xml-events" xmlns:xlink="http://www.w3.org/1999/xlink"><defs /><path d="M1595,1078 1595,1079 1613,1079 1613,1078 Z" fill="black" stroke="none" /><path d="M1553,1078 1553,1079 1561,1079 1561,1078 Z" fill="black" stroke="none" /><path d="M1541,1077 1540,1078 1539,1078 1539,1079 1547,1079 1547,1078 1545,1078 1544,1077 Z" fill="black" stroke="none" /><path d="M1427,1075 1426,1076 1423,1076 1422,1077 1415,1077 1414,1078 1414,1079 1434,1079 1434,1078 1431,1075 Z" fill="black" stroke="none" /><path d="M1452,1064 1451,1065 1449,1065 1448,1066 1447,1066 1446,1067 1445,1067 1444,1068 1443,1068 1442,1069 1440,1069 1439,1070 1429,1070 1429,1072 1430,1073 1431,1072 1439,1072 1440,1073 1442,1073 1443,1074 1444,1074 1445,1075 1446,1075 1449,1078 1449,1079 1491,1079 1491,1074 1494,1071 1494,1069 1490,1065 1489,1066 1482,1066 1481,1067 1479,1067 1478,1068 1477,1068 1476,1069 1470,1069 1469,1068 1465,1068 1464,1067 1462,1067 1461,1066 1459,1066 1458,1065 1455,1065 1454,1064 Z" fill="black" stroke="none" /><path d="M1338,1064 1337,1065 1331,1065 1330,1066 1328,1066 1325,1069 1325,1074 1323,1076 1322,1076 1320,1078 1319,1078 1319,1079 1355,1079 1355,1078 1351,1074 1351,1073 1352,1072 1352,1070 1351,1069 1347,1069 1346,1068 1345,1068 1344,1067 1343,1067 1340,1064 Z" fill="black" stroke="none" /><path d="M1273,1041 1271,1043 1271,1048 1269,1050 1269,1052 1268,1053 1268,1058 1267,1059 1267,1060 1266,1061 1266,1063 1269,1066 1270,1066 1271,1067 1273,1067 1274,1066 1275,1066 1277,1064 1279,1064 1280,1063 1281,1063 1282,1062 1281,1061 1281,1060 1280,1059 1281,1058 1281,1055 1279,1053 1277,1053 1275,1051 1275,1050 1274,1049 1274,1043 1273,1042 Z" fill="black" stroke="none" /><path d="M1332,1034 1332,1035 1331,1036 1330,1036 1329,1037 1329,1041 1333,1041 1333,1034 Z" fill="black" stroke="none" /><path d="M1482,1029 1481,1030 1480,1030 1478,1032 1478,1033 1480,1033 1481,1034 1486,1034 1487,1033 1492,1033 1492,1032 1490,1030 1485,1030 1484,1029 Z" fill="black" stroke="none" /><path d="M1272,1012 1269,1015 1269,1017 1268,1018 1268,1026 1269,1027 1270,1027 1271,1028 1273,1028 1276,1025 1277,1025 1277,1024 1278,1023 1278,1022 1279,1021 1279,1019 1280,1018 1280,1014 1279,1013 1277,1013 1276,1012 Z" fill="black" stroke="none" /><path d="M1449,998 1448,999 1444,999 1444,1002 1445,1002 1446,1003 1448,1003 1449,1004 1451,1004 1452,1005 1461,1005 1462,1004 1463,1004 1464,1003 1465,1003 1465,1002 1462,999 1461,999 1460,998 Z" fill="black" stroke="none" /><path d="M1329,994 1328,995 1323,995 1322,996 1317,996 1316,997 1304,997 1303,998 1284,998 1283,997 1267,997 1266,998 1264,998 1263,999 1261,999 1261,1002 1262,1003 1263,1003 1264,1004 1266,1004 1267,1005 1268,1005 1269,1006 1270,1006 1271,1007 1272,1007 1273,1008 1281,1008 1282,1007 1283,1007 1284,1006 1288,1006 1290,1008 1290,1012 1291,1013 1291,1016 1292,1017 1292,1020 1291,1021 1291,1024 1292,1025 1298,1025 1297,1024 1297,1023 1296,1022 1296,1018 1298,1016 1299,1016 1300,1015 1304,1015 1305,1014 1307,1014 1308,1013 1311,1013 1312,1014 1314,1014 1315,1015 1316,1015 1317,1016 1318,1016 1319,1017 1320,1017 1321,1018 1321,1021 1318,1024 1316,1024 1315,1025 1313,1025 1316,1025 1317,1026 1321,1026 1322,1027 1324,1027 1325,1028 1326,1028 1328,1030 1329,1030 1330,1031 1331,1031 1332,1032 1333,1032 1334,1031 1335,1031 1336,1030 1337,1030 1338,1029 1339,1029 1340,1028 1341,1028 1342,1027 1343,1027 1344,1026 1347,1026 1350,1029 1350,1031 1351,1032 1351,1034 1353,1036 1354,1036 1355,1037 1361,1031 1362,1031 1363,1030 1363,1029 1367,1025 1367,1023 1366,1022 1367,1021 1367,1020 1370,1017 1373,1017 1374,1018 1375,1017 1379,1017 1380,1016 1382,1016 1383,1015 1384,1015 1385,1014 1385,1013 1382,1010 1383,1009 1384,1009 1387,1006 1388,1006 1389,1005 1390,1005 1391,1004 1399,1004 1400,1003 1402,1003 1403,1002 1404,1002 1405,1001 1406,1001 1407,1000 1408,1000 1409,999 1408,998 1406,998 1405,997 1387,997 1386,996 1367,996 1366,995 1360,995 1359,994 1354,994 1353,995 1349,995 1348,996 1345,996 1344,995 1337,995 1336,994 Z" fill="black" stroke="none" /><path d="M1509,976 1505,980 1504,980 1507,980 1508,981 1510,981 1511,980 1514,980 1513,979 1513,978 1512,977 1510,977 Z" fill="black" stroke="none" /><path d="M1496,976 1495,977 1494,977 1494,978 1492,980 1493,980 1494,981 1497,981 1498,980 1500,980 1499,979 1499,978 1498,977 1498,976 Z" fill="black" stroke="none" /><path d="M927,965 928,965 Z" fill="black" stroke="none" /><path d="M1452,955 1452,958 1453,958 1453,956 Z" fill="black" stroke="none" /><path d="M939,950 936,953 935,953 935,954 940,954 939,953 Z" fill="black" stroke="none" /><path d="M1452,948 1451,949 1450,949 1449,950 1452,953 1453,953 1453,952 1454,951 1454,950 1453,949 1453,948 Z" fill="black" stroke="none" /><path d="M1475,947 1473,949 1472,949 1472,950 1473,950 1474,951 1475,951 Z" fill="black" stroke="none" /><path d="M954,925 951,928 951,929 950,930 950,932 951,933 955,933 955,926 Z" fill="black" stroke="none" /><path d="M1496,923 1495,924 1494,924 1493,925 1493,926 1491,928 1494,931 1494,934 1493,935 1493,937 1492,938 1492,943 1491,944 1491,945 1490,946 1490,947 1489,948 1489,952 1490,953 1490,959 1491,960 1491,961 1492,962 1492,963 1494,965 1494,967 1496,969 1498,969 1498,967 1499,966 1499,965 1502,962 1503,962 1504,961 1505,961 1506,960 1507,960 1508,959 1509,959 1509,958 1510,957 1510,953 1511,952 1511,948 1510,947 1510,946 1507,943 1507,942 1510,939 1510,937 1511,936 1511,935 1509,933 1504,933 1503,932 1504,931 1509,931 1510,930 1512,930 1513,929 1514,929 1515,928 1516,928 1514,926 1513,926 1511,924 1509,924 1508,923 Z" fill="black" stroke="none" /><path d="M1465,920 1464,921 1464,922 1461,925 1460,925 1459,926 1458,926 1457,927 1453,927 1452,928 1457,928 1458,929 1461,929 1462,930 1464,930 1468,934 1468,935 1471,938 1471,939 1474,939 1475,938 1475,931 1476,930 1476,929 1477,928 1476,927 1476,926 1475,925 1475,924 1471,924 1468,921 1468,920 Z" fill="black" stroke="none" /><path d="M1402,896 1401,897 1390,897 1389,898 1380,898 1380,899 1378,901 1378,905 1381,905 1382,904 1383,904 1384,903 1385,903 1387,901 1388,901 1389,900 1401,900 1402,901 1407,901 1408,902 1414,902 1415,903 1418,903 1419,904 1421,904 1422,905 1424,905 1425,906 1431,906 1432,905 1433,905 1433,904 1434,903 1434,902 1436,900 1437,900 1438,899 1440,899 1441,898 1443,898 1440,898 1439,897 1432,897 1431,896 Z" fill="black" stroke="none" /><path d="M1490,882 1489,883 1489,885 1488,886 1488,888 1489,889 1489,894 1488,895 1488,902 1490,904 1491,903 1492,903 1493,902 1494,902 1495,901 1496,901 1497,900 1502,900 1504,902 1506,902 1509,899 1509,898 1510,897 1510,885 1508,883 1504,883 1503,884 1501,884 1500,883 1497,883 1496,882 Z" fill="black" stroke="none" /><path d="M1280,492 1278,494 1277,494 1277,495 1275,497 1275,498 1274,499 1274,502 1273,503 1273,508 1274,509 1274,510 1275,511 1275,512 1276,513 1277,512 1280,512 1280,511 1284,507 1284,506 1285,505 1285,504 1286,503 1286,498 1285,497 1285,496 1282,493 1281,493 Z" fill="black" stroke="none" /><path d="M1288,429 1288,430 Z" fill="black" stroke="none" /><path d="M0,0 0,1079 1240,1079 1240,1078 1237,1075 1237,1064 1238,1063 1238,1057 1239,1056 1239,1048 1240,1047 1240,1043 1241,1042 1241,1031 1242,1030 1242,1024 1243,1023 1243,1016 1244,1015 1244,998 1243,998 1242,997 1241,997 1240,996 1232,996 1229,993 1229,992 1228,991 1228,990 1229,989 1229,988 1230,987 1230,984 1229,983 1228,983 1227,982 1226,983 1223,983 1222,984 1221,984 1220,985 1211,985 1210,984 1206,984 1205,983 1204,983 1201,980 1203,978 1204,978 1205,977 1206,977 1207,976 1209,976 1210,977 1222,977 1223,976 1225,976 1226,975 1229,975 1230,974 1232,974 1233,973 1234,973 1235,972 1236,972 1237,971 1239,971 1240,970 1241,970 1242,969 1243,969 1244,970 1244,971 1245,972 1245,973 1246,974 1246,975 1248,977 1249,977 1250,978 1252,976 1252,975 1253,974 1253,973 1256,970 1257,970 1258,969 1258,966 1259,965 1259,948 1258,947 1258,941 1259,940 1259,928 1258,927 1258,923 1256,921 1256,909 1257,908 1257,906 1258,905 1258,898 1259,897 1259,896 1260,895 1260,889 1261,888 1261,884 1262,883 1262,878 1263,877 1263,862 1264,861 1264,853 1265,852 1265,832 1264,831 1264,827 1263,826 1263,823 1262,822 1262,820 1261,819 1261,818 1260,817 1260,816 1259,815 1259,814 1258,813 1258,810 1257,809 1257,808 1256,807 1256,805 1255,804 1255,802 1254,801 1254,800 1253,799 1253,798 1252,797 1252,795 1251,794 1251,789 1250,788 1250,786 1249,785 1249,784 1248,783 1248,781 1247,780 1247,777 1243,773 1243,772 1242,771 1240,771 1239,770 1239,771 1238,772 1237,772 1235,774 1235,778 1234,779 1234,788 1233,789 1233,792 1232,793 1232,795 1231,796 1231,801 1230,802 1230,811 1229,812 1229,817 1228,818 1228,820 1227,821 1227,826 1226,827 1226,839 1225,840 1225,844 1224,845 1224,847 1223,848 1223,855 1222,856 1222,865 1221,866 1221,869 1220,870 1220,874 1219,875 1219,884 1218,885 1218,890 1216,892 1216,893 1213,896 1211,896 1210,897 1201,897 1200,896 1174,896 1173,897 1154,897 1153,898 1132,898 1127,903 1126,903 1125,904 1124,904 1123,905 1121,905 1120,906 1119,906 1118,907 1109,907 1108,906 1102,906 1101,905 1098,905 1097,904 1079,904 1078,905 1071,905 1070,906 1062,906 1061,905 1060,905 1059,904 1057,904 1056,903 1053,903 1052,902 1037,902 1036,901 1033,901 1032,900 1031,900 1030,899 1028,899 1027,898 1015,898 1014,897 1003,897 1002,898 979,898 978,897 962,897 961,898 948,898 949,899 949,901 951,903 951,904 952,905 951,906 950,906 949,907 945,907 944,908 933,908 932,909 930,909 930,912 931,912 932,913 936,913 937,914 948,914 949,915 952,915 954,917 954,918 953,919 953,920 954,921 954,922 956,922 957,923 958,923 959,924 960,924 961,925 962,925 965,928 965,932 966,933 966,936 965,937 965,940 966,941 966,942 963,945 962,945 961,946 960,945 950,945 950,946 949,947 949,948 948,949 948,954 950,956 950,957 951,958 944,965 942,965 939,962 937,962 935,964 934,964 933,965 932,965 932,966 933,967 933,969 934,969 938,973 942,973 943,972 944,973 946,973 947,974 948,974 949,975 958,975 963,980 958,985 958,987 956,989 954,989 953,990 949,990 948,991 944,991 943,992 932,992 931,993 908,993 907,994 838,994 837,995 807,995 806,994 793,994 792,993 787,993 786,992 783,992 780,989 780,984 778,982 778,981 776,979 775,979 774,978 764,978 763,979 756,979 755,980 751,980 750,979 747,979 746,978 738,978 737,979 736,979 735,980 735,981 734,982 734,985 736,987 734,989 733,989 732,990 724,990 723,989 720,989 719,988 719,987 722,984 719,981 718,981 717,980 716,980 715,979 714,979 713,978 712,978 709,975 708,975 706,973 706,969 707,968 707,967 708,966 708,957 709,956 709,954 710,953 710,952 713,949 714,949 715,948 716,948 717,947 718,947 721,944 722,944 723,943 724,943 725,942 726,942 727,943 730,943 735,948 735,949 738,952 739,952 740,953 742,953 743,954 742,955 741,955 741,956 740,957 740,958 741,958 742,959 743,959 744,960 746,958 747,958 747,957 744,954 751,947 755,947 756,948 757,948 758,949 760,949 761,950 762,950 763,951 764,951 766,953 766,954 763,957 763,958 764,959 765,959 766,960 774,960 774,959 775,958 775,957 774,956 774,955 771,955 770,954 772,952 773,952 774,951 774,949 776,947 776,945 777,944 777,942 778,941 778,939 779,938 779,936 780,935 780,924 779,923 779,911 780,910 780,909 784,905 781,902 780,902 779,901 768,901 767,900 761,900 760,899 758,899 757,898 752,898 751,897 732,897 731,896 684,896 683,897 620,897 619,896 610,896 609,895 602,895 597,890 597,888 596,887 596,877 597,876 597,874 598,873 598,871 599,870 599,867 600,866 600,862 601,861 601,859 602,858 602,832 601,831 601,823 600,822 600,809 599,808 599,731 598,730 598,709 599,708 599,698 600,697 600,693 601,692 601,690 602,689 602,688 603,687 603,686 604,685 604,684 609,679 609,678 610,677 610,676 611,675 611,674 612,673 612,672 613,671 613,669 620,662 620,660 621,659 621,657 620,656 620,654 619,653 619,652 617,650 617,649 616,648 616,647 614,645 614,644 613,643 613,642 612,642 610,640 610,639 606,635 606,634 603,631 603,630 600,627 600,626 598,624 598,623 596,621 596,620 595,619 595,618 594,617 594,616 592,614 592,612 589,609 589,608 587,606 587,605 584,602 584,601 581,598 581,597 576,592 576,591 572,587 572,586 569,583 569,582 566,579 566,578 565,577 565,576 564,575 564,574 562,572 562,570 561,569 561,568 560,567 560,566 559,565 559,564 558,563 558,561 556,559 556,558 555,557 555,556 554,555 554,553 552,551 552,550 551,549 551,547 550,546 550,545 549,544 549,543 548,542 548,541 547,540 547,538 546,537 546,536 544,534 544,532 543,531 543,526 545,524 549,524 550,523 551,523 552,522 553,522 554,523 555,523 556,524 557,524 558,525 558,526 562,530 562,531 565,534 565,535 566,536 566,537 567,538 567,539 569,541 569,542 571,544 571,545 575,549 577,549 578,550 582,550 583,549 583,547 584,546 584,545 587,542 588,542 589,541 589,540 591,538 591,535 592,534 592,526 593,525 593,524 594,523 597,523 599,521 600,521 601,520 601,519 602,518 602,516 603,515 603,512 604,511 604,510 606,508 606,507 611,502 611,501 617,495 618,495 619,496 620,496 621,497 621,498 622,499 622,500 623,501 623,504 624,505 624,507 625,507 626,506 628,506 628,505 629,504 629,503 630,502 630,501 631,500 632,500 633,499 635,499 638,502 638,505 639,506 639,509 640,510 640,511 642,513 642,515 644,515 647,512 648,512 649,511 650,511 650,509 652,507 653,507 654,506 655,507 656,507 657,508 660,508 661,509 662,509 664,511 665,511 667,513 668,513 670,515 671,515 672,516 673,516 676,519 677,519 678,520 680,520 681,521 683,521 684,522 685,522 688,525 689,525 692,528 692,529 693,530 693,532 694,533 694,534 695,535 695,536 696,537 696,538 697,539 697,540 698,541 698,542 699,543 699,544 700,545 700,548 701,549 701,551 702,552 702,553 703,554 703,555 704,556 704,557 703,558 703,561 701,563 701,569 702,570 702,574 703,575 703,578 704,579 704,580 705,581 705,582 706,583 706,584 707,585 707,586 708,587 708,588 709,589 709,590 711,592 711,593 712,594 712,595 714,597 714,598 716,600 716,601 717,602 717,603 719,605 719,606 720,607 720,610 721,611 721,613 722,614 722,615 723,616 723,620 724,621 724,629 725,630 725,632 729,636 729,637 731,639 735,639 736,638 737,638 738,637 739,637 740,636 741,636 744,633 745,633 747,631 748,631 751,628 752,628 752,627 754,625 755,625 762,618 763,618 767,614 768,614 772,610 773,610 776,607 777,607 778,606 779,606 782,603 783,603 786,600 787,600 788,599 789,599 790,598 791,598 793,596 794,596 795,595 796,595 797,594 798,594 799,593 800,593 801,592 803,592 804,591 806,591 807,590 808,590 809,589 810,589 811,588 814,588 815,587 817,587 819,585 820,585 821,584 826,584 827,583 828,583 830,581 833,581 834,580 839,580 841,578 842,578 843,577 848,577 849,576 853,576 854,575 855,575 856,574 858,574 859,573 864,573 865,572 868,572 870,570 872,570 873,569 879,569 880,568 882,568 884,566 887,566 888,565 893,565 894,564 895,564 896,563 897,563 898,562 902,562 903,561 907,561 908,560 909,560 910,559 911,559 912,558 916,558 917,557 919,557 921,555 922,555 923,554 927,554 928,553 930,553 932,551 934,551 935,550 937,550 938,549 939,549 940,548 941,548 942,547 944,547 945,546 951,546 952,545 955,545 957,543 958,543 959,542 959,541 961,539 961,537 962,536 962,533 963,532 963,527 964,526 964,525 965,524 965,523 966,522 966,515 967,514 967,509 968,508 968,507 969,506 969,505 970,504 970,500 971,499 971,496 974,493 974,490 975,489 975,488 978,485 978,484 980,482 980,481 982,479 982,478 986,474 986,473 989,470 989,458 988,457 988,455 986,453 986,452 985,451 985,449 984,448 984,447 982,445 982,442 981,441 981,439 979,437 979,436 978,435 978,431 977,430 977,428 975,426 975,425 974,424 974,421 970,417 970,416 967,413 966,413 965,412 964,412 961,409 961,408 959,406 959,405 958,404 958,403 957,402 957,401 956,400 956,398 955,397 955,396 954,395 954,394 953,393 953,391 952,390 952,387 951,386 951,380 950,379 950,376 949,375 949,373 948,372 948,368 947,367 947,363 946,362 946,361 945,360 945,356 944,355 944,346 943,345 943,342 942,341 942,340 941,339 941,336 940,335 940,332 937,329 937,327 936,326 936,325 934,323 934,322 933,321 933,319 932,318 932,317 931,316 931,315 930,314 930,313 929,312 929,310 927,308 927,307 925,305 925,303 924,302 924,301 922,299 922,297 921,296 921,295 920,294 920,293 919,292 919,291 918,290 918,288 917,287 917,285 915,283 915,281 914,280 914,278 913,277 913,275 912,274 912,271 911,270 911,267 910,266 910,262 909,261 909,259 907,257 907,256 906,255 906,254 905,253 905,252 902,249 902,247 901,246 901,235 902,234 902,230 903,229 903,226 904,225 904,224 905,223 905,222 906,221 906,219 907,218 907,217 908,216 908,215 909,214 909,212 910,211 910,206 911,205 911,204 912,203 912,202 915,199 915,198 917,196 917,195 920,192 920,191 921,190 921,189 931,179 932,179 938,173 939,173 943,169 944,169 947,166 948,166 949,165 950,165 951,164 952,164 953,163 954,163 955,162 956,162 957,161 958,161 959,160 960,160 962,158 963,158 964,157 965,157 968,154 969,154 975,148 975,147 985,137 985,136 994,127 995,127 996,126 997,126 999,124 1000,124 1001,123 1002,123 1005,120 1006,120 1007,119 1008,119 1009,118 1010,118 1012,116 1013,116 1014,115 1015,115 1017,113 1018,113 1019,112 1020,112 1021,111 1022,111 1023,110 1024,110 1026,108 1027,108 1028,107 1030,107 1032,105 1033,105 1034,104 1036,104 1037,103 1038,103 1040,101 1042,101 1043,100 1046,100 1047,99 1050,99 1051,98 1066,98 1067,99 1069,99 1070,100 1072,100 1073,101 1074,101 1075,102 1076,102 1077,103 1077,104 1081,108 1083,108 1084,109 1086,109 1087,110 1088,110 1092,114 1093,114 1095,116 1096,116 1097,117 1098,117 1099,118 1101,118 1102,119 1113,119 1114,118 1116,118 1118,116 1119,116 1120,115 1120,114 1127,107 1128,107 1130,105 1133,105 1134,104 1143,104 1144,105 1146,105 1147,106 1148,106 1149,107 1150,107 1151,108 1152,108 1153,109 1154,109 1156,111 1157,111 1158,112 1159,112 1161,114 1162,114 1164,116 1165,116 1167,118 1168,118 1171,121 1172,121 1174,123 1175,123 1177,125 1178,125 1180,127 1181,127 1183,129 1184,129 1185,130 1186,130 1187,131 1188,131 1189,132 1190,132 1191,133 1193,133 1194,134 1195,134 1196,135 1200,135 1201,136 1202,136 1203,137 1205,137 1206,138 1207,138 1208,139 1209,139 1212,142 1213,142 1215,144 1216,144 1218,146 1219,146 1220,147 1221,147 1224,150 1225,150 1228,153 1229,153 1236,160 1237,160 1242,165 1243,165 1245,167 1246,167 1247,168 1248,168 1249,169 1250,169 1252,171 1253,171 1254,172 1256,172 1257,173 1258,173 1261,176 1262,176 1264,178 1264,179 1268,183 1268,184 1269,185 1269,186 1270,187 1270,189 1271,190 1271,192 1272,193 1272,194 1273,195 1273,197 1275,199 1275,200 1277,202 1277,203 1279,205 1279,207 1280,208 1280,210 1281,211 1281,212 1282,213 1282,215 1283,216 1283,219 1284,220 1284,222 1285,223 1285,224 1286,225 1286,229 1287,230 1287,232 1288,233 1288,235 1289,236 1289,239 1290,240 1290,245 1291,246 1291,250 1292,251 1292,254 1293,255 1293,271 1292,272 1292,276 1291,277 1291,278 1290,279 1290,280 1288,282 1288,283 1287,284 1287,286 1286,287 1286,290 1285,291 1285,297 1284,298 1284,304 1283,305 1283,307 1282,308 1282,310 1281,311 1281,312 1279,314 1279,315 1277,317 1277,318 1275,320 1275,321 1273,323 1273,324 1272,325 1272,326 1271,327 1271,329 1270,330 1270,331 1268,333 1268,334 1267,335 1267,336 1266,337 1265,337 1265,338 1263,340 1263,341 1260,344 1260,345 1258,347 1258,348 1257,349 1257,350 1256,351 1256,353 1255,354 1255,355 1254,356 1254,359 1253,360 1253,364 1252,365 1252,369 1251,370 1251,372 1250,373 1250,374 1249,375 1249,377 1248,378 1248,379 1247,380 1247,381 1246,382 1246,383 1245,384 1245,386 1243,388 1243,389 1242,390 1242,391 1241,392 1241,393 1240,394 1240,395 1239,396 1239,397 1238,398 1238,400 1237,401 1237,402 1236,403 1236,404 1235,405 1235,406 1234,407 1234,408 1224,418 1224,419 1220,423 1220,424 1219,425 1219,426 1214,431 1214,432 1209,437 1209,438 1206,441 1206,445 1207,446 1207,450 1206,451 1207,451 1208,452 1209,452 1216,459 1216,462 1217,463 1217,465 1218,466 1218,472 1217,473 1217,477 1216,478 1216,519 1218,521 1218,522 1219,523 1219,524 1221,526 1222,526 1224,528 1225,528 1226,527 1226,525 1225,524 1225,523 1224,522 1224,521 1223,520 1223,518 1222,517 1222,507 1223,506 1223,501 1224,500 1228,500 1229,501 1229,502 1230,503 1230,504 1231,505 1231,507 1236,507 1237,508 1239,508 1240,509 1243,509 1245,511 1245,515 1242,518 1239,518 1236,521 1236,522 1235,523 1235,524 1234,525 1234,526 1233,527 1233,530 1231,532 1230,532 1230,533 1229,534 1229,536 1228,537 1228,538 1230,540 1230,541 1231,542 1232,542 1235,545 1241,545 1241,544 1240,543 1240,535 1239,534 1243,530 1247,534 1250,534 1254,530 1267,530 1268,529 1270,529 1271,528 1273,528 1275,526 1275,523 1274,522 1274,520 1273,519 1273,517 1271,515 1271,514 1269,514 1265,510 1265,503 1262,500 1261,500 1261,502 1260,503 1260,508 1259,509 1259,510 1258,511 1255,508 1255,506 1253,504 1253,502 1252,501 1252,500 1246,494 1246,493 1245,492 1246,491 1246,488 1249,485 1250,485 1253,482 1253,478 1254,477 1254,476 1255,475 1255,474 1257,472 1265,472 1268,469 1268,468 1272,464 1277,464 1278,465 1279,465 1280,466 1283,466 1284,465 1284,463 1282,461 1281,461 1279,459 1279,458 1277,456 1277,454 1275,452 1275,451 1274,450 1274,448 1273,447 1273,446 1272,445 1272,443 1271,442 1271,439 1270,438 1270,423 1271,422 1271,420 1272,419 1272,416 1273,415 1273,411 1274,410 1274,408 1275,407 1275,406 1277,404 1277,403 1279,401 1282,401 1283,400 1284,400 1285,401 1286,401 1291,406 1291,407 1292,407 1295,410 1300,410 1304,406 1305,406 1307,404 1311,404 1312,405 1317,405 1318,404 1322,404 1323,403 1329,403 1334,408 1334,409 1335,410 1335,412 1334,413 1334,414 1335,415 1335,422 1336,423 1336,427 1337,428 1337,430 1338,431 1338,432 1339,433 1339,434 1340,435 1340,436 1342,438 1342,439 1344,441 1344,442 1348,446 1349,446 1350,447 1355,447 1356,446 1358,446 1359,445 1360,445 1361,446 1363,446 1364,445 1365,445 1366,444 1370,448 1370,449 1371,450 1371,469 1370,470 1370,474 1369,475 1369,487 1368,488 1368,489 1369,490 1369,503 1370,504 1370,517 1371,518 1371,524 1372,525 1372,535 1371,536 1371,546 1370,547 1370,572 1372,574 1372,576 1373,577 1373,578 1374,579 1374,582 1375,583 1375,586 1376,587 1376,591 1377,592 1377,593 1380,596 1380,597 1381,597 1382,598 1383,598 1384,599 1387,599 1388,600 1390,600 1392,602 1394,602 1395,603 1397,603 1400,606 1402,606 1403,607 1404,607 1407,610 1408,610 1425,627 1425,628 1429,632 1429,633 1431,635 1431,636 1433,638 1433,639 1436,642 1436,643 1440,647 1440,648 1442,650 1442,651 1445,654 1445,655 1448,658 1448,659 1451,662 1451,664 1452,665 1452,666 1455,669 1455,670 1456,671 1456,672 1459,675 1459,676 1463,680 1463,681 1469,687 1469,688 1470,689 1470,690 1471,691 1471,692 1473,694 1473,695 1474,696 1474,698 1475,699 1475,700 1477,702 1477,704 1478,705 1478,707 1479,708 1479,709 1480,710 1480,711 1481,712 1481,715 1482,716 1482,718 1484,720 1484,722 1485,723 1485,726 1486,727 1486,728 1487,729 1487,730 1488,731 1488,734 1489,735 1489,738 1491,740 1491,741 1492,742 1492,746 1493,747 1493,749 1495,751 1495,753 1496,754 1496,758 1497,759 1497,760 1499,762 1499,765 1500,766 1500,770 1501,771 1501,772 1503,774 1503,777 1504,778 1504,781 1505,782 1505,783 1507,785 1507,789 1508,790 1508,793 1510,795 1510,797 1511,798 1511,802 1512,803 1512,805 1514,807 1514,808 1515,809 1515,813 1516,814 1516,816 1517,817 1517,818 1518,819 1518,821 1519,822 1519,825 1520,826 1520,827 1522,829 1522,831 1523,832 1523,838 1524,839 1524,840 1525,841 1525,843 1526,844 1526,849 1527,850 1527,853 1528,854 1528,855 1529,856 1529,858 1530,859 1530,863 1531,864 1531,866 1532,867 1532,873 1531,874 1531,875 1532,876 1532,878 1533,879 1533,880 1532,881 1532,882 1531,883 1530,883 1529,882 1528,882 1525,885 1525,887 1524,888 1524,893 1523,894 1523,906 1526,909 1528,909 1532,905 1533,905 1535,903 1536,904 1536,905 1543,912 1544,911 1546,911 1547,910 1548,910 1550,908 1557,908 1559,910 1559,912 1560,913 1560,914 1561,915 1561,917 1562,918 1562,919 1563,920 1562,921 1562,922 1560,924 1560,926 1559,927 1559,932 1558,933 1558,934 1557,935 1556,935 1554,937 1552,937 1551,938 1548,938 1547,937 1545,937 1543,935 1542,936 1542,937 1541,938 1541,940 1540,941 1540,946 1541,947 1541,949 1543,951 1544,951 1545,950 1549,950 1550,949 1551,949 1552,950 1555,950 1556,951 1558,951 1560,953 1561,953 1562,954 1562,955 1563,955 1564,956 1565,956 1566,957 1566,958 1567,958 1571,962 1571,963 1573,965 1573,966 1572,967 1572,968 1570,970 1570,971 1566,975 1565,975 1564,976 1563,976 1562,977 1561,977 1560,978 1559,978 1558,979 1557,979 1556,980 1556,981 1558,983 1558,984 1562,988 1562,989 1563,990 1563,991 1564,992 1564,993 1565,994 1565,1000 1564,1001 1564,1003 1565,1003 1566,1004 1569,1004 1570,1005 1575,1005 1576,1006 1578,1006 1579,1007 1584,1007 1585,1008 1589,1008 1590,1009 1591,1009 1593,1011 1593,1013 1594,1014 1593,1015 1593,1017 1592,1018 1592,1019 1591,1020 1591,1021 1588,1024 1588,1025 1587,1026 1587,1027 1586,1028 1586,1033 1582,1037 1582,1038 1580,1040 1579,1040 1584,1045 1585,1045 1588,1048 1588,1051 1589,1051 1590,1052 1591,1052 1593,1054 1593,1055 1594,1055 1596,1057 1597,1057 1599,1059 1600,1059 1604,1063 1605,1063 1606,1064 1609,1064 1610,1065 1611,1065 1612,1064 1615,1064 1616,1063 1622,1063 1623,1062 1626,1062 1627,1061 1628,1061 1629,1060 1632,1060 1634,1058 1634,1057 1635,1056 1635,1054 1636,1053 1636,1052 1637,1051 1637,1050 1638,1049 1638,1046 1639,1045 1639,1040 1636,1037 1636,1036 1634,1034 1634,1032 1633,1031 1633,1029 1631,1027 1630,1027 1628,1025 1632,1021 1632,1019 1633,1018 1633,1015 1632,1014 1633,1013 1633,1011 1641,1003 1647,1003 1648,1002 1656,1002 1657,1003 1658,1003 1659,1004 1660,1004 1663,1007 1663,1008 1665,1010 1664,1011 1664,1012 1663,1013 1663,1014 1662,1015 1662,1017 1661,1018 1665,1022 1665,1023 1667,1025 1666,1026 1664,1026 1663,1027 1662,1027 1660,1029 1660,1030 1659,1031 1659,1032 1651,1040 1651,1041 1652,1042 1652,1044 1654,1046 1654,1047 1655,1048 1658,1048 1659,1049 1661,1049 1662,1050 1663,1050 1664,1049 1668,1049 1669,1050 1671,1050 1672,1051 1673,1051 1674,1052 1678,1052 1679,1053 1680,1053 1681,1054 1683,1054 1684,1055 1686,1055 1687,1056 1689,1056 1690,1057 1691,1057 1692,1058 1697,1053 1697,1052 1698,1051 1698,1049 1699,1048 1699,1047 1700,1046 1701,1046 1702,1047 1702,1048 1704,1050 1704,1051 1706,1053 1706,1054 1708,1056 1709,1056 1715,1062 1718,1062 1719,1063 1720,1062 1722,1062 1724,1064 1724,1065 1725,1066 1725,1068 1726,1069 1726,1070 1723,1073 1720,1073 1719,1074 1718,1074 1714,1078 1714,1079 1917,1079 1917,1078 1918,1077 1919,1077 1919,0 Z" fill="black" stroke="none" /></svg>