<?xml version="1.0" encoding="utf-8" ?>
<svg baseProfile="tiny" height="1080px" version="1.2" viewBox="0,0,1920,1080" width="1920px" xmlns="http://www.w3.org/2000/svg" xmlns:ev="http://www.w3.org/2001/xml-events" xmlns:xlink="http://www.w3.org/1999/xlink"><defs /><path d="M664,1077 663,1078 660,1078 660,1079 682,1079 682,1078 680,1078 679,1077 Z" fill="black" stroke="none" /><path d="M600,1077 599,1078 597,1078 597,1079 614,1079 614,1078 613,1078 612,1077 Z" fill="black" stroke="none" /><path d="M545,1062 545,1063 Z" fill="black" stroke="none" /><path d="M552,1050 552,1053 Z" fill="black" stroke="none" /><path d="M635,1038 633,1040 636,1040 635,1039 Z" fill="black" stroke="none" /><path d="M609,1037 607,1039 607,1040 606,1041 606,1042 604,1044 604,1048 603,1049 601,1049 600,1050 599,1050 598,1051 597,1051 597,1052 596,1053 596,1054 595,1055 597,1057 597,1060 596,1061 596,1063 597,1063 598,1064 599,1064 600,1065 601,1065 602,1066 606,1066 607,1067 610,1067 611,1066 613,1066 614,1065 615,1065 616,1064 619,1064 620,1063 633,1063 634,1062 634,1059 638,1055 636,1053 634,1053 633,1052 631,1052 628,1055 628,1057 629,1058 629,1059 627,1061 625,1061 624,1062 623,1061 622,1061 619,1058 619,1055 617,1055 610,1048 610,1047 611,1046 611,1045 612,1044 611,1043 611,1040 609,1038 Z" fill="black" stroke="none" /><path d="M609,1020 609,1021 607,1023 607,1024 606,1025 607,1026 607,1027 608,1028 608,1029 609,1030 609,1029 610,1028 610,1023 609,1022 Z" fill="black" stroke="none" /><path d="M1331,995 1329,997 1329,998 1328,999 1332,1003 1333,1003 1334,1004 1336,1004 1337,1005 1348,1005 1350,1007 1350,1009 1351,1010 1351,1014 1353,1016 1358,1016 1359,1015 1371,1015 1375,1019 1376,1019 1377,1020 1378,1020 1379,1021 1381,1021 1383,1023 1383,1024 1384,1025 1384,1026 1383,1027 1383,1028 1381,1030 1380,1030 1379,1031 1378,1031 1377,1032 1377,1033 1386,1033 1387,1032 1387,1025 1388,1024 1389,1024 1392,1021 1393,1021 1394,1020 1395,1020 1397,1018 1398,1018 1398,1014 1396,1012 1395,1012 1394,1011 1393,1011 1392,1010 1394,1008 1394,1007 1395,1006 1396,1006 1397,1005 1398,1005 1399,1004 1400,1004 1402,1002 1402,1001 1404,999 1403,999 1402,998 1397,998 1396,997 1358,997 1357,996 1336,996 1335,995 Z" fill="black" stroke="none" /><path d="M925,963 924,964 923,964 922,965 924,967 925,967 927,969 935,969 936,970 937,970 938,971 939,971 940,970 940,968 941,967 941,965 939,963 937,963 936,964 933,964 932,965 931,965 929,963 Z" fill="black" stroke="none" /><path d="M887,949 886,950 887,951 888,951 889,950 890,950 888,950 Z" fill="black" stroke="none" /><path d="M1302,935 1303,935 Z" fill="black" stroke="none" /><path d="M1329,934 1328,935 1324,935 1323,936 1323,939 1324,940 1324,941 1326,943 1327,943 1328,944 1330,944 1331,945 1333,945 1333,937 1331,935 1330,935 Z" fill="black" stroke="none" /><path d="M954,925 954,926 953,927 953,929 952,930 952,931 953,932 954,932 955,931 955,930 957,928 957,926 955,926 Z" fill="black" stroke="none" /><path d="M1391,900 1390,901 1386,901 1385,902 1383,902 1382,903 1378,903 1377,904 1375,904 1374,905 1371,905 1372,905 1373,906 1376,906 1377,907 1382,907 1383,908 1387,908 1388,909 1392,909 1393,908 1395,908 1396,907 1397,907 1399,905 1399,904 1396,901 1394,901 1393,900 Z" fill="black" stroke="none" /><path d="M0,0 0,1079 548,1079 548,1078 547,1077 547,1076 546,1076 545,1075 544,1076 542,1076 541,1077 540,1076 533,1076 532,1077 527,1077 526,1078 525,1077 520,1077 519,1076 512,1076 511,1075 509,1075 508,1074 503,1074 502,1073 498,1073 497,1072 490,1072 489,1071 486,1071 484,1069 484,1068 483,1067 483,1065 484,1064 484,1062 485,1061 486,1061 487,1060 488,1060 489,1059 490,1060 492,1060 493,1061 494,1061 496,1063 497,1062 498,1062 501,1059 502,1059 502,1058 504,1056 504,1055 503,1054 502,1054 497,1049 494,1049 493,1050 488,1050 487,1049 486,1049 484,1047 484,1044 483,1043 483,1040 484,1039 489,1039 490,1038 495,1038 496,1037 498,1037 499,1036 502,1036 503,1035 507,1035 508,1036 513,1036 514,1035 521,1035 522,1036 529,1036 530,1037 532,1035 533,1035 534,1034 539,1034 540,1035 543,1035 544,1034 545,1034 548,1031 548,1030 551,1027 551,1026 552,1025 551,1024 551,1023 548,1020 548,1019 547,1018 547,1012 546,1011 546,1010 549,1007 551,1007 552,1006 556,1006 558,1008 559,1008 562,1011 562,1017 563,1018 563,1021 564,1022 564,1025 564,1022 566,1020 567,1020 568,1019 568,1017 569,1016 569,1008 570,1007 570,1005 571,1004 571,1003 572,1002 571,1001 571,998 568,995 568,994 566,992 566,987 569,984 569,983 571,981 571,980 573,978 573,977 574,976 574,975 579,970 580,970 581,969 581,962 583,960 586,960 592,954 592,953 594,951 595,951 598,948 599,948 601,946 602,947 602,949 603,950 603,957 602,958 602,959 600,961 599,961 597,963 596,963 594,965 594,966 595,966 596,967 597,967 601,971 601,972 602,973 601,974 601,980 598,983 597,983 596,984 589,984 588,983 585,983 584,984 583,984 583,986 582,987 584,989 585,989 586,990 602,990 603,991 603,992 602,993 601,993 599,995 600,995 601,996 602,996 604,998 604,999 605,1000 605,1002 608,1005 622,1005 623,1004 625,1004 626,1005 629,1005 630,1006 642,1006 643,1007 651,1007 652,1008 656,1008 657,1009 660,1009 661,1010 659,1012 658,1012 657,1013 655,1013 654,1014 653,1014 653,1025 654,1025 655,1026 658,1026 659,1025 663,1025 664,1026 667,1026 668,1027 678,1027 679,1026 680,1026 681,1025 681,1022 682,1021 682,1012 684,1010 686,1010 688,1012 688,1014 689,1015 689,1016 691,1018 693,1018 694,1017 696,1017 697,1016 698,1016 699,1015 700,1015 701,1016 705,1016 706,1017 707,1017 709,1019 710,1019 713,1022 713,1024 714,1025 714,1026 718,1030 718,1031 719,1032 717,1034 715,1034 713,1036 712,1036 709,1039 708,1039 707,1040 705,1040 703,1038 702,1038 701,1037 699,1037 698,1036 697,1036 696,1035 692,1035 689,1038 689,1039 688,1040 687,1040 687,1042 686,1043 686,1045 687,1046 687,1048 686,1049 685,1049 684,1050 682,1048 682,1040 681,1040 679,1038 678,1038 676,1036 668,1036 667,1037 659,1037 658,1036 654,1036 653,1037 651,1037 650,1038 646,1038 645,1039 644,1039 643,1040 645,1042 645,1043 648,1046 648,1048 642,1054 641,1054 640,1055 641,1056 642,1056 645,1059 645,1062 646,1063 649,1063 650,1064 658,1064 659,1063 660,1063 661,1062 664,1062 665,1063 668,1063 669,1064 677,1064 678,1063 680,1063 683,1060 688,1060 691,1063 692,1063 693,1064 696,1064 697,1065 703,1065 704,1064 705,1064 706,1063 707,1063 709,1065 709,1066 710,1067 709,1068 709,1070 706,1073 705,1073 704,1074 703,1074 702,1075 701,1075 700,1076 699,1076 698,1077 696,1077 695,1078 692,1078 692,1079 1249,1079 1249,1078 1248,1078 1247,1077 1243,1077 1242,1076 1239,1076 1238,1075 1235,1075 1234,1074 1232,1074 1231,1073 1230,1073 1229,1072 1228,1072 1227,1071 1225,1071 1224,1070 1225,1069 1226,1069 1227,1068 1228,1068 1231,1065 1232,1065 1233,1064 1235,1064 1236,1063 1239,1063 1239,1062 1238,1062 1237,1061 1235,1061 1234,1060 1233,1060 1232,1059 1231,1059 1230,1058 1230,1057 1228,1055 1235,1048 1235,1047 1236,1046 1236,1041 1235,1040 1234,1040 1233,1039 1232,1039 1231,1038 1230,1038 1225,1033 1225,1032 1227,1030 1227,1029 1230,1026 1230,1025 1229,1025 1228,1024 1219,1024 1218,1023 1215,1023 1214,1022 1207,1022 1206,1023 1203,1023 1202,1022 1201,1022 1197,1018 1197,1010 1198,1009 1200,1009 1201,1010 1202,1009 1212,1009 1213,1010 1214,1009 1220,1009 1221,1008 1227,1008 1228,1007 1234,1007 1235,1006 1237,1006 1238,1005 1241,1005 1242,1004 1245,1004 1246,1003 1247,1003 1248,1002 1249,1002 1250,1001 1251,1001 1252,1000 1262,1000 1263,1001 1265,1001 1266,1002 1267,1002 1268,1003 1270,1003 1271,1004 1286,1004 1287,1005 1296,1005 1297,1004 1299,1004 1300,1003 1303,1003 1304,1002 1303,1001 1303,998 1306,995 1298,995 1297,994 1291,994 1290,995 1284,995 1283,994 1280,994 1279,993 1275,993 1273,991 1280,984 1280,983 1279,982 1279,980 1278,980 1277,979 1276,979 1275,978 1271,978 1270,977 1269,977 1268,978 1265,978 1264,979 1262,979 1261,980 1258,980 1257,981 1256,980 1256,977 1255,976 1255,975 1254,975 1253,974 1249,974 1248,975 1245,975 1244,976 1239,976 1238,977 1238,979 1237,980 1225,980 1224,981 1223,980 1221,980 1217,976 1216,976 1215,975 1214,975 1212,973 1214,971 1214,970 1216,968 1217,968 1218,967 1219,967 1220,966 1221,966 1222,965 1222,964 1224,962 1227,965 1228,965 1229,966 1232,966 1233,965 1234,965 1234,961 1233,960 1232,960 1230,958 1231,957 1232,957 1233,956 1236,956 1238,958 1236,960 1236,965 1237,965 1238,966 1244,966 1245,967 1246,967 1250,971 1251,970 1251,969 1254,966 1255,966 1257,968 1258,967 1258,966 1259,965 1259,964 1260,963 1260,961 1262,959 1263,959 1264,958 1265,958 1269,962 1269,963 1271,963 1272,964 1273,964 1274,963 1275,963 1276,962 1277,962 1278,961 1279,961 1280,960 1282,960 1283,961 1289,961 1290,960 1291,960 1292,959 1293,959 1294,958 1295,958 1296,957 1295,956 1295,955 1294,954 1294,953 1293,952 1293,950 1292,950 1288,946 1283,946 1282,945 1275,945 1274,946 1271,946 1270,947 1267,947 1266,946 1264,946 1263,945 1262,945 1261,944 1261,942 1263,940 1264,940 1265,939 1265,938 1267,936 1267,931 1268,930 1268,928 1269,927 1270,927 1271,928 1272,928 1274,930 1274,932 1275,933 1275,935 1276,936 1276,937 1277,938 1283,938 1284,937 1287,937 1289,935 1289,928 1288,927 1288,923 1287,922 1287,920 1289,918 1290,918 1291,917 1294,917 1295,916 1296,917 1297,917 1299,919 1300,919 1301,920 1301,921 1302,922 1302,923 1303,924 1305,922 1306,922 1307,921 1308,921 1309,920 1310,920 1311,919 1312,919 1313,918 1315,918 1316,917 1320,917 1321,918 1323,918 1324,919 1330,919 1331,918 1332,918 1333,917 1333,916 1334,915 1334,913 1340,907 1349,907 1350,906 1355,906 1356,905 1357,905 1351,905 1350,904 1338,904 1337,903 1334,903 1333,902 1331,902 1330,901 1328,901 1327,900 1326,900 1325,899 1321,899 1320,898 1272,898 1271,897 1262,897 1261,896 1227,896 1226,897 1220,897 1219,898 1215,898 1214,897 1208,897 1207,896 1201,896 1200,897 1196,897 1195,896 1191,896 1190,895 1186,895 1185,896 1182,896 1181,897 1178,897 1177,898 1175,898 1174,899 1173,899 1170,902 1170,903 1167,906 1165,906 1164,907 1161,907 1160,908 1156,908 1155,907 1151,907 1150,906 1148,906 1147,905 1147,902 1149,900 1150,900 1151,899 1153,899 1154,898 1160,898 1148,898 1147,897 1141,897 1140,898 1126,898 1125,897 1086,897 1085,898 1080,898 1079,899 1079,900 1076,903 1075,903 1074,904 1073,904 1072,905 1071,905 1070,906 1068,906 1067,907 1066,907 1065,908 1064,908 1063,909 1062,909 1061,910 1061,911 1060,912 1060,913 1061,914 1062,914 1063,915 1063,916 1061,918 1049,918 1048,917 1047,918 1032,918 1031,919 1017,919 1016,920 1014,920 1014,923 1013,924 1014,925 1014,928 1013,929 1013,934 1014,935 1014,936 1016,936 1017,937 1018,937 1019,938 1020,938 1021,939 1021,943 1020,944 1018,944 1017,945 1013,945 1012,946 1011,946 1010,947 1009,947 1008,946 1004,946 1003,947 1002,947 1001,946 999,946 996,943 996,941 995,940 995,935 996,934 996,932 1000,928 1001,928 1001,926 1000,925 1000,924 999,924 998,923 995,923 994,924 993,924 991,926 990,926 990,927 989,928 994,933 994,940 992,942 991,942 987,938 987,936 986,935 986,928 984,926 984,925 980,921 979,921 978,922 976,922 975,923 971,923 970,922 965,922 964,923 962,923 961,924 959,924 960,925 962,925 963,926 964,926 966,928 966,929 968,931 968,932 967,933 967,935 966,936 966,937 965,938 965,942 964,943 964,944 961,947 959,947 958,948 955,948 954,949 953,948 953,947 952,946 951,946 950,945 950,947 949,948 949,951 950,952 950,954 961,954 962,955 963,955 966,958 964,960 963,960 962,961 960,961 959,960 958,960 957,959 956,959 955,960 950,960 945,965 945,966 947,968 947,969 948,970 948,971 949,972 949,973 958,973 959,974 960,974 961,975 962,975 964,977 964,980 961,983 960,983 960,984 959,985 959,987 957,989 956,989 955,990 954,990 953,991 952,991 951,992 946,992 945,993 912,993 911,994 905,994 904,995 884,995 883,996 869,996 868,995 855,995 854,996 834,996 833,997 819,997 818,996 807,996 806,995 797,995 796,994 787,994 786,993 781,993 780,992 779,992 778,991 778,990 779,989 779,986 780,985 780,982 779,981 779,980 778,979 778,978 774,974 773,974 772,975 771,975 770,976 767,976 766,977 757,977 756,976 754,976 753,975 752,975 750,973 750,971 751,970 751,969 752,968 753,968 754,967 755,967 756,966 757,966 759,964 767,964 768,965 769,965 773,969 773,970 774,971 774,970 777,967 777,966 781,962 783,962 784,961 786,961 787,960 788,960 789,959 793,959 794,958 796,958 796,957 797,956 797,955 800,952 801,952 803,950 804,950 804,948 803,947 803,943 805,941 806,941 807,940 809,940 810,939 815,939 817,937 818,937 819,936 819,935 820,934 820,932 821,931 821,928 822,927 822,926 823,925 823,923 824,922 824,921 825,920 825,919 828,916 829,916 832,913 833,913 834,912 835,912 835,909 834,909 833,908 832,908 831,907 830,907 827,904 827,903 824,900 823,900 822,899 819,899 818,898 776,898 775,897 742,897 741,896 652,896 651,897 619,897 618,896 602,896 601,895 596,895 595,894 594,894 593,893 593,892 592,891 592,880 593,879 593,877 594,876 594,875 595,874 595,870 596,869 596,864 597,863 597,862 598,861 598,859 599,858 599,852 600,851 600,847 601,846 601,845 602,844 602,842 603,841 603,834 604,833 604,832 605,831 605,830 606,829 606,824 607,823 607,815 608,814 608,813 609,812 609,810 610,809 610,802 611,801 611,796 612,795 612,794 613,793 613,791 614,790 614,783 615,782 615,780 616,779 616,778 617,777 617,775 618,774 618,769 619,768 619,767 620,766 620,765 621,764 621,762 622,761 622,759 623,758 623,757 624,756 624,755 625,754 625,753 626,752 626,750 627,749 627,748 629,746 629,744 630,743 630,742 631,741 631,740 632,739 632,738 633,737 633,735 634,734 634,733 635,732 635,731 637,729 637,727 638,726 638,725 640,723 640,721 641,720 641,718 643,716 643,715 644,714 644,713 645,712 645,710 647,708 647,707 648,706 648,704 649,703 649,702 652,699 652,697 655,694 655,693 656,692 656,691 658,689 658,688 659,687 659,685 662,682 662,681 663,680 663,679 664,678 664,677 666,675 666,674 667,673 667,672 670,669 670,668 673,665 673,664 688,649 689,649 691,647 692,647 695,644 696,644 699,641 700,641 701,640 702,640 705,637 706,637 709,634 710,634 712,632 713,632 716,629 717,629 718,628 719,628 719,627 720,626 721,626 722,625 723,625 726,622 727,622 728,621 729,621 732,618 733,618 737,614 739,614 742,611 743,611 744,610 745,610 748,607 750,607 751,606 752,606 755,603 757,603 758,602 759,602 760,601 761,601 763,599 766,599 767,598 768,598 770,596 771,596 772,595 775,595 777,593 778,593 779,592 781,592 782,591 784,591 785,590 786,590 787,589 788,589 789,588 793,588 794,587 795,587 797,585 799,585 800,584 804,584 805,583 806,583 807,582 808,582 809,581 812,581 813,580 817,580 818,579 819,579 820,578 821,578 822,577 826,577 827,576 830,576 831,575 832,575 833,574 834,574 835,573 839,573 840,572 841,572 842,571 843,571 844,570 845,570 846,569 851,569 852,568 854,568 856,566 858,566 859,565 862,565 864,563 865,563 866,562 869,562 870,561 873,561 874,560 875,560 877,558 880,558 881,557 883,557 885,555 886,555 887,554 890,554 891,553 892,553 893,552 894,552 895,551 896,551 897,550 899,550 901,548 902,548 903,547 904,547 905,546 907,546 908,545 909,545 909,542 910,541 910,538 913,535 914,535 916,533 917,533 918,532 919,532 920,531 920,530 921,529 921,523 922,522 922,519 923,518 923,517 924,516 924,515 925,514 925,510 926,509 926,507 928,505 928,503 929,502 929,500 930,499 930,498 931,497 931,496 933,494 933,492 935,490 935,489 936,488 936,487 937,486 937,485 941,481 941,480 947,474 947,473 950,470 950,468 951,467 951,455 950,454 950,453 948,451 948,449 947,448 947,447 945,445 945,444 944,443 944,441 943,440 943,439 941,437 941,435 940,434 940,432 939,431 939,430 937,428 937,426 936,425 936,423 934,421 934,420 933,419 933,417 932,416 932,414 929,411 929,410 925,406 923,406 922,405 920,405 919,404 918,404 917,403 916,403 915,402 915,401 912,398 912,397 911,396 911,395 910,394 910,392 909,391 909,390 908,389 908,387 907,386 907,380 906,379 906,374 905,373 905,371 904,370 904,368 903,367 903,363 902,362 902,359 901,358 901,357 900,356 900,352 899,351 899,339 898,338 898,336 897,335 897,334 896,333 896,330 895,329 895,325 893,323 893,322 892,321 892,320 891,319 891,317 889,315 889,314 888,313 888,311 887,310 887,308 885,306 885,304 884,303 884,301 883,300 883,299 881,297 881,295 880,294 880,292 879,291 879,290 877,288 877,286 876,285 876,283 874,281 874,280 873,279 873,276 872,275 872,273 870,271 870,270 869,269 869,266 868,265 868,262 867,261 867,259 865,257 865,255 864,254 864,250 863,249 863,248 862,247 862,245 861,244 861,238 862,237 862,231 863,230 863,214 864,213 864,210 865,209 865,207 866,206 866,204 867,203 867,200 869,198 869,196 874,191 874,190 878,186 878,185 881,182 881,181 886,176 887,176 890,173 891,173 892,172 893,172 894,171 895,171 896,170 897,170 899,168 899,167 902,164 903,164 907,160 908,160 910,158 911,158 913,156 914,156 916,154 917,154 918,153 919,153 923,149 924,149 944,129 944,128 945,127 946,127 950,123 951,123 952,122 952,121 953,120 954,120 956,118 957,118 959,116 960,116 961,115 962,115 965,112 966,112 968,110 969,110 971,108 972,108 973,107 974,107 977,104 979,104 980,103 981,103 983,101 985,101 986,100 988,100 991,97 994,97 995,96 997,96 998,95 999,95 1000,94 1001,94 1002,93 1005,93 1006,92 1010,92 1011,91 1030,91 1031,92 1032,92 1033,93 1034,93 1037,96 1037,97 1040,100 1041,100 1042,101 1043,101 1044,102 1050,102 1051,103 1052,103 1054,105 1054,106 1059,111 1060,111 1061,112 1067,112 1068,111 1071,111 1072,110 1074,110 1075,109 1076,109 1078,107 1079,107 1082,104 1083,104 1084,103 1086,103 1087,102 1089,102 1090,101 1094,101 1095,100 1103,100 1104,101 1108,101 1110,103 1111,103 1112,104 1113,104 1114,105 1115,105 1116,106 1117,106 1119,108 1121,108 1122,109 1123,109 1126,112 1127,112 1128,113 1129,113 1131,115 1132,115 1133,116 1134,116 1136,118 1137,118 1138,119 1139,119 1140,120 1141,120 1143,122 1144,122 1149,127 1150,127 1154,131 1155,131 1159,135 1160,135 1163,138 1164,138 1166,140 1167,140 1168,141 1169,141 1170,142 1171,142 1172,143 1174,143 1175,144 1176,144 1177,145 1179,145 1180,146 1181,146 1182,147 1183,147 1185,149 1186,149 1187,150 1188,150 1191,153 1192,153 1193,154 1194,154 1195,155 1195,156 1196,157 1197,157 1208,168 1209,168 1223,182 1223,183 1225,185 1226,185 1230,189 1230,190 1234,194 1234,195 1235,196 1235,203 1237,205 1237,206 1238,207 1238,209 1239,210 1239,212 1240,213 1240,215 1241,216 1241,220 1242,221 1242,222 1243,223 1243,224 1244,225 1244,226 1245,227 1245,228 1246,229 1246,231 1247,232 1247,234 1248,235 1248,239 1249,240 1249,243 1250,244 1250,247 1251,248 1251,255 1252,256 1252,263 1251,264 1251,268 1250,269 1250,272 1249,273 1249,276 1248,277 1248,280 1247,281 1247,282 1246,283 1246,285 1245,286 1245,288 1244,289 1244,291 1243,292 1243,293 1242,294 1242,297 1241,298 1241,301 1240,302 1240,304 1239,305 1239,306 1238,307 1238,309 1237,310 1237,311 1236,312 1236,313 1234,315 1234,316 1233,317 1233,318 1231,320 1231,321 1230,322 1230,324 1229,325 1229,327 1226,330 1226,331 1223,334 1223,335 1221,337 1221,338 1215,344 1215,345 1212,348 1212,350 1211,351 1211,356 1210,357 1210,359 1209,360 1209,361 1208,362 1208,365 1207,366 1207,369 1206,370 1206,371 1204,373 1204,375 1203,376 1203,377 1201,379 1201,380 1200,381 1200,382 1199,383 1199,384 1198,385 1198,386 1196,388 1196,390 1194,392 1194,393 1193,394 1193,395 1192,396 1192,397 1191,398 1191,399 1188,402 1188,403 1185,406 1185,407 1174,418 1174,419 1170,423 1170,425 1168,427 1168,428 1163,433 1163,434 1161,436 1161,437 1160,438 1160,443 1161,444 1161,445 1160,446 1160,447 1165,452 1166,452 1167,453 1168,453 1171,456 1171,457 1173,459 1173,481 1172,482 1172,484 1171,485 1171,494 1170,495 1170,510 1171,511 1171,515 1174,518 1174,519 1177,522 1177,523 1181,527 1181,528 1182,529 1182,530 1185,533 1185,535 1189,539 1190,539 1197,546 1200,546 1201,547 1203,547 1204,548 1205,548 1207,550 1209,550 1210,551 1211,551 1213,553 1214,553 1215,554 1216,554 1217,555 1218,555 1220,557 1221,557 1222,558 1223,558 1226,561 1227,561 1231,565 1232,565 1233,566 1234,566 1237,569 1239,569 1243,573 1244,573 1246,575 1246,576 1247,577 1248,577 1250,579 1251,579 1252,580 1254,580 1255,581 1257,581 1260,584 1261,584 1262,585 1263,585 1265,587 1268,587 1269,588 1273,588 1274,589 1276,589 1278,591 1278,593 1279,594 1280,594 1281,595 1286,595 1287,596 1290,596 1292,598 1293,598 1294,599 1296,599 1297,600 1298,600 1300,602 1301,602 1302,603 1304,603 1305,604 1306,604 1308,606 1310,606 1311,607 1313,607 1316,610 1318,610 1320,612 1321,612 1323,614 1325,614 1326,615 1327,615 1329,617 1330,617 1331,618 1332,618 1333,619 1334,619 1335,620 1335,621 1336,621 1337,622 1339,622 1343,626 1344,626 1346,628 1346,629 1347,629 1350,632 1350,633 1351,633 1353,635 1353,636 1357,640 1357,641 1358,642 1358,643 1362,647 1362,648 1365,651 1365,652 1366,653 1366,654 1368,656 1368,657 1369,658 1369,659 1372,662 1372,663 1373,664 1373,665 1376,668 1376,670 1378,672 1378,673 1380,675 1380,677 1383,680 1383,681 1384,682 1384,683 1385,684 1385,685 1387,687 1387,688 1388,689 1388,690 1389,691 1389,692 1391,694 1391,696 1393,698 1393,699 1394,700 1394,701 1395,702 1395,704 1396,705 1396,706 1397,707 1397,708 1398,709 1398,710 1399,711 1399,714 1402,717 1402,720 1403,721 1403,723 1404,724 1404,725 1405,726 1405,727 1406,728 1406,732 1407,733 1407,734 1409,736 1409,738 1410,739 1410,741 1411,742 1411,743 1412,744 1412,745 1413,746 1413,748 1414,749 1414,751 1415,752 1415,753 1417,755 1417,760 1418,761 1418,764 1420,766 1420,769 1421,770 1421,774 1422,775 1422,776 1423,777 1423,778 1424,779 1424,782 1425,783 1425,787 1426,788 1426,790 1427,791 1427,793 1428,794 1428,799 1429,800 1429,805 1430,806 1430,807 1431,808 1431,810 1432,811 1432,827 1433,828 1433,836 1434,837 1434,840 1435,841 1435,846 1436,847 1436,866 1437,867 1437,883 1438,884 1438,897 1439,898 1439,899 1440,900 1440,901 1441,902 1441,903 1442,904 1442,910 1443,911 1443,913 1444,913 1446,915 1449,915 1450,916 1451,916 1455,920 1455,921 1456,922 1456,928 1461,933 1461,938 1462,939 1462,943 1461,944 1461,945 1459,947 1459,948 1457,950 1457,953 1456,954 1456,958 1459,961 1459,962 1461,964 1461,967 1460,968 1460,970 1459,971 1459,973 1458,974 1458,978 1457,979 1457,980 1456,981 1456,982 1455,983 1455,984 1454,985 1454,986 1450,990 1450,991 1449,992 1448,992 1446,994 1445,994 1443,996 1442,996 1440,998 1439,998 1438,999 1436,999 1436,1002 1440,1006 1440,1009 1441,1010 1441,1033 1440,1034 1440,1053 1439,1054 1439,1064 1440,1065 1440,1073 1439,1074 1439,1079 1917,1079 1917,1078 1918,1077 1919,1077 1919,0 Z" fill="black" stroke="none" /></svg>