<?xml version="1.0" encoding="utf-8" ?>
<svg baseProfile="tiny" height="1080px" version="1.2" viewBox="0,0,1920,1080" width="1920px" xmlns="http://www.w3.org/2000/svg" xmlns:ev="http://www.w3.org/2001/xml-events" xmlns:xlink="http://www.w3.org/1999/xlink"><defs /><path d="M761,667 760,668 759,668 759,670 758,671 758,679 757,680 757,685 756,686 756,688 755,689 755,691 754,692 754,707 753,708 753,716 752,717 752,720 751,721 751,729 750,730 750,767 749,768 749,772 748,773 748,776 747,777 747,785 746,786 746,806 745,807 745,814 744,815 744,819 743,820 743,827 742,828 742,834 741,835 741,836 740,837 740,838 739,839 739,845 738,846 738,851 737,852 737,854 736,855 736,858 735,859 735,864 734,865 734,868 733,869 733,870 732,871 732,873 731,874 731,902 730,903 730,926 729,927 729,943 728,944 728,965 727,966 727,997 726,998 726,1005 725,1006 725,1012 724,1013 724,1037 725,1038 725,1040 726,1041 726,1043 727,1044 727,1059 726,1060 726,1061 725,1062 725,1063 724,1064 724,1071 723,1072 723,1075 722,1076 722,1079 808,1079 808,1077 805,1074 805,1069 806,1068 806,1064 807,1063 807,1062 808,1061 808,1059 809,1058 809,1056 810,1055 810,1052 811,1051 811,1050 812,1049 812,1048 813,1047 813,1045 814,1044 814,1043 815,1042 815,1041 816,1040 816,1037 817,1036 817,1019 816,1018 816,1016 815,1015 815,1014 814,1013 814,1011 813,1010 813,1008 812,1007 812,1004 811,1003 811,998 810,997 810,984 809,983 809,958 808,957 808,947 807,946 807,941 806,940 806,932 805,931 805,927 804,926 804,925 803,924 803,921 802,920 802,913 801,912 801,907 800,906 800,902 799,901 799,891 798,890 798,861 797,860 797,850 798,849 798,836 797,835 797,824 798,823 798,818 797,817 797,811 795,809 795,808 794,807 794,803 793,802 793,800 792,799 792,798 791,797 791,789 790,788 790,773 789,772 789,770 787,768 787,766 786,765 786,762 785,761 785,760 784,759 784,758 783,757 783,753 782,752 782,748 781,747 781,745 780,744 780,739 779,738 779,714 778,713 778,709 777,708 777,707 776,706 776,701 775,700 775,692 774,691 774,689 773,688 773,687 772,686 772,682 771,681 771,677 768,674 768,673 767,672 767,670 765,668 764,668 763,667 Z" fill="black" stroke="none" /><path d="M830,432 830,436 831,437 831,438 832,439 832,440 833,441 833,443 834,444 834,446 834,444 835,443 835,438 834,437 834,435 833,435 831,433 831,432 Z" fill="black" stroke="none" /><path d="M830,379 830,380 829,381 829,383 828,384 828,396 829,397 829,411 830,412 830,418 830,413 831,412 831,394 832,393 832,384 831,383 831,381 830,380 Z" fill="black" stroke="none" /><path d="M515,376 514,377 513,377 511,379 511,387 512,388 514,386 515,386 515,385 516,384 516,382 517,381 517,378 Z" fill="black" stroke="none" /><path d="M560,322 560,323 559,324 560,325 560,327 Z" fill="black" stroke="none" /><path d="M0,0 0,137 1,137 4,140 4,142 5,143 5,146 5,144 6,143 6,140 7,139 7,136 8,135 8,132 9,131 10,132 10,151 11,152 11,202 10,203 10,206 11,207 11,266 10,267 10,279 11,280 11,290 10,291 10,297 9,298 7,296 7,294 6,293 6,291 5,290 5,269 5,270 4,271 4,273 3,274 3,275 1,277 0,277 0,1079 674,1079 674,1077 673,1076 673,1074 672,1073 672,1065 671,1064 671,1060 670,1059 670,1056 669,1055 669,1054 667,1052 667,1049 666,1048 666,1045 665,1044 665,1043 664,1042 664,1041 663,1040 663,1029 662,1028 662,1021 661,1020 661,1015 660,1014 660,1002 659,1001 659,977 658,976 658,973 657,972 657,970 656,969 656,942 655,941 655,874 654,873 654,864 653,863 653,860 652,859 652,824 651,823 651,798 650,797 650,795 649,794 649,792 648,791 648,774 647,773 647,768 646,767 646,765 645,764 645,756 644,755 644,655 645,654 645,646 646,645 646,643 647,642 647,633 648,632 648,581 649,580 649,577 650,576 650,572 651,571 651,564 652,563 652,559 653,558 653,554 654,553 654,551 655,550 655,543 656,542 656,535 657,534 657,531 658,530 658,518 657,517 657,515 655,513 655,512 654,511 654,509 652,507 651,507 650,506 649,506 648,505 647,505 646,504 645,504 644,503 643,503 637,497 637,496 636,495 636,494 635,493 635,491 634,490 634,482 633,481 634,480 634,469 635,468 635,465 636,464 636,462 637,461 637,458 638,457 638,456 639,455 639,454 640,453 640,450 641,449 641,447 643,445 643,444 644,443 644,441 645,440 645,439 646,438 646,437 647,436 647,434 648,433 648,430 649,429 649,421 650,420 650,412 649,411 649,407 648,406 648,401 647,400 647,392 646,391 646,383 645,382 645,380 644,379 644,376 642,374 642,373 641,372 640,372 634,366 633,366 632,365 632,364 631,363 628,366 627,366 626,367 625,367 624,368 622,368 621,369 620,369 620,370 619,371 619,377 618,378 618,380 617,381 617,382 615,384 615,385 611,389 610,389 609,390 608,390 606,388 606,387 607,386 607,383 606,382 606,381 605,380 605,379 604,378 604,375 605,374 605,373 606,372 606,369 605,368 604,368 603,367 600,367 599,368 596,368 595,369 594,369 594,370 593,371 593,379 592,380 592,381 593,382 593,384 595,384 596,385 598,385 600,387 600,388 601,389 601,396 600,397 600,398 594,404 593,404 592,405 590,405 589,406 587,406 586,407 582,407 581,408 577,408 575,406 577,404 577,403 578,402 578,401 579,400 579,391 580,390 580,389 581,388 581,387 582,386 582,382 583,381 581,379 579,379 574,384 574,385 573,386 573,387 572,388 572,393 571,394 571,395 572,396 572,401 573,402 573,404 574,405 574,406 571,409 571,411 570,412 570,413 566,417 565,417 564,418 552,418 551,417 550,417 549,416 548,416 547,415 546,415 545,414 546,413 546,411 547,410 547,406 546,406 545,405 537,405 536,404 534,404 533,403 531,403 530,402 526,406 526,408 529,411 530,411 531,412 533,412 534,413 540,413 541,414 540,415 535,415 534,416 533,416 532,417 531,417 530,418 526,418 525,417 521,417 520,416 515,416 514,415 513,415 511,413 510,413 509,412 508,412 507,411 506,411 505,410 504,410 503,409 502,409 501,408 500,408 499,407 498,407 497,406 496,406 494,404 493,404 490,401 490,400 489,400 488,399 488,396 489,395 489,393 488,392 480,392 474,386 474,387 473,388 472,388 471,389 470,389 467,386 466,386 465,385 464,385 463,384 462,384 460,382 459,382 458,381 457,381 454,378 453,378 451,376 450,376 449,375 448,375 445,372 444,372 441,369 441,368 438,365 438,364 433,359 432,359 430,357 429,357 428,356 428,355 427,354 427,353 425,351 425,348 424,347 424,344 425,343 425,339 424,338 424,332 425,331 425,320 424,319 424,314 423,313 423,309 428,304 430,304 431,305 433,305 435,307 436,307 437,308 438,308 439,309 440,309 443,312 443,314 442,315 442,317 443,318 443,320 446,320 447,321 452,316 453,317 456,317 457,318 458,318 459,319 460,318 462,318 463,319 464,319 467,322 470,322 471,323 474,323 475,324 477,324 478,325 481,325 482,326 483,326 485,328 487,328 488,327 489,327 494,332 494,333 495,334 495,335 496,336 497,336 500,333 504,333 504,332 509,327 510,327 511,326 512,326 513,327 514,327 515,328 517,328 518,329 521,329 522,328 525,328 526,327 527,327 528,326 529,326 533,322 533,320 538,315 539,315 540,314 544,314 545,315 548,315 549,316 554,316 556,318 557,318 557,316 558,315 558,312 560,310 560,308 561,307 561,304 560,303 560,301 562,299 563,299 564,298 564,297 565,296 565,295 566,294 566,291 567,290 567,288 568,287 568,285 569,284 569,280 570,279 570,278 571,277 571,276 572,275 572,274 573,273 573,272 577,268 577,267 589,255 590,255 594,251 595,251 600,246 601,246 603,244 603,243 606,240 607,240 608,239 609,239 610,238 611,238 612,237 613,237 618,232 618,231 621,228 622,228 623,227 625,227 626,226 627,226 628,225 629,225 631,223 632,223 635,220 636,220 639,217 640,217 648,209 649,209 653,205 654,205 655,204 655,203 656,202 657,202 659,200 659,199 662,196 662,194 663,193 663,190 664,189 664,185 665,184 665,176 663,174 661,174 660,173 652,173 651,172 649,172 648,171 647,171 646,170 646,169 644,167 644,165 643,164 643,163 642,162 642,161 641,160 641,157 640,156 640,154 639,153 639,152 638,151 638,150 637,149 637,146 636,145 636,142 635,141 635,139 634,138 634,131 635,130 635,124 634,123 634,110 633,109 633,104 632,103 632,101 631,100 631,99 630,98 630,94 629,93 629,86 628,85 628,76 629,75 629,67 630,66 630,62 632,60 632,59 633,58 633,55 634,54 634,53 637,50 637,49 638,48 638,47 646,39 647,39 649,37 650,37 651,36 653,36 655,34 656,34 657,33 659,33 660,32 662,32 664,30 665,30 666,29 671,29 672,28 677,28 678,27 681,27 682,26 693,26 694,25 697,25 698,24 702,24 703,23 706,23 707,22 715,22 716,23 718,23 720,25 722,25 723,26 724,26 726,28 727,28 728,29 730,29 731,30 732,30 733,31 734,31 735,32 736,32 737,33 739,33 740,34 741,34 743,36 744,36 745,37 746,37 747,38 748,38 750,40 751,40 752,41 753,41 756,44 757,44 761,48 761,49 762,50 762,51 764,53 764,54 765,55 765,56 766,57 766,58 768,60 768,61 769,62 769,63 770,64 770,65 771,66 771,67 772,68 772,70 773,71 773,72 774,73 774,75 775,76 775,79 776,80 776,83 777,84 777,96 776,97 776,99 774,101 774,102 773,103 773,104 772,105 772,107 771,108 771,109 769,111 769,113 768,114 768,115 767,116 767,117 766,118 766,119 765,120 765,123 764,124 764,126 763,127 763,128 762,129 762,130 761,131 761,132 758,135 758,136 757,137 757,138 756,139 756,141 755,142 755,151 756,152 756,154 757,155 757,160 758,161 758,163 762,167 763,167 764,168 767,168 768,169 771,169 772,170 773,170 774,171 778,171 779,172 783,172 785,174 787,174 788,175 792,175 793,176 797,176 798,177 799,177 800,178 801,178 802,179 805,179 806,180 807,180 808,181 809,181 811,183 812,183 813,184 814,184 815,185 818,185 819,186 825,186 826,187 830,187 831,188 832,188 834,190 835,190 838,193 839,193 841,195 842,195 856,209 857,209 858,210 859,210 862,213 862,214 865,217 865,218 866,219 866,222 867,223 867,224 869,226 869,228 870,229 870,231 872,233 872,234 873,235 873,237 874,238 874,240 876,242 876,243 877,244 877,245 878,246 878,248 879,249 879,250 881,252 881,255 882,256 882,257 885,260 885,262 886,263 886,264 888,266 888,267 889,268 889,269 890,270 890,271 892,273 892,274 893,275 893,276 900,283 900,284 904,288 904,289 905,289 906,290 906,291 910,295 910,296 911,297 911,298 914,301 914,302 915,303 915,304 916,305 916,306 917,307 917,308 918,309 918,311 919,312 919,315 920,316 920,317 921,318 921,319 922,320 922,322 923,323 923,327 925,329 925,330 928,333 929,333 930,334 931,334 933,336 934,336 935,337 938,337 939,338 940,338 942,340 943,340 944,341 945,341 949,345 950,345 952,347 952,348 953,349 954,349 956,351 956,352 957,352 960,355 961,355 962,356 965,356 966,357 967,357 968,358 969,358 970,359 973,359 974,360 975,360 976,361 977,361 979,363 980,363 982,365 983,365 985,367 987,367 991,371 992,371 1001,380 1001,381 1005,385 1005,386 1006,386 1008,388 1008,389 1009,389 1012,392 1012,394 1013,395 1013,396 1012,397 1012,398 1011,399 1008,399 1007,400 1006,399 1004,399 1003,398 1002,399 1001,399 1001,400 999,402 999,404 1001,406 1001,407 999,409 995,409 994,410 993,410 991,412 991,413 990,414 990,416 988,418 987,418 986,417 985,417 983,415 982,415 980,413 964,413 963,412 954,412 953,411 949,411 948,410 945,410 944,409 941,409 940,408 934,408 933,407 931,407 930,406 928,406 927,405 923,405 922,404 919,404 918,403 917,403 916,402 915,402 914,401 912,401 911,400 909,400 907,398 906,398 905,397 904,397 903,396 902,396 900,394 899,394 898,393 897,393 896,392 895,392 894,391 893,391 892,390 891,390 890,389 889,389 887,387 886,387 885,386 884,386 883,385 882,385 880,383 879,383 878,382 876,382 874,380 873,380 871,378 870,378 869,377 868,377 866,375 866,374 865,373 865,370 864,369 864,367 863,366 862,366 861,365 861,364 860,363 860,355 861,354 860,353 860,351 859,350 858,350 856,348 853,351 851,351 850,352 850,356 849,357 849,368 850,369 850,370 851,371 851,375 852,376 852,382 853,383 853,384 854,385 854,386 855,387 855,388 856,389 856,390 857,391 857,392 859,394 859,395 860,396 860,397 862,399 862,400 863,401 863,406 864,407 864,408 865,409 865,411 866,412 866,416 867,417 867,419 868,420 868,421 869,422 869,424 870,425 870,433 871,434 871,439 872,440 872,443 873,444 873,464 872,465 872,468 871,469 871,471 870,472 870,473 869,474 869,475 867,477 866,477 866,478 865,479 864,479 863,480 861,480 860,481 858,481 857,482 856,482 853,485 853,488 852,489 853,490 853,494 854,495 854,498 855,499 855,502 856,503 856,505 857,506 857,507 858,508 858,510 859,511 859,514 860,515 860,516 862,518 862,521 863,522 863,524 865,526 865,528 866,529 866,532 867,533 867,535 868,536 868,537 869,538 869,545 870,546 870,603 871,604 871,609 872,610 872,614 873,615 873,625 874,626 874,636 875,637 875,641 876,642 876,646 877,647 877,688 878,689 878,710 879,711 879,726 880,727 880,737 881,738 881,778 880,779 880,784 879,785 879,788 878,789 878,801 877,802 877,815 876,816 876,822 875,823 875,826 874,827 874,833 873,834 873,841 872,842 872,865 871,866 871,875 872,876 872,884 871,885 871,917 870,918 870,926 869,927 869,1014 868,1015 868,1025 869,1026 869,1029 870,1030 870,1033 871,1034 871,1035 873,1037 873,1039 874,1040 874,1041 877,1044 877,1045 878,1046 878,1047 881,1050 881,1051 885,1055 885,1056 886,1056 897,1067 897,1068 898,1068 900,1070 900,1071 903,1074 903,1079 1919,1079 1919,0 Z" fill="black" stroke="none" /></svg>