<?xml version="1.0" encoding="utf-8" ?>
<svg baseProfile="tiny" height="1080px" version="1.2" viewBox="0,0,1920,1080" width="1920px" xmlns="http://www.w3.org/2000/svg" xmlns:ev="http://www.w3.org/2001/xml-events" xmlns:xlink="http://www.w3.org/1999/xlink"><defs /><path d="M0,0 0,1079 959,1079 959,1078 955,1078 954,1077 951,1077 950,1076 947,1076 946,1075 944,1075 943,1074 940,1074 939,1073 891,1073 890,1074 867,1074 866,1073 856,1073 855,1072 841,1072 840,1071 830,1071 829,1070 830,1069 835,1069 836,1068 853,1068 854,1067 857,1067 858,1066 861,1066 862,1065 864,1065 865,1064 870,1064 871,1063 874,1063 875,1062 875,1061 874,1060 874,1058 875,1057 875,1056 877,1054 886,1054 887,1055 888,1055 892,1059 892,1061 891,1062 893,1064 895,1064 896,1065 901,1065 902,1066 913,1066 914,1067 928,1067 929,1068 943,1068 944,1067 945,1067 946,1066 948,1066 949,1065 951,1065 952,1064 957,1064 958,1063 967,1063 967,1062 966,1062 965,1061 964,1061 963,1060 962,1060 961,1059 961,1058 960,1057 960,1056 962,1054 964,1054 965,1053 966,1053 967,1052 968,1052 969,1051 975,1051 976,1052 981,1052 982,1053 986,1053 988,1055 988,1056 989,1057 989,1060 990,1061 990,1062 991,1062 992,1063 995,1063 996,1062 997,1062 998,1061 998,1060 1002,1056 1002,1054 1001,1053 1001,1052 999,1052 998,1051 992,1051 991,1050 991,1048 992,1047 993,1047 994,1046 996,1046 998,1044 1002,1044 1005,1047 1005,1052 1006,1052 1008,1050 1009,1050 1010,1049 1012,1051 1012,1053 1013,1054 1013,1056 1012,1057 1012,1060 1011,1061 1011,1064 1013,1066 1013,1068 1014,1069 1014,1070 1011,1073 1010,1073 1009,1074 1007,1074 1006,1075 1004,1075 1003,1076 1001,1076 1000,1077 997,1077 996,1078 995,1078 995,1079 1917,1079 1917,1078 1918,1077 1919,1077 1919,0 Z" fill="black" stroke="none" /></svg>