<?xml version="1.0" encoding="utf-8" ?>
<svg baseProfile="tiny" height="1080px" version="1.2" viewBox="0,0,1920,1080" width="1920px" xmlns="http://www.w3.org/2000/svg" xmlns:ev="http://www.w3.org/2001/xml-events" xmlns:xlink="http://www.w3.org/1999/xlink"><defs /><path d="M1070,965 1070,966 1069,967 1069,968 1068,969 1068,973 1070,975 1071,975 1072,974 1076,974 1077,973 1079,973 1080,972 1079,971 1079,969 1076,966 1075,966 1074,965 Z" fill="black" stroke="none" /><path d="M1100,963 1100,966 Z" fill="black" stroke="none" /><path d="M1160,951 1159,952 1159,953 1156,956 1154,956 1153,957 1153,958 1157,958 1158,959 1159,959 1160,960 1162,958 1163,958 1164,957 1164,953 1163,952 1162,952 1161,951 Z" fill="black" stroke="none" /><path d="M1127,950 1126,951 1127,952 1127,954 1128,954 1130,956 1131,955 1131,953 1132,952 1132,950 Z" fill="black" stroke="none" /><path d="M1195,939 1198,939 Z" fill="black" stroke="none" /><path d="M1241,934 1240,935 1228,935 1227,936 1221,936 1220,937 1218,937 1217,938 1212,938 1212,942 1210,944 1208,944 1207,945 1201,945 1200,944 1196,944 1195,943 1192,943 1191,942 1189,944 1188,944 1187,945 1186,945 1185,946 1185,947 1183,949 1181,949 1180,948 1177,948 1176,947 1175,947 1174,948 1173,948 1172,949 1171,949 1170,950 1170,958 1172,960 1172,961 1173,962 1174,962 1175,963 1176,962 1176,961 1178,959 1178,958 1180,956 1181,956 1182,955 1183,955 1184,956 1184,959 1185,960 1185,962 1190,967 1195,967 1197,969 1197,970 1195,972 1194,972 1196,972 1197,973 1198,972 1198,968 1203,963 1204,963 1205,962 1209,966 1213,966 1214,967 1216,967 1217,968 1221,968 1222,967 1225,967 1226,966 1236,966 1237,965 1241,965 1242,966 1244,966 1245,965 1246,965 1247,966 1249,966 1250,967 1253,964 1254,964 1255,963 1261,963 1265,959 1266,959 1267,958 1268,958 1269,957 1272,960 1273,960 1274,961 1275,961 1276,962 1277,962 1278,961 1280,961 1281,960 1282,960 1283,959 1286,959 1287,958 1290,958 1291,957 1294,957 1295,956 1307,956 1309,954 1309,952 1310,951 1312,951 1313,950 1314,950 1317,953 1318,953 1320,951 1321,951 1322,952 1323,952 1328,957 1329,957 1330,958 1333,958 1334,957 1335,957 1336,956 1338,956 1339,955 1341,955 1342,954 1343,954 1344,953 1349,953 1350,954 1356,954 1357,953 1368,953 1369,952 1373,952 1374,953 1386,953 1389,950 1389,949 1390,948 1390,945 1391,944 1391,943 1390,942 1390,941 1389,940 1386,940 1385,941 1383,941 1382,942 1381,942 1378,945 1376,945 1375,946 1364,946 1363,947 1360,947 1359,948 1328,948 1327,949 1324,949 1323,950 1300,950 1299,951 1298,950 1292,950 1291,949 1278,949 1277,948 1263,948 1262,947 1260,947 1259,946 1258,946 1257,945 1245,945 1244,944 1242,944 1240,942 1242,940 1243,940 1244,939 1244,938 1245,937 1245,935 1244,935 1243,934 Z" fill="black" stroke="none" /><path d="M1247,911 1246,912 1235,912 1236,913 1261,913 1261,912 1256,912 1255,911 Z" fill="black" stroke="none" /><path d="M1257,897 Z" fill="black" stroke="none" /><path d="M0,0 0,1079 1266,1079 1266,1077 1265,1077 1263,1075 1262,1075 1260,1073 1260,1072 1259,1071 1259,1070 1255,1066 1254,1066 1253,1065 1252,1065 1251,1064 1249,1064 1248,1063 1246,1063 1245,1062 1242,1062 1241,1061 1240,1061 1239,1060 1238,1060 1235,1057 1235,1056 1234,1055 1235,1054 1236,1054 1240,1050 1242,1050 1243,1049 1246,1049 1247,1048 1248,1048 1249,1047 1249,1046 1246,1043 1243,1043 1242,1042 1240,1042 1239,1041 1238,1041 1237,1040 1235,1040 1234,1039 1232,1039 1231,1038 1229,1038 1228,1037 1226,1037 1225,1036 1223,1036 1222,1035 1221,1035 1220,1034 1213,1034 1212,1035 1209,1035 1208,1034 1208,1031 1209,1030 1210,1030 1211,1029 1215,1029 1216,1030 1217,1029 1218,1029 1219,1028 1220,1028 1222,1026 1223,1026 1224,1025 1220,1021 1219,1021 1217,1019 1215,1019 1214,1018 1215,1017 1216,1017 1217,1016 1218,1016 1224,1010 1224,1009 1225,1008 1225,1007 1227,1005 1234,1005 1235,1004 1239,1004 1240,1003 1242,1003 1243,1002 1244,1002 1247,999 1246,998 1245,998 1244,997 1217,997 1216,998 1212,998 1211,999 1208,999 1207,998 1204,998 1203,997 1200,997 1199,996 1195,996 1194,997 1166,997 1165,996 1157,996 1156,995 1155,995 1154,994 1152,994 1151,993 1148,993 1147,994 1127,994 1126,995 1124,995 1123,996 1111,996 1110,995 1107,995 1106,994 1093,994 1092,995 1090,995 1089,994 1075,994 1074,993 1068,993 1067,994 1066,994 1065,995 1064,995 1063,996 1061,996 1060,997 1052,997 1051,996 1045,996 1044,995 1043,996 1010,996 1009,995 982,995 981,996 967,996 966,997 876,997 875,998 869,998 868,999 866,999 867,999 870,1002 870,1003 867,1006 866,1006 865,1007 854,1007 853,1008 831,1008 830,1009 819,1009 818,1008 803,1008 802,1007 796,1007 795,1006 795,1005 794,1004 794,1002 791,999 773,999 772,998 753,998 752,997 678,997 677,996 674,996 673,997 660,997 659,996 652,996 651,995 636,995 635,996 634,995 627,995 626,994 615,994 614,995 612,995 611,996 606,996 605,995 595,995 594,996 588,996 587,997 583,997 582,996 567,996 566,995 566,992 565,991 566,990 566,987 568,985 569,985 569,984 571,982 571,981 572,980 572,979 573,978 573,977 575,975 575,974 578,971 579,971 580,970 580,963 579,962 580,961 581,961 582,960 585,960 586,959 587,959 588,958 588,957 592,953 592,952 596,948 596,947 599,944 599,943 606,936 606,935 608,933 608,932 614,926 614,925 618,921 618,920 621,917 621,916 623,914 623,913 627,909 627,908 628,907 628,906 629,905 629,902 628,901 628,898 627,898 626,897 611,897 610,896 577,896 576,895 575,895 573,893 573,870 574,869 574,864 575,863 575,861 576,860 576,853 577,852 577,838 578,837 578,835 579,834 579,832 580,831 580,823 581,822 581,814 582,813 582,812 583,811 583,809 584,808 584,799 585,798 585,795 586,794 586,793 587,792 587,789 588,788 588,774 589,773 589,771 590,770 590,769 591,768 591,765 592,764 592,759 594,757 594,756 595,755 595,753 596,752 596,751 599,748 599,747 600,746 600,745 601,744 601,743 603,741 603,740 604,739 604,738 606,736 606,734 607,733 607,732 610,729 610,728 613,725 613,724 615,722 615,721 616,720 617,720 618,719 618,718 632,704 633,704 639,698 640,698 642,696 643,696 647,692 648,692 651,689 653,689 654,688 655,688 655,687 656,686 657,686 658,685 659,685 662,682 664,682 665,681 666,681 669,678 670,678 671,677 672,677 674,675 675,675 676,674 677,674 680,671 681,671 682,670 683,670 686,667 687,667 688,666 689,666 690,665 691,665 693,663 695,663 699,659 700,659 701,658 702,658 704,656 705,656 706,655 707,655 710,652 711,652 712,651 713,651 716,648 717,648 718,647 719,647 722,644 723,644 724,643 725,643 727,641 728,641 729,640 730,640 733,637 734,637 735,636 736,636 738,634 739,634 740,633 741,633 744,630 745,630 746,629 748,629 749,628 750,628 752,626 754,626 755,625 757,625 759,623 760,623 761,622 763,622 764,621 766,621 767,620 768,620 770,618 774,618 775,617 776,617 777,616 778,616 779,615 780,615 781,614 784,614 785,613 786,613 788,611 790,611 791,610 793,610 795,608 796,608 797,607 799,607 800,606 801,606 803,604 804,604 805,603 807,603 808,602 809,602 811,600 812,600 813,599 815,599 816,598 817,598 818,597 819,597 820,596 821,596 822,595 824,595 825,594 826,594 828,592 830,592 831,591 834,591 836,589 837,589 838,588 841,588 842,587 844,587 847,584 848,584 849,583 850,583 850,582 853,579 853,577 854,576 854,568 853,567 853,565 851,563 851,562 850,561 850,560 849,559 849,558 846,555 846,554 840,548 838,548 837,547 836,547 831,542 831,541 828,538 828,537 827,536 827,534 825,532 825,530 824,529 824,526 823,525 823,524 822,523 822,522 821,521 821,519 820,518 820,516 819,515 819,513 818,512 818,511 817,510 817,507 816,506 816,503 814,501 814,500 813,499 813,496 812,495 812,493 810,491 810,489 809,488 809,484 808,483 808,481 806,479 806,477 805,476 805,473 804,472 804,471 802,469 802,468 798,464 798,463 796,461 796,460 794,458 794,457 793,456 793,455 790,452 790,451 787,448 787,447 786,446 786,445 783,442 783,441 780,438 780,437 779,436 779,435 777,433 777,432 776,431 776,430 775,429 775,428 774,427 774,426 773,425 773,424 772,423 772,422 771,421 771,420 770,419 770,418 769,417 769,416 768,415 768,413 767,412 767,410 766,409 766,408 765,407 765,406 764,405 764,404 763,403 763,402 758,397 758,396 756,394 756,393 755,392 755,391 754,391 753,390 752,390 751,389 748,389 747,388 747,387 746,386 746,383 745,382 745,374 746,373 746,370 747,369 747,363 748,362 748,358 747,357 747,350 749,348 749,347 750,346 750,345 751,344 751,343 753,341 753,340 754,339 754,338 756,336 756,335 758,333 758,332 759,331 759,330 761,328 761,327 762,326 762,325 763,324 763,323 765,321 765,320 773,312 773,311 775,309 775,308 780,303 780,302 782,300 783,300 792,291 793,291 797,287 798,287 801,284 802,284 804,282 805,282 811,276 812,276 817,271 817,270 836,251 836,250 839,247 839,246 846,239 847,239 851,235 852,235 853,234 854,234 856,232 858,232 859,231 860,231 862,229 863,229 864,228 866,228 867,227 868,227 870,225 871,225 872,224 873,224 874,223 875,223 876,222 877,222 879,220 880,220 881,219 882,219 884,217 885,217 886,216 888,216 889,215 891,215 892,214 896,214 897,213 901,213 902,212 912,212 913,213 917,213 918,214 920,214 922,216 923,216 924,217 925,217 926,218 927,218 928,219 929,219 930,220 932,220 933,221 937,221 938,222 940,222 941,223 942,223 943,224 957,224 958,223 959,223 962,220 962,219 963,218 963,217 968,212 969,212 972,209 973,209 975,207 976,207 977,206 993,206 994,207 996,207 997,208 998,208 999,209 1003,209 1004,210 1007,210 1008,211 1009,211 1010,212 1011,212 1012,213 1014,213 1017,216 1018,216 1019,217 1020,217 1021,218 1022,218 1025,221 1026,221 1027,222 1028,222 1031,225 1033,225 1036,228 1037,228 1040,231 1041,231 1042,232 1043,232 1044,233 1045,233 1047,235 1048,235 1049,236 1051,236 1053,238 1054,238 1055,239 1056,239 1057,240 1058,240 1059,241 1060,241 1061,242 1062,242 1063,243 1064,243 1065,244 1067,244 1068,245 1070,245 1072,247 1074,247 1076,249 1077,249 1079,251 1080,251 1083,254 1084,254 1088,258 1089,258 1092,261 1093,261 1097,265 1098,265 1104,271 1104,272 1109,277 1109,278 1123,292 1123,293 1133,303 1133,304 1137,308 1137,309 1140,312 1140,313 1141,314 1141,315 1142,316 1142,317 1144,319 1144,320 1145,321 1145,322 1147,324 1147,326 1148,327 1148,329 1149,330 1149,331 1150,332 1150,334 1151,335 1151,339 1152,340 1152,343 1153,344 1153,345 1154,346 1154,351 1155,352 1155,373 1154,374 1154,377 1153,378 1153,380 1152,381 1152,388 1151,389 1151,395 1150,396 1150,399 1149,400 1149,401 1148,402 1148,405 1147,406 1147,408 1146,409 1146,410 1145,411 1145,412 1144,413 1144,416 1143,417 1143,423 1142,424 1142,426 1141,427 1141,429 1140,430 1140,432 1139,433 1139,434 1137,436 1137,437 1136,438 1136,440 1135,441 1135,442 1134,443 1134,444 1133,445 1133,446 1132,447 1132,450 1131,451 1131,455 1130,456 1130,462 1129,463 1129,470 1128,471 1128,474 1127,475 1127,476 1126,477 1126,479 1125,480 1125,484 1124,485 1124,487 1123,488 1123,489 1122,490 1122,491 1121,492 1121,495 1120,496 1120,498 1119,499 1119,500 1118,501 1118,503 1117,504 1117,506 1116,507 1116,508 1114,510 1114,512 1113,513 1113,514 1111,516 1111,517 1110,518 1110,519 1109,520 1109,521 1107,523 1107,524 1105,526 1105,527 1102,530 1102,531 1101,532 1101,533 1097,537 1097,538 1096,539 1096,540 1095,541 1095,542 1094,543 1094,554 1095,555 1095,569 1096,570 1096,572 1097,573 1097,574 1099,576 1102,576 1103,577 1106,577 1108,579 1109,579 1110,580 1117,580 1118,581 1121,581 1123,583 1124,583 1125,584 1127,584 1128,585 1130,585 1132,587 1133,587 1134,588 1136,588 1137,589 1138,589 1140,591 1141,591 1142,592 1143,592 1145,594 1146,594 1147,595 1149,595 1152,598 1153,598 1154,599 1156,599 1159,602 1160,602 1161,603 1164,603 1167,606 1168,606 1169,607 1171,607 1174,610 1175,610 1176,611 1177,611 1180,614 1182,614 1183,615 1185,615 1186,616 1187,616 1188,617 1189,617 1190,618 1192,618 1193,619 1194,619 1195,620 1197,620 1198,621 1199,621 1200,622 1203,622 1204,623 1207,623 1208,624 1210,624 1211,625 1213,625 1214,626 1216,626 1218,628 1219,628 1221,630 1222,630 1224,632 1225,632 1227,634 1228,634 1230,636 1231,636 1232,637 1235,637 1238,640 1239,640 1240,641 1241,641 1243,643 1244,643 1245,644 1247,644 1250,647 1251,647 1252,648 1253,648 1256,651 1257,651 1258,652 1259,652 1261,654 1262,654 1263,655 1264,655 1268,659 1270,659 1272,661 1273,661 1275,663 1276,663 1277,664 1278,664 1280,666 1281,666 1282,667 1284,667 1287,670 1288,670 1289,671 1290,671 1291,672 1292,672 1294,674 1295,674 1296,675 1298,675 1300,677 1301,677 1302,678 1303,678 1306,681 1307,681 1308,682 1310,682 1313,685 1314,685 1315,686 1316,686 1319,689 1320,689 1321,690 1322,690 1325,693 1326,693 1328,695 1328,696 1329,696 1332,699 1332,700 1333,700 1335,702 1335,703 1336,704 1337,704 1339,706 1339,707 1340,708 1341,708 1343,710 1343,711 1344,711 1346,713 1346,714 1350,718 1350,719 1354,723 1354,724 1357,727 1357,728 1358,729 1358,730 1359,730 1360,731 1360,732 1364,736 1364,737 1366,739 1366,740 1369,743 1369,744 1372,747 1372,748 1373,749 1373,750 1374,751 1374,752 1376,754 1376,756 1379,759 1379,761 1380,762 1380,764 1381,765 1381,766 1382,767 1382,768 1383,769 1383,771 1384,772 1384,774 1385,775 1385,776 1387,778 1387,782 1388,783 1388,786 1389,787 1389,788 1390,789 1390,791 1391,792 1391,816 1390,817 1390,837 1391,838 1391,858 1392,859 1392,881 1393,882 1393,888 1392,889 1392,896 1391,897 1392,898 1392,899 1393,899 1395,901 1396,901 1397,902 1402,902 1403,903 1407,903 1408,904 1409,904 1410,905 1410,906 1407,909 1407,911 1406,912 1406,924 1405,925 1405,926 1404,927 1405,928 1406,928 1407,929 1412,929 1413,928 1417,928 1419,926 1419,925 1421,923 1424,923 1425,924 1428,924 1429,925 1430,925 1431,926 1432,926 1434,928 1434,932 1433,933 1433,934 1432,935 1432,936 1429,939 1428,939 1422,945 1421,944 1417,944 1416,943 1413,943 1412,942 1410,942 1409,943 1408,943 1407,944 1407,945 1406,946 1406,948 1405,949 1405,956 1404,957 1405,958 1405,959 1408,962 1409,962 1410,963 1415,963 1418,960 1418,958 1422,954 1423,954 1425,956 1425,957 1426,958 1426,961 1427,962 1428,962 1430,964 1432,964 1433,965 1431,967 1431,969 1430,970 1429,970 1427,972 1427,973 1426,974 1426,977 1425,978 1425,986 1424,987 1424,988 1422,990 1421,990 1420,991 1419,991 1418,992 1417,992 1416,993 1415,993 1414,994 1413,994 1412,995 1411,995 1410,996 1407,996 1406,997 1403,997 1402,998 1396,998 1395,999 1393,999 1389,1003 1389,1005 1388,1006 1388,1011 1387,1012 1387,1021 1386,1022 1386,1026 1385,1027 1385,1031 1384,1032 1384,1040 1383,1041 1383,1054 1382,1055 1382,1058 1381,1059 1381,1062 1380,1063 1380,1072 1379,1073 1379,1079 1916,1079 1916,1078 1918,1076 1919,1076 1919,0 Z" fill="black" stroke="none" /></svg>