<?xml version="1.0" encoding="utf-8" ?>
<svg baseProfile="tiny" height="1080px" version="1.2" viewBox="0,0,1920,1080" width="1920px" xmlns="http://www.w3.org/2000/svg" xmlns:ev="http://www.w3.org/2001/xml-events" xmlns:xlink="http://www.w3.org/1999/xlink"><defs /><path d="M587,1073 586,1074 580,1074 579,1075 573,1075 572,1076 558,1076 557,1075 556,1075 555,1076 554,1076 554,1077 553,1078 553,1079 602,1079 602,1078 601,1078 600,1077 596,1077 595,1076 593,1076 590,1073 Z" fill="black" stroke="none" /><path d="M558,1070 558,1071 559,1072 563,1072 564,1071 567,1071 568,1070 569,1070 Z" fill="black" stroke="none" /><path d="M921,501 920,502 917,502 916,503 915,503 914,504 916,506 919,506 920,507 921,506 927,506 928,505 929,505 930,504 930,503 928,501 Z" fill="black" stroke="none" /><path d="M912,336 911,337 909,337 908,338 908,339 907,340 907,344 906,345 906,352 907,353 907,355 906,356 906,359 904,361 904,363 903,364 903,368 900,371 900,372 899,373 899,380 898,381 898,383 897,384 897,385 894,388 894,389 892,391 892,403 893,404 893,406 894,407 894,414 893,415 893,424 890,427 886,427 886,428 885,429 885,440 886,441 886,443 887,444 887,446 888,447 888,456 889,457 889,462 890,463 890,464 891,465 891,466 892,467 892,477 893,478 893,480 895,482 895,483 896,484 896,485 897,486 897,488 898,489 898,500 899,501 899,504 901,506 903,506 904,505 905,505 906,504 907,504 906,503 906,498 907,497 907,485 909,483 912,486 913,486 914,487 914,488 915,489 915,490 916,491 916,494 917,495 917,496 918,497 919,497 920,498 921,498 922,499 929,499 930,498 931,498 932,497 937,497 938,498 940,498 941,497 956,497 957,498 958,498 959,499 960,499 961,500 961,501 958,504 957,504 958,504 960,506 961,506 962,507 965,507 966,508 990,508 991,509 992,508 993,508 994,507 995,507 997,505 998,505 999,504 999,502 1000,501 1000,498 999,497 999,489 998,488 998,486 997,485 997,482 996,481 996,479 995,478 995,477 994,476 994,475 993,474 993,471 992,470 992,468 991,467 991,465 990,464 990,463 988,461 988,460 985,457 984,457 979,452 979,451 978,450 978,449 977,448 977,446 976,445 976,443 975,442 975,435 974,434 974,426 973,425 973,421 972,420 972,418 971,417 971,415 970,414 970,413 969,412 969,410 967,408 967,407 964,404 964,403 958,397 958,396 955,393 955,392 954,391 954,390 950,386 950,385 947,382 947,381 946,380 946,379 943,376 943,375 939,371 939,370 935,366 935,365 932,362 932,361 931,360 931,358 929,356 929,354 928,353 928,352 925,349 925,348 924,347 924,346 922,344 922,343 917,338 916,338 915,337 914,337 913,336 Z" fill="black" stroke="none" /><path d="M0,0 0,1079 461,1079 461,1078 460,1078 459,1077 458,1077 457,1076 456,1076 455,1075 454,1075 453,1074 450,1074 449,1073 447,1073 446,1072 445,1072 443,1070 442,1070 437,1065 436,1065 426,1055 426,1054 423,1051 423,1050 421,1048 421,1047 420,1046 420,1045 419,1044 419,1043 418,1042 418,1041 417,1040 417,1039 416,1038 416,1037 415,1036 415,1035 414,1034 414,1033 413,1032 413,1030 412,1029 412,1027 411,1026 411,1025 410,1024 410,1023 409,1022 409,1021 408,1020 408,1018 407,1017 407,1015 406,1014 406,1013 405,1012 405,1009 404,1008 404,1005 403,1004 403,1001 402,1000 402,997 401,996 401,987 400,986 400,975 401,974 401,965 402,964 402,962 403,961 403,959 404,958 404,951 405,950 405,947 406,946 406,945 407,944 407,942 408,941 408,935 409,934 409,932 411,930 411,928 412,927 412,924 413,923 413,922 415,920 415,917 416,916 416,914 418,912 418,911 419,910 419,908 420,907 420,905 422,903 422,901 423,900 423,898 425,896 425,895 426,894 426,893 427,892 427,890 429,888 429,887 430,886 430,885 431,884 431,883 432,882 432,881 434,879 434,877 435,876 435,875 437,873 437,872 438,871 438,869 439,868 439,867 441,865 441,864 442,863 442,862 444,860 444,859 446,857 446,856 448,854 448,853 449,852 449,851 450,850 450,849 453,846 453,845 456,842 456,841 457,840 457,839 458,838 458,837 461,834 461,833 464,830 464,829 465,828 465,827 467,825 467,824 468,823 468,822 469,821 469,820 471,818 471,817 472,816 472,815 473,814 473,813 475,811 475,810 476,809 476,808 477,807 477,806 479,804 479,803 480,802 480,801 481,800 481,799 483,797 483,796 484,795 484,794 486,792 486,791 487,790 487,789 490,786 490,785 494,781 494,780 495,779 495,778 498,775 498,774 499,773 499,772 502,769 502,768 506,764 506,763 509,760 509,759 513,755 513,754 518,749 518,748 519,747 520,747 521,746 521,745 529,737 529,736 530,735 531,735 532,734 532,733 535,730 536,730 536,729 538,727 539,727 539,726 544,721 544,720 547,717 547,716 548,715 548,714 550,712 550,711 551,710 551,709 552,708 552,707 553,706 553,705 554,704 554,703 555,702 555,701 557,699 557,698 558,697 558,696 559,695 559,694 561,692 561,691 562,690 562,688 565,685 565,683 566,682 566,681 568,679 568,678 569,677 569,676 570,675 570,674 572,672 572,671 573,670 573,669 575,667 575,666 576,665 576,664 577,663 577,662 580,659 580,658 581,657 581,656 582,655 582,654 584,652 584,651 585,650 585,649 587,647 587,646 588,645 588,644 590,642 590,641 592,639 592,638 593,637 593,636 596,633 596,632 598,630 598,629 599,628 599,627 601,625 601,624 603,622 603,621 606,618 606,617 607,616 607,615 610,612 610,611 611,610 611,609 613,607 613,606 614,605 614,604 615,603 615,601 617,599 617,597 618,596 618,594 619,593 619,592 620,591 620,590 621,589 621,587 622,586 622,583 623,582 623,581 624,580 624,579 625,578 625,575 626,574 626,571 627,570 627,569 628,568 628,567 629,566 629,562 630,561 630,559 631,558 631,557 632,556 632,554 633,553 633,548 634,547 634,546 635,545 635,544 636,543 636,540 637,539 637,535 638,534 638,533 639,532 639,531 640,530 640,526 641,525 641,522 643,520 643,518 644,517 644,515 645,514 645,512 646,511 646,510 647,509 647,508 648,507 648,505 649,504 649,502 650,501 650,500 651,499 651,498 652,497 652,496 653,495 653,494 654,493 654,492 655,491 655,489 656,488 656,487 657,486 657,485 658,484 658,483 659,482 659,480 660,479 660,478 661,477 661,476 662,475 662,473 663,472 663,469 664,468 664,467 665,466 665,465 666,464 666,460 667,459 667,456 668,455 668,454 669,453 669,452 670,451 670,448 671,447 671,444 672,443 672,441 673,440 673,438 674,437 674,432 675,431 675,427 676,426 676,425 678,423 678,422 679,421 679,420 680,419 680,418 683,415 683,414 685,412 685,411 689,407 690,407 692,405 693,405 694,404 695,404 696,403 697,403 698,402 699,402 700,401 702,401 703,400 705,400 706,399 707,399 709,397 711,397 712,396 714,396 715,395 716,395 717,394 718,394 719,393 720,393 725,388 725,387 728,384 728,383 734,377 734,376 736,374 737,374 738,373 739,373 741,371 742,371 743,370 745,370 746,369 747,369 749,367 752,367 753,366 755,366 758,363 759,363 764,358 764,357 768,353 768,352 769,351 770,351 771,350 771,349 773,347 774,347 777,344 778,344 779,343 780,343 781,342 782,342 783,341 785,341 786,340 793,340 794,341 796,341 797,342 798,342 799,343 801,343 802,344 806,344 807,345 808,345 809,344 809,343 811,341 812,341 813,340 815,340 816,341 817,341 819,343 822,340 822,337 823,336 823,335 822,334 822,321 821,320 821,311 820,310 820,289 819,288 819,281 818,280 818,274 817,273 817,267 816,266 816,263 815,262 815,260 814,259 814,255 813,254 813,251 812,250 812,248 811,247 811,246 810,245 810,243 809,242 809,230 810,229 810,227 813,224 814,224 815,223 818,223 819,222 819,221 820,220 820,219 822,217 827,217 828,218 830,218 831,219 831,220 832,221 834,221 836,223 836,224 837,224 839,226 839,227 840,228 840,229 843,232 843,233 845,235 845,236 846,237 846,238 847,239 847,241 848,242 848,244 849,245 849,246 850,247 850,248 854,252 855,252 856,253 858,253 859,254 861,254 863,252 866,252 867,251 868,251 869,252 872,252 872,251 875,248 875,247 876,246 876,245 879,242 882,242 886,246 888,246 889,245 890,245 898,237 898,236 900,234 900,233 902,231 902,230 905,227 905,226 906,225 906,224 907,223 907,221 908,220 908,219 909,218 909,217 911,215 912,215 912,214 915,211 914,210 913,210 911,208 911,204 914,201 914,200 916,198 916,197 919,194 919,193 921,191 922,191 935,178 936,178 936,177 944,169 944,168 947,165 947,164 948,163 948,162 957,153 958,153 959,152 959,151 961,149 962,149 963,148 963,147 964,146 965,146 974,137 974,136 977,133 977,132 979,130 979,129 981,127 981,126 985,122 985,121 989,117 989,116 990,115 990,114 997,107 997,106 998,105 999,105 1001,103 1001,102 1002,101 1003,101 1008,96 1009,96 1012,93 1013,93 1016,90 1017,90 1018,89 1019,89 1020,88 1021,88 1023,86 1024,86 1029,81 1030,81 1033,78 1035,78 1036,77 1037,77 1039,75 1040,75 1041,74 1042,74 1043,73 1044,73 1046,71 1047,71 1049,69 1050,69 1052,67 1053,67 1054,66 1055,66 1056,65 1057,65 1058,64 1059,64 1060,63 1061,63 1062,62 1063,62 1065,60 1066,60 1067,59 1069,59 1070,58 1071,58 1072,57 1073,57 1074,56 1077,56 1078,55 1081,55 1082,54 1083,54 1084,53 1086,53 1087,52 1089,52 1090,51 1092,51 1093,50 1095,50 1096,49 1099,49 1100,48 1115,48 1116,49 1118,49 1119,50 1120,50 1121,51 1122,51 1123,52 1124,52 1125,53 1127,53 1128,54 1133,54 1134,55 1139,55 1140,56 1141,56 1143,58 1143,62 1144,63 1144,64 1145,65 1145,66 1146,66 1147,67 1149,67 1150,68 1153,68 1154,67 1157,67 1158,66 1160,66 1161,65 1162,65 1163,64 1164,64 1165,63 1166,63 1167,62 1169,62 1171,60 1172,60 1173,59 1175,59 1176,58 1178,58 1179,57 1180,57 1181,56 1182,56 1183,55 1185,55 1186,54 1188,54 1189,53 1194,53 1195,52 1204,52 1205,51 1209,51 1210,50 1212,50 1213,49 1219,49 1220,48 1227,48 1228,49 1232,49 1233,50 1236,50 1237,51 1239,51 1240,52 1242,52 1243,53 1244,53 1245,54 1247,54 1248,55 1250,55 1251,56 1252,56 1253,57 1254,57 1255,58 1257,58 1258,59 1261,59 1262,60 1263,60 1264,61 1265,61 1266,62 1267,62 1268,63 1269,63 1271,65 1272,65 1274,67 1275,67 1278,70 1279,70 1281,72 1282,72 1285,75 1286,75 1289,78 1290,78 1299,87 1300,87 1302,89 1303,89 1304,90 1305,90 1306,91 1308,91 1309,92 1310,92 1311,93 1312,93 1313,94 1315,94 1316,95 1318,95 1319,96 1321,96 1322,97 1326,97 1327,98 1328,98 1329,99 1330,99 1332,101 1333,101 1335,103 1336,103 1340,107 1341,107 1344,110 1345,110 1347,112 1349,112 1350,113 1352,113 1353,114 1354,114 1356,116 1358,116 1359,117 1360,117 1361,118 1362,118 1365,121 1366,121 1369,124 1370,124 1372,126 1373,126 1387,140 1389,140 1390,141 1393,141 1394,142 1396,142 1397,143 1398,143 1401,146 1401,147 1402,148 1402,151 1403,152 1403,153 1407,157 1407,158 1409,160 1409,161 1410,162 1410,163 1412,165 1412,166 1414,168 1415,168 1416,169 1417,169 1418,170 1420,170 1421,171 1422,171 1423,172 1424,172 1429,177 1429,178 1431,180 1431,181 1439,189 1439,190 1440,191 1440,196 1441,197 1441,199 1442,200 1442,201 1443,202 1443,203 1444,204 1444,206 1446,208 1446,210 1447,211 1447,213 1448,214 1448,215 1449,216 1449,217 1450,218 1450,219 1451,220 1451,222 1452,223 1452,224 1454,226 1454,228 1455,229 1455,232 1456,233 1456,235 1457,236 1457,237 1458,238 1458,242 1459,243 1459,246 1460,247 1460,249 1461,250 1461,253 1462,254 1462,260 1463,261 1463,273 1462,274 1462,279 1461,280 1461,283 1460,284 1460,287 1459,288 1459,301 1460,302 1460,306 1461,307 1461,311 1462,312 1462,330 1461,331 1461,336 1460,337 1460,339 1459,340 1459,342 1458,343 1458,345 1456,347 1456,348 1455,349 1455,350 1445,360 1445,361 1441,365 1441,366 1438,369 1438,370 1436,372 1436,373 1435,374 1435,375 1433,377 1433,378 1432,379 1432,380 1430,382 1430,384 1429,385 1429,387 1428,388 1428,390 1427,391 1427,392 1426,393 1426,397 1425,398 1425,401 1424,402 1424,404 1423,405 1423,407 1422,408 1422,410 1421,411 1421,413 1419,415 1419,417 1418,418 1418,420 1417,421 1417,422 1416,423 1416,424 1415,425 1415,426 1414,427 1414,428 1413,429 1413,430 1412,431 1412,432 1411,433 1411,434 1410,435 1410,437 1408,439 1408,440 1407,441 1407,442 1406,443 1406,444 1405,445 1405,446 1403,448 1403,449 1402,450 1402,451 1401,452 1401,453 1399,455 1399,457 1397,459 1397,460 1396,461 1396,462 1395,463 1395,464 1393,466 1393,467 1392,468 1392,469 1391,470 1391,472 1389,474 1389,476 1388,477 1388,480 1389,481 1389,484 1390,485 1390,486 1391,487 1391,488 1392,489 1391,490 1386,490 1385,491 1384,491 1381,494 1381,496 1380,497 1380,499 1379,500 1379,509 1380,510 1380,513 1381,514 1381,517 1382,518 1382,519 1383,520 1383,521 1384,522 1384,523 1385,524 1385,525 1387,527 1387,528 1388,529 1388,535 1389,536 1389,537 1391,539 1391,540 1392,541 1392,542 1393,543 1393,544 1394,545 1394,546 1396,548 1396,549 1401,554 1401,555 1402,556 1402,559 1403,560 1401,562 1400,562 1398,564 1398,568 1401,571 1401,573 1402,574 1402,575 1401,576 1400,576 1399,577 1383,577 1382,576 1381,576 1379,574 1379,573 1378,572 1378,571 1377,570 1374,570 1373,571 1372,571 1370,573 1370,574 1369,575 1369,576 1368,577 1368,578 1367,579 1367,582 1374,589 1376,589 1377,590 1378,589 1378,587 1379,586 1380,586 1381,585 1386,585 1390,589 1391,589 1392,590 1393,590 1394,591 1395,591 1396,592 1400,592 1401,591 1403,591 1404,590 1405,591 1411,591 1412,590 1414,590 1415,589 1417,589 1418,588 1422,588 1424,590 1424,591 1425,592 1425,595 1426,596 1426,598 1427,599 1427,601 1429,603 1429,604 1430,605 1432,603 1432,602 1433,601 1433,596 1437,592 1441,592 1442,593 1443,593 1447,597 1447,600 1446,601 1447,602 1447,603 1448,604 1448,605 1450,607 1453,607 1453,605 1454,604 1454,602 1455,601 1455,597 1456,596 1456,595 1458,593 1459,593 1460,592 1464,592 1465,593 1467,593 1469,595 1470,595 1471,596 1472,596 1474,598 1480,598 1481,599 1483,599 1484,600 1485,600 1486,601 1487,601 1490,604 1491,604 1492,605 1493,605 1495,607 1496,607 1499,610 1499,611 1500,612 1500,614 1501,615 1501,617 1502,618 1502,620 1503,621 1503,623 1504,624 1504,625 1505,626 1505,627 1508,630 1508,631 1510,633 1510,634 1512,636 1512,637 1514,639 1514,640 1515,641 1515,652 1514,653 1514,654 1515,655 1515,665 1514,666 1514,674 1515,675 1515,679 1516,680 1515,681 1515,684 1513,686 1513,688 1512,689 1512,690 1511,691 1511,693 1510,694 1510,697 1511,698 1511,701 1512,702 1512,704 1513,705 1516,705 1517,706 1514,709 1514,710 1512,712 1512,713 1511,714 1511,715 1510,716 1510,717 1509,718 1509,720 1508,721 1508,726 1511,729 1512,729 1513,730 1513,731 1514,732 1514,733 1515,734 1515,735 1516,736 1516,737 1518,739 1518,740 1519,741 1519,743 1522,746 1522,747 1524,749 1524,750 1528,754 1528,755 1529,756 1530,756 1535,761 1536,761 1539,764 1540,764 1541,765 1542,765 1545,768 1545,773 1544,774 1546,776 1546,777 1547,778 1547,779 1548,780 1549,780 1550,781 1555,781 1556,782 1557,782 1560,785 1561,785 1562,786 1563,786 1566,789 1567,789 1568,790 1569,790 1573,794 1574,794 1582,802 1582,803 1584,805 1584,806 1586,808 1586,809 1590,813 1590,814 1594,818 1594,819 1595,820 1596,820 1597,821 1597,822 1605,830 1605,831 1606,831 1609,834 1609,835 1619,845 1619,846 1621,848 1621,849 1624,852 1624,853 1627,856 1627,857 1628,858 1628,859 1630,861 1630,862 1632,864 1632,865 1634,867 1634,868 1635,869 1635,871 1638,874 1638,875 1639,876 1639,877 1640,878 1640,879 1642,881 1642,882 1643,883 1643,884 1645,886 1645,887 1646,888 1646,889 1647,890 1647,891 1648,892 1648,893 1649,894 1649,895 1650,896 1650,898 1651,899 1651,903 1652,904 1652,906 1653,907 1653,908 1654,909 1654,914 1655,915 1655,918 1656,919 1656,920 1657,921 1657,923 1658,924 1658,931 1659,932 1659,942 1660,943 1660,972 1659,973 1659,981 1658,982 1658,990 1657,991 1657,998 1656,999 1656,1005 1655,1006 1655,1018 1654,1019 1654,1025 1653,1026 1653,1030 1652,1031 1652,1032 1651,1033 1651,1035 1650,1036 1650,1038 1649,1039 1649,1041 1648,1042 1648,1043 1647,1044 1647,1047 1646,1048 1646,1052 1645,1053 1645,1055 1644,1056 1644,1059 1643,1060 1643,1063 1642,1064 1642,1065 1641,1066 1641,1068 1640,1069 1640,1079 1919,1079 1919,0 Z" fill="black" stroke="none" /></svg>