<?xml version="1.0" encoding="utf-8" ?>
<svg baseProfile="tiny" height="1080px" version="1.2" viewBox="0,0,1920,1080" width="1920px" xmlns="http://www.w3.org/2000/svg" xmlns:ev="http://www.w3.org/2001/xml-events" xmlns:xlink="http://www.w3.org/1999/xlink"><defs /><path d="M875,759 874,760 873,760 872,761 871,761 868,764 867,764 836,795 836,796 833,799 833,800 832,801 832,802 829,805 829,806 828,807 828,808 825,811 825,813 824,814 824,815 822,817 822,818 821,819 821,820 820,821 820,822 817,825 817,826 816,827 816,828 814,830 814,831 812,833 812,834 809,837 809,838 802,845 802,846 799,849 799,850 796,853 796,854 792,858 792,859 791,860 791,861 790,862 790,863 788,865 788,866 787,867 787,869 786,870 786,871 784,873 784,875 783,876 783,877 782,878 782,879 781,880 781,881 780,882 780,883 779,884 779,887 777,889 777,890 776,891 776,893 775,894 775,895 772,898 772,899 770,901 769,901 764,906 764,907 762,909 762,910 761,911 761,913 760,914 760,915 759,916 759,917 758,918 758,919 757,920 757,921 756,922 756,923 754,925 754,926 753,927 753,928 752,929 752,930 751,931 751,933 750,934 750,952 749,953 749,958 748,959 748,960 747,961 747,963 746,964 746,968 745,969 745,973 744,974 744,976 743,977 743,982 742,983 742,988 741,989 741,992 740,993 740,996 739,997 739,1001 738,1002 738,1006 737,1007 737,1008 736,1009 736,1011 735,1012 735,1014 734,1015 734,1018 733,1019 733,1020 732,1021 732,1022 731,1023 731,1026 730,1027 730,1028 729,1029 729,1030 728,1031 728,1032 727,1033 727,1036 726,1037 726,1039 725,1040 725,1042 724,1043 724,1046 723,1047 723,1052 722,1053 722,1055 721,1056 721,1058 720,1059 720,1062 718,1064 718,1065 716,1067 716,1069 715,1070 715,1071 713,1073 713,1075 712,1076 712,1079 982,1079 982,1078 981,1077 981,1075 980,1074 980,1073 979,1072 979,1071 978,1070 978,1065 977,1064 977,1062 976,1061 976,1060 975,1059 975,1056 974,1055 974,1052 973,1051 973,1050 972,1049 972,1048 971,1047 971,1044 970,1043 970,1040 969,1039 969,1038 968,1037 968,1035 967,1034 967,1031 966,1030 966,1028 965,1027 965,1026 964,1025 964,1023 963,1022 963,1018 962,1017 962,1014 961,1013 961,1011 960,1010 960,1007 959,1006 959,1003 958,1002 958,1001 957,1000 957,999 956,998 956,997 955,996 955,994 954,993 954,992 953,991 953,990 952,989 952,987 951,986 951,984 950,983 950,982 948,980 948,978 947,977 947,976 937,966 937,965 936,964 936,963 934,961 934,959 933,958 933,956 932,955 932,954 931,953 931,952 930,951 930,947 929,946 929,943 928,942 928,941 927,940 927,939 926,938 926,937 925,936 925,935 924,934 924,933 923,932 923,931 922,930 922,929 921,928 921,927 920,926 920,925 919,924 919,923 918,922 918,921 917,920 917,919 916,918 916,917 915,916 915,915 914,914 914,912 913,911 913,910 912,909 912,906 911,905 911,895 912,894 912,890 913,889 913,885 914,884 914,874 915,873 915,865 914,864 914,848 913,847 913,844 912,843 912,842 911,841 911,839 910,838 910,834 909,833 909,832 908,831 908,830 907,829 907,828 906,827 906,825 905,824 905,823 904,822 904,821 903,820 903,818 902,817 902,815 900,813 900,811 899,810 899,808 898,807 898,805 897,804 897,803 896,802 896,800 895,799 895,795 894,794 894,793 893,792 893,790 892,789 892,787 891,786 891,783 890,782 890,781 889,780 889,778 888,777 888,774 887,773 887,772 886,771 886,770 884,768 884,767 883,766 883,765 879,761 879,760 878,759 Z" fill="black" stroke="none" /><path d="M812,465 811,466 811,467 810,468 810,470 809,471 809,472 808,473 808,475 807,476 807,481 806,482 806,488 805,489 805,491 804,492 804,500 804,498 805,497 805,496 807,494 809,496 809,499 810,500 810,503 811,504 811,507 812,508 812,509 813,510 813,511 814,512 814,514 813,515 812,515 811,516 811,517 810,518 810,519 809,520 809,521 808,522 808,523 807,524 807,525 806,526 807,527 808,526 808,525 809,524 810,524 811,523 812,523 813,522 813,521 815,519 815,516 814,516 813,515 814,514 815,514 816,513 818,513 819,512 819,506 820,505 820,503 821,502 821,495 820,494 820,487 821,486 821,485 820,484 820,475 819,474 819,470 817,468 817,467 815,465 Z" fill="black" stroke="none" /><path d="M0,0 0,1079 650,1079 650,1077 651,1076 651,1066 652,1065 652,1049 653,1048 653,1035 654,1034 654,1030 655,1029 655,1024 656,1023 656,1015 657,1014 657,1008 658,1007 658,1000 659,999 659,985 660,984 660,977 661,976 661,973 662,972 662,969 663,968 663,965 664,964 664,962 665,961 665,959 666,958 666,951 667,950 667,942 668,941 668,932 669,931 669,926 670,925 670,920 671,919 671,914 672,913 672,910 673,909 673,904 674,903 674,897 675,896 675,888 676,887 676,885 677,884 677,883 678,882 678,881 679,880 679,879 681,877 681,876 683,874 683,873 684,872 684,871 685,870 685,867 686,866 686,860 687,859 687,858 688,857 688,855 689,854 689,850 690,849 690,847 691,846 691,843 692,842 692,836 693,835 693,828 694,827 694,824 695,823 695,822 696,821 696,818 697,817 697,813 698,812 698,810 699,809 699,806 700,805 700,768 699,767 699,747 698,746 698,742 697,741 697,739 696,738 696,735 695,734 695,726 696,725 696,715 697,714 697,708 698,707 698,689 699,688 699,683 700,682 700,671 701,670 701,665 702,664 702,661 703,660 703,657 704,656 704,645 705,644 705,639 706,638 706,634 707,633 707,627 706,626 706,623 705,622 705,619 704,618 704,611 705,610 705,607 706,606 706,604 707,603 707,602 708,601 708,597 709,596 709,593 710,592 710,591 711,590 711,588 712,587 712,582 713,581 713,579 714,578 714,577 715,576 715,573 716,572 716,569 717,568 717,566 718,565 718,562 719,561 719,554 720,553 720,549 721,548 721,547 722,546 722,543 723,542 723,537 724,536 724,534 725,533 725,532 726,531 726,525 727,524 727,497 726,496 726,477 727,476 727,469 728,468 728,466 729,465 729,463 730,462 730,457 731,456 731,452 732,451 732,450 733,449 733,445 734,444 734,436 735,435 735,432 736,431 736,428 737,427 737,421 738,420 738,416 739,415 739,413 740,412 740,407 741,406 741,401 742,400 742,398 743,397 743,396 744,395 744,391 745,390 745,388 746,387 746,385 747,384 747,382 748,381 748,375 749,374 749,371 751,369 751,368 752,367 752,365 753,364 753,362 754,361 754,360 755,359 755,358 756,357 756,356 757,355 757,354 759,352 759,351 764,346 764,345 765,344 766,344 767,343 767,342 769,340 770,340 771,339 771,338 772,337 773,337 797,313 797,312 802,307 802,306 817,291 817,290 818,289 818,288 820,286 820,283 821,282 821,274 820,273 820,271 819,270 819,269 818,268 818,267 817,266 817,265 816,264 816,263 815,262 815,261 813,259 813,258 810,255 810,254 809,253 809,252 806,249 806,248 805,247 805,245 803,243 803,242 802,241 802,240 801,239 801,236 800,235 800,234 799,233 799,232 798,231 798,229 797,228 797,226 796,225 796,224 795,223 795,222 794,221 794,220 793,219 793,218 790,215 790,214 788,212 788,211 787,210 787,209 786,208 786,207 785,206 785,205 784,204 784,203 783,202 783,199 782,198 782,194 781,193 781,187 780,186 780,173 781,172 781,169 782,168 782,166 783,165 783,164 785,162 785,161 794,152 794,151 807,138 808,138 811,135 812,135 814,133 815,133 817,131 818,131 819,130 820,130 821,129 822,129 823,128 824,128 825,127 827,127 828,126 830,126 832,124 834,124 835,123 844,123 845,124 850,124 851,125 853,125 854,126 861,126 862,125 865,125 866,124 881,124 882,125 883,125 884,126 887,126 888,127 890,127 891,128 892,128 894,130 895,130 898,133 899,133 901,135 902,135 904,137 905,137 906,138 907,138 910,141 911,141 912,142 913,142 916,145 917,145 924,152 924,153 929,158 929,159 931,161 931,162 932,163 932,164 933,165 933,166 935,168 935,169 936,170 936,172 937,173 937,178 938,179 938,182 937,183 937,187 936,188 936,191 935,192 935,196 934,197 934,202 933,203 933,206 932,207 932,208 931,209 931,210 930,211 930,212 928,214 928,215 927,216 927,217 926,218 926,220 925,221 925,223 924,224 924,225 923,226 923,229 922,230 922,233 920,235 920,236 919,237 919,239 918,240 918,241 917,242 917,244 916,245 916,247 917,248 917,254 918,255 918,256 919,256 920,257 925,257 926,258 930,258 931,259 932,259 934,261 935,261 936,262 937,262 942,267 942,268 946,272 947,272 948,273 949,273 950,274 954,274 956,276 957,276 958,277 963,277 964,278 965,278 966,279 967,279 968,280 969,280 973,284 975,284 976,285 977,285 979,287 980,287 981,288 982,288 985,291 986,291 990,295 991,295 995,299 996,299 997,300 998,300 1001,303 1002,303 1005,306 1006,306 1007,307 1009,307 1010,308 1011,308 1012,309 1013,309 1014,310 1016,310 1017,311 1019,311 1022,314 1025,314 1028,317 1029,317 1030,318 1031,318 1032,319 1033,319 1036,322 1037,322 1046,331 1046,332 1050,336 1050,337 1053,340 1053,341 1054,342 1054,343 1057,346 1057,347 1058,348 1058,349 1059,350 1059,351 1061,353 1061,354 1062,355 1062,356 1063,357 1063,358 1065,360 1065,362 1066,363 1066,364 1068,366 1068,367 1069,368 1069,370 1070,371 1070,372 1072,374 1072,375 1073,376 1073,377 1074,378 1074,379 1076,381 1076,382 1077,383 1077,384 1078,385 1078,386 1080,388 1080,392 1081,393 1081,397 1082,398 1082,399 1083,400 1083,401 1084,402 1084,407 1085,408 1085,415 1086,416 1086,418 1087,419 1087,421 1088,422 1088,431 1089,432 1089,434 1090,435 1090,437 1091,438 1091,443 1092,444 1092,450 1093,451 1093,454 1094,455 1094,457 1095,458 1095,462 1096,463 1096,471 1097,472 1097,474 1098,475 1098,476 1099,477 1099,482 1100,483 1100,487 1101,488 1101,490 1102,491 1102,497 1103,498 1103,528 1102,529 1102,602 1101,603 1101,606 1100,607 1100,610 1099,611 1099,616 1098,617 1098,621 1097,622 1097,623 1096,624 1096,627 1095,628 1095,636 1094,637 1094,643 1093,644 1093,647 1092,648 1092,652 1091,653 1091,662 1090,663 1090,665 1089,666 1089,667 1088,668 1088,669 1082,675 1081,675 1080,676 1080,694 1079,695 1079,696 1077,698 1076,698 1075,699 1074,699 1073,700 1070,700 1069,699 1066,699 1065,698 1064,698 1063,697 1062,697 1061,696 1059,696 1057,694 1056,694 1055,693 1053,693 1052,692 1050,692 1049,691 1048,691 1047,690 1045,690 1044,689 1042,689 1041,688 1040,688 1037,685 1036,685 1031,680 1031,679 1030,678 1030,677 1029,676 1030,675 1030,672 1031,671 1031,668 1032,667 1032,666 1033,665 1033,660 1034,659 1034,646 1033,645 1033,628 1034,627 1034,618 1035,617 1035,614 1036,613 1036,602 1037,601 1038,601 1040,599 1040,596 1039,595 1039,579 1038,578 1038,577 1037,576 1036,576 1035,577 1033,577 1029,581 1028,581 1026,583 1025,583 1025,584 1023,586 1023,591 1022,592 1022,598 1021,599 1021,603 1020,604 1020,606 1019,607 1019,608 1018,609 1019,610 1019,612 1020,613 1020,614 1021,615 1021,619 1022,620 1022,621 1024,623 1024,625 1025,626 1025,643 1024,644 1024,646 1025,647 1025,664 1026,665 1026,671 1027,672 1027,675 1026,676 1026,678 1025,679 1025,686 1024,687 1024,713 1023,714 1023,747 1022,748 1022,752 1021,753 1021,757 1020,758 1020,765 1019,766 1019,770 1018,771 1018,773 1017,774 1017,779 1016,780 1016,796 1015,797 1015,805 1014,806 1014,812 1013,813 1013,824 1012,825 1012,844 1011,845 1011,848 1012,849 1012,866 1011,867 1011,878 1010,879 1010,881 1009,882 1009,886 1008,887 1008,889 1007,890 1007,891 1006,892 1006,906 1007,907 1007,911 1008,912 1008,915 1009,916 1009,918 1010,919 1010,921 1011,922 1011,923 1012,924 1012,926 1013,927 1013,928 1015,930 1015,931 1016,932 1016,933 1017,934 1017,935 1019,937 1019,939 1020,940 1020,942 1021,943 1021,946 1022,947 1022,950 1023,951 1023,955 1024,956 1024,958 1026,960 1026,962 1027,963 1027,966 1028,967 1028,969 1029,970 1029,971 1030,972 1030,975 1031,976 1031,980 1032,981 1032,983 1033,984 1033,986 1034,987 1034,992 1035,993 1035,997 1036,998 1036,1001 1037,1002 1037,1005 1038,1006 1038,1013 1039,1014 1039,1020 1040,1021 1040,1024 1041,1025 1041,1028 1042,1029 1042,1034 1043,1035 1043,1041 1044,1042 1044,1045 1045,1046 1045,1052 1046,1053 1046,1064 1047,1065 1047,1069 1048,1070 1048,1075 1049,1076 1049,1079 1919,1079 1919,0 Z" fill="black" stroke="none" /></svg>