<?xml version="1.0" encoding="utf-8" ?>
<svg baseProfile="tiny" height="1080px" version="1.2" viewBox="0,0,1920,1080" width="1920px" xmlns="http://www.w3.org/2000/svg" xmlns:ev="http://www.w3.org/2001/xml-events" xmlns:xlink="http://www.w3.org/1999/xlink"><defs /><path d="M1084,1077 1083,1078 1081,1078 1081,1079 1091,1079 1091,1078 1088,1078 1087,1077 Z" fill="black" stroke="none" /><path d="M875,705 874,706 869,706 868,707 867,707 866,708 865,708 864,709 863,709 862,710 861,710 859,712 858,712 857,713 856,713 855,714 854,714 853,715 852,715 850,717 849,717 847,719 846,719 844,721 843,721 841,723 840,723 839,724 838,724 835,727 834,727 831,730 830,730 828,732 827,732 824,735 823,735 815,743 814,743 796,761 795,761 794,762 794,763 793,764 792,764 779,777 779,778 773,784 773,785 772,786 772,788 769,791 769,792 768,793 768,794 766,796 766,797 765,798 765,799 764,800 764,801 763,802 762,802 762,803 758,807 758,808 753,813 752,813 746,819 746,820 742,824 742,825 738,829 737,829 735,831 735,832 732,835 732,838 731,839 731,848 730,849 730,850 728,852 728,854 727,855 727,857 724,860 724,866 723,867 723,874 722,875 722,877 721,878 721,880 720,881 720,892 719,893 719,898 718,899 718,901 717,902 717,904 716,905 716,914 715,915 715,917 714,918 714,919 713,920 713,923 712,924 712,929 711,930 711,932 709,934 709,939 708,940 708,944 707,945 707,946 706,947 706,948 705,949 705,954 704,955 704,958 703,959 703,960 702,961 702,963 701,964 701,969 700,970 700,971 699,972 699,973 698,974 698,976 697,977 697,981 696,982 696,983 695,984 695,985 694,986 694,989 693,990 693,994 692,995 692,996 690,998 690,1000 689,1001 689,1002 687,1004 687,1005 686,1006 686,1009 685,1010 685,1011 684,1012 684,1014 683,1015 683,1028 684,1029 684,1035 685,1036 685,1049 686,1050 686,1054 687,1055 687,1057 689,1059 689,1062 690,1063 690,1069 689,1070 689,1074 688,1075 688,1076 687,1077 687,1079 1067,1079 1067,1078 1065,1076 1065,1075 1064,1074 1064,1060 1065,1059 1065,1043 1066,1042 1066,1041 1067,1040 1067,1038 1068,1037 1068,1007 1067,1006 1067,1005 1065,1003 1065,1002 1064,1001 1064,1000 1061,997 1061,996 1060,995 1060,993 1058,991 1058,990 1057,989 1057,987 1056,986 1056,984 1054,982 1054,981 1053,980 1053,978 1052,977 1052,976 1050,974 1050,973 1049,972 1049,968 1048,967 1048,966 1046,964 1046,962 1045,961 1045,957 1044,956 1044,955 1043,954 1043,953 1042,952 1042,950 1041,949 1041,946 1040,945 1040,944 1039,943 1039,942 1038,941 1038,937 1037,936 1037,934 1035,932 1035,930 1034,929 1034,925 1033,924 1033,923 1031,921 1031,918 1030,917 1030,911 1029,910 1029,909 1028,908 1028,907 1027,906 1027,900 1026,899 1026,894 1025,893 1025,892 1024,891 1024,890 1023,889 1023,879 1022,878 1022,875 1020,873 1020,870 1019,869 1019,863 1018,862 1018,860 1016,858 1016,857 1015,856 1015,855 1014,854 1014,853 1013,852 1013,851 1012,850 1012,846 1011,845 1011,841 1009,839 1009,838 1008,837 1008,835 1004,831 1004,830 997,823 996,823 995,822 994,822 993,821 991,821 988,818 987,818 982,813 981,813 979,811 979,810 977,808 977,807 975,805 975,804 974,803 974,801 972,799 972,798 966,792 966,791 965,791 963,789 963,788 955,780 955,779 951,775 951,774 948,771 948,770 947,769 947,768 945,766 945,765 944,764 944,763 943,762 943,761 941,759 941,758 940,757 940,756 939,755 939,754 937,752 937,751 936,750 936,749 935,748 935,747 933,745 933,743 931,741 931,740 929,738 929,737 925,733 925,732 916,723 915,723 914,722 914,721 913,721 911,719 910,719 906,715 905,715 903,713 902,713 900,711 899,711 898,710 897,710 896,709 895,709 894,708 893,708 892,707 891,707 890,706 888,706 887,705 Z" fill="black" stroke="none" /><path d="M932,327 932,329 931,330 931,338 930,339 931,340 931,341 935,341 936,340 936,330 935,329 935,327 Z" fill="black" stroke="none" /><path d="M939,317 939,319 Z" fill="black" stroke="none" /><path d="M935,301 934,302 935,302 Z" fill="black" stroke="none" /><path d="M912,279 912,283 913,283 914,284 920,284 921,283 921,281 919,279 Z" fill="black" stroke="none" /><path d="M0,0 0,1079 592,1079 592,1073 593,1072 593,1070 596,1067 596,1066 601,1061 603,1061 604,1060 607,1060 608,1059 610,1059 611,1058 613,1058 614,1057 617,1057 633,1041 633,1040 636,1037 636,1035 637,1034 637,1033 638,1032 638,1031 640,1029 640,1025 641,1024 641,1022 643,1020 643,1019 644,1018 644,1010 645,1009 645,1001 644,1000 644,975 645,974 645,966 646,965 646,959 647,958 647,947 648,946 648,923 649,922 649,914 650,913 650,909 651,908 651,898 652,897 652,869 653,868 653,863 654,862 654,858 655,857 655,850 656,849 656,845 657,844 657,842 658,841 658,834 659,833 659,824 660,823 660,820 662,818 662,817 663,816 663,815 666,812 666,809 667,808 667,800 668,799 668,797 669,796 669,794 670,793 670,787 671,786 671,781 672,780 672,779 673,778 673,777 674,776 674,775 681,768 681,767 682,766 682,765 684,763 684,762 685,761 685,760 686,759 686,756 688,754 688,752 689,751 689,747 690,746 690,745 691,744 691,743 692,742 692,741 693,740 693,737 694,736 694,735 696,733 696,731 697,730 697,729 698,728 698,727 700,725 700,723 701,722 701,721 703,719 703,718 704,717 704,715 705,714 705,713 708,710 708,709 709,708 709,707 711,705 711,704 712,703 712,702 714,700 714,699 716,697 716,696 717,695 717,694 719,692 719,691 722,688 722,687 723,686 723,685 726,682 726,681 727,680 727,679 729,677 729,676 731,674 731,673 734,670 734,669 735,668 735,667 738,664 738,663 739,662 739,661 742,658 742,657 744,655 744,654 745,653 745,652 746,651 746,650 749,647 749,645 750,644 750,643 752,641 752,639 753,638 753,632 754,631 754,629 755,628 755,627 756,626 756,622 757,621 757,613 758,612 758,611 759,610 759,609 760,608 760,606 761,605 761,601 762,600 762,598 764,596 764,595 765,594 765,592 767,590 767,589 768,588 768,587 769,586 769,585 771,583 771,577 770,576 770,568 769,567 769,566 768,565 768,564 767,563 767,562 763,558 762,558 759,555 758,555 735,532 735,531 733,529 733,528 731,526 731,525 730,524 730,523 728,521 728,520 727,519 727,518 726,517 726,516 725,515 725,514 724,513 724,511 723,510 723,509 722,508 722,506 721,505 721,504 720,503 720,499 719,498 719,495 718,494 718,490 717,489 717,483 718,482 718,479 719,478 719,473 720,472 720,465 721,464 721,463 722,462 722,461 723,460 723,455 724,454 724,452 725,451 725,450 726,449 726,447 727,446 727,440 728,439 728,438 729,437 729,436 730,435 730,432 731,431 731,427 732,426 732,425 733,424 733,423 734,422 734,418 735,417 735,414 737,412 737,410 738,409 738,406 739,405 739,403 740,402 740,401 741,400 741,398 742,397 742,395 743,394 743,393 744,392 744,391 745,390 745,388 746,387 746,385 747,384 747,383 749,381 749,379 750,378 750,376 751,375 751,374 752,373 752,371 753,370 753,368 754,367 754,366 755,365 755,364 756,363 756,362 757,361 757,359 758,358 758,357 759,356 759,355 760,354 760,352 761,351 761,350 762,349 762,348 763,347 763,346 764,345 764,343 765,342 765,340 767,338 767,337 768,336 768,334 769,333 769,332 770,331 770,330 772,328 772,326 774,324 774,323 783,314 784,314 788,310 789,310 793,306 794,306 795,305 796,305 797,304 798,304 799,303 805,303 806,302 815,302 816,301 820,301 821,300 823,300 824,299 826,299 827,298 829,298 830,297 831,297 832,296 833,296 834,295 835,296 836,296 837,297 838,297 839,298 845,298 848,295 848,294 852,290 854,290 855,291 857,291 858,290 859,290 860,289 860,288 862,286 862,285 865,282 866,282 869,279 870,279 872,277 874,277 875,276 876,276 878,274 879,274 880,273 881,273 882,272 883,272 885,270 886,270 887,269 889,269 890,268 892,268 893,267 894,267 895,266 898,266 899,265 901,265 902,264 904,264 905,263 906,263 907,264 908,264 909,265 917,265 918,264 923,264 924,263 929,263 930,264 935,264 936,263 936,262 939,259 950,259 952,261 953,261 956,264 956,265 961,270 961,271 964,274 964,275 966,277 966,278 974,286 974,287 977,290 977,291 980,294 980,295 981,296 981,297 982,298 982,300 983,301 983,304 984,305 984,325 985,326 985,328 986,329 986,334 984,336 984,337 982,339 982,345 983,346 983,348 981,350 980,350 977,353 976,353 975,354 975,355 974,356 974,357 973,358 973,359 972,360 972,362 969,365 969,366 968,367 968,368 967,369 968,370 968,373 969,374 970,374 971,375 978,375 979,376 980,376 982,378 982,379 983,380 983,384 984,385 985,385 989,389 989,395 986,398 984,398 983,397 982,397 980,395 979,395 977,393 977,392 975,390 975,389 974,388 974,387 970,383 969,383 966,380 965,380 965,381 964,382 964,384 965,385 965,386 972,393 972,394 976,398 976,399 978,401 978,402 979,403 979,404 980,405 980,406 983,409 983,410 984,411 984,412 987,415 987,416 990,419 990,420 991,421 991,422 993,424 993,425 994,426 994,427 995,428 995,429 996,430 996,431 997,432 997,434 998,435 998,439 999,440 999,441 1000,442 1000,443 1001,444 1001,446 1002,447 1002,452 1003,453 1003,456 1004,457 1004,460 1005,461 1005,464 1006,465 1006,467 1007,468 1007,469 1009,471 1009,472 1012,475 1012,476 1014,478 1014,479 1017,482 1017,483 1019,485 1019,486 1020,487 1020,494 1021,495 1021,501 1023,503 1023,504 1024,505 1024,507 1026,509 1026,510 1027,511 1027,516 1028,517 1028,522 1029,523 1029,531 1028,532 1028,539 1027,540 1027,552 1028,553 1028,561 1027,562 1027,569 1026,570 1026,575 1025,576 1025,578 1024,579 1024,580 1023,581 1023,583 1022,584 1022,585 1015,592 1014,592 1011,595 1010,595 1009,596 1007,596 1006,597 1004,597 1003,598 1002,598 1001,599 999,599 998,600 996,600 995,601 993,601 992,602 991,602 989,604 989,606 988,607 988,613 989,614 989,617 990,618 990,621 991,622 991,624 992,625 992,626 993,627 993,628 994,629 994,632 995,633 995,636 996,637 996,639 997,640 997,642 998,643 998,644 1009,655 1009,656 1016,663 1016,664 1019,667 1019,668 1021,670 1021,671 1024,674 1024,675 1026,677 1026,678 1027,679 1027,682 1028,683 1028,686 1029,687 1029,690 1030,691 1030,699 1031,700 1031,711 1032,712 1032,714 1033,715 1033,716 1034,717 1034,719 1035,720 1035,723 1036,724 1036,725 1038,727 1038,729 1039,730 1039,732 1040,733 1040,734 1041,735 1041,736 1042,737 1042,740 1043,741 1043,742 1044,743 1044,744 1045,745 1045,747 1046,748 1046,751 1047,752 1047,753 1049,755 1049,756 1050,757 1050,758 1051,759 1051,760 1052,761 1052,762 1053,763 1053,765 1054,766 1054,769 1055,770 1055,773 1056,774 1056,776 1057,777 1057,780 1058,781 1058,784 1060,786 1060,787 1061,788 1061,789 1062,790 1063,790 1064,791 1064,792 1065,793 1065,794 1066,795 1066,796 1068,798 1068,799 1069,800 1069,801 1070,802 1071,802 1073,804 1073,806 1074,807 1074,809 1075,810 1075,816 1076,817 1076,822 1077,823 1077,825 1079,827 1079,829 1080,830 1080,834 1081,835 1081,836 1082,837 1082,838 1083,839 1083,841 1084,842 1084,845 1085,846 1085,847 1086,848 1086,849 1087,850 1087,857 1088,858 1088,863 1089,864 1089,865 1090,866 1090,869 1091,870 1091,879 1092,880 1092,885 1093,886 1093,888 1094,889 1094,894 1095,895 1095,909 1096,910 1096,913 1097,914 1097,916 1098,917 1098,924 1099,925 1099,942 1100,943 1100,947 1101,948 1101,950 1102,951 1102,965 1103,966 1103,977 1104,978 1104,980 1105,981 1105,986 1106,987 1106,1000 1107,1001 1107,1003 1109,1005 1109,1007 1110,1008 1110,1014 1111,1015 1111,1016 1112,1017 1112,1018 1113,1019 1113,1022 1114,1023 1114,1027 1115,1028 1115,1029 1116,1030 1116,1031 1117,1032 1117,1037 1118,1038 1118,1041 1120,1043 1120,1044 1121,1045 1121,1048 1124,1051 1124,1052 1125,1053 1125,1054 1128,1057 1128,1058 1137,1067 1138,1067 1142,1071 1142,1072 1143,1073 1143,1079 1919,1079 1919,0 Z" fill="black" stroke="none" /></svg>