<?xml version="1.0" encoding="utf-8" ?>
<svg baseProfile="tiny" height="1080px" version="1.2" viewBox="0,0,1920,1080" width="1920px" xmlns="http://www.w3.org/2000/svg" xmlns:ev="http://www.w3.org/2001/xml-events" xmlns:xlink="http://www.w3.org/1999/xlink"><defs /><path d="M660,1078 660,1079 662,1079 662,1078 Z" fill="black" stroke="none" /><path d="M0,0 0,1079 636,1079 636,1078 634,1076 633,1076 632,1075 627,1075 626,1074 627,1073 629,1073 630,1072 632,1072 636,1068 637,1068 638,1067 640,1067 641,1066 648,1066 649,1065 652,1065 653,1064 660,1064 661,1065 663,1065 664,1066 665,1066 666,1067 667,1067 668,1068 669,1068 670,1069 670,1074 669,1075 669,1076 667,1078 667,1079 1915,1079 1915,1078 1918,1075 1919,1075 1919,0 Z" fill="black" stroke="none" /></svg>