<?xml version="1.0" encoding="utf-8" ?>
<svg baseProfile="tiny" height="1024px" version="1.2" viewBox="0,0,683,1024" width="683px" xmlns="http://www.w3.org/2000/svg" xmlns:ev="http://www.w3.org/2001/xml-events" xmlns:xlink="http://www.w3.org/1999/xlink"><defs /><path d="M90,567 88,569 87,569 86,570 86,573 87,574 87,576 88,577 88,581 89,582 89,583 90,584 90,586 92,588 92,589 93,590 93,591 94,592 94,594 97,597 99,597 102,594 102,593 103,592 103,580 102,579 102,577 101,576 101,575 100,574 100,573 98,571 98,570 96,568 95,568 94,567 Z" fill="black" stroke="none" /><path d="M369,307 369,308 368,309 368,310 369,310 371,308 371,307 Z" fill="black" stroke="none" /><path d="M449,247 448,248 447,248 446,249 445,249 444,250 444,251 443,252 443,253 442,254 442,257 443,258 443,260 448,265 450,265 451,264 451,263 452,262 452,261 453,260 453,254 452,253 452,250 Z" fill="black" stroke="none" /><path d="M237,218 236,219 234,219 233,220 228,220 227,221 222,221 221,222 219,222 217,224 216,224 213,227 212,227 208,231 208,232 207,233 207,234 204,237 204,238 197,245 197,246 196,247 196,250 195,251 195,264 196,265 196,273 197,274 197,278 198,279 198,286 199,287 199,290 200,291 200,295 201,296 201,298 202,299 202,305 199,308 198,308 196,310 195,310 193,312 192,312 183,321 183,322 182,323 182,325 181,326 181,328 179,330 178,330 176,332 173,332 172,331 167,331 166,332 159,332 158,333 157,333 156,334 155,334 154,335 153,335 152,336 152,337 151,338 151,339 150,340 150,341 148,343 147,343 144,346 143,346 142,347 141,347 140,348 139,348 138,349 137,349 136,350 135,350 134,351 132,351 131,352 129,352 128,353 127,353 122,358 121,358 118,361 118,362 117,363 117,364 116,365 116,366 115,367 115,369 114,370 114,371 113,372 113,373 112,374 112,377 111,378 111,379 110,380 110,381 109,382 109,383 108,384 108,385 107,386 107,388 106,389 106,394 105,395 105,398 104,399 104,401 103,402 103,404 102,405 102,406 101,407 101,408 100,409 100,410 99,411 99,413 98,414 98,418 97,419 97,436 98,437 98,445 99,446 99,448 100,449 103,449 104,448 107,448 108,447 109,447 110,446 112,446 114,448 115,448 116,449 129,449 131,451 131,453 130,454 130,456 129,457 129,458 128,459 128,460 127,461 127,462 125,464 125,466 124,467 124,468 123,469 123,470 122,471 122,473 121,474 121,475 120,476 120,478 119,479 119,480 118,481 118,482 117,483 117,486 116,487 116,489 115,490 115,492 114,493 114,498 113,499 113,501 112,502 112,503 111,504 111,505 109,507 106,507 105,506 100,506 95,501 94,501 93,500 92,500 91,501 90,501 89,502 87,502 85,504 85,507 86,508 86,509 88,511 88,512 89,513 89,514 90,515 90,516 91,517 91,518 92,519 92,520 94,522 94,523 100,529 100,531 101,532 101,535 102,536 102,540 103,541 103,543 104,544 104,548 105,549 105,551 106,552 106,555 107,556 107,557 108,558 108,562 109,563 109,565 110,566 110,568 111,569 111,570 112,571 112,575 113,576 113,577 114,578 114,580 115,581 115,582 116,583 116,585 117,586 117,591 118,592 118,600 119,601 119,603 120,604 120,609 121,610 121,611 122,612 122,615 123,616 123,617 124,618 124,620 125,621 125,622 126,623 126,624 127,625 127,626 135,634 136,634 138,636 139,636 140,637 141,637 142,638 146,638 147,639 148,639 150,641 150,642 151,643 151,644 152,645 152,653 153,654 153,656 154,657 154,665 155,666 155,669 156,670 156,682 157,683 157,686 158,687 158,694 159,695 159,697 160,698 160,705 161,706 161,708 162,709 162,714 163,715 163,717 164,718 164,731 165,732 165,735 166,736 166,747 167,748 167,752 168,753 168,771 167,772 167,774 166,775 166,783 167,784 167,787 168,788 168,835 169,836 169,841 170,842 170,856 171,857 171,863 172,864 172,868 173,869 173,870 174,871 174,874 175,875 175,877 176,878 176,895 177,896 177,897 178,898 178,899 179,900 179,901 180,902 180,903 181,904 181,905 182,906 182,913 183,914 183,917 184,918 184,924 185,925 185,926 186,927 186,930 187,931 187,932 188,933 188,945 187,946 187,948 186,949 186,962 185,963 185,964 184,965 184,967 175,976 175,978 174,979 174,985 173,986 173,991 174,992 174,996 175,997 175,1002 176,1003 176,1005 175,1006 175,1009 176,1010 176,1011 179,1014 181,1014 185,1018 189,1018 190,1017 191,1017 192,1016 192,1015 190,1013 190,1012 189,1011 189,1008 190,1007 192,1007 193,1006 195,1006 196,1007 202,1007 203,1008 207,1008 208,1007 211,1007 212,1006 213,1006 214,1005 216,1005 217,1004 219,1004 220,1005 220,1006 221,1007 221,1009 222,1010 222,1017 219,1020 220,1021 220,1022 221,1023 257,1023 257,1019 255,1017 255,1016 253,1014 253,1008 252,1007 252,1001 251,1000 251,992 252,991 252,990 251,989 251,981 250,980 250,977 249,976 249,975 248,974 248,973 247,972 247,971 246,970 246,967 242,963 244,961 247,961 248,960 251,960 252,959 255,959 256,958 257,958 259,956 259,948 258,947 258,945 256,943 256,942 253,939 253,938 252,937 252,935 251,934 251,929 250,928 250,924 249,923 249,915 248,914 248,908 247,907 247,906 248,905 248,894 249,893 249,890 250,889 250,887 251,886 251,883 252,882 252,880 253,879 253,876 254,875 254,873 255,872 255,870 256,869 256,868 258,866 258,864 259,863 259,862 260,861 260,859 261,858 261,856 262,855 262,854 265,851 265,844 264,843 264,837 265,836 265,835 266,834 266,832 267,831 267,829 268,828 268,826 269,825 269,817 270,816 270,811 271,810 271,804 272,803 272,801 273,800 273,796 274,795 274,793 275,792 275,787 276,786 276,781 277,780 277,767 278,766 278,759 279,758 279,748 280,747 280,733 279,732 279,727 278,726 278,725 279,724 279,698 280,697 280,691 281,690 281,683 282,682 282,678 283,677 283,669 284,668 284,660 285,659 285,636 286,635 286,616 287,615 287,614 288,613 288,604 289,603 291,603 292,604 292,605 294,607 294,613 295,614 295,615 296,616 296,621 297,622 297,623 298,624 298,627 299,628 299,629 300,630 300,631 301,632 301,633 302,634 302,635 303,636 303,637 304,638 304,639 306,641 307,641 309,643 310,643 311,644 313,644 314,645 321,645 322,644 323,644 326,641 326,640 328,638 328,637 329,636 329,634 330,633 330,631 331,630 331,626 332,625 332,622 333,621 333,616 334,615 334,611 335,610 335,589 334,588 334,546 333,545 333,537 334,536 334,534 335,533 335,531 336,530 336,512 337,511 337,510 338,509 338,499 339,498 339,496 341,494 343,494 344,495 344,496 345,497 346,497 347,498 347,499 348,499 351,502 351,503 352,504 352,509 353,510 353,519 354,520 354,523 355,524 355,525 356,526 356,527 357,528 357,529 358,530 358,534 359,535 359,546 358,547 358,553 357,554 357,555 356,556 356,558 355,559 355,561 354,562 354,563 353,564 353,565 352,566 352,567 351,568 351,569 350,570 350,572 349,573 349,575 348,576 348,581 347,582 347,591 348,592 348,593 352,597 352,598 353,599 353,601 354,602 354,608 353,609 353,613 352,614 352,616 351,617 351,619 350,620 350,621 349,622 349,624 348,625 348,627 347,628 347,630 346,631 346,634 345,635 345,637 344,638 344,642 343,643 343,654 344,655 344,667 341,670 337,670 337,672 336,673 336,674 335,675 335,677 334,678 334,679 333,680 333,683 332,684 332,687 331,688 331,694 330,695 330,697 329,698 329,701 330,701 331,702 334,702 335,703 336,703 342,709 342,710 343,711 344,711 345,712 346,712 348,714 350,714 351,715 352,715 353,716 355,716 356,717 357,717 361,721 362,721 367,726 367,727 368,728 368,730 369,731 369,733 370,734 370,736 371,737 371,739 372,740 372,741 373,742 373,745 374,746 374,749 375,750 375,756 376,757 376,762 377,763 377,794 376,795 376,802 375,803 375,826 376,827 376,832 377,833 377,839 378,840 378,844 379,845 379,850 380,851 380,854 381,855 381,862 380,863 380,870 379,871 379,873 380,874 380,880 381,881 381,882 384,885 384,886 385,887 385,888 386,889 386,892 387,893 387,898 388,899 388,902 389,903 389,907 390,908 390,913 391,914 391,923 390,924 390,927 389,928 389,930 388,931 388,934 387,935 387,949 388,950 388,951 391,954 391,957 392,958 392,959 391,960 391,962 392,963 392,967 393,968 393,970 395,972 395,973 396,974 396,985 397,986 397,992 398,993 398,1001 399,1002 399,1013 400,1014 400,1017 401,1018 401,1019 402,1020 402,1021 404,1023 435,1023 435,1016 434,1015 434,1013 433,1012 433,997 434,996 434,990 433,989 433,981 432,980 432,955 433,954 433,950 434,949 434,941 435,940 435,938 436,937 436,934 437,933 437,930 438,929 438,922 439,921 439,919 440,918 440,912 441,911 441,910 442,909 442,906 446,902 446,901 448,899 448,881 449,880 449,878 450,877 450,874 451,873 451,870 452,869 452,866 453,865 453,863 454,862 454,858 455,857 455,855 456,854 456,849 457,848 457,843 458,842 458,788 459,787 459,783 460,782 460,774 461,773 461,770 462,769 462,763 463,762 463,760 464,759 464,754 465,753 465,751 466,750 466,748 467,747 467,746 468,745 468,742 469,741 469,740 470,739 470,738 473,735 475,735 477,737 478,737 479,738 479,737 481,735 481,734 482,733 482,732 485,729 486,729 488,727 489,727 490,726 491,726 493,724 493,723 494,722 494,676 497,673 500,673 501,672 503,672 504,671 508,671 509,670 510,670 511,669 517,669 518,668 519,668 520,667 522,667 523,666 523,665 524,664 524,663 526,661 526,660 531,655 531,653 532,652 532,642 533,641 533,639 534,638 534,636 535,635 535,620 536,619 536,615 535,614 535,599 534,598 534,595 533,594 533,591 532,590 532,586 531,585 531,582 530,581 530,579 529,578 529,577 528,576 528,574 527,573 527,555 528,554 528,550 529,549 529,548 540,537 541,537 541,536 547,530 547,529 556,520 556,519 558,517 558,516 560,514 560,513 561,512 561,511 563,509 563,508 564,507 564,505 565,504 565,503 566,502 566,501 567,500 567,499 568,498 568,497 569,496 569,495 570,494 570,493 571,492 571,491 572,490 572,489 574,487 574,486 577,483 578,483 582,479 582,478 583,477 583,470 582,469 582,467 581,466 581,464 580,463 580,462 579,461 579,460 578,459 578,458 577,457 577,456 576,455 576,454 575,453 575,449 576,448 576,442 577,441 577,438 578,437 578,435 579,434 579,432 580,431 580,427 581,426 581,403 578,400 578,398 577,397 575,397 574,398 573,398 571,400 569,400 568,401 567,401 566,402 565,402 565,403 563,405 563,407 562,408 562,417 563,418 563,423 562,424 562,446 558,450 557,450 555,452 554,452 549,457 549,458 547,460 547,463 546,464 546,469 545,470 545,471 544,472 544,473 543,474 543,475 540,478 539,478 538,479 537,479 536,478 534,478 533,479 527,479 524,476 524,474 522,472 522,469 521,468 521,467 520,466 520,462 519,461 519,459 518,458 518,454 517,453 517,451 516,450 516,446 515,445 515,444 514,443 514,439 513,438 513,437 512,436 512,434 511,433 511,431 510,430 510,427 509,426 509,423 510,422 510,420 511,419 511,418 512,417 512,416 513,415 513,414 514,413 514,411 516,409 516,408 517,407 517,406 518,405 518,404 519,403 519,396 518,395 518,390 517,389 517,383 516,382 516,380 515,379 515,378 514,377 513,377 502,366 502,365 500,363 500,362 499,361 499,359 498,358 498,356 497,355 497,354 494,351 494,350 493,350 491,348 490,348 489,347 488,347 486,345 485,345 484,344 482,344 481,343 480,343 479,342 475,342 474,341 473,341 470,338 470,320 471,319 471,311 472,310 472,295 471,294 471,293 470,292 463,292 462,291 461,291 460,290 459,290 458,289 457,289 456,288 455,288 454,287 453,287 452,286 450,286 449,285 447,285 446,284 444,284 443,283 442,283 441,282 439,282 438,281 437,281 436,280 432,280 431,279 428,279 427,278 424,278 423,277 422,277 419,274 419,273 412,266 412,265 411,264 411,260 412,259 412,257 413,256 413,255 416,252 416,251 418,249 418,248 419,247 419,243 418,242 418,240 417,239 417,238 415,236 414,236 413,235 412,236 411,236 411,237 410,238 410,239 409,240 409,242 408,243 408,244 407,245 407,248 406,249 406,263 405,264 405,270 404,271 404,277 405,278 405,279 409,283 409,290 408,291 408,295 407,296 407,298 406,299 406,301 405,302 405,303 404,304 404,306 403,307 403,308 402,309 402,311 401,312 401,313 400,314 400,315 396,319 393,319 392,318 391,318 389,316 386,316 385,315 370,315 367,318 367,320 366,321 366,325 367,326 367,328 368,329 368,330 375,337 375,338 376,339 376,344 375,345 375,347 374,348 374,351 373,352 373,354 372,355 372,356 371,357 371,359 370,360 370,361 369,362 369,368 368,369 368,374 367,375 367,377 366,378 366,384 367,385 367,387 368,388 368,392 369,393 369,397 368,398 368,399 367,400 367,401 366,402 366,406 365,407 365,410 364,411 364,413 363,414 363,418 362,419 362,423 358,427 355,427 354,426 353,426 352,425 349,425 349,426 347,428 347,429 346,430 346,432 345,433 345,437 344,438 344,448 343,449 343,464 342,465 342,470 339,473 337,473 336,472 335,472 334,471 333,471 332,470 331,470 328,467 327,467 325,465 325,464 324,463 324,456 323,455 323,447 322,446 322,440 321,439 321,432 320,431 320,423 319,422 319,418 318,417 318,411 317,410 317,406 316,405 316,400 315,399 315,396 314,395 314,390 313,389 313,387 312,386 312,383 311,382 311,379 310,378 310,376 309,375 309,374 308,373 308,372 305,369 305,368 297,360 296,360 294,358 293,358 292,357 291,357 290,356 289,356 288,355 287,355 286,354 285,354 281,350 280,350 276,346 274,346 272,344 271,344 269,342 264,342 263,341 262,341 261,340 260,340 258,338 258,337 257,336 257,334 256,333 256,331 257,330 257,323 258,322 258,321 259,320 259,315 260,314 260,313 261,312 261,310 263,308 263,306 264,305 264,304 265,303 265,288 266,287 266,286 269,283 269,282 271,280 271,267 272,266 272,265 273,264 274,264 275,263 278,263 279,264 282,264 283,263 284,263 286,261 286,257 285,256 285,253 284,252 284,249 283,248 283,245 282,244 282,243 281,242 281,241 278,238 277,238 274,235 273,235 269,231 268,231 266,229 265,229 263,227 262,227 261,226 260,226 259,225 257,225 256,224 251,224 250,223 249,223 248,222 247,222 245,220 244,220 243,219 240,219 239,218 Z" fill="black" stroke="none" /><path d="M106,186 105,187 102,187 101,188 99,188 98,189 97,189 96,190 95,190 94,191 92,191 91,192 90,192 89,193 88,193 88,196 91,199 92,199 93,200 95,200 96,201 99,201 100,202 106,202 107,201 109,201 110,200 111,200 115,196 115,195 116,194 116,193 117,192 117,191 116,190 116,189 114,187 113,187 112,186 Z" fill="black" stroke="none" /><path d="M149,137 148,138 147,138 144,141 144,144 145,145 145,150 146,151 146,152 148,154 149,154 156,161 157,161 164,168 164,169 169,174 170,174 171,175 172,175 173,176 174,176 175,175 175,166 174,165 174,163 173,162 173,160 172,159 172,158 171,157 171,155 169,153 169,152 168,151 168,150 166,148 166,147 160,141 159,141 157,139 156,139 154,137 Z" fill="black" stroke="none" /><path d="M120,135 119,136 118,136 113,141 112,141 111,142 110,142 109,143 107,143 106,142 101,142 100,143 98,143 97,144 95,144 94,145 93,145 87,151 87,152 86,153 86,154 85,155 85,158 84,159 84,161 86,163 94,163 95,162 98,162 99,161 100,161 102,159 103,159 105,157 106,157 111,152 111,151 113,149 113,148 115,146 129,146 130,145 131,145 134,142 134,140 131,137 130,137 129,136 128,136 127,135 Z" fill="black" stroke="none" /><path d="M62,9 61,10 59,10 58,11 57,11 55,13 55,14 54,15 54,22 55,23 55,24 56,25 56,26 60,30 61,30 62,31 63,31 64,32 68,32 69,33 70,32 75,32 76,31 78,31 79,30 80,30 81,29 82,29 83,28 83,25 82,24 82,23 75,16 75,15 72,12 71,12 69,10 67,10 66,9 Z" fill="black" stroke="none" /><path d="M494,0 493,1 490,1 489,2 485,2 483,4 483,6 484,7 484,8 485,9 487,9 488,10 490,10 491,11 493,11 494,12 496,12 497,13 498,13 499,14 500,14 503,17 503,25 504,26 503,27 503,28 500,31 499,31 497,33 496,33 495,34 495,35 494,36 494,41 493,42 493,43 488,48 488,49 485,52 485,53 478,60 478,61 474,65 474,66 468,72 467,72 465,74 464,74 462,76 461,76 460,77 459,77 458,78 457,78 456,79 455,79 452,82 451,82 451,83 448,86 448,87 446,89 446,90 445,91 445,92 444,93 444,94 443,95 443,96 442,97 442,99 441,100 441,101 439,103 439,105 438,106 438,107 437,108 437,113 438,113 439,114 440,113 444,113 445,112 447,112 448,111 452,111 453,110 456,110 457,111 458,111 462,115 462,116 463,117 463,118 464,119 464,121 465,122 465,128 462,131 461,131 460,132 459,132 456,135 456,140 457,141 459,141 460,140 461,140 463,138 463,137 465,135 465,134 467,132 467,130 468,129 468,128 469,127 469,125 470,124 470,123 472,121 472,120 476,116 477,116 479,114 480,114 481,113 482,113 483,112 485,112 486,111 488,111 489,110 490,110 491,109 492,109 494,107 494,106 495,105 495,104 496,103 496,102 497,101 497,99 498,98 498,94 499,93 499,91 500,90 500,87 501,86 501,84 502,83 502,81 503,80 503,79 504,78 504,77 506,75 507,75 508,74 510,74 511,73 514,73 515,72 516,72 517,71 518,71 523,66 524,66 526,64 527,64 528,63 530,63 531,62 532,62 533,61 533,60 534,59 534,51 533,50 533,45 534,44 534,38 533,37 533,36 532,35 526,35 525,34 523,34 522,33 521,33 513,25 513,24 510,21 510,20 509,19 509,16 510,15 510,14 511,13 511,7 512,6 512,5 514,3 514,2 513,1 513,0 Z" fill="black" stroke="none" /><path d="M103,0 101,2 100,2 100,4 101,5 102,5 104,7 104,8 106,10 106,15 100,21 99,21 97,23 96,23 92,27 92,28 91,29 92,30 92,33 93,34 93,35 95,37 95,38 96,39 96,40 97,41 97,42 99,44 99,45 100,46 100,47 101,48 101,49 102,50 102,52 103,53 103,54 104,55 104,56 105,57 105,59 106,60 106,80 107,81 107,84 108,85 108,87 109,88 109,89 113,93 114,93 115,94 117,94 118,95 119,95 120,94 122,94 124,92 125,92 126,91 128,91 129,90 135,90 136,91 138,91 139,92 140,92 141,93 144,93 146,91 146,90 147,89 147,86 148,85 148,83 149,82 149,80 150,79 150,78 151,77 151,75 152,74 152,71 153,70 153,68 154,67 154,66 158,62 159,62 160,61 161,61 162,60 163,60 164,59 165,59 167,57 168,57 171,54 172,54 175,51 176,51 177,50 178,50 179,49 180,49 181,48 182,48 183,47 183,42 182,41 182,40 181,39 181,38 180,37 180,35 179,34 179,31 178,30 178,24 179,23 179,21 180,20 180,18 181,17 181,16 182,15 182,14 184,12 184,11 188,7 188,6 190,4 190,2 189,2 188,1 188,0 Z" fill="black" stroke="none" /></svg>